<?xml version="1.0" encoding="UTF-8" standalone="no"?><svg xmlns="http://www.w3.org/2000/svg" xmlns:xlink="http://www.w3.org/1999/xlink" contentScriptType="application/ecmascript" contentStyleType="text/css" height="881px" preserveAspectRatio="none" style="width:1497px;height:881px;" version="1.1" viewBox="0 0 1497 881" width="1497px" zoomAndPan="magnify"><defs/><g><!--cluster Client--><rect fill="#FFFFFF" height="199" rx="2" ry="2" style="stroke: #000000; stroke-width: 1.0;" width="257" x="75" y="671"/><text fill="#000000" font-family="Tahoma, sans-serif" font-size="14" font-weight="bold" lengthAdjust="spacingAndGlyphs" textLength="39" x="78" y="687.0068">Client</text><!--cluster Server--><rect fill="#FFFFFF" height="255" rx="2" ry="2" style="stroke: #000000; stroke-width: 1.0;" width="655" x="106" y="63"/><text fill="#000000" font-family="Tahoma, sans-serif" font-size="14" font-weight="bold" lengthAdjust="spacingAndGlyphs" textLength="45" x="109" y="79.0068">Server</text><!--cluster Predefined--><rect fill="#FFFFFF" height="337" rx="2" ry="2" style="stroke: #000000; stroke-width: 1.0;" width="352.5" x="88" y="326"/><text fill="#000000" font-family="Tahoma, sans-serif" font-size="14" font-weight="bold" lengthAdjust="spacingAndGlyphs" textLength="74" x="91" y="342.0068">Predefined</text><!--cluster Mixins--><rect fill="#FFFFFF" height="195" rx="2" ry="2" style="stroke: #000000; stroke-width: 1.0;" width="424.5" x="779.5" y="16"/><text fill="#000000" font-family="Tahoma, sans-serif" font-size="14" font-weight="bold" lengthAdjust="spacingAndGlyphs" textLength="42" x="782.5" y="32.0068">Mixins</text><!--cluster Gestures--><rect fill="#FFFFFF" height="337" rx="2" ry="2" style="stroke: #000000; stroke-width: 1.0;" width="717" x="769" y="219"/><text fill="#000000" font-family="Tahoma, sans-serif" font-size="14" font-weight="bold" lengthAdjust="spacingAndGlyphs" textLength="61" x="772" y="235.0068">Gestures</text><ellipse cx="140.7013" cy="722.9403" fill="#F8F8F8" rx="57.7013" ry="13.9403" style="stroke: #383838; stroke-width: 0.4;"/><text fill="#000000" font-family="Tahoma, sans-serif" font-size="12" lengthAdjust="spacingAndGlyphs" textLength="82" x="99.7013" y="726.6824">ClientController</text><ellipse cx="270.7548" cy="849.242" fill="#F8F8F8" rx="48.2548" ry="13.242" style="stroke: #383838; stroke-width: 0.4;"/><text fill="#000000" font-family="Tahoma, sans-serif" font-size="12" lengthAdjust="spacingAndGlyphs" textLength="64" x="238.7548" y="852.9842">ClientImage</text><ellipse cx="271.098" cy="803.242" fill="#F8F8F8" rx="42.598" ry="13.242" style="stroke: #383838; stroke-width: 0.4;"/><text fill="#000000" font-family="Tahoma, sans-serif" font-size="12" lengthAdjust="spacingAndGlyphs" textLength="56" x="243.098" y="806.9842">ClientItem</text><ellipse cx="140.3406" cy="792.242" fill="#F8F8F8" rx="46.8406" ry="13.242" style="stroke: #383838; stroke-width: 0.4;"/><text fill="#000000" font-family="Tahoma, sans-serif" font-size="12" lengthAdjust="spacingAndGlyphs" textLength="62" x="109.3406" y="795.9842">ClientModel</text><ellipse cx="140.3051" cy="838.242" fill="#F8F8F8" rx="43.3051" ry="13.242" style="stroke: #383838; stroke-width: 0.4;"/><text fill="#000000" font-family="Tahoma, sans-serif" font-size="12" lengthAdjust="spacingAndGlyphs" textLength="57" x="111.8051" y="841.9842">ClientView</text><ellipse cx="270.8909" cy="711.242" fill="#F8F8F8" rx="41.8909" ry="13.242" style="stroke: #383838; stroke-width: 0.4;"/><text fill="#000000" font-family="Tahoma, sans-serif" font-size="12" lengthAdjust="spacingAndGlyphs" textLength="55" x="243.3909" y="714.9842">Interactor</text><ellipse cx="271.2046" cy="757.242" fill="#F8F8F8" rx="53.2046" ry="13.242" style="stroke: #383838; stroke-width: 0.4;"/><text fill="#000000" font-family="Tahoma, sans-serif" font-size="12" lengthAdjust="spacingAndGlyphs" textLength="71" x="235.7046" y="760.9842">ShadowView</text><ellipse cx="271.2193" cy="198.242" fill="#F8F8F8" rx="44.7193" ry="13.242" style="stroke: #383838; stroke-width: 0.4;"/><text fill="#000000" font-family="Tahoma, sans-serif" font-size="12" lengthAdjust="spacingAndGlyphs" textLength="59" x="241.7193" y="201.9842">Application</text><ellipse cx="690.4558" cy="295.242" fill="#F8F8F8" rx="28.4558" ry="13.242" style="stroke: #383838; stroke-width: 0.4;"/><text fill="#000000" font-family="Tahoma, sans-serif" font-size="12" lengthAdjust="spacingAndGlyphs" textLength="36" x="672.4558" y="298.9842">Device</text><ellipse cx="690.7284" cy="246.9457" fill="#F8F8F8" rx="62.7284" ry="14.9457" style="stroke: #383838; stroke-width: 0.4;"/><text fill="#000000" font-family="Tahoma, sans-serif" font-size="12" lengthAdjust="spacingAndGlyphs" textLength="95" x="643.2284" y="250.6879">GestureController</text><ellipse cx="545.5771" cy="296.0154" fill="#F8F8F8" rx="58.0771" ry="14.0154" style="stroke: #383838; stroke-width: 0.4;"/><text fill="#000000" font-family="Tahoma, sans-serif" font-size="12" lengthAdjust="spacingAndGlyphs" textLength="83" x="504.0771" y="299.7576">ListenerFactory</text><ellipse cx="403.5993" cy="291.8199" fill="#F8F8F8" rx="59.5993" ry="14.3199" style="stroke: #383838; stroke-width: 0.4;"/><text fill="#000000" font-family="Tahoma, sans-serif" font-size="12" lengthAdjust="spacingAndGlyphs" textLength="87" x="360.0993" y="295.562">MessageHandler</text><ellipse cx="403.4411" cy="152.242" fill="#F8F8F8" rx="36.9411" ry="13.242" style="stroke: #383838; stroke-width: 0.4;"/><text fill="#000000" font-family="Tahoma, sans-serif" font-size="12" lengthAdjust="spacingAndGlyphs" textLength="48" x="379.4411" y="155.9842">Publisher</text><ellipse cx="403.663" cy="106.242" fill="#F8F8F8" rx="29.163" ry="13.242" style="stroke: #383838; stroke-width: 0.4;"/><text fill="#000000" font-family="Tahoma, sans-serif" font-size="12" lengthAdjust="spacingAndGlyphs" textLength="37" x="385.163" y="109.9842">Router</text><ellipse cx="140.3345" cy="198.242" fill="#F8F8F8" rx="26.3345" ry="13.242" style="stroke: #383838; stroke-width: 0.4;"/><text fill="#000000" font-family="Tahoma, sans-serif" font-size="12" lengthAdjust="spacingAndGlyphs" textLength="33" x="123.8345" y="201.9842">server</text><ellipse cx="545.5993" cy="246.8199" fill="#F8F8F8" rx="59.5993" ry="14.3199" style="stroke: #383838; stroke-width: 0.4;"/><text fill="#000000" font-family="Tahoma, sans-serif" font-size="12" lengthAdjust="spacingAndGlyphs" textLength="87" x="502.0993" y="250.562">ServerController</text><ellipse cx="545.2904" cy="103.242" fill="#F8F8F8" rx="51.7904" ry="13.242" style="stroke: #383838; stroke-width: 0.4;"/><text fill="#000000" font-family="Tahoma, sans-serif" font-size="12" lengthAdjust="spacingAndGlyphs" textLength="69" x="510.7904" y="106.9842">ServerImage</text><ellipse cx="545.6335" cy="149.242" fill="#F8F8F8" rx="46.1335" ry="13.242" style="stroke: #383838; stroke-width: 0.4;"/><text fill="#000000" font-family="Tahoma, sans-serif" font-size="12" lengthAdjust="spacingAndGlyphs" textLength="61" x="515.1335" y="152.9842">ServerItem</text><ellipse cx="690.3406" cy="199.242" fill="#F8F8F8" rx="46.8406" ry="13.242" style="stroke: #383838; stroke-width: 0.4;"/><text fill="#000000" font-family="Tahoma, sans-serif" font-size="12" lengthAdjust="spacingAndGlyphs" textLength="62" x="659.3406" y="202.9842">ServerView</text><ellipse cx="545.7284" cy="196.9457" fill="#F8F8F8" rx="62.7284" ry="14.9457" style="stroke: #383838; stroke-width: 0.4;"/><text fill="#000000" font-family="Tahoma, sans-serif" font-size="12" lengthAdjust="spacingAndGlyphs" textLength="95" x="498.2284" y="200.6879">ServerViewGroup</text><ellipse cx="403.5833" cy="244.242" fill="#F8F8F8" rx="51.0833" ry="13.242" style="stroke: #383838; stroke-width: 0.4;"/><text fill="#000000" font-family="Tahoma, sans-serif" font-size="12" lengthAdjust="spacingAndGlyphs" textLength="68" x="369.5833" y="247.9842">Switchboard</text><ellipse cx="403.3406" cy="198.242" fill="#F8F8F8" rx="46.8406" ry="13.242" style="stroke: #383838; stroke-width: 0.4;"/><text fill="#000000" font-family="Tahoma, sans-serif" font-size="12" lengthAdjust="spacingAndGlyphs" textLength="62" x="372.3406" y="201.9842">WorkSpace</text><ellipse cx="271.0061" cy="458.242" fill="#F8F8F8" rx="23.5061" ry="13.242" style="stroke: #383838; stroke-width: 0.4;"/><text fill="#000000" font-family="Tahoma, sans-serif" font-size="12" lengthAdjust="spacingAndGlyphs" textLength="29" x="256.5061" y="461.9842">drags</text><ellipse cx="271.0061" cy="596.242" fill="#F8F8F8" rx="23.5061" ry="13.242" style="stroke: #383838; stroke-width: 0.4;"/><text fill="#000000" font-family="Tahoma, sans-serif" font-size="12" lengthAdjust="spacingAndGlyphs" textLength="29" x="256.5061" y="599.9842">items</text><ellipse cx="270.8701" cy="550.242" fill="#F8F8F8" rx="29.8701" ry="13.242" style="stroke: #383838; stroke-width: 0.4;"/><text fill="#000000" font-family="Tahoma, sans-serif" font-size="12" lengthAdjust="spacingAndGlyphs" textLength="38" x="251.8701" y="553.9842">layouts</text><ellipse cx="140.7193" cy="481.242" fill="#F8F8F8" rx="44.7193" ry="13.242" style="stroke: #383838; stroke-width: 0.4;"/><text fill="#000000" font-family="Tahoma, sans-serif" font-size="12" lengthAdjust="spacingAndGlyphs" textLength="59" x="111.2193" y="484.9842">predefined</text><ellipse cx="271.0772" cy="366.242" fill="#F8F8F8" rx="30.5772" ry="13.242" style="stroke: #383838; stroke-width: 0.4;"/><text fill="#000000" font-family="Tahoma, sans-serif" font-size="12" lengthAdjust="spacingAndGlyphs" textLength="39" x="251.5772" y="369.9842">rotates</text><ellipse cx="270.9203" cy="642.242" fill="#F8F8F8" rx="24.9203" ry="13.242" style="stroke: #383838; stroke-width: 0.4;"/><text fill="#000000" font-family="Tahoma, sans-serif" font-size="12" lengthAdjust="spacingAndGlyphs" textLength="31" x="255.4203" y="645.9842">scales</text><ellipse cx="270.9558" cy="412.242" fill="#F8F8F8" rx="28.4558" ry="13.242" style="stroke: #383838; stroke-width: 0.4;"/><text fill="#000000" font-family="Tahoma, sans-serif" font-size="12" lengthAdjust="spacingAndGlyphs" textLength="36" x="252.9558" y="415.9842">swipes</text><ellipse cx="270.7635" cy="504.242" fill="#F8F8F8" rx="19.2635" ry="13.242" style="stroke: #383838; stroke-width: 0.4;"/><text fill="#000000" font-family="Tahoma, sans-serif" font-size="12" lengthAdjust="spacingAndGlyphs" textLength="23" x="259.2635" y="507.9842">taps</text><ellipse cx="403.663" cy="481.242" fill="#F8F8F8" rx="29.163" ry="13.242" style="stroke: #383838; stroke-width: 0.4;"/><text fill="#000000" font-family="Tahoma, sans-serif" font-size="12" lengthAdjust="spacingAndGlyphs" textLength="37" x="385.163" y="484.9842">utilities</text><ellipse cx="901.6985" cy="168.242" fill="#F8F8F8" rx="32.6985" ry="13.242" style="stroke: #383838; stroke-width: 0.4;"/><text fill="#000000" font-family="Tahoma, sans-serif" font-size="12" lengthAdjust="spacingAndGlyphs" textLength="42" x="880.6985" y="171.9842">Hittable</text><ellipse cx="1003.669" cy="134.242" fill="#F8F8F8" rx="49.669" ry="13.242" style="stroke: #383838; stroke-width: 0.4;"/><text fill="#000000" font-family="Tahoma, sans-serif" font-size="12" lengthAdjust="spacingAndGlyphs" textLength="66" x="970.669" y="137.9842">Interactable</text><ellipse cx="1134.734" cy="184.242" fill="#F8F8F8" rx="36.234" ry="13.242" style="stroke: #383838; stroke-width: 0.4;"/><text fill="#000000" font-family="Tahoma, sans-serif" font-size="12" lengthAdjust="spacingAndGlyphs" textLength="47" x="1111.234" y="187.9842">Lockable</text><ellipse cx="901.4558" cy="100.242" fill="#F8F8F8" rx="28.4558" ry="13.242" style="stroke: #383838; stroke-width: 0.4;"/><text fill="#000000" font-family="Tahoma, sans-serif" font-size="12" lengthAdjust="spacingAndGlyphs" textLength="36" x="883.4558" y="103.9842">Locker</text><ellipse cx="813.1274" cy="134.242" fill="#F8F8F8" rx="25.6274" ry="13.242" style="stroke: #383838; stroke-width: 0.4;"/><text fill="#000000" font-family="Tahoma, sans-serif" font-size="12" lengthAdjust="spacingAndGlyphs" textLength="32" x="797.1274" y="137.9842">mixins</text><ellipse cx="1134.7193" cy="126.242" fill="#F8F8F8" rx="44.7193" ry="13.242" style="stroke: #383838; stroke-width: 0.4;"/><text fill="#000000" font-family="Tahoma, sans-serif" font-size="12" lengthAdjust="spacingAndGlyphs" textLength="59" x="1105.2193" y="129.9842">Publishable</text><ellipse cx="1134.5426" cy="72.2085" fill="#F8F8F8" rx="61.5426" ry="14.7085" style="stroke: #383838; stroke-width: 0.4;"/><text fill="#000000" font-family="Tahoma, sans-serif" font-size="12" lengthAdjust="spacingAndGlyphs" textLength="92" x="1088.5426" y="75.9507">Transformable2D</text><ellipse cx="1134.5772" cy="467.242" fill="#F8F8F8" rx="30.5772" ry="13.242" style="stroke: #383838; stroke-width: 0.4;"/><text fill="#000000" font-family="Tahoma, sans-serif" font-size="12" lengthAdjust="spacingAndGlyphs" textLength="39" x="1115.0772" y="470.9842">Binding</text><ellipse cx="1249.4056" cy="364.242" fill="#F8F8F8" rx="33.4056" ry="13.242" style="stroke: #383838; stroke-width: 0.4;"/><text fill="#000000" font-family="Tahoma, sans-serif" font-size="12" lengthAdjust="spacingAndGlyphs" textLength="43" x="1227.9056" y="367.9842">Gesture</text><ellipse cx="813.234" cy="374.242" fill="#F8F8F8" rx="36.234" ry="13.242" style="stroke: #383838; stroke-width: 0.4;"/><text fill="#000000" font-family="Tahoma, sans-serif" font-size="12" lengthAdjust="spacingAndGlyphs" textLength="47" x="789.734" y="377.9842">gestures</text><ellipse cx="1249.7132" cy="491.242" fill="#F8F8F8" rx="24.2132" ry="13.242" style="stroke: #383838; stroke-width: 0.4;"/><text fill="#000000" font-family="Tahoma, sans-serif" font-size="12" lengthAdjust="spacingAndGlyphs" textLength="30" x="1234.7132" y="494.9842">Input</text><ellipse cx="1003.6421" cy="351.242" fill="#F8F8F8" rx="17.1421" ry="13.242" style="stroke: #383838; stroke-width: 0.4;"/><text fill="#000000" font-family="Tahoma, sans-serif" font-size="12" lengthAdjust="spacingAndGlyphs" textLength="20" x="993.6421" y="354.9842">Pan</text><ellipse cx="1449.163" cy="525.242" fill="#F8F8F8" rx="29.163" ry="13.242" style="stroke: #383838; stroke-width: 0.4;"/><text fill="#000000" font-family="Tahoma, sans-serif" font-size="12" lengthAdjust="spacingAndGlyphs" textLength="37" x="1430.663" y="528.9842">PHASE</text><ellipse cx="1003.5061" cy="305.242" fill="#F8F8F8" rx="23.5061" ry="13.242" style="stroke: #383838; stroke-width: 0.4;"/><text fill="#000000" font-family="Tahoma, sans-serif" font-size="12" lengthAdjust="spacingAndGlyphs" textLength="29" x="989.0061" y="308.9842">Pinch</text><ellipse cx="1351.2548" cy="491.242" fill="#F8F8F8" rx="48.2548" ry="13.242" style="stroke: #383838; stroke-width: 0.4;"/><text fill="#000000" font-family="Tahoma, sans-serif" font-size="12" lengthAdjust="spacingAndGlyphs" textLength="64" x="1319.2548" y="494.9842">PointerData</text><ellipse cx="1003.663" cy="535.242" fill="#F8F8F8" rx="29.163" ry="13.242" style="stroke: #383838; stroke-width: 0.4;"/><text fill="#000000" font-family="Tahoma, sans-serif" font-size="12" lengthAdjust="spacingAndGlyphs" textLength="37" x="985.163" y="538.9842">Region</text><ellipse cx="1003.663" cy="259.242" fill="#F8F8F8" rx="29.163" ry="13.242" style="stroke: #383838; stroke-width: 0.4;"/><text fill="#000000" font-family="Tahoma, sans-serif" font-size="12" lengthAdjust="spacingAndGlyphs" textLength="37" x="985.163" y="262.9842">Rotate</text><ellipse cx="1134.7132" cy="513.242" fill="#F8F8F8" rx="24.2132" ry="13.242" style="stroke: #383838; stroke-width: 0.4;"/><text fill="#000000" font-family="Tahoma, sans-serif" font-size="12" lengthAdjust="spacingAndGlyphs" textLength="30" x="1119.7132" y="516.9842">State</text><ellipse cx="1003.3345" cy="489.242" fill="#F8F8F8" rx="26.3345" ry="13.242" style="stroke: #383838; stroke-width: 0.4;"/><text fill="#000000" font-family="Tahoma, sans-serif" font-size="12" lengthAdjust="spacingAndGlyphs" textLength="33" x="986.8345" y="492.9842">Swipe</text><ellipse cx="1003.3492" cy="443.242" fill="#F8F8F8" rx="17.8492" ry="13.242" style="stroke: #383838; stroke-width: 0.4;"/><text fill="#000000" font-family="Tahoma, sans-serif" font-size="12" lengthAdjust="spacingAndGlyphs" textLength="21" x="992.8492" y="446.9842">Tap</text><ellipse cx="1003.7132" cy="397.242" fill="#F8F8F8" rx="24.2132" ry="13.242" style="stroke: #383838; stroke-width: 0.4;"/><text fill="#000000" font-family="Tahoma, sans-serif" font-size="12" lengthAdjust="spacingAndGlyphs" textLength="30" x="988.7132" y="400.9842">Track</text><!--entity client--><rect fill="#F8F8F8" height="36.8984" rx="2" ry="2" style="stroke: #000000; stroke-width: 1.0;" width="56" x="6.5" y="773.5"/><text fill="#000000" font-family="Tahoma, sans-serif" font-size="14" font-weight="bold" lengthAdjust="spacingAndGlyphs" textLength="36" x="16.5" y="797.5068">client</text><!--entity index--><rect fill="#F8F8F8" height="36.8984" rx="2" ry="2" style="stroke: #000000; stroke-width: 1.0;" width="57" x="6" y="321.5"/><text fill="#000000" font-family="Tahoma, sans-serif" font-size="14" font-weight="bold" lengthAdjust="spacingAndGlyphs" textLength="37" x="16" y="345.5068">index</text><!--link Application to MessageHandler--><path d="M281.7705,210.6493 C295.1201,225.6982 319.1614,250.815 344,267 C350.2545,271.0754 357.2835,274.7229 364.2603,277.8891 " fill="none" id="Application-MessageHandler" style="stroke: #383838; stroke-width: 0.7; stroke-dasharray: 7.0,7.0;"/><polygon fill="#383838" points="369.0719,280.0035,362.4417,272.7206,364.4944,277.9919,359.2231,280.0446,369.0719,280.0035" style="stroke: #383838; stroke-width: 0.7;"/><!--link Application to Publisher--><path d="M299.7505,188.0187 C321.1201,180.5998 350.2513,170.4863 372.2056,162.8645 " fill="none" id="Application-Publisher" style="stroke: #383838; stroke-width: 0.7; stroke-dasharray: 7.0,7.0;"/><polygon fill="#383838" points="377.0572,161.1801,367.2431,160.3531,372.3338,162.82,369.8669,167.9106,377.0572,161.1801" style="stroke: #383838; stroke-width: 0.7;"/><!--link Application to Router--><path d="M284.6916,185.4527 C297.1368,173.9895 315.9515,156.5137 332,141 C337.4229,135.7578 337.6792,133.1153 344,129 C353.1722,123.0282 364.1301,118.2394 374.1279,114.6103 " fill="none" id="Application-Router" style="stroke: #383838; stroke-width: 0.7; stroke-dasharray: 7.0,7.0;"/><polygon fill="#383838" points="378.9468,112.9218,369.1304,112.123,374.2281,114.5752,371.7759,119.6729,378.9468,112.9218" style="stroke: #383838; stroke-width: 0.7;"/><!--link Application to Switchboard--><path d="M299.7505,207.9813 C319.8465,214.958 346.8063,224.3177 368.2067,231.7472 " fill="none" id="Application-Switchboard" style="stroke: #383838; stroke-width: 0.7; stroke-dasharray: 7.0,7.0;"/><polygon fill="#383838" points="372.9615,233.3979,365.7712,226.6674,368.2381,231.758,363.1474,234.2249,372.9615,233.3979" style="stroke: #383838; stroke-width: 0.7;"/><!--link Application to WorkSpace--><path d="M315.8585,198 C327.1868,198 339.45,198 351.1131,198 " fill="none" id="Application-WorkSpace" style="stroke: #383838; stroke-width: 0.7; stroke-dasharray: 7.0,7.0;"/><polygon fill="#383838" points="356.424,198,347.424,194,351.424,198,347.424,202,356.424,198" style="stroke: #383838; stroke-width: 0.7;"/><!--link client to ClientController--><path d="M62.6278,773.6904 C79.2224,762.8882 100.0244,749.3473 115.9529,738.9788 " fill="none" id="client-ClientController" style="stroke: #383838; stroke-width: 2.0;"/><polygon fill="#383838" points="120.3088,736.1433,110.5839,737.7008,116.1184,738.871,114.9482,744.4055,120.3088,736.1433" style="stroke: #383838; stroke-width: 2.0;"/><!--link client to ClientModel--><path d="M62.6278,792 C70.4498,792 79.2065,792 87.9471,792 " fill="none" id="client-ClientModel" style="stroke: #383838; stroke-width: 2.0;"/><polygon fill="#383838" points="93.3787,792,84.3787,788,88.3787,792,84.3787,796,93.3787,792" style="stroke: #383838; stroke-width: 2.0;"/><!--link client to ClientView--><path d="M62.9309,808.9833 C66.9262,811.1223 71.0258,813.1913 75,815 C84.6156,819.3761 95.3257,823.4519 105.2534,826.9201 " fill="none" id="client-ClientView" style="stroke: #383838; stroke-width: 2.0;"/><polygon fill="#383838" points="110.0559,828.5725,102.8471,821.8618,105.328,826.9457,100.2441,829.4265,110.0559,828.5725" style="stroke: #383838; stroke-width: 2.0;"/><!--link ClientController to Interactor--><path d="M194.3328,718.0499 C204.6164,717.1042 215.2905,716.1227 225.2902,715.2032 " fill="none" id="ClientController-Interactor" style="stroke: #383838; stroke-width: 0.7; stroke-dasharray: 7.0,7.0;"/><polygon fill="#383838" points="230.4522,714.7285,221.1236,711.5697,225.4732,715.1865,221.8564,719.5361,230.4522,714.7285" style="stroke: #383838; stroke-width: 0.7;"/><!--link ClientModel to ClientImage--><path d="M168.579,802.437 C178.033,806.1603 188.5717,810.542 198,815 C207.1711,819.3364 208.8926,821.5314 218,826 C224.8775,829.3745 232.3687,832.7826 239.4953,835.904 " fill="none" id="ClientModel-ClientImage" style="stroke: #383838; stroke-width: 0.7; stroke-dasharray: 7.0,7.0;"/><polygon fill="#383838" points="244.3588,838.0152,237.6959,830.7622,239.7723,836.0242,234.5103,838.1005,244.3588,838.0152" style="stroke: #383838; stroke-width: 0.7;"/><!--link ClientModel to ClientItem--><path d="M185.7763,795.8164 C198.3843,796.8791 212.0933,798.0347 224.756,799.102 " fill="none" id="ClientModel-ClientItem" style="stroke: #383838; stroke-width: 0.7; stroke-dasharray: 7.0,7.0;"/><polygon fill="#383838" points="229.7384,799.522,221.1063,794.7799,224.7561,799.1019,220.4341,802.7516,229.7384,799.522" style="stroke: #383838; stroke-width: 0.7;"/><!--link ClientModel to ShadowView--><path d="M174.4467,782.8955 C191.4282,778.3411 212.1169,772.7924 229.9811,768.0012 " fill="none" id="ClientModel-ShadowView" style="stroke: #383838; stroke-width: 0.7; stroke-dasharray: 7.0,7.0;"/><polygon fill="#383838" points="234.9394,766.6714,225.2104,765.1394,230.1101,767.9667,227.2828,772.8663,234.9394,766.6714" style="stroke: #383838; stroke-width: 0.7;"/><!--link Device to mixins--><path d="M718.881,292.7955 C733.6283,290.1204 750.6787,284.3474 761,272 C777.6891,252.0348 760.8155,238.7012 769,214 C776.6808,190.8189 791.0524,166.5652 801.2799,150.9254 " fill="none" id="Device-mixins" style="stroke: #383838; stroke-width: 0.7;"/><polygon fill="#383838" points="804.309,146.3589,796.0008,151.6479,801.5452,150.5256,802.6674,156.07,804.309,146.3589" style="stroke: #383838; stroke-width: 0.7;"/><!--link drags to utilities--><path d="M293.4768,461.9016 C314.8453,465.6109 347.2109,471.2291 371.3135,475.4129 " fill="none" id="drags-utilities" style="stroke: #383838; stroke-width: 0.7; stroke-dasharray: 7.0,7.0;"/><polygon fill="#383838" points="376.3244,476.2827,368.1411,470.8024,371.3981,475.4275,366.7729,478.6845,376.3244,476.2827" style="stroke: #383838; stroke-width: 0.7;"/><!--link GestureController to gestures--><path d="M736.1461,257.4774 C745.0783,261.0296 753.8732,265.7486 761,272 C786.8393,294.6653 801.4968,333.2502 808.289,355.9066 " fill="none" id="GestureController-gestures" style="stroke: #383838; stroke-width: 0.7;"/><polygon fill="#383838" points="809.6966,360.7601,811.0314,351.0021,808.3039,355.958,803.348,353.2304,809.6966,360.7601" style="stroke: #383838; stroke-width: 0.7;"/><!--link gestures to Pan--><path d="M847.4981,369.8349 C886.3764,365.1409 948.4307,357.6488 981.3346,353.6761 " fill="none" id="gestures-Pan" style="stroke: #383838; stroke-width: 0.7; stroke-dasharray: 7.0,7.0;"/><polygon fill="#383838" points="986.3571,353.0697,976.9425,350.1775,981.3932,353.6691,977.9016,358.1198,986.3571,353.0697" style="stroke: #383838; stroke-width: 0.7;"/><!--link gestures to Pinch--><path d="M838.6917,364.6944 C875.3784,351.4063 942.3359,327.1539 978.5881,314.0232 " fill="none" id="gestures-Pinch" style="stroke: #383838; stroke-width: 0.7; stroke-dasharray: 7.0,7.0;"/><polygon fill="#383838" points="983.7067,312.1692,973.8824,311.4734,979.0056,313.872,976.607,318.9952,983.7067,312.1692" style="stroke: #383838; stroke-width: 0.7;"/><!--link gestures to Region--><path d="M818.8223,386.9836 C827.5937,405.4313 845.6815,439.4839 869,462 C900.0758,492.0066 945.9334,513.3446 975.2603,524.9209 " fill="none" id="gestures-Region" style="stroke: #383838; stroke-width: 0.7; stroke-dasharray: 7.0,7.0;"/><polygon fill="#383838" points="980.1781,526.8318,973.238,519.8436,975.5176,525.0208,970.3404,527.3005,980.1781,526.8318" style="stroke: #383838; stroke-width: 0.7;"/><!--link gestures to Rotate--><path d="M829.4352,362.1325 C855.2457,343.7613 907.1781,307.8615 954,282 C961.5562,277.8264 970.0025,273.7109 977.7486,270.1404 " fill="none" id="gestures-Rotate" style="stroke: #383838; stroke-width: 0.7; stroke-dasharray: 7.0,7.0;"/><polygon fill="#383838" points="982.467,267.9921,972.6185,268.0812,977.9165,270.0641,975.9337,275.362,982.467,267.9921" style="stroke: #383838; stroke-width: 0.7;"/><!--link gestures to Swipe--><path d="M825.6606,386.3512 C836.5848,396.6294 853.0735,411.2636 869,422 C904.2729,445.7782 915.8134,447.2554 954,466 C962.0307,469.942 970.8701,474.1045 978.8296,477.7887 " fill="none" id="gestures-Swipe" style="stroke: #383838; stroke-width: 0.7; stroke-dasharray: 7.0,7.0;"/><polygon fill="#383838" points="983.6567,480.0146,977.1589,472.6134,979.1162,477.9208,973.8088,479.8781,983.6567,480.0146" style="stroke: #383838; stroke-width: 0.7;"/><!--link gestures to Tap--><path d="M838.6917,383.3056 C876.6368,397.0495 946.965,422.5227 982.2077,435.2878 " fill="none" id="gestures-Tap" style="stroke: #383838; stroke-width: 0.7; stroke-dasharray: 7.0,7.0;"/><polygon fill="#383838" points="987.1448,437.0761,980.0451,430.2501,982.4437,435.3733,977.3205,437.7719,987.1448,437.0761" style="stroke: #383838; stroke-width: 0.7;"/><!--link gestures to Track--><path d="M847.4981,378.1651 C883.9338,382.5642 940.7248,389.4208 974.8006,393.535 " fill="none" id="gestures-Track" style="stroke: #383838; stroke-width: 0.7; stroke-dasharray: 7.0,7.0;"/><polygon fill="#383838" points="980.0679,394.1709,971.6123,389.1208,975.104,393.5715,970.6533,397.0631,980.0679,394.1709" style="stroke: #383838; stroke-width: 0.7;"/><!--link Hittable to Interactable--><path d="M926.7135,159.5955 C939.1134,155.4622 954.2731,150.409 967.837,145.8877 " fill="none" id="Hittable-Interactable" style="stroke: #383838; stroke-width: 0.7; stroke-dasharray: 7.0,7.0;"/><polygon fill="#383838" points="972.754,144.2487,962.9509,143.3003,968.0106,145.83,965.4809,150.8897,972.754,144.2487" style="stroke: #383838; stroke-width: 0.7;"/><!--link index to predefined--><path d="M48.576,358.7237 C69.3172,386.3134 107.7836,437.481 127.7424,464.03 " fill="none" id="index-predefined" style="stroke: #383838; stroke-width: 2.0;"/><polygon fill="#383838" points="130.7813,468.0722,128.5703,458.4747,127.7767,464.0756,122.1758,463.282,130.7813,468.0722" style="stroke: #383838; stroke-width: 2.0;"/><!--link index to server--><path d="M48.3576,321.436 C69.2389,293.463 108.4353,240.9546 128.2973,214.3471 " fill="none" id="index-server" style="stroke: #383838; stroke-width: 2.0;"/><polygon fill="#383838" points="131.3132,210.3068,122.724,215.1261,128.3222,214.3135,129.1347,219.9117,131.3132,210.3068" style="stroke: #383838; stroke-width: 2.0;"/><!--link Input to PointerData--><path d="M1273.6726,491 C1280.8929,491 1289.1162,491 1297.4485,491 " fill="none" id="Input-PointerData" style="stroke: #383838; stroke-width: 0.7; stroke-dasharray: 7.0,7.0;"/><polygon fill="#383838" points="1302.6426,491,1293.6426,487,1297.6426,491,1293.6426,495,1302.6426,491" style="stroke: #383838; stroke-width: 0.7;"/><!--link Interactable to Lockable--><path d="M1031.6028,144.7263 C1053.1301,152.9428 1082.7624,164.2528 1104.7007,172.6262 " fill="none" id="Interactable-Lockable" style="stroke: #383838; stroke-width: 0.7; stroke-dasharray: 7.0,7.0;"/><polygon fill="#383838" points="1109.5395,174.4731,1102.5576,167.5267,1104.8682,172.6901,1099.7048,175.0007,1109.5395,174.4731" style="stroke: #383838; stroke-width: 0.7;"/><!--link Interactable to Publishable--><path d="M1051.9074,131.0438 C1062.905,130.3722 1074.5939,129.6584 1085.6114,128.9856 " fill="none" id="Interactable-Publishable" style="stroke: #383838; stroke-width: 0.7; stroke-dasharray: 7.0,7.0;"/><polygon fill="#383838" points="1090.6213,128.6796,1081.3942,125.2358,1085.6306,128.9845,1081.8819,133.2209,1090.6213,128.6796" style="stroke: #383838; stroke-width: 0.7;"/><!--link Interactable to Transformable2D--><path d="M1027.5274,122.6282 C1048.5788,112.665 1079.3394,98.1066 1102.4774,87.1557 " fill="none" id="Interactable-Transformable2D" style="stroke: #383838; stroke-width: 0.7; stroke-dasharray: 7.0,7.0;"/><polygon fill="#383838" points="1106.9982,85.0161,1097.1521,85.2508,1102.4788,87.1551,1100.5745,92.4818,1106.9982,85.0161" style="stroke: #383838; stroke-width: 0.7;"/><!--link MessageHandler to ListenerFactory--><path d="M462.898,293.6732 C469.4387,293.8574 476.1144,294.0455 482.695,294.2308 " fill="none" id="MessageHandler-ListenerFactory" style="stroke: #383838; stroke-width: 0.7; stroke-dasharray: 7.0,7.0;"/><polygon fill="#383838" points="487.7048,294.372,478.8212,290.1198,482.7068,294.231,478.5956,298.1166,487.7048,294.372" style="stroke: #383838; stroke-width: 0.7;"/><!--link mixins to Hittable--><path d="M833.5261,141.8857 C845.2465,146.3885 860.1194,152.1024 872.9627,157.0365 " fill="none" id="mixins-Hittable" style="stroke: #383838; stroke-width: 0.7; stroke-dasharray: 7.0,7.0;"/><polygon fill="#383838" points="877.9579,158.9556,870.9911,151.994,873.2905,157.1625,868.1221,159.4619,877.9579,158.9556" style="stroke: #383838; stroke-width: 0.7;"/><!--link mixins to Interactable--><path d="M838.6917,134 C866.6665,134 912.2425,134 948.3841,134 " fill="none" id="mixins-Interactable" style="stroke: #383838; stroke-width: 0.7; stroke-dasharray: 7.0,7.0;"/><polygon fill="#383838" points="953.6447,134,944.6447,130,948.6447,134,944.6447,138,953.6447,134" style="stroke: #383838; stroke-width: 0.7;"/><!--link mixins to Lockable--><path d="M820.8525,146.6287 C830.3142,160.5133 847.6357,182.0397 869,191 C946.854,223.6525 1049.154,206.0175 1101.1077,193.3247 " fill="none" id="mixins-Lockable" style="stroke: #383838; stroke-width: 0.7; stroke-dasharray: 7.0,7.0;"/><polygon fill="#383838" points="1105.9758,192.1137,1096.2763,190.4049,1101.1237,193.3208,1098.2077,198.1682,1105.9758,192.1137" style="stroke: #383838; stroke-width: 0.7;"/><!--link mixins to Locker--><path d="M833.5261,126.1143 C845.805,121.397 861.544,115.3503 874.7844,110.2636 " fill="none" id="mixins-Locker" style="stroke: #383838; stroke-width: 0.7; stroke-dasharray: 7.0,7.0;"/><polygon fill="#383838" points="879.5383,108.4373,869.7025,107.931,874.8709,110.2304,872.5715,115.3989,879.5383,108.4373" style="stroke: #383838; stroke-width: 0.7;"/><!--link mixins to Publishable--><path d="M820.8525,121.3713 C830.3142,107.4867 847.6357,85.9603 869,77 C910.2017,59.7197 1037.2749,95.3499 1099.4754,114.6698 " fill="none" id="mixins-Publishable" style="stroke: #383838; stroke-width: 0.7; stroke-dasharray: 7.0,7.0;"/><polygon fill="#383838" points="1104.5641,116.259,1097.1658,109.7579,1099.7914,114.7684,1094.7809,117.3941,1104.5641,116.259" style="stroke: #383838; stroke-width: 0.7;"/><!--link mixins to Transformable2D--><path d="M819.4556,121.3188 C828.2364,105.6471 845.5752,79.738 869,69 C939.837,36.528 1032.8918,48.2492 1087.9336,59.958 " fill="none" id="mixins-Transformable2D" style="stroke: #383838; stroke-width: 0.7; stroke-dasharray: 7.0,7.0;"/><polygon fill="#383838" points="1093.1395,61.0896,1085.1946,55.269,1088.2536,60.0275,1083.4952,63.0864,1093.1395,61.0896" style="stroke: #383838; stroke-width: 0.7;"/><!--link Pan to Gesture--><path d="M1020.7982,351.9141 C1060.1047,353.9913 1156.9216,359.1076 1211.1398,361.9728 " fill="none" id="Pan-Gesture" style="stroke: #383838; stroke-width: 0.7; stroke-dasharray: 7.0,7.0;"/><polygon fill="#383838" points="1216.2504,362.2429,1207.4742,357.7733,1211.2574,361.9789,1207.0518,365.7621,1216.2504,362.2429" style="stroke: #383838; stroke-width: 0.7;"/><!--link Pinch to Gesture--><path d="M1025.1627,310.1694 C1061.9365,318.9485 1138.9245,337.3442 1204,353 C1207.7779,353.9089 1211.7317,354.862 1215.664,355.811 " fill="none" id="Pinch-Gesture" style="stroke: #383838; stroke-width: 0.7; stroke-dasharray: 7.0,7.0;"/><polygon fill="#383838" points="1220.6185,357.0074,1212.809,351.0065,1215.7582,355.8337,1210.931,358.7829,1220.6185,357.0074" style="stroke: #383838; stroke-width: 0.7;"/><!--link PointerData to PHASE--><path d="M1381.283,501.3859 C1393.9394,505.7994 1408.6165,510.9176 1421.0645,515.2584 " fill="none" id="PointerData-PHASE" style="stroke: #383838; stroke-width: 0.7; stroke-dasharray: 7.0,7.0;"/><polygon fill="#383838" points="1425.8939,516.9425,1418.7129,510.2021,1421.1727,515.2961,1416.0787,517.7559,1425.8939,516.9425" style="stroke: #383838; stroke-width: 0.7;"/><!--link predefined to drags--><path d="M178.9485,474.2236 C199.5654,470.59 224.5031,466.1949 243.2193,462.8962 " fill="none" id="predefined-drags" style="stroke: #383838; stroke-width: 0.7; stroke-dasharray: 7.0,7.0;"/><polygon fill="#383838" points="248.3245,461.9964,238.7668,459.6192,243.4004,462.8643,240.1554,467.4978,248.3245,461.9964" style="stroke: #383838; stroke-width: 0.7;"/><!--link predefined to items--><path d="M148.5416,493.927 C161.2049,513.376 187.5151,550.2985 218,573 C226.2894,579.1729 236.492,584.1027 245.7249,587.7901 " fill="none" id="predefined-items" style="stroke: #383838; stroke-width: 0.7; stroke-dasharray: 7.0,7.0;"/><polygon fill="#383838" points="250.4494,589.6052,243.4826,582.6436,245.782,587.8121,240.6136,590.1115,250.4494,589.6052" style="stroke: #383838; stroke-width: 0.7;"/><!--link predefined to layouts--><path d="M159.2327,493.0256 C174.7,502.7324 197.381,516.46 218,527 C226.3647,531.2758 235.7026,535.5014 244.1822,539.1413 " fill="none" id="predefined-layouts" style="stroke: #383838; stroke-width: 0.7; stroke-dasharray: 7.0,7.0;"/><polygon fill="#383838" points="248.7931,541.0998,242.0732,533.8996,244.191,539.1451,238.9456,541.2629,248.7931,541.0998" style="stroke: #383838; stroke-width: 0.7;"/><!--link predefined to rotates--><path d="M148.5416,468.073 C161.2049,448.624 187.5151,411.7015 218,389 C225.0619,383.7412 233.5124,379.3845 241.5689,375.9297 " fill="none" id="predefined-rotates" style="stroke: #383838; stroke-width: 0.7; stroke-dasharray: 7.0,7.0;"/><polygon fill="#383838" points="246.5184,373.8951,236.6735,373.6174,241.8939,375.7961,239.7151,381.0166,246.5184,373.8951" style="stroke: #383838; stroke-width: 0.7;"/><!--link predefined to scales--><path d="M144.6877,494.2415 C153.8307,521.1915 178.021,582.9137 218,619 C225.3504,625.6347 234.9132,630.5726 243.889,634.1358 " fill="none" id="predefined-scales" style="stroke: #383838; stroke-width: 0.7; stroke-dasharray: 7.0,7.0;"/><polygon fill="#383838" points="248.7973,635.976,241.7744,629.071,244.1155,634.2207,238.9659,636.5619,248.7973,635.976" style="stroke: #383838; stroke-width: 0.7;"/><!--link predefined to swipes--><path d="M159.2327,468.9744 C174.7,459.2676 197.381,445.54 218,435 C226.5907,430.6086 236.2081,426.2702 244.8678,422.5649 " fill="none" id="predefined-swipes" style="stroke: #383838; stroke-width: 0.7; stroke-dasharray: 7.0,7.0;"/><polygon fill="#383838" points="249.5676,420.5752,239.7203,420.4005,244.9632,422.5245,242.8392,427.7675,249.5676,420.5752" style="stroke: #383838; stroke-width: 0.7;"/><!--link predefined to taps--><path d="M178.9485,487.7764 C200.9398,491.6522 227.8473,496.3945 246.8765,499.7484 " fill="none" id="predefined-taps" style="stroke: #383838; stroke-width: 0.7; stroke-dasharray: 7.0,7.0;"/><polygon fill="#383838" points="252.0242,500.6556,243.8551,495.1542,247.1001,499.7877,242.4665,503.0328,252.0242,500.6556" style="stroke: #383838; stroke-width: 0.7;"/><!--link Region to Binding--><path d="M1026.2327,526.6927 C1035.0296,522.9159 1044.9072,517.95 1053,512 C1063.6465,504.1725 1062.0598,497.4114 1073,490 C1082.1648,483.7913 1093.226,478.9834 1103.4262,475.4069 " fill="none" id="Region-Binding" style="stroke: #383838; stroke-width: 0.7; stroke-dasharray: 7.0,7.0;"/><polygon fill="#383838" points="1108.3523,473.7494,1098.5466,472.8288,1103.6134,475.3441,1101.0981,480.411,1108.3523,473.7494" style="stroke: #383838; stroke-width: 0.7;"/><!--link Region to PHASE--><path d="M1032.5798,535.5116 C1045.0279,535.7065 1059.7264,535.9045 1073,536 C1131.2207,536.4188 1145.7899,537.1875 1204,536 C1291.1655,534.2219 1312.9296,532.4419 1400,528 C1404.9156,527.7492 1410.1069,527.4589 1415.1995,527.1597 " fill="none" id="Region-PHASE" style="stroke: #383838; stroke-width: 0.7; stroke-dasharray: 7.0,7.0;"/><polygon fill="#383838" points="1420.2453,526.8586,1411.023,523.4018,1415.2542,527.1565,1411.4996,531.3876,1420.2453,526.8586" style="stroke: #383838; stroke-width: 0.7;"/><!--link Region to State--><path d="M1030.9619,530.3881 C1053.0495,526.6787 1083.9684,521.4862 1106.26,517.7426 " fill="none" id="Region-State" style="stroke: #383838; stroke-width: 0.7; stroke-dasharray: 7.0,7.0;"/><polygon fill="#383838" points="1111.446,516.8717,1101.9078,514.4176,1106.5151,517.6998,1103.2328,522.3071,1111.446,516.8717" style="stroke: #383838; stroke-width: 0.7;"/><!--link Rotate to Gesture--><path d="M1028.452,265.7705 C1067.2698,276.8074 1143.9025,300.6321 1204,332 C1213.1017,336.7506 1222.4908,343.0743 1230.3588,348.8451 " fill="none" id="Rotate-Gesture" style="stroke: #383838; stroke-width: 0.7; stroke-dasharray: 7.0,7.0;"/><polygon fill="#383838" points="1234.562,351.9808,1229.7401,343.3931,1230.5544,348.991,1224.9564,349.8053,1234.562,351.9808" style="stroke: #383838; stroke-width: 0.7;"/><!--link rotates to utilities--><path d="M297.5044,372.5042 C308.8462,376.1345 321.7973,381.4772 332,389 C359.6999,409.4242 382.1614,443.3348 394.1131,463.7855 " fill="none" id="rotates-utilities" style="stroke: #383838; stroke-width: 0.7; stroke-dasharray: 7.0,7.0;"/><polygon fill="#383838" points="396.6421,468.1829,395.6224,458.387,394.1493,463.8486,388.6876,462.3755,396.6421,468.1829" style="stroke: #383838; stroke-width: 0.7;"/><!--link scales to utilities--><path d="M294.5629,637.3981 C306.8712,634.0118 321.5108,628.3242 332,619 C369.4012,585.753 390.1368,528.2525 398.7245,499.0875 " fill="none" id="scales-utilities" style="stroke: #383838; stroke-width: 0.7; stroke-dasharray: 7.0,7.0;"/><polygon fill="#383838" points="400.1879,493.9837,393.8622,501.5326,398.8097,498.79,401.5523,503.7376,400.1879,493.9837" style="stroke: #383838; stroke-width: 0.7;"/><!--link server to Application--><path d="M167.2235,198 C182.7642,198 202.8476,198 221.2006,198 " fill="none" id="server-Application" style="stroke: #383838; stroke-width: 0.7; stroke-dasharray: 7.0,7.0;"/><polygon fill="#383838" points="226.3261,198,217.3261,194,221.3261,198,217.3261,202,226.3261,198" style="stroke: #383838; stroke-width: 0.7;"/><!--link server to Router--><path d="M162.4709,190.3144 C210.0708,173.6634 322.6648,134.277 375.3717,115.8395 " fill="none" id="server-Router" style="stroke: #383838; stroke-width: 0.7; stroke-dasharray: 7.0,7.0;"/><polygon fill="#383838" points="380.2813,114.1221,370.4653,113.3185,375.5618,115.7732,373.1071,120.8697,380.2813,114.1221" style="stroke: #383838; stroke-width: 0.7;"/><!--link ServerController to Device--><path d="M580.971,258.7421 C606.0188,267.0338 639.1271,277.9938 662.3614,285.6851 " fill="none" id="ServerController-Device" style="stroke: #383838; stroke-width: 0.7; stroke-dasharray: 7.0,7.0;"/><polygon fill="#383838" points="667.163,287.2746,659.8762,280.6487,662.4164,285.7032,657.3619,288.2434,667.163,287.2746" style="stroke: #383838; stroke-width: 0.7;"/><!--link ServerImage to mixins--><path d="M597.1683,104.969 C641.0049,107.1989 705.4418,111.797 761,121 C768.9813,122.3221 777.5388,124.2455 785.3606,126.2093 " fill="none" id="ServerImage-mixins" style="stroke: #383838; stroke-width: 0.7;"/><polygon fill="#383838" points="790.6421,127.5684,782.923,121.4515,785.7999,126.3222,780.9292,129.1991,790.6421,127.5684" style="stroke: #383838; stroke-width: 0.7;"/><!--link ServerItem to mixins--><path d="M586.9726,143.204 C600.072,141.58 614.6187,139.9896 628,139 C682.0563,135.0022 745.2079,134.1021 781.9919,133.9531 " fill="none" id="ServerItem-mixins" style="stroke: #383838; stroke-width: 0.7;"/><polygon fill="#383838" points="787.2235,133.9363,778.2106,129.9654,782.2235,133.9524,778.2365,137.9653,787.2235,133.9363" style="stroke: #383838; stroke-width: 0.7;"/><!--link ServerView to mixins--><path d="M720.3724,188.9508 C733.1993,184.1777 748.159,177.9858 761,171 C772.9227,164.5138 785.3418,155.7629 795.0522,148.3999 " fill="none" id="ServerView-mixins" style="stroke: #383838; stroke-width: 0.7;"/><polygon fill="#383838" points="799.0387,145.34,789.4639,147.6472,795.0725,148.3845,794.3351,153.9931,799.0387,145.34" style="stroke: #383838; stroke-width: 0.7;"/><!--link ServerViewGroup to GestureController--><path d="M581.3427,209.3596 C602.0821,216.5111 628.2526,225.5354 649.7694,232.955 " fill="none" id="ServerViewGroup-GestureController" style="stroke: #383838; stroke-width: 0.7; stroke-dasharray: 7.0,7.0;"/><polygon fill="#383838" points="654.5671,234.6093,647.3628,227.8938,649.8403,232.9793,644.7548,235.4568,654.5671,234.6093" style="stroke: #383838; stroke-width: 0.7;"/><!--link ServerViewGroup to mixins--><path d="M588.2666,185.8888 C601.0319,182.6331 615.0678,179.1133 628,176 C683.0878,162.738 747.6845,148.3328 784.1307,140.3103 " fill="none" id="ServerViewGroup-mixins" style="stroke: #383838; stroke-width: 0.7;"/><polygon fill="#383838" points="789.2993,139.1738,779.6502,137.2001,784.416,140.2477,781.3684,145.0134,789.2993,139.1738" style="stroke: #383838; stroke-width: 0.7;"/><!--link ServerViewGroup to ServerView--><path d="M608.2558,197.8656 C618.2931,198.004 628.5843,198.146 638.3407,198.2806 " fill="none" id="ServerViewGroup-ServerView" style="stroke: #383838; stroke-width: 0.7; stroke-dasharray: 7.0,7.0;"/><polygon fill="#383838" points="643.3898,198.3502,634.4459,194.2264,638.3903,198.2812,634.3355,202.2256,643.3898,198.3502" style="stroke: #383838; stroke-width: 0.7;"/><!--link State to Input--><path d="M1157.2203,508.6535 C1175.7275,505.113 1201.9348,500.0994 1221.6942,496.3194 " fill="none" id="State-Input" style="stroke: #383838; stroke-width: 0.7; stroke-dasharray: 7.0,7.0;"/><polygon fill="#383838" points="1226.8269,495.3375,1217.2356,493.1,1221.916,496.2771,1218.7389,500.9574,1226.8269,495.3375" style="stroke: #383838; stroke-width: 0.7;"/><!--link State to PHASE--><path d="M1158.6561,513.9217 C1214.0577,516.0356 1350.4201,521.2386 1414.5776,523.6866 " fill="none" id="State-PHASE" style="stroke: #383838; stroke-width: 0.7; stroke-dasharray: 7.0,7.0;"/><polygon fill="#383838" points="1419.8138,523.8864,1410.9729,519.546,1414.8174,523.6957,1410.6678,527.5402,1419.8138,523.8864" style="stroke: #383838; stroke-width: 0.7;"/><!--link Swipe to Gesture--><path d="M1025.2416,481.1151 C1034.2816,477.2893 1044.6018,472.1745 1053,466 C1063.6465,458.1725 1061.4486,450.4173 1073,444 C1124.7427,415.2547 1153.0747,450.1699 1204,420 C1219.5498,410.7877 1232.0247,394.1715 1239.9514,381.4232 " fill="none" id="Swipe-Gesture" style="stroke: #383838; stroke-width: 0.7; stroke-dasharray: 7.0,7.0;"/><polygon fill="#383838" points="1242.6633,376.9224,1234.5924,382.5669,1240.0829,381.2051,1241.4447,386.6956,1242.6633,376.9224" style="stroke: #383838; stroke-width: 0.7;"/><!--link Switchboard to ServerController--><path d="M454.3642,245.0746 C462.7997,245.2528 471.6487,245.4398 480.3784,245.6242 " fill="none" id="Switchboard-ServerController" style="stroke: #383838; stroke-width: 0.7; stroke-dasharray: 7.0,7.0;"/><polygon fill="#383838" points="485.7936,245.7386,476.8802,241.5492,480.7947,245.6329,476.711,249.5474,485.7936,245.7386" style="stroke: #383838; stroke-width: 0.7;"/><!--link Switchboard to ServerViewGroup--><path d="M434.6625,233.6857 C454.9279,226.9781 481.5954,218.1515 503.6939,210.8372 " fill="none" id="Switchboard-ServerViewGroup" style="stroke: #383838; stroke-width: 0.7; stroke-dasharray: 7.0,7.0;"/><polygon fill="#383838" points="508.6247,209.2052,498.8237,208.2359,503.878,210.7763,501.3375,215.8307,508.6247,209.2052" style="stroke: #383838; stroke-width: 0.7;"/><!--link Tap to Gesture--><path d="M1019.5942,436.74 C1033.5567,431.4793 1054.3935,424.0338 1073,419 C1130.298,403.4986 1148.9136,415.1098 1204,393 C1213.0953,389.3494 1222.3561,383.839 1230.1279,378.5986 " fill="none" id="Tap-Gesture" style="stroke: #383838; stroke-width: 0.7; stroke-dasharray: 7.0,7.0;"/><polygon fill="#383838" points="1234.2819,375.7285,1224.6037,377.5538,1230.1683,378.5708,1229.1513,384.1355,1234.2819,375.7285" style="stroke: #383838; stroke-width: 0.7;"/><!--link taps to utilities--><path d="M289.984,500.7047 C311.1829,497.0249 345.8543,491.0064 371.3102,486.5877 " fill="none" id="taps-utilities" style="stroke: #383838; stroke-width: 0.7; stroke-dasharray: 7.0,7.0;"/><polygon fill="#383838" points="376.2717,485.7264,366.7202,483.3246,371.3454,486.5816,368.0884,491.2067,376.2717,485.7264" style="stroke: #383838; stroke-width: 0.7;"/><!--link Track to Gesture--><path d="M1027.0875,393.8358 C1069.9891,388.0807 1161.0851,375.8605 1212.3859,368.9787 " fill="none" id="Track-Gesture" style="stroke: #383838; stroke-width: 0.7; stroke-dasharray: 7.0,7.0;"/><polygon fill="#383838" points="1217.527,368.2891,1208.075,365.5214,1212.5714,368.954,1209.1388,373.4503,1217.527,368.2891" style="stroke: #383838; stroke-width: 0.7;"/><!--link WorkSpace to ServerImage--><path d="M439.3045,189.5069 C447.8791,186.1202 456.4399,181.4388 463,175 C479.787,158.5234 466.0797,142.3398 483,126 C488.3385,120.8446 494.9291,116.8286 501.8083,113.7046 " fill="none" id="WorkSpace-ServerImage" style="stroke: #383838; stroke-width: 0.7; stroke-dasharray: 7.0,7.0;"/><polygon fill="#383838" points="506.6051,111.6813,496.758,111.4936,501.9982,113.6246,499.8672,118.8647,506.6051,111.6813" style="stroke: #383838; stroke-width: 0.7;"/><!--link WorkSpace to ServerItem--><path d="M432.9225,187.8472 C455.6748,179.996 487.2225,169.1099 511.1345,160.8585 " fill="none" id="WorkSpace-ServerItem" style="stroke: #383838; stroke-width: 0.7; stroke-dasharray: 7.0,7.0;"/><polygon fill="#383838" points="516.1152,159.1398,506.3027,158.2944,511.3887,160.7708,508.9123,165.8568,516.1152,159.1398" style="stroke: #383838; stroke-width: 0.7;"/><script type="text/plantuml"><![CDATA[
@startuml

scale max 1920 width
left to right direction

skinparam monochrome true
skinparam shadowing false
skinparam nodesep 20
skinparam ranksep 20
skinparam defaultFontName Tahoma
skinparam defaultFontSize 14
skinparam roundCorner 4
skinparam dpi 150
skinparam arrowThickness 0.7
skinparam packageTitleAlignment left

skinparam usecase {
  borderThickness 0.4
  fontSize 12
}

skinparam rectangle {
  borderThickness 1
}


rectangle "<b>client</b>" as client
rectangle "<b>index</b>" as index

rectangle "Client" {
  (ClientController)
  (ClientImage)
  (ClientItem)
  (ClientModel)
  (ClientView)
  (Interactor)
  (ShadowView)
}

rectangle "Server" {
  (Application)
  (Device)
  (GestureController)
  (ListenerFactory)
  (MessageHandler)
  (Publisher)
  (Router)
  (server)
  (ServerController)
  (ServerImage)
  (ServerItem)
  (ServerView)
  (ServerViewGroup)
  (Switchboard)
  (WorkSpace)
}

rectangle "Predefined" {
  (drags)
  (items)
  (layouts)
  (predefined)
  (rotates)
  (scales)
  (swipes)
  (taps)
  (utilities)
}

rectangle "Mixins" {
  (Hittable)
  (Interactable)
  (Lockable)
  (Locker)
  (mixins)
  (Publishable)
  (Transformable2D)
}


rectangle "Gestures" {
  (Binding)
  (Gesture)
  (gestures)
  (Input)
  (Pan)
  (PHASE)
  (Pinch)
  (PointerData)
  (Region)
  (Rotate)
  (State)
  (Swipe)
  (Tap)
  (Track)
}

(Application) ..> (MessageHandler)
(Application) ..> (Publisher)
(Application) ..> (Router)
(Application) ..> (Switchboard)
(Application) ..> (WorkSpace)
client ==> (ClientController)
client ==> (ClientModel)
client ==> (ClientView)
(ClientController) ..> (Interactor)
(ClientModel) ..> (ClientImage)
(ClientModel) ..> (ClientItem)
(ClientModel) ..> (ShadowView)
(Device) --> (mixins)
(drags) ..> (utilities)
(GestureController) --> (gestures)
(gestures) ...> (Pan)
(gestures) ...> (Pinch)
(gestures) ...> (Region)
(gestures) ...> (Rotate)
(gestures) ...> (Swipe)
(gestures) ...> (Tap)
(gestures) ...> (Track)
(Hittable) ..> (Interactable)
index ==> (predefined)
index ==> (server)
(Input) ..> (PointerData)
(Interactable) ..> (Lockable)
(Interactable) ..> (Publishable)
(Interactable) ..> (Transformable2D)
(MessageHandler) ..> (ListenerFactory)
(mixins) ..> (Hittable)
(mixins) ..> (Interactable)
(mixins) ..> (Lockable)
(mixins) ..> (Locker)
(mixins) ..> (Publishable)
(mixins) ..> (Transformable2D)
(Pan) ...> (Gesture)
(Pinch) ...> (Gesture)
(PointerData) ..> (PHASE)
(predefined) ..> (drags)
(predefined) ..> (items)
(predefined) ..> (layouts)
(predefined) ..> (rotates)
(predefined) ..> (scales)
(predefined) ..> (swipes)
(predefined) ..> (taps)
(Region) ..> (Binding)
(Region) ..> (PHASE)
(Region) ..> (State)
(Rotate) ...> (Gesture)
(rotates) ..> (utilities)
(scales) ..> (utilities)
(server) ..> (Application)
(server) ..> (Router)
(ServerController) ..> (Device)
(ServerImage) --> (mixins)
(ServerItem) --> (mixins)
(ServerView) --> (mixins)
(ServerViewGroup) ..> (GestureController)
(ServerViewGroup) --> (mixins)
(ServerViewGroup) ..> (ServerView)
(State) ..> (Input)
(State) ..> (PHASE)
(Swipe) ...> (Gesture)
(Switchboard) ..> (ServerController)
(Switchboard) ..> (ServerViewGroup)
(Tap) ...> (Gesture)
(taps) ..> (utilities)
(Track) ...> (Gesture)
(WorkSpace) ..> (ServerImage)
(WorkSpace) ..> (ServerItem)

@enduml


' View and edit on https://arkit.herokuapp.com
]]></script></g></svg>