<?xml version="1.0" encoding="UTF-8" standalone="no"?><svg xmlns="http://www.w3.org/2000/svg" xmlns:xlink="http://www.w3.org/1999/xlink" contentScriptType="application/ecmascript" contentStyleType="text/css" height="788px" preserveAspectRatio="none" style="width:1496px;height:788px;" version="1.1" viewBox="0 0 1496 788" width="1496px" zoomAndPan="magnify"><defs/><g><!--cluster Client--><rect fill="#FFFFFF" height="107" rx="2" ry="2" style="stroke: #000000; stroke-width: 1.0;" width="378" x="75" y="670"/><text fill="#000000" font-family="Tahoma, sans-serif" font-size="14" font-weight="bold" lengthAdjust="spacingAndGlyphs" textLength="39" x="78" y="686.0068">Client</text><!--cluster Server--><rect fill="#FFFFFF" height="225" rx="2" ry="2" style="stroke: #000000; stroke-width: 1.0;" width="649" x="106" y="92"/><text fill="#000000" font-family="Tahoma, sans-serif" font-size="14" font-weight="bold" lengthAdjust="spacingAndGlyphs" textLength="45" x="109" y="108.0068">Server</text><!--cluster Predefined--><rect fill="#FFFFFF" height="337" rx="2" ry="2" style="stroke: #000000; stroke-width: 1.0;" width="377" x="88" y="325"/><text fill="#000000" font-family="Tahoma, sans-serif" font-size="14" font-weight="bold" lengthAdjust="spacingAndGlyphs" textLength="74" x="91" y="341.0068">Predefined</text><!--cluster Mixins--><rect fill="#FFFFFF" height="203" rx="2" ry="2" style="stroke: #000000; stroke-width: 1.0;" width="220.5" x="773.5" y="16"/><text fill="#000000" font-family="Tahoma, sans-serif" font-size="14" font-weight="bold" lengthAdjust="spacingAndGlyphs" textLength="42" x="776.5" y="32.0068">Mixins</text><!--cluster Gestures--><rect fill="#FFFFFF" height="381" rx="2" ry="2" style="stroke: #000000; stroke-width: 1.0;" width="722" x="763" y="227"/><text fill="#000000" font-family="Tahoma, sans-serif" font-size="14" font-weight="bold" lengthAdjust="spacingAndGlyphs" textLength="61" x="766" y="243.0068">Gestures</text><ellipse cx="140.7013" cy="732.9403" fill="#F8F8F8" rx="57.7013" ry="13.9403" style="stroke: #383838; stroke-width: 0.4;"/><text fill="#000000" font-family="Tahoma, sans-serif" font-size="12" lengthAdjust="spacingAndGlyphs" textLength="82" x="99.7013" y="736.6824">ClientController</text><ellipse cx="392.098" cy="756.242" fill="#F8F8F8" rx="42.598" ry="13.242" style="stroke: #383838; stroke-width: 0.4;"/><text fill="#000000" font-family="Tahoma, sans-serif" font-size="12" lengthAdjust="spacingAndGlyphs" textLength="56" x="364.098" y="759.9842">ClientItem</text><ellipse cx="262.3051" cy="756.242" fill="#F8F8F8" rx="43.3051" ry="13.242" style="stroke: #383838; stroke-width: 0.4;"/><text fill="#000000" font-family="Tahoma, sans-serif" font-size="12" lengthAdjust="spacingAndGlyphs" textLength="57" x="233.8051" y="759.9842">ClientView</text><ellipse cx="262.3909" cy="710.242" fill="#F8F8F8" rx="41.8909" ry="13.242" style="stroke: #383838; stroke-width: 0.4;"/><text fill="#000000" font-family="Tahoma, sans-serif" font-size="12" lengthAdjust="spacingAndGlyphs" textLength="55" x="234.8909" y="713.9842">Interactor</text><ellipse cx="392.2046" cy="710.242" fill="#F8F8F8" rx="53.2046" ry="13.242" style="stroke: #383838; stroke-width: 0.4;"/><text fill="#000000" font-family="Tahoma, sans-serif" font-size="12" lengthAdjust="spacingAndGlyphs" textLength="71" x="356.7046" y="713.9842">ShadowView</text><ellipse cx="262.7193" cy="224.242" fill="#F8F8F8" rx="44.7193" ry="13.242" style="stroke: #383838; stroke-width: 0.4;"/><text fill="#000000" font-family="Tahoma, sans-serif" font-size="12" lengthAdjust="spacingAndGlyphs" textLength="59" x="233.2193" y="227.9842">Application</text><ellipse cx="684.4558" cy="152.242" fill="#F8F8F8" rx="28.4558" ry="13.242" style="stroke: #383838; stroke-width: 0.4;"/><text fill="#000000" font-family="Tahoma, sans-serif" font-size="12" lengthAdjust="spacingAndGlyphs" textLength="36" x="666.4558" y="155.9842">Device</text><ellipse cx="684.7284" cy="245.9457" fill="#F8F8F8" rx="62.7284" ry="14.9457" style="stroke: #383838; stroke-width: 0.4;"/><text fill="#000000" font-family="Tahoma, sans-serif" font-size="12" lengthAdjust="spacingAndGlyphs" textLength="95" x="637.2284" y="249.6879">GestureController</text><ellipse cx="539.5771" cy="249.0154" fill="#F8F8F8" rx="58.0771" ry="14.0154" style="stroke: #383838; stroke-width: 0.4;"/><text fill="#000000" font-family="Tahoma, sans-serif" font-size="12" lengthAdjust="spacingAndGlyphs" textLength="83" x="498.0771" y="252.7576">ListenerFactory</text><ellipse cx="392.0993" cy="271.8199" fill="#F8F8F8" rx="59.5993" ry="14.3199" style="stroke: #383838; stroke-width: 0.4;"/><text fill="#000000" font-family="Tahoma, sans-serif" font-size="12" lengthAdjust="spacingAndGlyphs" textLength="87" x="348.5993" y="275.562">MessageHandler</text><ellipse cx="391.9411" cy="224.242" fill="#F8F8F8" rx="36.9411" ry="13.242" style="stroke: #383838; stroke-width: 0.4;"/><text fill="#000000" font-family="Tahoma, sans-serif" font-size="12" lengthAdjust="spacingAndGlyphs" textLength="48" x="367.9411" y="227.9842">Publisher</text><ellipse cx="392.163" cy="132.242" fill="#F8F8F8" rx="29.163" ry="13.242" style="stroke: #383838; stroke-width: 0.4;"/><text fill="#000000" font-family="Tahoma, sans-serif" font-size="12" lengthAdjust="spacingAndGlyphs" textLength="37" x="373.663" y="135.9842">Router</text><ellipse cx="140.3345" cy="224.242" fill="#F8F8F8" rx="26.3345" ry="13.242" style="stroke: #383838; stroke-width: 0.4;"/><text fill="#000000" font-family="Tahoma, sans-serif" font-size="12" lengthAdjust="spacingAndGlyphs" textLength="33" x="123.8345" y="227.9842">server</text><ellipse cx="539.5993" cy="149.8199" fill="#F8F8F8" rx="59.5993" ry="14.3199" style="stroke: #383838; stroke-width: 0.4;"/><text fill="#000000" font-family="Tahoma, sans-serif" font-size="12" lengthAdjust="spacingAndGlyphs" textLength="87" x="496.0993" y="153.562">ServerController</text><ellipse cx="684.6335" cy="294.242" fill="#F8F8F8" rx="46.1335" ry="13.242" style="stroke: #383838; stroke-width: 0.4;"/><text fill="#000000" font-family="Tahoma, sans-serif" font-size="12" lengthAdjust="spacingAndGlyphs" textLength="61" x="654.1335" y="297.9842">ServerItem</text><ellipse cx="684.3406" cy="198.242" fill="#F8F8F8" rx="46.8406" ry="13.242" style="stroke: #383838; stroke-width: 0.4;"/><text fill="#000000" font-family="Tahoma, sans-serif" font-size="12" lengthAdjust="spacingAndGlyphs" textLength="62" x="653.3406" y="201.9842">ServerView</text><ellipse cx="539.7284" cy="199.9457" fill="#F8F8F8" rx="62.7284" ry="14.9457" style="stroke: #383838; stroke-width: 0.4;"/><text fill="#000000" font-family="Tahoma, sans-serif" font-size="12" lengthAdjust="spacingAndGlyphs" textLength="95" x="492.2284" y="203.6879">ServerViewGroup</text><ellipse cx="392.0833" cy="178.242" fill="#F8F8F8" rx="51.0833" ry="13.242" style="stroke: #383838; stroke-width: 0.4;"/><text fill="#000000" font-family="Tahoma, sans-serif" font-size="12" lengthAdjust="spacingAndGlyphs" textLength="68" x="358.0833" y="181.9842">Switchboard</text><ellipse cx="539.3406" cy="296.242" fill="#F8F8F8" rx="46.8406" ry="13.242" style="stroke: #383838; stroke-width: 0.4;"/><text fill="#000000" font-family="Tahoma, sans-serif" font-size="12" lengthAdjust="spacingAndGlyphs" textLength="62" x="508.3406" y="299.9842">WorkSpace</text><ellipse cx="262.5061" cy="457.242" fill="#F8F8F8" rx="23.5061" ry="13.242" style="stroke: #383838; stroke-width: 0.4;"/><text fill="#000000" font-family="Tahoma, sans-serif" font-size="12" lengthAdjust="spacingAndGlyphs" textLength="29" x="248.0061" y="460.9842">drags</text><ellipse cx="262.5061" cy="595.242" fill="#F8F8F8" rx="23.5061" ry="13.242" style="stroke: #383838; stroke-width: 0.4;"/><text fill="#000000" font-family="Tahoma, sans-serif" font-size="12" lengthAdjust="spacingAndGlyphs" textLength="29" x="248.0061" y="598.9842">items</text><ellipse cx="262.3701" cy="549.242" fill="#F8F8F8" rx="29.8701" ry="13.242" style="stroke: #383838; stroke-width: 0.4;"/><text fill="#000000" font-family="Tahoma, sans-serif" font-size="12" lengthAdjust="spacingAndGlyphs" textLength="38" x="243.3701" y="552.9842">layouts</text><ellipse cx="140.7193" cy="480.242" fill="#F8F8F8" rx="44.7193" ry="13.242" style="stroke: #383838; stroke-width: 0.4;"/><text fill="#000000" font-family="Tahoma, sans-serif" font-size="12" lengthAdjust="spacingAndGlyphs" textLength="59" x="111.2193" y="483.9842">predefined</text><ellipse cx="392.1408" cy="479.9282" fill="#F8F8F8" rx="65.1408" ry="15.4282" style="stroke: #383838; stroke-width: 0.4;"/><text fill="#000000" font-family="Tahoma, sans-serif" font-size="12" lengthAdjust="spacingAndGlyphs" textLength="101" x="341.6408" y="483.6704">predefined/utilities</text><ellipse cx="262.5772" cy="365.242" fill="#F8F8F8" rx="30.5772" ry="13.242" style="stroke: #383838; stroke-width: 0.4;"/><text fill="#000000" font-family="Tahoma, sans-serif" font-size="12" lengthAdjust="spacingAndGlyphs" textLength="39" x="243.0772" y="368.9842">rotates</text><ellipse cx="262.4203" cy="641.242" fill="#F8F8F8" rx="24.9203" ry="13.242" style="stroke: #383838; stroke-width: 0.4;"/><text fill="#000000" font-family="Tahoma, sans-serif" font-size="12" lengthAdjust="spacingAndGlyphs" textLength="31" x="246.9203" y="644.9842">scales</text><ellipse cx="262.4558" cy="411.242" fill="#F8F8F8" rx="28.4558" ry="13.242" style="stroke: #383838; stroke-width: 0.4;"/><text fill="#000000" font-family="Tahoma, sans-serif" font-size="12" lengthAdjust="spacingAndGlyphs" textLength="36" x="244.4558" y="414.9842">swipes</text><ellipse cx="262.2635" cy="503.242" fill="#F8F8F8" rx="19.2635" ry="13.242" style="stroke: #383838; stroke-width: 0.4;"/><text fill="#000000" font-family="Tahoma, sans-serif" font-size="12" lengthAdjust="spacingAndGlyphs" textLength="23" x="250.7635" y="506.9842">taps</text><ellipse cx="924.734" cy="198.242" fill="#F8F8F8" rx="36.234" ry="13.242" style="stroke: #383838; stroke-width: 0.4;"/><text fill="#000000" font-family="Tahoma, sans-serif" font-size="12" lengthAdjust="spacingAndGlyphs" textLength="47" x="901.234" y="201.9842">Lockable</text><ellipse cx="924.4558" cy="152.242" fill="#F8F8F8" rx="28.4558" ry="13.242" style="stroke: #383838; stroke-width: 0.4;"/><text fill="#000000" font-family="Tahoma, sans-serif" font-size="12" lengthAdjust="spacingAndGlyphs" textLength="36" x="906.4558" y="155.9842">Locker</text><ellipse cx="807.1274" cy="152.242" fill="#F8F8F8" rx="25.6274" ry="13.242" style="stroke: #383838; stroke-width: 0.4;"/><text fill="#000000" font-family="Tahoma, sans-serif" font-size="12" lengthAdjust="spacingAndGlyphs" textLength="32" x="791.1274" y="155.9842">mixins</text><ellipse cx="924.7193" cy="106.242" fill="#F8F8F8" rx="44.7193" ry="13.242" style="stroke: #383838; stroke-width: 0.4;"/><text fill="#000000" font-family="Tahoma, sans-serif" font-size="12" lengthAdjust="spacingAndGlyphs" textLength="59" x="895.2193" y="109.9842">Publishable</text><ellipse cx="924.5426" cy="58.2085" fill="#F8F8F8" rx="61.5426" ry="14.7085" style="stroke: #383838; stroke-width: 0.4;"/><text fill="#000000" font-family="Tahoma, sans-serif" font-size="12" lengthAdjust="spacingAndGlyphs" textLength="92" x="878.5426" y="61.9507">Transformable2D</text><ellipse cx="1114.5772" cy="565.242" fill="#F8F8F8" rx="30.5772" ry="13.242" style="stroke: #383838; stroke-width: 0.4;"/><text fill="#000000" font-family="Tahoma, sans-serif" font-size="12" lengthAdjust="spacingAndGlyphs" textLength="39" x="1095.0772" y="568.9842">Binding</text><ellipse cx="1422.9117" cy="565.242" fill="#F8F8F8" rx="53.9117" ry="13.242" style="stroke: #383838; stroke-width: 0.4;"/><text fill="#000000" font-family="Tahoma, sans-serif" font-size="12" lengthAdjust="spacingAndGlyphs" textLength="72" x="1386.9117" y="568.9842">core/Point2D</text><ellipse cx="1198.4056" cy="375.242" fill="#F8F8F8" rx="33.4056" ry="13.242" style="stroke: #383838; stroke-width: 0.4;"/><text fill="#000000" font-family="Tahoma, sans-serif" font-size="12" lengthAdjust="spacingAndGlyphs" textLength="43" x="1176.9056" y="378.9842">Gesture</text><ellipse cx="807.234" cy="407.242" fill="#F8F8F8" rx="36.234" ry="13.242" style="stroke: #383838; stroke-width: 0.4;"/><text fill="#000000" font-family="Tahoma, sans-serif" font-size="12" lengthAdjust="spacingAndGlyphs" textLength="47" x="783.734" y="410.9842">gestures</text><ellipse cx="1198.7132" cy="542.242" fill="#F8F8F8" rx="24.2132" ry="13.242" style="stroke: #383838; stroke-width: 0.4;"/><text fill="#000000" font-family="Tahoma, sans-serif" font-size="12" lengthAdjust="spacingAndGlyphs" textLength="30" x="1183.7132" y="545.9842">Input</text><ellipse cx="1035.1421" cy="473.242" fill="#F8F8F8" rx="17.1421" ry="13.242" style="stroke: #383838; stroke-width: 0.4;"/><text fill="#000000" font-family="Tahoma, sans-serif" font-size="12" lengthAdjust="spacingAndGlyphs" textLength="20" x="1025.1421" y="476.9842">Pan</text><ellipse cx="1423.163" cy="508.242" fill="#F8F8F8" rx="29.163" ry="13.242" style="stroke: #383838; stroke-width: 0.4;"/><text fill="#000000" font-family="Tahoma, sans-serif" font-size="12" lengthAdjust="spacingAndGlyphs" textLength="37" x="1404.663" y="511.9842">PHASE</text><ellipse cx="1035.0061" cy="427.242" fill="#F8F8F8" rx="23.5061" ry="13.242" style="stroke: #383838; stroke-width: 0.4;"/><text fill="#000000" font-family="Tahoma, sans-serif" font-size="12" lengthAdjust="spacingAndGlyphs" textLength="29" x="1020.5061" y="430.9842">Pinch</text><ellipse cx="1300.2548" cy="542.242" fill="#F8F8F8" rx="48.2548" ry="13.242" style="stroke: #383838; stroke-width: 0.4;"/><text fill="#000000" font-family="Tahoma, sans-serif" font-size="12" lengthAdjust="spacingAndGlyphs" textLength="64" x="1268.2548" y="545.9842">PointerData</text><ellipse cx="1035.163" cy="565.242" fill="#F8F8F8" rx="29.163" ry="13.242" style="stroke: #383838; stroke-width: 0.4;"/><text fill="#000000" font-family="Tahoma, sans-serif" font-size="12" lengthAdjust="spacingAndGlyphs" textLength="37" x="1016.663" y="568.9842">Region</text><ellipse cx="1035.163" cy="381.242" fill="#F8F8F8" rx="29.163" ry="13.242" style="stroke: #383838; stroke-width: 0.4;"/><text fill="#000000" font-family="Tahoma, sans-serif" font-size="12" lengthAdjust="spacingAndGlyphs" textLength="37" x="1016.663" y="384.9842">Rotate</text><ellipse cx="1114.7132" cy="519.242" fill="#F8F8F8" rx="24.2132" ry="13.242" style="stroke: #383838; stroke-width: 0.4;"/><text fill="#000000" font-family="Tahoma, sans-serif" font-size="12" lengthAdjust="spacingAndGlyphs" textLength="30" x="1099.7132" y="522.9842">State</text><ellipse cx="1034.8345" cy="335.242" fill="#F8F8F8" rx="26.3345" ry="13.242" style="stroke: #383838; stroke-width: 0.4;"/><text fill="#000000" font-family="Tahoma, sans-serif" font-size="12" lengthAdjust="spacingAndGlyphs" textLength="33" x="1018.3345" y="338.9842">Swipe</text><ellipse cx="1034.8492" cy="519.242" fill="#F8F8F8" rx="17.8492" ry="13.242" style="stroke: #383838; stroke-width: 0.4;"/><text fill="#000000" font-family="Tahoma, sans-serif" font-size="12" lengthAdjust="spacingAndGlyphs" textLength="21" x="1024.3492" y="522.9842">Tap</text><ellipse cx="1035.2132" cy="289.242" fill="#F8F8F8" rx="24.2132" ry="13.242" style="stroke: #383838; stroke-width: 0.4;"/><text fill="#000000" font-family="Tahoma, sans-serif" font-size="12" lengthAdjust="spacingAndGlyphs" textLength="30" x="1020.2132" y="292.9842">Track</text><!--entity client--><rect fill="#F8F8F8" height="36.8984" rx="2" ry="2" style="stroke: #000000; stroke-width: 1.0;" width="56" x="6.5" y="714.5"/><text fill="#000000" font-family="Tahoma, sans-serif" font-size="14" font-weight="bold" lengthAdjust="spacingAndGlyphs" textLength="36" x="16.5" y="738.5068">client</text><!--entity index--><rect fill="#F8F8F8" height="36.8984" rx="2" ry="2" style="stroke: #000000; stroke-width: 1.0;" width="57" x="6" y="333.5"/><text fill="#000000" font-family="Tahoma, sans-serif" font-size="14" font-weight="bold" lengthAdjust="spacingAndGlyphs" textLength="37" x="16" y="357.5068">index</text><!--link Application to MessageHandler--><path d="M290.281,234.2972 C308.9955,241.2338 333.9062,250.4672 354.3915,258.0602 " fill="none" id="Application-MessageHandler" style="stroke: #383838; stroke-width: 0.7; stroke-dasharray: 7.0,7.0;"/><polygon fill="#383838" points="359.2275,259.8527,352.1789,252.974,354.5392,258.1148,349.3983,260.4752,359.2275,259.8527" style="stroke: #383838; stroke-width: 0.7;"/><!--link Application to Publisher--><path d="M307.0666,224 C320.7596,224 335.7906,224 349.3519,224 " fill="none" id="Application-Publisher" style="stroke: #383838; stroke-width: 0.7; stroke-dasharray: 7.0,7.0;"/><polygon fill="#383838" points="354.6681,224,345.6681,220,349.6681,224,345.6681,228,354.6681,224" style="stroke: #383838; stroke-width: 0.7;"/><!--link Application to Router--><path d="M271.55,211.0401 C282.8861,195.6855 303.6761,170.2676 327,155 C337.2486,148.2914 349.6895,143.2711 360.9326,139.6612 " fill="none" id="Application-Router" style="stroke: #383838; stroke-width: 0.7; stroke-dasharray: 7.0,7.0;"/><polygon fill="#383838" points="366.0018,138.1009,356.2233,136.9257,361.2231,139.5719,358.5769,144.5717,366.0018,138.1009" style="stroke: #383838; stroke-width: 0.7;"/><!--link Application to Switchboard--><path d="M290.7518,213.9089 C302.0257,209.8865 315.1251,205.2182 327,201 C336.7906,197.5222 347.4142,193.7588 357.1806,190.3031 " fill="none" id="Application-Switchboard" style="stroke: #383838; stroke-width: 0.7; stroke-dasharray: 7.0,7.0;"/><polygon fill="#383838" points="361.8987,188.6341,352.0799,187.8647,357.185,190.3016,354.748,195.4066,361.8987,188.6341" style="stroke: #383838; stroke-width: 0.7;"/><!--link Application to WorkSpace--><path d="M269.3878,236.8764 C279.4274,254.1029 299.8788,283.8838 327,296 C382.4619,320.7773 454.4871,313.6821 498.8256,305.4639 " fill="none" id="Application-WorkSpace" style="stroke: #383838; stroke-width: 0.7; stroke-dasharray: 7.0,7.0;"/><polygon fill="#383838" points="503.8261,304.5105,494.2361,302.2671,498.9146,305.4471,495.7346,310.1255,503.8261,304.5105" style="stroke: #383838; stroke-width: 0.7;"/><!--link client to ClientController--><path d="M62.6278,733 C67.3198,733 72.3482,733 77.5077,733 " fill="none" id="client-ClientController" style="stroke: #383838; stroke-width: 2.0;"/><polygon fill="#383838" points="82.7033,733,73.7033,729,77.7033,733,73.7033,737,82.7033,733" style="stroke: #383838; stroke-width: 2.0;"/><!--link ClientController to ClientView--><path d="M186.2754,741.6298 C197.533,743.7521 209.5297,746.0138 220.5942,748.0997 " fill="none" id="ClientController-ClientView" style="stroke: #383838; stroke-width: 0.7; stroke-dasharray: 7.0,7.0;"/><polygon fill="#383838" points="225.6063,749.0446,217.5032,743.4463,220.6929,748.1182,216.021,751.3078,225.6063,749.0446" style="stroke: #383838; stroke-width: 0.7;"/><!--link ClientController to Interactor--><path d="M186.2754,724.3702 C197.7675,722.2037 210.0299,719.8919 221.2845,717.7701 " fill="none" id="ClientController-Interactor" style="stroke: #383838; stroke-width: 0.7; stroke-dasharray: 7.0,7.0;"/><polygon fill="#383838" points="226.3783,716.8098,216.793,714.5466,221.4649,717.7362,218.2753,722.4081,226.3783,716.8098" style="stroke: #383838; stroke-width: 0.7;"/><!--link ClientView to ClientItem--><path d="M306.3428,756 C318.4133,756 331.5697,756 343.8681,756 " fill="none" id="ClientView-ClientItem" style="stroke: #383838; stroke-width: 0.7; stroke-dasharray: 7.0,7.0;"/><polygon fill="#383838" points="349.0807,756,340.0807,752,344.0807,756,340.0807,760,349.0807,756" style="stroke: #383838; stroke-width: 0.7;"/><!--link ClientView to ShadowView--><path d="M290.4332,746.0226 C301.7784,741.9746 315.013,737.258 327,733 C336.6055,729.588 347.0129,725.9009 356.6259,722.4994 " fill="none" id="ClientView-ShadowView" style="stroke: #383838; stroke-width: 0.7; stroke-dasharray: 7.0,7.0;"/><polygon fill="#383838" points="361.5719,720.7496,351.7531,719.9805,356.8582,722.4173,354.4214,727.5224,361.5719,720.7496" style="stroke: #383838; stroke-width: 0.7;"/><!--link Device to mixins--><path d="M713.2208,152 C732.0957,152 756.7766,152 776.0807,152 " fill="none" id="Device-mixins" style="stroke: #383838; stroke-width: 0.7;"/><polygon fill="#383838" points="781.3736,152,772.3736,148,776.3736,152,772.3736,156,781.3736,152" style="stroke: #383838; stroke-width: 0.7;"/><!--link drags to predefined/utilities--><path d="M285.0572,461.0063 C298.8348,463.4533 317.1266,466.702 334.6803,469.8197 " fill="none" id="drags-predefined/utilities" style="stroke: #383838; stroke-width: 0.7; stroke-dasharray: 7.0,7.0;"/><polygon fill="#383838" points="339.6074,470.6947,331.4456,465.1824,334.6845,469.8203,330.0466,473.0591,339.6074,470.6947" style="stroke: #383838; stroke-width: 0.7;"/><!--link GestureController to gestures--><path d="M731.0359,256.059 C739.8038,259.6351 748.3082,264.4697 755,271 C788.3813,303.5757 800.6566,359.8448 804.9091,388.7294 " fill="none" id="GestureController-gestures" style="stroke: #383838; stroke-width: 0.7;"/><polygon fill="#383838" points="805.6131,393.7922,808.3353,384.327,804.9244,388.8399,800.4115,385.429,805.6131,393.7922" style="stroke: #383838; stroke-width: 0.7;"/><!--link gestures to core/Point2D--><path d="M809.8285,420.1617 C817.5356,454.796 839.881,547.1675 863,567 C922.0163,617.627 957.2438,599 1035,599 C1035,599 1035,599 1198.5,599 C1265.4833,599 1283.2926,604.0115 1349,591 C1363.3951,588.1495 1378.784,583.0915 1391.7791,578.1897 " fill="none" id="gestures-core/Point2D" style="stroke: #383838; stroke-width: 0.7; stroke-dasharray: 7.0,7.0;"/><polygon fill="#383838" points="1396.4521,576.3952,1386.6163,575.8875,1391.7844,578.1877,1389.4843,583.3558,1396.4521,576.3952" style="stroke: #383838; stroke-width: 0.7;"/><!--link gestures to Gesture--><path d="M812.9938,394.0664 C821.7262,376.4878 839.5008,345.0645 863,326 C916.5242,282.5768 938.432,279.6008 1006,266 C1031.2709,260.9132 1039.4565,258.1189 1064,266 C1106.1573,279.5371 1110.892,295.7663 1145,324 C1158.3818,335.0771 1172.5714,348.7004 1182.9725,359.0795 " fill="none" id="gestures-Gesture" style="stroke: #383838; stroke-width: 0.7; stroke-dasharray: 7.0,7.0;"/><polygon fill="#383838" points="1186.6245,362.7458,1183.1068,353.5466,1183.0958,359.2034,1177.439,359.1924,1186.6245,362.7458" style="stroke: #383838; stroke-width: 0.7;"/><!--link gestures to Pan--><path d="M831.3427,416.751 C841.1052,420.4977 852.5094,424.6704 863,428 C916.3385,444.929 980.3953,460.4496 1013.2367,468.0658 " fill="none" id="gestures-Pan" style="stroke: #383838; stroke-width: 0.7; stroke-dasharray: 7.0,7.0;"/><polygon fill="#383838" points="1018.2331,469.2193,1010.3637,463.2971,1013.3613,468.0944,1008.5639,471.092,1018.2331,469.2193" style="stroke: #383838; stroke-width: 0.7;"/><!--link gestures to Pinch--><path d="M842.1253,410.0812 C887.2863,414.0427 964.8388,420.8455 1006.5198,424.5017 " fill="none" id="gestures-Pinch" style="stroke: #383838; stroke-width: 0.7; stroke-dasharray: 7.0,7.0;"/><polygon fill="#383838" points="1011.6657,424.9531,1003.0499,420.1816,1006.6848,424.516,1002.3504,428.1509,1011.6657,424.9531" style="stroke: #383838; stroke-width: 0.7;"/><!--link gestures to Region--><path d="M809.9152,420.1547 C815.779,443.4756 831.2446,492.0492 863,518 C902.6384,550.3929 962.8374,560.5482 1000.4942,563.6787 " fill="none" id="gestures-Region" style="stroke: #383838; stroke-width: 0.7; stroke-dasharray: 7.0,7.0;"/><polygon fill="#383838" points="1005.8814,564.0914,997.2133,559.4155,1000.896,563.7094,996.6021,567.3921,1005.8814,564.0914" style="stroke: #383838; stroke-width: 0.7;"/><!--link gestures to Rotate--><path d="M841.6283,403.0512 C885.0825,398.0959 959.0815,389.6574 1001.836,384.7819 " fill="none" id="gestures-Rotate" style="stroke: #383838; stroke-width: 0.7; stroke-dasharray: 7.0,7.0;"/><polygon fill="#383838" points="1006.891,384.2054,997.4956,381.2513,1001.9232,384.7721,998.4024,389.1997,1006.891,384.2054" style="stroke: #383838; stroke-width: 0.7;"/><!--link gestures to Swipe--><path d="M832.2767,397.6736 C841.863,394.2154 852.9008,390.3278 863,387 C913.5496,370.3433 973.1155,352.7925 1007.2286,342.9373 " fill="none" id="gestures-Swipe" style="stroke: #383838; stroke-width: 0.7; stroke-dasharray: 7.0,7.0;"/><polygon fill="#383838" points="1012.0729,341.5401,1002.3169,340.1911,1007.2688,342.9258,1004.534,347.8777,1012.0729,341.5401" style="stroke: #383838; stroke-width: 0.7;"/><!--link gestures to Tap--><path d="M815.5704,419.8812 C825.4321,433.7275 842.8796,455.4365 863,468 C910.8975,497.908 977.22,511.0333 1011.8468,516.1466 " fill="none" id="gestures-Tap" style="stroke: #383838; stroke-width: 0.7; stroke-dasharray: 7.0,7.0;"/><polygon fill="#383838" points="1017.1244,516.8998,1008.78,511.6681,1012.1746,516.1932,1007.6495,519.5878,1017.1244,516.8998" style="stroke: #383838; stroke-width: 0.7;"/><!--link gestures to Track--><path d="M819.9738,394.476 C830.824,384.48 847.0484,370.6065 863,361 C911.766,331.6318 974.6951,308.6369 1009.3188,297.1171 " fill="none" id="gestures-Track" style="stroke: #383838; stroke-width: 0.7; stroke-dasharray: 7.0,7.0;"/><polygon fill="#383838" points="1014.2167,295.5014,1004.4166,294.5223,1009.4684,297.0678,1006.9229,302.1196,1014.2167,295.5014" style="stroke: #383838; stroke-width: 0.7;"/><!--link index to predefined--><path d="M49.9133,370.6123 C70.5395,395.5194 106.8136,439.3221 126.6254,463.2457 " fill="none" id="index-predefined" style="stroke: #383838; stroke-width: 2.0;"/><polygon fill="#383838" points="129.8923,467.1907,127.2327,457.7077,126.7032,463.3398,121.0712,462.8103,129.8923,467.1907" style="stroke: #383838; stroke-width: 2.0;"/><!--link index to server--><path d="M49.9133,333.3877 C70.7566,308.2184 107.579,263.7537 127.2455,240.0054 " fill="none" id="index-server" style="stroke: #383838; stroke-width: 2.0;"/><polygon fill="#383838" points="130.48,236.0996,121.659,240.4802,127.291,239.9506,127.8206,245.5826,130.48,236.0996" style="stroke: #383838; stroke-width: 2.0;"/><!--link Input to PointerData--><path d="M1222.6726,542 C1229.8929,542 1238.1162,542 1246.4485,542 " fill="none" id="Input-PointerData" style="stroke: #383838; stroke-width: 0.7; stroke-dasharray: 7.0,7.0;"/><polygon fill="#383838" points="1251.6426,542,1242.6426,538,1246.6426,542,1242.6426,546,1251.6426,542" style="stroke: #383838; stroke-width: 0.7;"/><!--link ListenerFactory to ServerItem--><path d="M575.3427,260.1236 C597.6415,267.0439 626.2187,275.9127 648.5396,282.8399 " fill="none" id="ListenerFactory-ServerItem" style="stroke: #383838; stroke-width: 0.7; stroke-dasharray: 7.0,7.0;"/><polygon fill="#383838" points="653.4912,284.3766,646.0814,277.8886,648.7159,282.8945,643.71,285.5291,653.4912,284.3766" style="stroke: #383838; stroke-width: 0.7;"/><!--link MessageHandler to ListenerFactory--><path d="M442.3486,264.149 C456.1736,261.9933 471.2227,259.6466 485.2564,257.4583 " fill="none" id="MessageHandler-ListenerFactory" style="stroke: #383838; stroke-width: 0.7; stroke-dasharray: 7.0,7.0;"/><polygon fill="#383838" points="490.3766,256.6599,480.8678,254.0944,485.4363,257.4303,482.1004,261.9989,490.3766,256.6599" style="stroke: #383838; stroke-width: 0.7;"/><!--link mixins to Lockable--><path d="M826.8946,160.3511 C837.5673,164.7855 850.965,170.2795 863,175 C873.123,178.9706 884.241,183.1756 894.2068,186.889 " fill="none" id="mixins-Lockable" style="stroke: #383838; stroke-width: 0.7; stroke-dasharray: 7.0,7.0;"/><polygon fill="#383838" points="898.9972,188.6693,891.9545,181.7845,894.3104,186.9274,889.1675,189.2833,898.9972,188.6693" style="stroke: #383838; stroke-width: 0.7;"/><!--link mixins to Locker--><path d="M832.7859,152 C849.8287,152 872.3435,152 890.8,152 " fill="none" id="mixins-Locker" style="stroke: #383838; stroke-width: 0.7; stroke-dasharray: 7.0,7.0;"/><polygon fill="#383838" points="895.8901,152,886.8901,148,890.8901,152,886.8901,156,895.8901,152" style="stroke: #383838; stroke-width: 0.7;"/><!--link mixins to Publishable--><path d="M826.8946,143.6489 C837.5673,139.2145 850.965,133.7205 863,129 C872.308,125.3491 882.4573,121.5 891.7786,118.017 " fill="none" id="mixins-Publishable" style="stroke: #383838; stroke-width: 0.7; stroke-dasharray: 7.0,7.0;"/><polygon fill="#383838" points="896.5687,116.2321,886.7385,115.6267,891.8835,117.9781,889.532,123.1231,896.5687,116.2321" style="stroke: #383838; stroke-width: 0.7;"/><!--link mixins to Transformable2D--><path d="M814.4101,139.4245 C823.9363,124.2147 841.8009,98.7035 863,83 C868.8694,78.6522 875.6018,74.9249 882.4102,71.7774 " fill="none" id="mixins-Transformable2D" style="stroke: #383838; stroke-width: 0.7; stroke-dasharray: 7.0,7.0;"/><polygon fill="#383838" points="887.1261,69.6905,877.2773,69.6748,882.5538,71.7139,880.5147,76.9905,887.1261,69.6905" style="stroke: #383838; stroke-width: 0.7;"/><!--link Pan to Gesture--><path d="M1047.1929,463.3843 C1061.04,452.4881 1081.9876,436.0879 1084,435 C1109.223,421.3646 1119.5771,427.259 1145,414 C1157.4844,407.4889 1170.2711,398.279 1180.2122,390.4441 " fill="none" id="Pan-Gesture" style="stroke: #383838; stroke-width: 0.7; stroke-dasharray: 7.0,7.0;"/><polygon fill="#383838" points="1184.2892,387.1823,1174.7627,389.6813,1180.3849,390.3059,1179.7604,395.9281,1184.2892,387.1823" style="stroke: #383838; stroke-width: 0.7;"/><!--link Pinch to Gesture--><path d="M1055.3768,420.5193 C1083.4916,411.5776 1134.4289,395.3773 1167.3405,384.91 " fill="none" id="Pinch-Gesture" style="stroke: #383838; stroke-width: 0.7; stroke-dasharray: 7.0,7.0;"/><polygon fill="#383838" points="1172.4616,383.2813,1162.6726,382.1972,1167.6968,384.7967,1165.0973,389.8209,1172.4616,383.2813" style="stroke: #383838; stroke-width: 0.7;"/><!--link PointerData to core/Point2D--><path d="M1340.2722,549.4674 C1351.2984,551.5377 1363.3878,553.8075 1374.8372,555.9572 " fill="none" id="PointerData-core/Point2D" style="stroke: #383838; stroke-width: 0.7; stroke-dasharray: 7.0,7.0;"/><polygon fill="#383838" points="1380.0465,556.9353,1371.9392,551.3431,1375.1324,556.0126,1370.4629,559.2057,1380.0465,556.9353" style="stroke: #383838; stroke-width: 0.7;"/><!--link PointerData to PHASE--><path d="M1334.2979,532.6193 C1352.8115,527.4809 1375.5442,521.1714 1393.361,516.2263 " fill="none" id="PointerData-PHASE" style="stroke: #383838; stroke-width: 0.7; stroke-dasharray: 7.0,7.0;"/><polygon fill="#383838" points="1398.2483,514.8699,1388.5063,513.4227,1393.4305,516.2072,1390.646,521.1313,1398.2483,514.8699" style="stroke: #383838; stroke-width: 0.7;"/><!--link predefined to drags--><path d="M178.0995,472.9116 C196.4997,469.4427 218.2481,465.3426 235.0593,462.1732 " fill="none" id="predefined-drags" style="stroke: #383838; stroke-width: 0.7; stroke-dasharray: 7.0,7.0;"/><polygon fill="#383838" points="240.1089,461.2213,230.5236,458.9581,235.1955,462.1477,232.0059,466.8196,240.1089,461.2213" style="stroke: #383838; stroke-width: 0.7;"/><!--link predefined to items--><path d="M148.9525,492.9886 C161.9514,512.1885 188.4629,548.4116 218,572 C224.1839,576.9385 231.5944,581.2723 238.578,584.8072 " fill="none" id="predefined-items" style="stroke: #383838; stroke-width: 0.7; stroke-dasharray: 7.0,7.0;"/><polygon fill="#383838" points="243.3244,587.1245,236.9916,579.5816,238.8313,584.9309,233.4819,586.7706,243.3244,587.1245" style="stroke: #383838; stroke-width: 0.7;"/><!--link predefined to layouts--><path d="M159.7459,491.8497 C175.3176,501.3335 197.8858,514.8451 218,526 C224.3029,529.4955 231.1886,533.1382 237.6192,536.4665 " fill="none" id="predefined-layouts" style="stroke: #383838; stroke-width: 0.7; stroke-dasharray: 7.0,7.0;"/><polygon fill="#383838" points="242.4308,538.9427,236.2588,531.2676,237.985,536.6547,232.598,538.3809,242.4308,538.9427" style="stroke: #383838; stroke-width: 0.7;"/><!--link predefined to rotates--><path d="M148.9525,467.0114 C161.9514,447.8115 188.4629,411.5884 218,388 C223.4152,383.6754 229.7709,379.8146 235.957,376.5478 " fill="none" id="predefined-rotates" style="stroke: #383838; stroke-width: 0.7; stroke-dasharray: 7.0,7.0;"/><polygon fill="#383838" points="240.636,374.1676,230.8006,374.6829,236.1795,376.4346,234.4278,381.8134,240.636,374.1676" style="stroke: #383838; stroke-width: 0.7;"/><!--link predefined to scales--><path d="M144.8924,493.0222 C154.4131,519.5678 179.2633,580.5833 218,618 C223.4888,623.3018 230.4433,627.6713 237.2137,631.1248 " fill="none" id="predefined-scales" style="stroke: #383838; stroke-width: 0.7; stroke-dasharray: 7.0,7.0;"/><polygon fill="#383838" points="241.8512,633.3694,235.493,625.8479,237.3507,631.191,232.0076,633.0487,241.8512,633.3694" style="stroke: #383838; stroke-width: 0.7;"/><!--link predefined to swipes--><path d="M159.7459,468.1503 C175.3176,458.6665 197.8858,445.1549 218,434 C224.5501,430.3675 231.7296,426.5759 238.3736,423.1434 " fill="none" id="predefined-swipes" style="stroke: #383838; stroke-width: 0.7; stroke-dasharray: 7.0,7.0;"/><polygon fill="#383838" points="242.8734,420.8308,233.0403,421.3871,238.4263,423.1163,236.6971,428.5024,242.8734,420.8308" style="stroke: #383838; stroke-width: 0.7;"/><!--link predefined to taps--><path d="M178.0995,487.0884 C197.7687,490.7966 221.2638,495.226 238.4643,498.4687 " fill="none" id="predefined-taps" style="stroke: #383838; stroke-width: 0.7; stroke-dasharray: 7.0,7.0;"/><polygon fill="#383838" points="243.5891,499.4348,235.486,493.8365,238.6757,498.5084,234.0038,501.698,243.5891,499.4348" style="stroke: #383838; stroke-width: 0.7;"/><!--link Region to Binding--><path d="M1064.1514,565 C1068.8377,565 1073.7361,565 1078.5589,565 " fill="none" id="Region-Binding" style="stroke: #383838; stroke-width: 0.7; stroke-dasharray: 7.0,7.0;"/><polygon fill="#383838" points="1083.749,565,1074.749,561,1078.749,565,1074.749,569,1083.749,565" style="stroke: #383838; stroke-width: 0.7;"/><!--link Region to PHASE--><path d="M1051.6239,554.078 C1056.0509,550.6029 1060.5544,546.4839 1064,542 C1077.5837,524.3231 1065.3566,508.2235 1084,496 C1182.919,431.1441 1335.2964,475.4449 1396.3552,497.5406 " fill="none" id="Region-PHASE" style="stroke: #383838; stroke-width: 0.7; stroke-dasharray: 7.0,7.0;"/><polygon fill="#383838" points="1401.285,499.3486,1394.2126,492.4944,1396.5907,497.627,1391.4581,500.0052,1401.285,499.3486" style="stroke: #383838; stroke-width: 0.7;"/><!--link Region to State--><path d="M1053.0398,554.5619 C1065.0354,547.621 1080.8361,538.4785 1093.4126,531.2015 " fill="none" id="Region-State" style="stroke: #383838; stroke-width: 0.7; stroke-dasharray: 7.0,7.0;"/><polygon fill="#383838" points="1097.8871,528.6125,1088.0939,529.6578,1093.5594,531.1167,1092.1005,536.5822,1097.8871,528.6125" style="stroke: #383838; stroke-width: 0.7;"/><!--link Rotate to Gesture--><path d="M1064.2305,379.9273 C1090.8634,378.95 1130.393,377.4993 1159.6706,376.4249 " fill="none" id="Rotate-Gesture" style="stroke: #383838; stroke-width: 0.7; stroke-dasharray: 7.0,7.0;"/><polygon fill="#383838" points="1165.0126,376.2289,1155.8719,372.5618,1160.016,376.4123,1156.1654,380.5564,1165.0126,376.2289" style="stroke: #383838; stroke-width: 0.7;"/><!--link rotates to predefined/utilities--><path d="M284.2275,374.3425 C291.7785,378.0678 300.082,382.7301 307,388 C334.9392,409.2828 361.4579,440.3306 377.2276,460.3503 " fill="none" id="rotates-predefined/utilities" style="stroke: #383838; stroke-width: 0.7; stroke-dasharray: 7.0,7.0;"/><polygon fill="#383838" points="380.4262,464.4474,378.0408,454.8918,377.3493,460.5062,371.7349,459.8148,380.4262,464.4474" style="stroke: #383838; stroke-width: 0.7;"/><!--link scales to predefined/utilities--><path d="M283.0181,633.2314 C291.1183,629.4792 300.1142,624.3876 307,618 C344.0516,583.6287 370.953,529.5578 383.7086,500.3488 " fill="none" id="scales-predefined/utilities" style="stroke: #383838; stroke-width: 0.7; stroke-dasharray: 7.0,7.0;"/><polygon fill="#383838" points="385.7796,495.5377,378.547,502.2227,383.8026,500.1302,385.8951,505.3859,385.7796,495.5377" style="stroke: #383838; stroke-width: 0.7;"/><!--link server to Application--><path d="M167.2734,224 C180.5072,224 196.9188,224 212.369,224 " fill="none" id="server-Application" style="stroke: #383838; stroke-width: 0.7; stroke-dasharray: 7.0,7.0;"/><polygon fill="#383838" points="217.5658,224,208.5658,220,212.5658,224,208.5658,228,217.5658,224" style="stroke: #383838; stroke-width: 0.7;"/><!--link server to Router--><path d="M161.7206,216.0369 C196.291,203.0895 266.9433,176.7338 327,155 C339.2127,150.5804 352.7492,145.7755 364.2936,141.706 " fill="none" id="server-Router" style="stroke: #383838; stroke-width: 0.7; stroke-dasharray: 7.0,7.0;"/><polygon fill="#383838" points="369.1096,140.0102,359.292,139.2265,364.3934,141.6709,361.949,146.7723,369.1096,140.0102" style="stroke: #383838; stroke-width: 0.7;"/><!--link ServerController to Device--><path d="M599.3142,150.825 C616.8363,151.0667 635.3788,151.3225 650.6743,151.5334 " fill="none" id="ServerController-Device" style="stroke: #383838; stroke-width: 0.7; stroke-dasharray: 7.0,7.0;"/><polygon fill="#383838" points="655.7308,151.6032,646.787,147.4791,650.7313,151.5341,646.6763,155.4784,655.7308,151.6032" style="stroke: #383838; stroke-width: 0.7;"/><!--link ServerItem to mixins--><path d="M726.2093,288.3985 C736.992,285.0078 747.6267,279.6019 755,271 C769.3607,254.2463 755.1957,242.6399 763,222 C770.4803,202.217 783.9258,182.0177 793.9918,168.4348 " fill="none" id="ServerItem-mixins" style="stroke: #383838; stroke-width: 0.7;"/><polygon fill="#383838" points="797.2624,164.0923,788.6527,168.8749,794.2543,168.0862,795.043,173.6878,797.2624,164.0923" style="stroke: #383838; stroke-width: 0.7;"/><!--link ServerView to mixins--><path d="M716.3244,188.3701 C728.5173,184.4847 742.4969,179.7906 755,175 C764.3332,171.424 774.4179,167.0788 783.1996,163.1324 " fill="none" id="ServerView-mixins" style="stroke: #383838; stroke-width: 0.7;"/><polygon fill="#383838" points="787.9313,160.9883,778.0827,161.0596,783.3771,163.052,781.3846,168.3464,787.9313,160.9883" style="stroke: #383838; stroke-width: 0.7;"/><!--link ServerViewGroup to GestureController--><path d="M577.2185,211.9659 C597.0279,218.2502 621.3775,225.9749 641.8691,232.4757 " fill="none" id="ServerViewGroup-GestureController" style="stroke: #383838; stroke-width: 0.7; stroke-dasharray: 7.0,7.0;"/><polygon fill="#383838" points="646.7187,234.0142,639.3496,227.4799,641.9528,232.5022,636.9305,235.1054,646.7187,234.0142" style="stroke: #383838; stroke-width: 0.7;"/><!--link ServerViewGroup to mixins--><path d="M579.9166,188.4733 C587.9297,184.8106 595.7772,180.0752 602,174 C617.6606,158.7108 603.6485,140.9262 622,129 C672.3856,96.2557 746.9947,123.1048 784.1888,140.3301 " fill="none" id="ServerViewGroup-mixins" style="stroke: #383838; stroke-width: 0.7;"/><polygon fill="#383838" points="788.9668,142.5858,782.5358,135.1264,784.4453,140.4512,779.1205,142.3607,788.9668,142.5858" style="stroke: #383838; stroke-width: 0.7;"/><!--link ServerViewGroup to ServerView--><path d="M602.2558,199.1344 C612.2931,198.996 622.5843,198.854 632.3407,198.7194 " fill="none" id="ServerViewGroup-ServerView" style="stroke: #383838; stroke-width: 0.7; stroke-dasharray: 7.0,7.0;"/><polygon fill="#383838" points="637.3898,198.6498,628.3355,194.7744,632.3903,198.7188,628.4459,202.7736,637.3898,198.6498" style="stroke: #383838; stroke-width: 0.7;"/><!--link State to core/Point2D--><path d="M1129.5817,529.4031 C1134.6635,533.1575 1140.2471,537.567 1145,542 C1154.9064,551.2396 1152.6728,559.3834 1165,565 C1234.8909,596.8444 1326.903,586.0301 1380.0474,575.4162 " fill="none" id="State-core/Point2D" style="stroke: #383838; stroke-width: 0.7; stroke-dasharray: 7.0,7.0;"/><polygon fill="#383838" points="1385.0671,574.3911,1375.4487,572.273,1380.1682,575.3917,1377.0496,580.1112,1385.0671,574.3911" style="stroke: #383838; stroke-width: 0.7;"/><!--link State to Input--><path d="M1136.1321,524.9231 C1147.1059,527.9278 1160.5275,531.6028 1172.1049,534.7728 " fill="none" id="State-Input" style="stroke: #383838; stroke-width: 0.7; stroke-dasharray: 7.0,7.0;"/><polygon fill="#383838" points="1176.9412,536.097,1169.3172,529.8621,1172.1187,534.7765,1167.2043,537.578,1176.9412,536.097" style="stroke: #383838; stroke-width: 0.7;"/><!--link State to PHASE--><path d="M1138.4508,518.146 C1192.8415,516.2066 1325.8289,511.4648 1388.8302,509.2184 " fill="none" id="State-PHASE" style="stroke: #383838; stroke-width: 0.7; stroke-dasharray: 7.0,7.0;"/><polygon fill="#383838" points="1393.9744,509.0349,1384.8375,505.3584,1388.9776,509.2132,1385.1228,513.3533,1393.9744,509.0349" style="stroke: #383838; stroke-width: 0.7;"/><!--link Swipe to Gesture--><path d="M1058.7743,340.8163 C1086.7695,347.6653 1133.4529,359.0863 1165.0797,366.8238 " fill="none" id="Swipe-Gesture" style="stroke: #383838; stroke-width: 0.7; stroke-dasharray: 7.0,7.0;"/><polygon fill="#383838" points="1170.0212,368.0327,1162.2297,362.0084,1165.1645,366.8444,1160.3284,369.7792,1170.0212,368.0327" style="stroke: #383838; stroke-width: 0.7;"/><!--link Switchboard to ServerController--><path d="M433.087,170.2004 C449.917,167.0056 469.591,163.2709 487.4128,159.8877 " fill="none" id="Switchboard-ServerController" style="stroke: #383838; stroke-width: 0.7; stroke-dasharray: 7.0,7.0;"/><polygon fill="#383838" points="492.3865,158.9436,482.7984,156.6924,487.4742,159.8762,484.2905,164.552,492.3865,158.9436" style="stroke: #383838; stroke-width: 0.7;"/><!--link Switchboard to ServerViewGroup--><path d="M436.2549,184.6007 C450.3591,186.7044 466.1865,189.0651 481.1319,191.2943 " fill="none" id="Switchboard-ServerViewGroup" style="stroke: #383838; stroke-width: 0.7; stroke-dasharray: 7.0,7.0;"/><polygon fill="#383838" points="486.1628,192.0446,477.8515,186.7605,481.2175,191.3069,476.6711,194.6729,486.1628,192.0446" style="stroke: #383838; stroke-width: 0.7;"/><!--link Tap to core/Point2D--><path d="M1048.9834,510.4105 C1058.4764,505.0993 1071.5259,498.782 1084,496 C1152.5573,480.7103 1297.8759,501.2474 1349,519 C1350.4092,519.4893 1378.1901,536.8485 1399.3007,550.0972 " fill="none" id="Tap-core/Point2D" style="stroke: #383838; stroke-width: 0.7; stroke-dasharray: 7.0,7.0;"/><polygon fill="#383838" points="1403.6923,552.8544,1398.1969,544.6812,1399.4577,550.1958,1393.9431,551.4566,1403.6923,552.8544" style="stroke: #383838; stroke-width: 0.7;"/><!--link Tap to Gesture--><path d="M1048.4571,510.2065 C1053.749,506.2973 1059.5981,501.3654 1064,496 C1076.3553,480.94 1069.2815,469.7602 1084,457 C1105.6647,438.2179 1121.1935,451.9805 1145,436 C1162.2328,424.4322 1177.3515,405.9728 1187.081,392.387 " fill="none" id="Tap-Gesture" style="stroke: #383838; stroke-width: 0.7; stroke-dasharray: 7.0,7.0;"/><polygon fill="#383838" points="1190.1692,387.9835,1181.7266,393.0553,1187.2983,392.0771,1188.2764,397.6488,1190.1692,387.9835" style="stroke: #383838; stroke-width: 0.7;"/><!--link taps to predefined/utilities--><path d="M281.6082,499.6063 C295.6278,497.1163 315.4558,493.5947 334.4475,490.2217 " fill="none" id="taps-predefined/utilities" style="stroke: #383838; stroke-width: 0.7; stroke-dasharray: 7.0,7.0;"/><polygon fill="#383838" points="339.7764,489.2752,330.2156,486.9108,334.8535,490.1496,331.6146,494.7875,339.7764,489.2752" style="stroke: #383838; stroke-width: 0.7;"/><!--link Track to Gesture--><path d="M1052.4974,298.2035 C1081.7062,313.5672 1140.478,344.4808 1173.8603,362.0396 " fill="none" id="Track-Gesture" style="stroke: #383838; stroke-width: 0.7; stroke-dasharray: 7.0,7.0;"/><polygon fill="#383838" points="1178.5947,364.53,1172.4914,356.8002,1174.1695,362.2024,1168.7673,363.8805,1178.5947,364.53" style="stroke: #383838; stroke-width: 0.7;"/><!--link WorkSpace to ServerItem--><path d="M586.5773,295.3507 C601.4363,295.1457 617.9266,294.9183 633.073,294.7093 " fill="none" id="WorkSpace-ServerItem" style="stroke: #383838; stroke-width: 0.7; stroke-dasharray: 7.0,7.0;"/><polygon fill="#383838" points="638.1538,294.6393,629.0993,290.7641,633.1543,294.7084,629.21,298.7634,638.1538,294.6393" style="stroke: #383838; stroke-width: 0.7;"/><!--
@startuml
scale max 1920 width
left to right direction

skinparam monochrome true
skinparam shadowing false
skinparam nodesep 20
skinparam ranksep 20
skinparam defaultFontName Tahoma
skinparam defaultFontSize 14
skinparam roundCorner 4
skinparam dpi 150
skinparam arrowThickness 0.7
skinparam packageTitleAlignment left

skinparam usecase {
  borderThickness 0.4
  fontSize 12
}

skinparam rectangle {
  borderThickness 1
}
    

rectangle "<b>client</b>" as client
rectangle "<b>index</b>" as index

rectangle "Client" {
  (ClientController)
  (ClientItem)
  (ClientView)
  (Interactor)
  (ShadowView)
}

rectangle "Server" {
  (Application)
  (Device)
  (GestureController)
  (ListenerFactory)
  (MessageHandler)
  (Publisher)
  (Router)
  (server)
  (ServerController)
  (ServerItem)
  (ServerView)
  (ServerViewGroup)
  (Switchboard)
  (WorkSpace)
}

rectangle "Predefined" {
  (drags)
  (items)
  (layouts)
  (predefined)
  (predefined/utilities)
  (rotates)
  (scales)
  (swipes)
  (taps)
}

rectangle "Mixins" {
  (Lockable)
  (Locker)
  (mixins)
  (Publishable)
  (Transformable2D)
}


rectangle "Gestures" {
  (Binding)
  (core/Point2D)
  (Gesture)
  (gestures)
  (Input)
  (Pan)
  (PHASE)
  (Pinch)
  (PointerData)
  (Region)
  (Rotate)
  (State)
  (Swipe)
  (Tap)
  (Track)
}

(Application) ..> (MessageHandler)
(Application) ..> (Publisher)
(Application) ..> (Router)
(Application) ..> (Switchboard)
(Application) ..> (WorkSpace)
client ==> (ClientController)
(ClientController) ..> (ClientView)
(ClientController) ..> (Interactor)
(ClientView) ..> (ClientItem)
(ClientView) ..> (ShadowView)
(Device) - -> (mixins)
(drags) ..> (predefined/utilities)
(GestureController) - -> (gestures)
(gestures) ...> (core/Point2D)
(gestures) ...> (Gesture)
(gestures) ...> (Pan)
(gestures) ...> (Pinch)
(gestures) ...> (Region)
(gestures) ...> (Rotate)
(gestures) ...> (Swipe)
(gestures) ...> (Tap)
(gestures) ...> (Track)
index ==> (predefined)
index ==> (server)
(Input) ..> (PointerData)
(ListenerFactory) ..> (ServerItem)
(MessageHandler) ..> (ListenerFactory)
(mixins) ..> (Lockable)
(mixins) ..> (Locker)
(mixins) ..> (Publishable)
(mixins) ..> (Transformable2D)
(Pan) ...> (Gesture)
(Pinch) ...> (Gesture)
(PointerData) ..> (core/Point2D)
(PointerData) ..> (PHASE)
(predefined) ..> (drags)
(predefined) ..> (items)
(predefined) ..> (layouts)
(predefined) ..> (rotates)
(predefined) ..> (scales)
(predefined) ..> (swipes)
(predefined) ..> (taps)
(Region) ..> (Binding)
(Region) ..> (PHASE)
(Region) ..> (State)
(Rotate) ...> (Gesture)
(rotates) ..> (predefined/utilities)
(scales) ..> (predefined/utilities)
(server) ..> (Application)
(server) ..> (Router)
(ServerController) ..> (Device)
(ServerItem) - -> (mixins)
(ServerView) - -> (mixins)
(ServerViewGroup) ..> (GestureController)
(ServerViewGroup) - -> (mixins)
(ServerViewGroup) ..> (ServerView)
(State) ..> (core/Point2D)
(State) ..> (Input)
(State) ..> (PHASE)
(Swipe) ...> (Gesture)
(Switchboard) ..> (ServerController)
(Switchboard) ..> (ServerViewGroup)
(Tap) ...> (core/Point2D)
(Tap) ...> (Gesture)
(taps) ..> (predefined/utilities)
(Track) ...> (Gesture)
(WorkSpace) ..> (ServerItem)
@enduml

PlantUML version 1.2019.01(Sat Feb 09 15:32:04 UTC 2019)
(GPL source distribution)
Java Runtime: OpenJDK Runtime Environment
JVM: OpenJDK 64-Bit Server VM
Java Version: 10.0.2+13
Operating System: Linux
OS Version: 4.4.0-1038-aws
Default Encoding: UTF-8
Language: en
Country: US
--></g></svg>