<?xml version="1.0" encoding="UTF-8" standalone="no"?><svg xmlns="http://www.w3.org/2000/svg" xmlns:xlink="http://www.w3.org/1999/xlink" contentScriptType="application/ecmascript" contentStyleType="text/css" height="788px" preserveAspectRatio="none" style="width:1444px;height:788px;" version="1.1" viewBox="0 0 1444 788" width="1444px" zoomAndPan="magnify"><defs/><g><!--cluster Client--><rect fill="#FFFFFF" height="107" rx="2" ry="2" style="stroke: #000000; stroke-width: 1.0;" width="372.5" x="75" y="670"/><text fill="#000000" font-family="Tahoma, sans-serif" font-size="14" font-weight="bold" lengthAdjust="spacingAndGlyphs" textLength="39" x="78" y="686.0068">Client</text><!--cluster Server--><rect fill="#FFFFFF" height="225" rx="2" ry="2" style="stroke: #000000; stroke-width: 1.0;" width="638" x="106" y="92"/><text fill="#000000" font-family="Tahoma, sans-serif" font-size="14" font-weight="bold" lengthAdjust="spacingAndGlyphs" textLength="45" x="109" y="108.0068">Server</text><!--cluster Predefined--><rect fill="#FFFFFF" height="337" rx="2" ry="2" style="stroke: #000000; stroke-width: 1.0;" width="335.5" x="88" y="325"/><text fill="#000000" font-family="Tahoma, sans-serif" font-size="14" font-weight="bold" lengthAdjust="spacingAndGlyphs" textLength="74" x="91" y="341.0068">Predefined</text><!--cluster Mixins--><rect fill="#FFFFFF" height="203" rx="2" ry="2" style="stroke: #000000; stroke-width: 1.0;" width="220.5" x="762.5" y="16"/><text fill="#000000" font-family="Tahoma, sans-serif" font-size="14" font-weight="bold" lengthAdjust="spacingAndGlyphs" textLength="42" x="765.5" y="32.0068">Mixins</text><!--cluster Gestures--><rect fill="#FFFFFF" height="381" rx="2" ry="2" style="stroke: #000000; stroke-width: 1.0;" width="681" x="752" y="227"/><text fill="#000000" font-family="Tahoma, sans-serif" font-size="14" font-weight="bold" lengthAdjust="spacingAndGlyphs" textLength="61" x="755" y="243.0068">Gestures</text><ellipse cx="140.7013" cy="732.9403" fill="#F8F8F8" rx="57.7013" ry="13.9403" style="stroke: #383838; stroke-width: 0.4;"/><text fill="#000000" font-family="Tahoma, sans-serif" font-size="12" lengthAdjust="spacingAndGlyphs" textLength="82" x="99.7013" y="736.6824">ClientController</text><ellipse cx="386.598" cy="756.242" fill="#F8F8F8" rx="42.598" ry="13.242" style="stroke: #383838; stroke-width: 0.4;"/><text fill="#000000" font-family="Tahoma, sans-serif" font-size="12" lengthAdjust="spacingAndGlyphs" textLength="56" x="358.598" y="759.9842">ClientItem</text><ellipse cx="262.3051" cy="756.242" fill="#F8F8F8" rx="43.3051" ry="13.242" style="stroke: #383838; stroke-width: 0.4;"/><text fill="#000000" font-family="Tahoma, sans-serif" font-size="12" lengthAdjust="spacingAndGlyphs" textLength="57" x="233.8051" y="759.9842">ClientView</text><ellipse cx="262.3909" cy="710.242" fill="#F8F8F8" rx="41.8909" ry="13.242" style="stroke: #383838; stroke-width: 0.4;"/><text fill="#000000" font-family="Tahoma, sans-serif" font-size="12" lengthAdjust="spacingAndGlyphs" textLength="55" x="234.8909" y="713.9842">Interactor</text><ellipse cx="386.7046" cy="710.242" fill="#F8F8F8" rx="53.2046" ry="13.242" style="stroke: #383838; stroke-width: 0.4;"/><text fill="#000000" font-family="Tahoma, sans-serif" font-size="12" lengthAdjust="spacingAndGlyphs" textLength="71" x="351.2046" y="713.9842">ShadowView</text><ellipse cx="262.7193" cy="224.242" fill="#F8F8F8" rx="44.7193" ry="13.242" style="stroke: #383838; stroke-width: 0.4;"/><text fill="#000000" font-family="Tahoma, sans-serif" font-size="12" lengthAdjust="spacingAndGlyphs" textLength="59" x="233.2193" y="227.9842">Application</text><ellipse cx="673.4558" cy="152.242" fill="#F8F8F8" rx="28.4558" ry="13.242" style="stroke: #383838; stroke-width: 0.4;"/><text fill="#000000" font-family="Tahoma, sans-serif" font-size="12" lengthAdjust="spacingAndGlyphs" textLength="36" x="655.4558" y="155.9842">Device</text><ellipse cx="673.7284" cy="245.9457" fill="#F8F8F8" rx="62.7284" ry="14.9457" style="stroke: #383838; stroke-width: 0.4;"/><text fill="#000000" font-family="Tahoma, sans-serif" font-size="12" lengthAdjust="spacingAndGlyphs" textLength="95" x="626.2284" y="249.6879">GestureController</text><ellipse cx="528.5771" cy="249.0154" fill="#F8F8F8" rx="58.0771" ry="14.0154" style="stroke: #383838; stroke-width: 0.4;"/><text fill="#000000" font-family="Tahoma, sans-serif" font-size="12" lengthAdjust="spacingAndGlyphs" textLength="83" x="487.0771" y="252.7576">ListenerFactory</text><ellipse cx="386.5993" cy="271.8199" fill="#F8F8F8" rx="59.5993" ry="14.3199" style="stroke: #383838; stroke-width: 0.4;"/><text fill="#000000" font-family="Tahoma, sans-serif" font-size="12" lengthAdjust="spacingAndGlyphs" textLength="87" x="343.0993" y="275.562">MessageHandler</text><ellipse cx="386.4411" cy="224.242" fill="#F8F8F8" rx="36.9411" ry="13.242" style="stroke: #383838; stroke-width: 0.4;"/><text fill="#000000" font-family="Tahoma, sans-serif" font-size="12" lengthAdjust="spacingAndGlyphs" textLength="48" x="362.4411" y="227.9842">Publisher</text><ellipse cx="386.663" cy="132.242" fill="#F8F8F8" rx="29.163" ry="13.242" style="stroke: #383838; stroke-width: 0.4;"/><text fill="#000000" font-family="Tahoma, sans-serif" font-size="12" lengthAdjust="spacingAndGlyphs" textLength="37" x="368.163" y="135.9842">Router</text><ellipse cx="140.3345" cy="224.242" fill="#F8F8F8" rx="26.3345" ry="13.242" style="stroke: #383838; stroke-width: 0.4;"/><text fill="#000000" font-family="Tahoma, sans-serif" font-size="12" lengthAdjust="spacingAndGlyphs" textLength="33" x="123.8345" y="227.9842">server</text><ellipse cx="528.5993" cy="149.8199" fill="#F8F8F8" rx="59.5993" ry="14.3199" style="stroke: #383838; stroke-width: 0.4;"/><text fill="#000000" font-family="Tahoma, sans-serif" font-size="12" lengthAdjust="spacingAndGlyphs" textLength="87" x="485.0993" y="153.562">ServerController</text><ellipse cx="673.6335" cy="294.242" fill="#F8F8F8" rx="46.1335" ry="13.242" style="stroke: #383838; stroke-width: 0.4;"/><text fill="#000000" font-family="Tahoma, sans-serif" font-size="12" lengthAdjust="spacingAndGlyphs" textLength="61" x="643.1335" y="297.9842">ServerItem</text><ellipse cx="673.3406" cy="198.242" fill="#F8F8F8" rx="46.8406" ry="13.242" style="stroke: #383838; stroke-width: 0.4;"/><text fill="#000000" font-family="Tahoma, sans-serif" font-size="12" lengthAdjust="spacingAndGlyphs" textLength="62" x="642.3406" y="201.9842">ServerView</text><ellipse cx="528.7284" cy="199.9457" fill="#F8F8F8" rx="62.7284" ry="14.9457" style="stroke: #383838; stroke-width: 0.4;"/><text fill="#000000" font-family="Tahoma, sans-serif" font-size="12" lengthAdjust="spacingAndGlyphs" textLength="95" x="481.2284" y="203.6879">ServerViewGroup</text><ellipse cx="386.5833" cy="178.242" fill="#F8F8F8" rx="51.0833" ry="13.242" style="stroke: #383838; stroke-width: 0.4;"/><text fill="#000000" font-family="Tahoma, sans-serif" font-size="12" lengthAdjust="spacingAndGlyphs" textLength="68" x="352.5833" y="181.9842">Switchboard</text><ellipse cx="528.3406" cy="296.242" fill="#F8F8F8" rx="46.8406" ry="13.242" style="stroke: #383838; stroke-width: 0.4;"/><text fill="#000000" font-family="Tahoma, sans-serif" font-size="12" lengthAdjust="spacingAndGlyphs" textLength="62" x="497.3406" y="299.9842">WorkSpace</text><ellipse cx="262.5061" cy="457.242" fill="#F8F8F8" rx="23.5061" ry="13.242" style="stroke: #383838; stroke-width: 0.4;"/><text fill="#000000" font-family="Tahoma, sans-serif" font-size="12" lengthAdjust="spacingAndGlyphs" textLength="29" x="248.0061" y="460.9842">drags</text><ellipse cx="262.5061" cy="595.242" fill="#F8F8F8" rx="23.5061" ry="13.242" style="stroke: #383838; stroke-width: 0.4;"/><text fill="#000000" font-family="Tahoma, sans-serif" font-size="12" lengthAdjust="spacingAndGlyphs" textLength="29" x="248.0061" y="598.9842">items</text><ellipse cx="262.3701" cy="549.242" fill="#F8F8F8" rx="29.8701" ry="13.242" style="stroke: #383838; stroke-width: 0.4;"/><text fill="#000000" font-family="Tahoma, sans-serif" font-size="12" lengthAdjust="spacingAndGlyphs" textLength="38" x="243.3701" y="552.9842">layouts</text><ellipse cx="140.7193" cy="480.242" fill="#F8F8F8" rx="44.7193" ry="13.242" style="stroke: #383838; stroke-width: 0.4;"/><text fill="#000000" font-family="Tahoma, sans-serif" font-size="12" lengthAdjust="spacingAndGlyphs" textLength="59" x="111.2193" y="483.9842">predefined</text><ellipse cx="262.5772" cy="365.242" fill="#F8F8F8" rx="30.5772" ry="13.242" style="stroke: #383838; stroke-width: 0.4;"/><text fill="#000000" font-family="Tahoma, sans-serif" font-size="12" lengthAdjust="spacingAndGlyphs" textLength="39" x="243.0772" y="368.9842">rotates</text><ellipse cx="262.4203" cy="641.242" fill="#F8F8F8" rx="24.9203" ry="13.242" style="stroke: #383838; stroke-width: 0.4;"/><text fill="#000000" font-family="Tahoma, sans-serif" font-size="12" lengthAdjust="spacingAndGlyphs" textLength="31" x="246.9203" y="644.9842">scales</text><ellipse cx="262.4558" cy="411.242" fill="#F8F8F8" rx="28.4558" ry="13.242" style="stroke: #383838; stroke-width: 0.4;"/><text fill="#000000" font-family="Tahoma, sans-serif" font-size="12" lengthAdjust="spacingAndGlyphs" textLength="36" x="244.4558" y="414.9842">swipes</text><ellipse cx="262.2635" cy="503.242" fill="#F8F8F8" rx="19.2635" ry="13.242" style="stroke: #383838; stroke-width: 0.4;"/><text fill="#000000" font-family="Tahoma, sans-serif" font-size="12" lengthAdjust="spacingAndGlyphs" textLength="23" x="250.7635" y="506.9842">taps</text><ellipse cx="386.663" cy="480.242" fill="#F8F8F8" rx="29.163" ry="13.242" style="stroke: #383838; stroke-width: 0.4;"/><text fill="#000000" font-family="Tahoma, sans-serif" font-size="12" lengthAdjust="spacingAndGlyphs" textLength="37" x="368.163" y="483.9842">utilities</text><ellipse cx="913.734" cy="198.242" fill="#F8F8F8" rx="36.234" ry="13.242" style="stroke: #383838; stroke-width: 0.4;"/><text fill="#000000" font-family="Tahoma, sans-serif" font-size="12" lengthAdjust="spacingAndGlyphs" textLength="47" x="890.234" y="201.9842">Lockable</text><ellipse cx="913.4558" cy="152.242" fill="#F8F8F8" rx="28.4558" ry="13.242" style="stroke: #383838; stroke-width: 0.4;"/><text fill="#000000" font-family="Tahoma, sans-serif" font-size="12" lengthAdjust="spacingAndGlyphs" textLength="36" x="895.4558" y="155.9842">Locker</text><ellipse cx="796.1274" cy="152.242" fill="#F8F8F8" rx="25.6274" ry="13.242" style="stroke: #383838; stroke-width: 0.4;"/><text fill="#000000" font-family="Tahoma, sans-serif" font-size="12" lengthAdjust="spacingAndGlyphs" textLength="32" x="780.1274" y="155.9842">mixins</text><ellipse cx="913.7193" cy="106.242" fill="#F8F8F8" rx="44.7193" ry="13.242" style="stroke: #383838; stroke-width: 0.4;"/><text fill="#000000" font-family="Tahoma, sans-serif" font-size="12" lengthAdjust="spacingAndGlyphs" textLength="59" x="884.2193" y="109.9842">Publishable</text><ellipse cx="913.5426" cy="58.2085" fill="#F8F8F8" rx="61.5426" ry="14.7085" style="stroke: #383838; stroke-width: 0.4;"/><text fill="#000000" font-family="Tahoma, sans-serif" font-size="12" lengthAdjust="spacingAndGlyphs" textLength="92" x="867.5426" y="61.9507">Transformable2D</text><ellipse cx="1103.5772" cy="519.242" fill="#F8F8F8" rx="30.5772" ry="13.242" style="stroke: #383838; stroke-width: 0.4;"/><text fill="#000000" font-family="Tahoma, sans-serif" font-size="12" lengthAdjust="spacingAndGlyphs" textLength="39" x="1084.0772" y="522.9842">Binding</text><ellipse cx="1187.4056" cy="393.242" fill="#F8F8F8" rx="33.4056" ry="13.242" style="stroke: #383838; stroke-width: 0.4;"/><text fill="#000000" font-family="Tahoma, sans-serif" font-size="12" lengthAdjust="spacingAndGlyphs" textLength="43" x="1165.9056" y="396.9842">Gesture</text><ellipse cx="796.234" cy="407.242" fill="#F8F8F8" rx="36.234" ry="13.242" style="stroke: #383838; stroke-width: 0.4;"/><text fill="#000000" font-family="Tahoma, sans-serif" font-size="12" lengthAdjust="spacingAndGlyphs" textLength="47" x="772.734" y="410.9842">gestures</text><ellipse cx="1187.7132" cy="543.242" fill="#F8F8F8" rx="24.2132" ry="13.242" style="stroke: #383838; stroke-width: 0.4;"/><text fill="#000000" font-family="Tahoma, sans-serif" font-size="12" lengthAdjust="spacingAndGlyphs" textLength="30" x="1172.7132" y="546.9842">Input</text><ellipse cx="1024.1421" cy="427.242" fill="#F8F8F8" rx="17.1421" ry="13.242" style="stroke: #383838; stroke-width: 0.4;"/><text fill="#000000" font-family="Tahoma, sans-serif" font-size="12" lengthAdjust="spacingAndGlyphs" textLength="20" x="1014.1421" y="430.9842">Pan</text><ellipse cx="1391.663" cy="577.242" fill="#F8F8F8" rx="29.163" ry="13.242" style="stroke: #383838; stroke-width: 0.4;"/><text fill="#000000" font-family="Tahoma, sans-serif" font-size="12" lengthAdjust="spacingAndGlyphs" textLength="37" x="1373.163" y="580.9842">PHASE</text><ellipse cx="1024.0061" cy="519.242" fill="#F8F8F8" rx="23.5061" ry="13.242" style="stroke: #383838; stroke-width: 0.4;"/><text fill="#000000" font-family="Tahoma, sans-serif" font-size="12" lengthAdjust="spacingAndGlyphs" textLength="29" x="1009.5061" y="522.9842">Pinch</text><ellipse cx="1391.4056" cy="497.242" fill="#F8F8F8" rx="33.4056" ry="13.242" style="stroke: #383838; stroke-width: 0.4;"/><text fill="#000000" font-family="Tahoma, sans-serif" font-size="12" lengthAdjust="spacingAndGlyphs" textLength="43" x="1369.9056" y="500.9842">Point2D</text><ellipse cx="1289.2548" cy="543.242" fill="#F8F8F8" rx="48.2548" ry="13.242" style="stroke: #383838; stroke-width: 0.4;"/><text fill="#000000" font-family="Tahoma, sans-serif" font-size="12" lengthAdjust="spacingAndGlyphs" textLength="64" x="1257.2548" y="546.9842">PointerData</text><ellipse cx="1024.163" cy="587.242" fill="#F8F8F8" rx="29.163" ry="13.242" style="stroke: #383838; stroke-width: 0.4;"/><text fill="#000000" font-family="Tahoma, sans-serif" font-size="12" lengthAdjust="spacingAndGlyphs" textLength="37" x="1005.663" y="590.9842">Region</text><ellipse cx="1024.163" cy="359.242" fill="#F8F8F8" rx="29.163" ry="13.242" style="stroke: #383838; stroke-width: 0.4;"/><text fill="#000000" font-family="Tahoma, sans-serif" font-size="12" lengthAdjust="spacingAndGlyphs" textLength="37" x="1005.663" y="362.9842">Rotate</text><ellipse cx="1103.7132" cy="565.242" fill="#F8F8F8" rx="24.2132" ry="13.242" style="stroke: #383838; stroke-width: 0.4;"/><text fill="#000000" font-family="Tahoma, sans-serif" font-size="12" lengthAdjust="spacingAndGlyphs" textLength="30" x="1088.7132" y="568.9842">State</text><ellipse cx="1023.8345" cy="313.242" fill="#F8F8F8" rx="26.3345" ry="13.242" style="stroke: #383838; stroke-width: 0.4;"/><text fill="#000000" font-family="Tahoma, sans-serif" font-size="12" lengthAdjust="spacingAndGlyphs" textLength="33" x="1007.3345" y="316.9842">Swipe</text><ellipse cx="1023.8492" cy="267.242" fill="#F8F8F8" rx="17.8492" ry="13.242" style="stroke: #383838; stroke-width: 0.4;"/><text fill="#000000" font-family="Tahoma, sans-serif" font-size="12" lengthAdjust="spacingAndGlyphs" textLength="21" x="1013.3492" y="270.9842">Tap</text><ellipse cx="1024.2132" cy="473.242" fill="#F8F8F8" rx="24.2132" ry="13.242" style="stroke: #383838; stroke-width: 0.4;"/><text fill="#000000" font-family="Tahoma, sans-serif" font-size="12" lengthAdjust="spacingAndGlyphs" textLength="30" x="1009.2132" y="476.9842">Track</text><!--entity client--><rect fill="#F8F8F8" height="36.8984" rx="2" ry="2" style="stroke: #000000; stroke-width: 1.0;" width="56" x="6.5" y="714.5"/><text fill="#000000" font-family="Tahoma, sans-serif" font-size="14" font-weight="bold" lengthAdjust="spacingAndGlyphs" textLength="36" x="16.5" y="738.5068">client</text><!--entity index--><rect fill="#F8F8F8" height="36.8984" rx="2" ry="2" style="stroke: #000000; stroke-width: 1.0;" width="57" x="6" y="333.5"/><text fill="#000000" font-family="Tahoma, sans-serif" font-size="14" font-weight="bold" lengthAdjust="spacingAndGlyphs" textLength="37" x="16" y="357.5068">index</text><!--link Application to MessageHandler--><path d="M289.4062,234.4153 C307.0042,241.2274 330.2268,250.2168 349.548,257.696 " fill="none" id="Application-MessageHandler" style="stroke: #383838; stroke-width: 0.7; stroke-dasharray: 7.0,7.0;"/><polygon fill="#383838" points="354.3704,259.5627,347.4215,252.5833,349.7076,257.7576,344.5333,260.0437,354.3704,259.5627" style="stroke: #383838; stroke-width: 0.7;"/><!--link Application to Publisher--><path d="M307.2668,224 C319.2855,224 332.2426,224 344.127,224 " fill="none" id="Application-Publisher" style="stroke: #383838; stroke-width: 0.7; stroke-dasharray: 7.0,7.0;"/><polygon fill="#383838" points="349.1488,224,340.1488,220,344.1488,224,340.1488,228,349.1488,224" style="stroke: #383838; stroke-width: 0.7;"/><!--link Application to Router--><path d="M271.6252,211.1531 C283.0353,195.9098 303.8981,170.6015 327,155 C335.9915,148.9278 346.8149,144.1347 356.7514,140.5311 " fill="none" id="Application-Router" style="stroke: #383838; stroke-width: 0.7; stroke-dasharray: 7.0,7.0;"/><polygon fill="#383838" points="361.5461,138.8572,351.7306,138.0473,356.8255,140.5053,354.3675,145.6002,361.5461,138.8572" style="stroke: #383838; stroke-width: 0.7;"/><!--link Application to Switchboard--><path d="M290.328,213.6767 C308.7594,206.8392 333.0502,197.8281 352.6077,190.5729 " fill="none" id="Application-Switchboard" style="stroke: #383838; stroke-width: 0.7; stroke-dasharray: 7.0,7.0;"/><polygon fill="#383838" points="357.4716,188.7686,347.6423,188.1488,352.7838,190.5077,350.4249,195.6493,357.4716,188.7686" style="stroke: #383838; stroke-width: 0.7;"/><!--link Application to WorkSpace--><path d="M269.3878,236.8764 C279.4274,254.1029 299.8788,283.8838 327,296 C378.5635,319.0357 445.2251,313.0181 487.4372,305.4293 " fill="none" id="Application-WorkSpace" style="stroke: #383838; stroke-width: 0.7; stroke-dasharray: 7.0,7.0;"/><polygon fill="#383838" points="492.4611,304.4979,482.8827,302.2055,487.5449,305.4093,484.341,310.0715,492.4611,304.4979" style="stroke: #383838; stroke-width: 0.7;"/><!--link client to ClientController--><path d="M62.6278,733 C67.3198,733 72.3482,733 77.5077,733 " fill="none" id="client-ClientController" style="stroke: #383838; stroke-width: 2.0;"/><polygon fill="#383838" points="82.7033,733,73.7033,729,77.7033,733,73.7033,737,82.7033,733" style="stroke: #383838; stroke-width: 2.0;"/><!--link ClientController to ClientView--><path d="M186.2754,741.6298 C197.533,743.7521 209.5297,746.0138 220.5942,748.0997 " fill="none" id="ClientController-ClientView" style="stroke: #383838; stroke-width: 0.7; stroke-dasharray: 7.0,7.0;"/><polygon fill="#383838" points="225.6063,749.0446,217.5032,743.4463,220.6929,748.1182,216.021,751.3078,225.6063,749.0446" style="stroke: #383838; stroke-width: 0.7;"/><!--link ClientController to Interactor--><path d="M186.2754,724.3702 C197.7675,722.2037 210.0299,719.8919 221.2845,717.7701 " fill="none" id="ClientController-Interactor" style="stroke: #383838; stroke-width: 0.7; stroke-dasharray: 7.0,7.0;"/><polygon fill="#383838" points="226.3783,716.8098,216.793,714.5466,221.4649,717.7362,218.2753,722.4081,226.3783,716.8098" style="stroke: #383838; stroke-width: 0.7;"/><!--link ClientView to ClientItem--><path d="M306.2178,756 C316.6442,756 327.8281,756 338.4378,756 " fill="none" id="ClientView-ClientItem" style="stroke: #383838; stroke-width: 0.7; stroke-dasharray: 7.0,7.0;"/><polygon fill="#383838" points="343.5942,756,334.5942,752,338.5942,756,334.5942,760,343.5942,756" style="stroke: #383838; stroke-width: 0.7;"/><!--link ClientView to ShadowView--><path d="M290.0196,745.7911 C308.3054,739.0077 332.4584,730.0477 352.0235,722.7897 " fill="none" id="ClientView-ShadowView" style="stroke: #383838; stroke-width: 0.7; stroke-dasharray: 7.0,7.0;"/><polygon fill="#383838" points="356.8925,720.9834,347.0632,720.3633,352.2047,722.7224,349.8456,727.8639,356.8925,720.9834" style="stroke: #383838; stroke-width: 0.7;"/><!--link Device to mixins--><path d="M702.2208,152 C721.0957,152 745.7766,152 765.0807,152 " fill="none" id="Device-mixins" style="stroke: #383838; stroke-width: 0.7;"/><polygon fill="#383838" points="770.3736,152,761.3736,148,765.3736,152,761.3736,156,770.3736,152" style="stroke: #383838; stroke-width: 0.7;"/><!--link drags to utilities--><path d="M284.9555,461.1651 C304.339,464.7605 332.5731,469.9974 354.352,474.0371 " fill="none" id="drags-utilities" style="stroke: #383838; stroke-width: 0.7; stroke-dasharray: 7.0,7.0;"/><polygon fill="#383838" points="359.4576,474.9841,351.3382,469.4096,354.5415,474.0721,349.879,477.2754,359.4576,474.9841" style="stroke: #383838; stroke-width: 0.7;"/><!--link GestureController to gestures--><path d="M720.0359,256.059 C728.8038,259.6351 737.3082,264.4697 744,271 C777.3813,303.5757 789.6566,359.8448 793.9091,388.7294 " fill="none" id="GestureController-gestures" style="stroke: #383838; stroke-width: 0.7;"/><polygon fill="#383838" points="794.6131,393.7922,797.3353,384.327,793.9244,388.8399,789.4115,385.429,794.6131,393.7922" style="stroke: #383838; stroke-width: 0.7;"/><!--link gestures to Gesture--><path d="M832.1296,405.708 C905.7958,403.0737 1072.7821,397.1023 1148.669,394.3886 " fill="none" id="gestures-Gesture" style="stroke: #383838; stroke-width: 0.7; stroke-dasharray: 7.0,7.0;"/><polygon fill="#383838" points="1153.9729,394.1989,1144.8357,390.5231,1148.9761,394.3776,1145.1216,398.518,1153.9729,394.1989" style="stroke: #383838; stroke-width: 0.7;"/><!--link gestures to Pan--><path d="M831.1253,410.0812 C878.7048,414.2548 962.238,421.5823 1001.8971,425.0611 " fill="none" id="gestures-Pan" style="stroke: #383838; stroke-width: 0.7; stroke-dasharray: 7.0,7.0;"/><polygon fill="#383838" points="1006.9664,425.5058,998.3506,420.7343,1001.9855,425.0687,997.6511,428.7036,1006.9664,425.5058" style="stroke: #383838; stroke-width: 0.7;"/><!--link gestures to Pinch--><path d="M804.5704,419.8812 C814.4321,433.7275 831.8796,455.4365 852,468 C897.7024,496.5374 960.1799,509.7951 995.8914,515.3923 " fill="none" id="gestures-Pinch" style="stroke: #383838; stroke-width: 0.7; stroke-dasharray: 7.0,7.0;"/><polygon fill="#383838" points="1000.9609,516.1634,992.6649,510.8553,996.0178,515.4114,991.4617,518.7643,1000.9609,516.1634" style="stroke: #383838; stroke-width: 0.7;"/><!--link gestures to Point2D--><path d="M798.5778,420.105 C803.9719,443.7943 818.8079,493.5483 852,518 C903.8856,556.2227 930.7782,536.6482 995,542 C1020.6887,544.1407 1031.4426,556.1341 1053,542 C1071.6434,529.7765 1054.4297,508.3342 1073,496 C1104.1009,475.3431 1203.6647,494.2222 1241,494 C1284.1103,493.7434 1294.9058,492.7927 1338,494 C1342.9518,494.1387 1348.1584,494.3495 1353.2995,494.5965 " fill="none" id="gestures-Point2D" style="stroke: #383838; stroke-width: 0.7; stroke-dasharray: 7.0,7.0;"/><polygon fill="#383838" points="1358.4069,494.8541,1349.6199,490.4056,1353.4133,494.6021,1349.2167,498.3954,1358.4069,494.8541" style="stroke: #383838; stroke-width: 0.7;"/><!--link gestures to Region--><path d="M796.6049,420.0533 C798.7386,449.8434 808.3891,523.0364 852,559 C891.0438,591.1974 952.4991,593.273 990.4084,590.8441 " fill="none" id="gestures-Region" style="stroke: #383838; stroke-width: 0.7; stroke-dasharray: 7.0,7.0;"/><polygon fill="#383838" points="995.8253,590.4561,986.5625,587.1094,990.8381,590.8134,987.1341,595.089,995.8253,590.4561" style="stroke: #383838; stroke-width: 0.7;"/><!--link gestures to Rotate--><path d="M820.2332,397.2598 C829.9807,393.629 841.4031,389.7307 852,387 C899.4705,374.7675 955.7538,366.8028 990.6771,362.6038 " fill="none" id="gestures-Rotate" style="stroke: #383838; stroke-width: 0.7; stroke-dasharray: 7.0,7.0;"/><polygon fill="#383838" points="995.6711,362.0115,986.2626,359.0995,990.7059,362.6005,987.205,367.0438,995.6711,362.0115" style="stroke: #383838; stroke-width: 0.7;"/><!--link gestures to Swipe--><path d="M810.975,395.121 C821.8648,386.9222 837.228,376.2358 852,369 C899.847,345.5631 959.8177,328.5953 994.8285,319.8157 " fill="none" id="gestures-Swipe" style="stroke: #383838; stroke-width: 0.7; stroke-dasharray: 7.0,7.0;"/><polygon fill="#383838" points="999.8085,318.5799,990.11,316.8653,994.9557,319.7842,992.0369,324.6298,999.8085,318.5799" style="stroke: #383838; stroke-width: 0.7;"/><!--link gestures to Tap--><path d="M804.0497,394.0691 C813.8173,379.2829 831.5411,355.1686 852,340 C899.9352,304.46 967.7913,282.3031 1002.1885,272.6466 " fill="none" id="gestures-Tap" style="stroke: #383838; stroke-width: 0.7; stroke-dasharray: 7.0,7.0;"/><polygon fill="#383838" points="1007.0144,271.3124,997.2739,269.8554,1002.1952,272.6448,999.4058,277.5661,1007.0144,271.3124" style="stroke: #383838; stroke-width: 0.7;"/><!--link gestures to Track--><path d="M820.3427,416.751 C830.1052,420.4977 841.5094,424.6704 852,428 C902.4063,443.9983 962.3848,458.7389 996.5444,466.7391 " fill="none" id="gestures-Track" style="stroke: #383838; stroke-width: 0.7; stroke-dasharray: 7.0,7.0;"/><polygon fill="#383838" points="1001.7997,467.9644,993.9432,462.0251,996.9303,466.829,992.1265,469.8162,1001.7997,467.9644" style="stroke: #383838; stroke-width: 0.7;"/><!--link index to predefined--><path d="M49.9133,370.6123 C70.5395,395.5194 106.8136,439.3221 126.6254,463.2457 " fill="none" id="index-predefined" style="stroke: #383838; stroke-width: 2.0;"/><polygon fill="#383838" points="129.8923,467.1907,127.2327,457.7077,126.7032,463.3398,121.0712,462.8103,129.8923,467.1907" style="stroke: #383838; stroke-width: 2.0;"/><!--link index to server--><path d="M49.9133,333.3877 C70.7566,308.2184 107.579,263.7537 127.2455,240.0054 " fill="none" id="index-server" style="stroke: #383838; stroke-width: 2.0;"/><polygon fill="#383838" points="130.48,236.0996,121.659,240.4802,127.291,239.9506,127.8206,245.5826,130.48,236.0996" style="stroke: #383838; stroke-width: 2.0;"/><!--link Input to PointerData--><path d="M1211.6726,543 C1218.8929,543 1227.1162,543 1235.4485,543 " fill="none" id="Input-PointerData" style="stroke: #383838; stroke-width: 0.7; stroke-dasharray: 7.0,7.0;"/><polygon fill="#383838" points="1240.6426,543,1231.6426,539,1235.6426,543,1231.6426,547,1240.6426,543" style="stroke: #383838; stroke-width: 0.7;"/><!--link ListenerFactory to ServerItem--><path d="M564.3427,260.1236 C586.6415,267.0439 615.2187,275.9127 637.5396,282.8399 " fill="none" id="ListenerFactory-ServerItem" style="stroke: #383838; stroke-width: 0.7; stroke-dasharray: 7.0,7.0;"/><polygon fill="#383838" points="642.4912,284.3766,635.0814,277.8886,637.7159,282.8945,632.71,285.5291,642.4912,284.3766" style="stroke: #383838; stroke-width: 0.7;"/><!--link MessageHandler to ListenerFactory--><path d="M436.1647,263.9557 C448.7325,261.9201 462.2835,259.7252 475.0303,257.6606 " fill="none" id="MessageHandler-ListenerFactory" style="stroke: #383838; stroke-width: 0.7; stroke-dasharray: 7.0,7.0;"/><polygon fill="#383838" points="480.0598,256.8459,470.536,254.3366,475.1241,257.6455,471.8153,262.2336,480.0598,256.8459" style="stroke: #383838; stroke-width: 0.7;"/><!--link mixins to Lockable--><path d="M815.8946,160.3511 C826.5673,164.7855 839.965,170.2795 852,175 C862.123,178.9706 873.241,183.1756 883.2068,186.889 " fill="none" id="mixins-Lockable" style="stroke: #383838; stroke-width: 0.7; stroke-dasharray: 7.0,7.0;"/><polygon fill="#383838" points="887.9972,188.6693,880.9545,181.7845,883.3104,186.9274,878.1675,189.2833,887.9972,188.6693" style="stroke: #383838; stroke-width: 0.7;"/><!--link mixins to Locker--><path d="M821.7859,152 C838.8287,152 861.3435,152 879.8,152 " fill="none" id="mixins-Locker" style="stroke: #383838; stroke-width: 0.7; stroke-dasharray: 7.0,7.0;"/><polygon fill="#383838" points="884.8901,152,875.8901,148,879.8901,152,875.8901,156,884.8901,152" style="stroke: #383838; stroke-width: 0.7;"/><!--link mixins to Publishable--><path d="M815.8946,143.6489 C826.5673,139.2145 839.965,133.7205 852,129 C861.308,125.3491 871.4573,121.5 880.7786,118.017 " fill="none" id="mixins-Publishable" style="stroke: #383838; stroke-width: 0.7; stroke-dasharray: 7.0,7.0;"/><polygon fill="#383838" points="885.5687,116.2321,875.7385,115.6267,880.8835,117.9781,878.532,123.1231,885.5687,116.2321" style="stroke: #383838; stroke-width: 0.7;"/><!--link mixins to Transformable2D--><path d="M803.4101,139.4245 C812.9363,124.2147 830.8009,98.7035 852,83 C857.8694,78.6522 864.6018,74.9249 871.4102,71.7774 " fill="none" id="mixins-Transformable2D" style="stroke: #383838; stroke-width: 0.7; stroke-dasharray: 7.0,7.0;"/><polygon fill="#383838" points="876.1261,69.6905,866.2773,69.6748,871.5538,71.7139,869.5147,76.9905,876.1261,69.6905" style="stroke: #383838; stroke-width: 0.7;"/><!--link Pan to Gesture--><path d="M1040.577,423.5528 C1066.8085,418.0979 1118.4445,407.3602 1152.9741,400.1797 " fill="none" id="Pan-Gesture" style="stroke: #383838; stroke-width: 0.7; stroke-dasharray: 7.0,7.0;"/><polygon fill="#383838" points="1157.9395,399.1471,1148.3136,397.0633,1153.0442,400.1651,1149.9424,404.8958,1157.9395,399.1471" style="stroke: #383838; stroke-width: 0.7;"/><!--link Pinch to Gesture--><path d="M1037.6495,508.3297 C1042.5224,504.4796 1048.0338,500.078 1053,496 C1062.0159,488.5965 1063.0344,485.0651 1073,479 C1098.0287,463.7673 1110.1516,471.0213 1134,454 C1150.8937,441.9424 1166.0637,423.5571 1175.8978,410.1223 " fill="none" id="Pinch-Gesture" style="stroke: #383838; stroke-width: 0.7; stroke-dasharray: 7.0,7.0;"/><polygon fill="#383838" points="1179.023,405.7723,1170.5233,410.7478,1176.1057,409.833,1177.0205,415.4154,1179.023,405.7723" style="stroke: #383838; stroke-width: 0.7;"/><!--link PointerData to PHASE--><path d="M1320.1034,553.2011 C1333.7962,557.7654 1349.8377,563.1126 1363.2429,567.581 " fill="none" id="PointerData-PHASE" style="stroke: #383838; stroke-width: 0.7; stroke-dasharray: 7.0,7.0;"/><polygon fill="#383838" points="1368.0531,569.1844,1360.7799,562.5436,1363.3097,567.6033,1358.25,570.1331,1368.0531,569.1844" style="stroke: #383838; stroke-width: 0.7;"/><!--link PointerData to Point2D--><path d="M1314.452,531.7471 C1329.7385,524.8532 1349.2928,516.0346 1364.8766,509.0066 " fill="none" id="PointerData-Point2D" style="stroke: #383838; stroke-width: 0.7; stroke-dasharray: 7.0,7.0;"/><polygon fill="#383838" points="1369.5764,506.8871,1359.7277,506.9407,1365.0185,508.9426,1363.0166,514.2334,1369.5764,506.8871" style="stroke: #383838; stroke-width: 0.7;"/><!--link predefined to drags--><path d="M178.0995,472.9116 C196.4997,469.4427 218.2481,465.3426 235.0593,462.1732 " fill="none" id="predefined-drags" style="stroke: #383838; stroke-width: 0.7; stroke-dasharray: 7.0,7.0;"/><polygon fill="#383838" points="240.1089,461.2213,230.5236,458.9581,235.1955,462.1477,232.0059,466.8196,240.1089,461.2213" style="stroke: #383838; stroke-width: 0.7;"/><!--link predefined to items--><path d="M148.9525,492.9886 C161.9514,512.1885 188.4629,548.4116 218,572 C224.1839,576.9385 231.5944,581.2723 238.578,584.8072 " fill="none" id="predefined-items" style="stroke: #383838; stroke-width: 0.7; stroke-dasharray: 7.0,7.0;"/><polygon fill="#383838" points="243.3244,587.1245,236.9916,579.5816,238.8313,584.9309,233.4819,586.7706,243.3244,587.1245" style="stroke: #383838; stroke-width: 0.7;"/><!--link predefined to layouts--><path d="M159.7459,491.8497 C175.3176,501.3335 197.8858,514.8451 218,526 C224.3029,529.4955 231.1886,533.1382 237.6192,536.4665 " fill="none" id="predefined-layouts" style="stroke: #383838; stroke-width: 0.7; stroke-dasharray: 7.0,7.0;"/><polygon fill="#383838" points="242.4308,538.9427,236.2588,531.2676,237.985,536.6547,232.598,538.3809,242.4308,538.9427" style="stroke: #383838; stroke-width: 0.7;"/><!--link predefined to rotates--><path d="M148.9525,467.0114 C161.9514,447.8115 188.4629,411.5884 218,388 C223.4152,383.6754 229.7709,379.8146 235.957,376.5478 " fill="none" id="predefined-rotates" style="stroke: #383838; stroke-width: 0.7; stroke-dasharray: 7.0,7.0;"/><polygon fill="#383838" points="240.636,374.1676,230.8006,374.6829,236.1795,376.4346,234.4278,381.8134,240.636,374.1676" style="stroke: #383838; stroke-width: 0.7;"/><!--link predefined to scales--><path d="M144.8924,493.0222 C154.4131,519.5678 179.2633,580.5833 218,618 C223.4888,623.3018 230.4433,627.6713 237.2137,631.1248 " fill="none" id="predefined-scales" style="stroke: #383838; stroke-width: 0.7; stroke-dasharray: 7.0,7.0;"/><polygon fill="#383838" points="241.8512,633.3694,235.493,625.8479,237.3507,631.191,232.0076,633.0487,241.8512,633.3694" style="stroke: #383838; stroke-width: 0.7;"/><!--link predefined to swipes--><path d="M159.7459,468.1503 C175.3176,458.6665 197.8858,445.1549 218,434 C224.5501,430.3675 231.7296,426.5759 238.3736,423.1434 " fill="none" id="predefined-swipes" style="stroke: #383838; stroke-width: 0.7; stroke-dasharray: 7.0,7.0;"/><polygon fill="#383838" points="242.8734,420.8308,233.0403,421.3871,238.4263,423.1163,236.6971,428.5024,242.8734,420.8308" style="stroke: #383838; stroke-width: 0.7;"/><!--link predefined to taps--><path d="M178.0995,487.0884 C197.7687,490.7966 221.2638,495.226 238.4643,498.4687 " fill="none" id="predefined-taps" style="stroke: #383838; stroke-width: 0.7; stroke-dasharray: 7.0,7.0;"/><polygon fill="#383838" points="243.5891,499.4348,235.486,493.8365,238.6757,498.5084,234.0038,501.698,243.5891,499.4348" style="stroke: #383838; stroke-width: 0.7;"/><!--link Region to Binding--><path d="M1036.1892,575.1926 C1045.9274,565.9112 1060.0428,552.7923 1073,542 C1076.3696,539.1934 1080.0334,536.3021 1083.6146,533.5572 " fill="none" id="Region-Binding" style="stroke: #383838; stroke-width: 0.7; stroke-dasharray: 7.0,7.0;"/><polygon fill="#383838" points="1087.7581,530.4159,1078.1696,532.6656,1083.7737,533.4366,1083.0027,539.0407,1087.7581,530.4159" style="stroke: #383838; stroke-width: 0.7;"/><!--link Region to PHASE--><path d="M1053.0179,587.6901 C1059.5882,587.8191 1066.5337,587.934 1073,588 C1100.1097,588.2766 1106.8951,588.5787 1134,588 C1214.0668,586.2906 1308.0419,581.5947 1357.342,578.9238 " fill="none" id="Region-PHASE" style="stroke: #383838; stroke-width: 0.7; stroke-dasharray: 7.0,7.0;"/><polygon fill="#383838" points="1362.5503,578.6401,1353.346,575.1356,1357.5577,578.9121,1353.7812,583.1238,1362.5503,578.6401" style="stroke: #383838; stroke-width: 0.7;"/><!--link Region to State--><path d="M1048.7185,580.1597 C1057.7179,577.6693 1067.9227,574.8453 1077.0651,572.3153 " fill="none" id="Region-State" style="stroke: #383838; stroke-width: 0.7; stroke-dasharray: 7.0,7.0;"/><polygon fill="#383838" points="1082.0205,570.944,1072.2797,569.4893,1077.2016,572.2776,1074.4134,577.1995,1082.0205,570.944" style="stroke: #383838; stroke-width: 0.7;"/><!--link Rotate to Gesture--><path d="M1050.633,364.5384 C1078.4332,370.3194 1122.1509,379.4106 1152.6737,385.7578 " fill="none" id="Rotate-Gesture" style="stroke: #383838; stroke-width: 0.7; stroke-dasharray: 7.0,7.0;"/><polygon fill="#383838" points="1157.8329,386.8307,1149.8358,381.0821,1152.9376,385.8127,1148.207,388.9145,1157.8329,386.8307" style="stroke: #383838; stroke-width: 0.7;"/><!--link rotates to utilities--><path d="M284.3261,374.2153 C291.8863,377.9286 300.1705,382.6159 307,388 C335.0496,410.113 360.7504,443.1854 374.9537,463.0699 " fill="none" id="rotates-utilities" style="stroke: #383838; stroke-width: 0.7; stroke-dasharray: 7.0,7.0;"/><polygon fill="#383838" points="377.975,467.3447,376.0468,457.6864,375.0891,463.2616,369.5139,462.3039,377.975,467.3447" style="stroke: #383838; stroke-width: 0.7;"/><!--link scales to utilities--><path d="M283.1131,633.3323 C291.2277,629.5955 300.2089,624.4882 307,618 C343.8883,582.757 368.9014,526.6266 379.9942,498.0274 " fill="none" id="scales-utilities" style="stroke: #383838; stroke-width: 0.7; stroke-dasharray: 7.0,7.0;"/><polygon fill="#383838" points="381.9032,493.019,374.96,500.0041,380.1224,497.6911,382.4354,502.8535,381.9032,493.019" style="stroke: #383838; stroke-width: 0.7;"/><!--link server to Application--><path d="M167.2734,224 C180.5072,224 196.9188,224 212.369,224 " fill="none" id="server-Application" style="stroke: #383838; stroke-width: 0.7; stroke-dasharray: 7.0,7.0;"/><polygon fill="#383838" points="217.5658,224,208.5658,220,212.5658,224,208.5658,228,217.5658,224" style="stroke: #383838; stroke-width: 0.7;"/><!--link server to Router--><path d="M161.9005,215.9965 C206.541,199.3017 309.5388,160.7822 359.0057,142.2824 " fill="none" id="server-Router" style="stroke: #383838; stroke-width: 0.7; stroke-dasharray: 7.0,7.0;"/><polygon fill="#383838" points="363.9084,140.4489,354.0775,139.8549,359.2252,142.2004,356.8798,147.3481,363.9084,140.4489" style="stroke: #383838; stroke-width: 0.7;"/><!--link ServerController to Device--><path d="M588.3142,150.825 C605.8363,151.0667 624.3788,151.3225 639.6743,151.5334 " fill="none" id="ServerController-Device" style="stroke: #383838; stroke-width: 0.7; stroke-dasharray: 7.0,7.0;"/><polygon fill="#383838" points="644.7308,151.6032,635.787,147.4791,639.7313,151.5341,635.6763,155.4784,644.7308,151.6032" style="stroke: #383838; stroke-width: 0.7;"/><!--link ServerItem to mixins--><path d="M715.2093,288.3985 C725.992,285.0078 736.6267,279.6019 744,271 C758.3607,254.2463 744.1957,242.6399 752,222 C759.4803,202.217 772.9258,182.0177 782.9918,168.4348 " fill="none" id="ServerItem-mixins" style="stroke: #383838; stroke-width: 0.7;"/><polygon fill="#383838" points="786.2624,164.0923,777.6527,168.8749,783.2543,168.0862,784.043,173.6878,786.2624,164.0923" style="stroke: #383838; stroke-width: 0.7;"/><!--link ServerView to mixins--><path d="M705.3244,188.3701 C717.5173,184.4847 731.4969,179.7906 744,175 C753.3332,171.424 763.4179,167.0788 772.1996,163.1324 " fill="none" id="ServerView-mixins" style="stroke: #383838; stroke-width: 0.7;"/><polygon fill="#383838" points="776.9313,160.9883,767.0827,161.0596,772.3771,163.052,770.3846,168.3464,776.9313,160.9883" style="stroke: #383838; stroke-width: 0.7;"/><!--link ServerViewGroup to GestureController--><path d="M566.2185,211.9659 C586.0279,218.2502 610.3775,225.9749 630.8691,232.4757 " fill="none" id="ServerViewGroup-GestureController" style="stroke: #383838; stroke-width: 0.7; stroke-dasharray: 7.0,7.0;"/><polygon fill="#383838" points="635.7187,234.0142,628.3496,227.4799,630.9528,232.5022,625.9305,235.1054,635.7187,234.0142" style="stroke: #383838; stroke-width: 0.7;"/><!--link ServerViewGroup to mixins--><path d="M568.9166,188.4733 C576.9297,184.8106 584.7772,180.0752 591,174 C606.6606,158.7108 592.6485,140.9262 611,129 C661.3856,96.2557 735.9947,123.1048 773.1888,140.3301 " fill="none" id="ServerViewGroup-mixins" style="stroke: #383838; stroke-width: 0.7;"/><polygon fill="#383838" points="777.9668,142.5858,771.5358,135.1264,773.4453,140.4512,768.1205,142.3607,777.9668,142.5858" style="stroke: #383838; stroke-width: 0.7;"/><!--link ServerViewGroup to ServerView--><path d="M591.2558,199.1344 C601.2931,198.996 611.5843,198.854 621.3407,198.7194 " fill="none" id="ServerViewGroup-ServerView" style="stroke: #383838; stroke-width: 0.7; stroke-dasharray: 7.0,7.0;"/><polygon fill="#383838" points="626.3898,198.6498,617.3355,194.7744,621.3903,198.7188,617.4459,202.7736,626.3898,198.6498" style="stroke: #383838; stroke-width: 0.7;"/><!--link State to Input--><path d="M1125.1321,559.3345 C1135.9236,556.5081 1149.0823,553.0618 1160.5264,550.0645 " fill="none" id="State-Input" style="stroke: #383838; stroke-width: 0.7; stroke-dasharray: 7.0,7.0;"/><polygon fill="#383838" points="1165.6493,548.7228,1155.9295,547.1337,1160.8125,549.9897,1157.9565,554.8726,1165.6493,548.7228" style="stroke: #383838; stroke-width: 0.7;"/><!--link State to PHASE--><path d="M1127.5594,566.0025 C1178.608,568.1295 1297.9208,573.1009 1357.041,575.5642 " fill="none" id="State-PHASE" style="stroke: #383838; stroke-width: 0.7; stroke-dasharray: 7.0,7.0;"/><polygon fill="#383838" points="1362.226,575.7802,1353.4004,571.4088,1357.2303,575.5719,1353.0672,579.4018,1362.226,575.7802" style="stroke: #383838; stroke-width: 0.7;"/><!--link State to Point2D--><path d="M1118.5262,554.5366 C1123.6035,550.7774 1129.1985,546.3803 1134,542 C1143.7623,533.0942 1142.1874,525.9228 1154,520 C1187.8796,503.013 1294.661,498.559 1352.8219,497.4001 " fill="none" id="State-Point2D" style="stroke: #383838; stroke-width: 0.7; stroke-dasharray: 7.0,7.0;"/><polygon fill="#383838" points="1357.9518,497.304,1348.8783,493.4736,1352.9527,497.3979,1349.0285,501.4722,1357.9518,497.304" style="stroke: #383838; stroke-width: 0.7;"/><!--link Swipe to Gesture--><path d="M1043.0755,322.3336 C1072.4612,336.7119 1128.8483,364.3019 1161.8014,380.4258 " fill="none" id="Swipe-Gesture" style="stroke: #383838; stroke-width: 0.7; stroke-dasharray: 7.0,7.0;"/><polygon fill="#383838" points="1166.4873,382.7186,1160.1613,375.17,1161.9961,380.521,1156.6451,382.3559,1166.4873,382.7186" style="stroke: #383838; stroke-width: 0.7;"/><!--link Switchboard to ServerController--><path d="M427.1915,169.9763 C442.7142,166.9155 460.6163,163.3855 477.0132,160.1523 " fill="none" id="Switchboard-ServerController" style="stroke: #383838; stroke-width: 0.7; stroke-dasharray: 7.0,7.0;"/><polygon fill="#383838" points="482.0492,159.1593,472.4454,156.976,477.1437,160.1266,473.993,164.8248,482.0492,159.1593" style="stroke: #383838; stroke-width: 0.7;"/><!--link Switchboard to ServerViewGroup--><path d="M430.2634,184.7802 C443.1095,186.7705 457.3578,188.978 470.927,191.0802 " fill="none" id="Switchboard-ServerViewGroup" style="stroke: #383838; stroke-width: 0.7; stroke-dasharray: 7.0,7.0;"/><polygon fill="#383838" points="475.8916,191.8494,467.6102,186.5186,470.9506,191.0838,466.3853,194.4242,475.8916,191.8494" style="stroke: #383838; stroke-width: 0.7;"/><!--link Tap to Gesture--><path d="M1037.5669,275.8873 C1058.6996,289.8919 1100.5268,318.2603 1134,345 C1146.8513,355.2661 1160.6521,367.6858 1171.0176,377.3197 " fill="none" id="Tap-Gesture" style="stroke: #383838; stroke-width: 0.7; stroke-dasharray: 7.0,7.0;"/><polygon fill="#383838" points="1174.6729,380.7338,1170.8259,371.6673,1171.0189,377.3209,1165.3653,377.5138,1174.6729,380.7338" style="stroke: #383838; stroke-width: 0.7;"/><!--link Tap to Point2D--><path d="M1039.9531,273.5358 C1061.6141,282.5707 1101.37,299.7257 1134,317 C1230.0069,367.8261 1332.4813,448.5124 1373.2533,481.8365 " fill="none" id="Tap-Point2D" style="stroke: #383838; stroke-width: 0.7; stroke-dasharray: 7.0,7.0;"/><polygon fill="#383838" points="1377.233,485.0992,1372.8089,476.2999,1373.3663,481.9292,1367.737,482.4866,1377.233,485.0992" style="stroke: #383838; stroke-width: 0.7;"/><!--link taps to utilities--><path d="M281.3329,499.5068 C300.7331,495.9084 331.3275,490.2336 354.5271,485.9305 " fill="none" id="taps-utilities" style="stroke: #383838; stroke-width: 0.7; stroke-dasharray: 7.0,7.0;"/><polygon fill="#383838" points="359.6559,484.9791,350.0773,482.6875,354.7398,485.891,351.5363,490.5534,359.6559,484.9791" style="stroke: #383838; stroke-width: 0.7;"/><!--link Track to Gesture--><path d="M1042.4051,464.5769 C1064.3397,454.4747 1102.0418,436.9085 1134,421 C1143.5902,416.2261 1154.0486,410.802 1163.1541,406.0074 " fill="none" id="Track-Gesture" style="stroke: #383838; stroke-width: 0.7; stroke-dasharray: 7.0,7.0;"/><polygon fill="#383838" points="1167.7806,403.5643,1157.9543,404.2299,1163.3592,405.8991,1161.69,411.3041,1167.7806,403.5643" style="stroke: #383838; stroke-width: 0.7;"/><!--link WorkSpace to ServerItem--><path d="M575.5773,295.3507 C590.4363,295.1457 606.9266,294.9183 622.073,294.7093 " fill="none" id="WorkSpace-ServerItem" style="stroke: #383838; stroke-width: 0.7; stroke-dasharray: 7.0,7.0;"/><polygon fill="#383838" points="627.1538,294.6393,618.0993,290.7641,622.1543,294.7084,618.21,298.7634,627.1538,294.6393" style="stroke: #383838; stroke-width: 0.7;"/><!--
@startuml
scale max 1920 width
left to right direction

skinparam monochrome true
skinparam shadowing false
skinparam nodesep 20
skinparam ranksep 20
skinparam defaultFontName Tahoma
skinparam defaultFontSize 14
skinparam roundCorner 4
skinparam dpi 150
skinparam arrowThickness 0.7
skinparam packageTitleAlignment left

skinparam usecase {
  borderThickness 0.4
  fontSize 12
}

skinparam rectangle {
  borderThickness 1
}


rectangle "<b>client</b>" as client
rectangle "<b>index</b>" as index

rectangle "Client" {
  (ClientController)
  (ClientItem)
  (ClientView)
  (Interactor)
  (ShadowView)
}

rectangle "Server" {
  (Application)
  (Device)
  (GestureController)
  (ListenerFactory)
  (MessageHandler)
  (Publisher)
  (Router)
  (server)
  (ServerController)
  (ServerItem)
  (ServerView)
  (ServerViewGroup)
  (Switchboard)
  (WorkSpace)
}

rectangle "Predefined" {
  (drags)
  (items)
  (layouts)
  (predefined)
  (rotates)
  (scales)
  (swipes)
  (taps)
  (utilities)
}

rectangle "Mixins" {
  (Lockable)
  (Locker)
  (mixins)
  (Publishable)
  (Transformable2D)
}


rectangle "Gestures" {
  (Binding)
  (Gesture)
  (gestures)
  (Input)
  (Pan)
  (PHASE)
  (Pinch)
  (Point2D)
  (PointerData)
  (Region)
  (Rotate)
  (State)
  (Swipe)
  (Tap)
  (Track)
}

(Application) ..> (MessageHandler)
(Application) ..> (Publisher)
(Application) ..> (Router)
(Application) ..> (Switchboard)
(Application) ..> (WorkSpace)
client ==> (ClientController)
(ClientController) ..> (ClientView)
(ClientController) ..> (Interactor)
(ClientView) ..> (ClientItem)
(ClientView) ..> (ShadowView)
(Device) - -> (mixins)
(drags) ..> (utilities)
(GestureController) - -> (gestures)
(gestures) ...> (Gesture)
(gestures) ...> (Pan)
(gestures) ...> (Pinch)
(gestures) ...> (Point2D)
(gestures) ...> (Region)
(gestures) ...> (Rotate)
(gestures) ...> (Swipe)
(gestures) ...> (Tap)
(gestures) ...> (Track)
index ==> (predefined)
index ==> (server)
(Input) ..> (PointerData)
(ListenerFactory) ..> (ServerItem)
(MessageHandler) ..> (ListenerFactory)
(mixins) ..> (Lockable)
(mixins) ..> (Locker)
(mixins) ..> (Publishable)
(mixins) ..> (Transformable2D)
(Pan) ...> (Gesture)
(Pinch) ...> (Gesture)
(PointerData) ..> (PHASE)
(PointerData) ..> (Point2D)
(predefined) ..> (drags)
(predefined) ..> (items)
(predefined) ..> (layouts)
(predefined) ..> (rotates)
(predefined) ..> (scales)
(predefined) ..> (swipes)
(predefined) ..> (taps)
(Region) ..> (Binding)
(Region) ..> (PHASE)
(Region) ..> (State)
(Rotate) ...> (Gesture)
(rotates) ..> (utilities)
(scales) ..> (utilities)
(server) ..> (Application)
(server) ..> (Router)
(ServerController) ..> (Device)
(ServerItem) - -> (mixins)
(ServerView) - -> (mixins)
(ServerViewGroup) ..> (GestureController)
(ServerViewGroup) - -> (mixins)
(ServerViewGroup) ..> (ServerView)
(State) ..> (Input)
(State) ..> (PHASE)
(State) ..> (Point2D)
(Swipe) ...> (Gesture)
(Switchboard) ..> (ServerController)
(Switchboard) ..> (ServerViewGroup)
(Tap) ...> (Gesture)
(Tap) ...> (Point2D)
(taps) ..> (utilities)
(Track) ...> (Gesture)
(WorkSpace) ..> (ServerItem)
@enduml

PlantUML version 1.2019.01(Sat Feb 09 15:32:04 UTC 2019)
(GPL source distribution)
Java Runtime: OpenJDK Runtime Environment
JVM: OpenJDK 64-Bit Server VM
Java Version: 10.0.2+13
Operating System: Linux
OS Version: 4.4.0-1038-aws
Default Encoding: UTF-8
Language: en
Country: US
--></g></svg>