<?xml version="1.0" encoding="UTF-8"?>
<svg xmlns="http://www.w3.org/2000/svg" xmlns:xlink="http://www.w3.org/1999/xlink" width="160pt" height="160pt" viewBox="0 0 160 160" version="1.2">
<g id="surface1">
<path style=" stroke:none;fill-rule:nonzero;fill:rgb(100%,100%,87.889099%);fill-opacity:1;" d="M 3.808594 156.191406 L 156.191406 156.191406 L 156.191406 3.808594 L 3.808594 3.808594 Z M 3.808594 156.191406 "/>
<path style=" stroke:none;fill-rule:nonzero;fill:rgb(33.300781%,41.992188%,18.406677%);fill-opacity:1;" d="M 3.808594 156.191406 L 22.859375 156.191406 L 22.859375 137.140625 L 3.808594 137.140625 Z M 3.808594 156.191406 "/>
<path style=" stroke:none;fill-rule:nonzero;fill:rgb(33.300781%,41.992188%,18.406677%);fill-opacity:1;" d="M 41.902344 156.191406 L 60.953125 156.191406 L 60.953125 137.140625 L 41.902344 137.140625 Z M 41.902344 156.191406 "/>
<path style=" stroke:none;fill-rule:nonzero;fill:rgb(33.300781%,41.992188%,18.406677%);fill-opacity:1;" d="M 80 156.191406 L 99.046875 156.191406 L 99.046875 137.140625 L 80 137.140625 Z M 80 156.191406 "/>
<path style=" stroke:none;fill-rule:nonzero;fill:rgb(33.300781%,41.992188%,18.406677%);fill-opacity:1;" d="M 118.097656 156.191406 L 137.140625 156.191406 L 137.140625 137.140625 L 118.097656 137.140625 Z M 118.097656 156.191406 "/>
<path style=" stroke:none;fill-rule:nonzero;fill:rgb(33.300781%,41.992188%,18.406677%);fill-opacity:1;" d="M 22.855469 137.144531 L 41.902344 137.144531 L 41.902344 118.097656 L 22.855469 118.097656 Z M 22.855469 137.144531 "/>
<path style=" stroke:none;fill-rule:nonzero;fill:rgb(33.300781%,41.992188%,18.406677%);fill-opacity:1;" d="M 60.953125 137.144531 L 80 137.144531 L 80 118.097656 L 60.953125 118.097656 Z M 60.953125 137.144531 "/>
<path style=" stroke:none;fill-rule:nonzero;fill:rgb(33.300781%,41.992188%,18.406677%);fill-opacity:1;" d="M 99.046875 137.144531 L 118.097656 137.144531 L 118.097656 118.097656 L 99.046875 118.097656 Z M 99.046875 137.144531 "/>
<path style=" stroke:none;fill-rule:nonzero;fill:rgb(33.300781%,41.992188%,18.406677%);fill-opacity:1;" d="M 137.144531 137.144531 L 156.191406 137.144531 L 156.191406 118.097656 L 137.144531 118.097656 Z M 137.144531 137.144531 "/>
<path style=" stroke:none;fill-rule:nonzero;fill:rgb(33.300781%,41.992188%,18.406677%);fill-opacity:1;" d="M 3.808594 118.097656 L 22.859375 118.097656 L 22.859375 99.046875 L 3.808594 99.046875 Z M 3.808594 118.097656 "/>
<path style=" stroke:none;fill-rule:nonzero;fill:rgb(33.300781%,41.992188%,18.406677%);fill-opacity:1;" d="M 41.902344 118.097656 L 60.953125 118.097656 L 60.953125 99.046875 L 41.902344 99.046875 Z M 41.902344 118.097656 "/>
<path style=" stroke:none;fill-rule:nonzero;fill:rgb(33.300781%,41.992188%,18.406677%);fill-opacity:1;" d="M 80 118.097656 L 99.046875 118.097656 L 99.046875 99.046875 L 80 99.046875 Z M 80 118.097656 "/>
<path style=" stroke:none;fill-rule:nonzero;fill:rgb(33.300781%,41.992188%,18.406677%);fill-opacity:1;" d="M 118.097656 118.097656 L 137.140625 118.097656 L 137.140625 99.046875 L 118.097656 99.046875 Z M 118.097656 118.097656 "/>
<path style=" stroke:none;fill-rule:nonzero;fill:rgb(33.300781%,41.992188%,18.406677%);fill-opacity:1;" d="M 22.855469 99.046875 L 41.902344 99.046875 L 41.902344 80 L 22.855469 80 Z M 22.855469 99.046875 "/>
<path style=" stroke:none;fill-rule:nonzero;fill:rgb(33.300781%,41.992188%,18.406677%);fill-opacity:1;" d="M 60.953125 99.046875 L 80 99.046875 L 80 80 L 60.953125 80 Z M 60.953125 99.046875 "/>
<path style=" stroke:none;fill-rule:nonzero;fill:rgb(33.300781%,41.992188%,18.406677%);fill-opacity:1;" d="M 99.046875 99.046875 L 118.097656 99.046875 L 118.097656 80 L 99.046875 80 Z M 99.046875 99.046875 "/>
<path style=" stroke:none;fill-rule:nonzero;fill:rgb(33.300781%,41.992188%,18.406677%);fill-opacity:1;" d="M 137.144531 99.046875 L 156.191406 99.046875 L 156.191406 80 L 137.144531 80 Z M 137.144531 99.046875 "/>
<path style=" stroke:none;fill-rule:nonzero;fill:rgb(33.300781%,41.992188%,18.406677%);fill-opacity:1;" d="M 3.808594 80 L 22.859375 80 L 22.859375 60.953125 L 3.808594 60.953125 Z M 3.808594 80 "/>
<path style=" stroke:none;fill-rule:nonzero;fill:rgb(33.300781%,41.992188%,18.406677%);fill-opacity:1;" d="M 41.902344 80 L 60.953125 80 L 60.953125 60.953125 L 41.902344 60.953125 Z M 41.902344 80 "/>
<path style=" stroke:none;fill-rule:nonzero;fill:rgb(33.300781%,41.992188%,18.406677%);fill-opacity:1;" d="M 80 80 L 99.046875 80 L 99.046875 60.953125 L 80 60.953125 Z M 80 80 "/>
<path style=" stroke:none;fill-rule:nonzero;fill:rgb(33.300781%,41.992188%,18.406677%);fill-opacity:1;" d="M 118.097656 80 L 137.140625 80 L 137.140625 60.953125 L 118.097656 60.953125 Z M 118.097656 80 "/>
<path style=" stroke:none;fill-rule:nonzero;fill:rgb(33.300781%,41.992188%,18.406677%);fill-opacity:1;" d="M 22.855469 60.953125 L 41.902344 60.953125 L 41.902344 41.902344 L 22.855469 41.902344 Z M 22.855469 60.953125 "/>
<path style=" stroke:none;fill-rule:nonzero;fill:rgb(33.300781%,41.992188%,18.406677%);fill-opacity:1;" d="M 60.953125 60.953125 L 80 60.953125 L 80 41.902344 L 60.953125 41.902344 Z M 60.953125 60.953125 "/>
<path style=" stroke:none;fill-rule:nonzero;fill:rgb(33.300781%,41.992188%,18.406677%);fill-opacity:1;" d="M 99.046875 60.953125 L 118.097656 60.953125 L 118.097656 41.902344 L 99.046875 41.902344 Z M 99.046875 60.953125 "/>
<path style=" stroke:none;fill-rule:nonzero;fill:rgb(33.300781%,41.992188%,18.406677%);fill-opacity:1;" d="M 137.144531 60.953125 L 156.191406 60.953125 L 156.191406 41.902344 L 137.144531 41.902344 Z M 137.144531 60.953125 "/>
<path style=" stroke:none;fill-rule:nonzero;fill:rgb(33.300781%,41.992188%,18.406677%);fill-opacity:1;" d="M 3.808594 41.902344 L 22.859375 41.902344 L 22.859375 22.859375 L 3.808594 22.859375 Z M 3.808594 41.902344 "/>
<path style=" stroke:none;fill-rule:nonzero;fill:rgb(33.300781%,41.992188%,18.406677%);fill-opacity:1;" d="M 41.902344 41.902344 L 60.953125 41.902344 L 60.953125 22.859375 L 41.902344 22.859375 Z M 41.902344 41.902344 "/>
<path style=" stroke:none;fill-rule:nonzero;fill:rgb(33.300781%,41.992188%,18.406677%);fill-opacity:1;" d="M 80 41.902344 L 99.046875 41.902344 L 99.046875 22.859375 L 80 22.859375 Z M 80 41.902344 "/>
<path style=" stroke:none;fill-rule:nonzero;fill:rgb(33.300781%,41.992188%,18.406677%);fill-opacity:1;" d="M 118.097656 41.902344 L 137.140625 41.902344 L 137.140625 22.859375 L 118.097656 22.859375 Z M 118.097656 41.902344 "/>
<path style=" stroke:none;fill-rule:nonzero;fill:rgb(33.300781%,41.992188%,18.406677%);fill-opacity:1;" d="M 22.855469 22.855469 L 41.902344 22.855469 L 41.902344 3.808594 L 22.855469 3.808594 Z M 22.855469 22.855469 "/>
<path style=" stroke:none;fill-rule:nonzero;fill:rgb(33.300781%,41.992188%,18.406677%);fill-opacity:1;" d="M 60.953125 22.855469 L 80 22.855469 L 80 3.808594 L 60.953125 3.808594 Z M 60.953125 22.855469 "/>
<path style=" stroke:none;fill-rule:nonzero;fill:rgb(33.300781%,41.992188%,18.406677%);fill-opacity:1;" d="M 99.046875 22.855469 L 118.097656 22.855469 L 118.097656 3.808594 L 99.046875 3.808594 Z M 99.046875 22.855469 "/>
<path style=" stroke:none;fill-rule:nonzero;fill:rgb(33.300781%,41.992188%,18.406677%);fill-opacity:1;" d="M 137.144531 22.855469 L 156.191406 22.855469 L 156.191406 3.808594 L 137.144531 3.808594 Z M 137.144531 22.855469 "/>
<path style="fill:none;stroke-width:5;stroke-linecap:round;stroke-linejoin:round;stroke:rgb(0%,0%,0%);stroke-opacity:1;stroke-miterlimit:10;" d="M 38.085938 38.085938 L 1561.914062 38.085938 L 1561.914062 1561.914062 L 38.085938 1561.914062 L 38.085938 38.085938 " transform="matrix(0.1,0,0,-0.1,0,160)"/>
<path style="fill:none;stroke-width:5;stroke-linecap:round;stroke-linejoin:round;stroke:rgb(0%,0%,0%);stroke-opacity:1;stroke-miterlimit:10;" d="M 38.085938 38.085938 L 38.085938 1561.914062 " transform="matrix(0.1,0,0,-0.1,0,160)"/>
<path style="fill:none;stroke-width:5;stroke-linecap:round;stroke-linejoin:round;stroke:rgb(0%,0%,0%);stroke-opacity:1;stroke-miterlimit:10;" d="M 228.554688 38.085938 L 228.554688 1561.914062 " transform="matrix(0.1,0,0,-0.1,0,160)"/>
<path style="fill:none;stroke-width:5;stroke-linecap:round;stroke-linejoin:round;stroke:rgb(0%,0%,0%);stroke-opacity:1;stroke-miterlimit:10;" d="M 419.023438 38.085938 L 419.023438 1561.914062 " transform="matrix(0.1,0,0,-0.1,0,160)"/>
<path style="fill:none;stroke-width:5;stroke-linecap:round;stroke-linejoin:round;stroke:rgb(0%,0%,0%);stroke-opacity:1;stroke-miterlimit:10;" d="M 609.53125 38.085938 L 609.53125 1561.914062 " transform="matrix(0.1,0,0,-0.1,0,160)"/>
<path style="fill:none;stroke-width:5;stroke-linecap:round;stroke-linejoin:round;stroke:rgb(0%,0%,0%);stroke-opacity:1;stroke-miterlimit:10;" d="M 800 38.085938 L 800 1561.914062 " transform="matrix(0.1,0,0,-0.1,0,160)"/>
<path style="fill:none;stroke-width:5;stroke-linecap:round;stroke-linejoin:round;stroke:rgb(0%,0%,0%);stroke-opacity:1;stroke-miterlimit:10;" d="M 990.46875 38.085938 L 990.46875 1561.914062 " transform="matrix(0.1,0,0,-0.1,0,160)"/>
<path style="fill:none;stroke-width:5;stroke-linecap:round;stroke-linejoin:round;stroke:rgb(0%,0%,0%);stroke-opacity:1;stroke-miterlimit:10;" d="M 1180.976562 38.085938 L 1180.976562 1561.914062 " transform="matrix(0.1,0,0,-0.1,0,160)"/>
<path style="fill:none;stroke-width:5;stroke-linecap:round;stroke-linejoin:round;stroke:rgb(0%,0%,0%);stroke-opacity:1;stroke-miterlimit:10;" d="M 1371.445312 38.085938 L 1371.445312 1561.914062 " transform="matrix(0.1,0,0,-0.1,0,160)"/>
<path style="fill:none;stroke-width:5;stroke-linecap:round;stroke-linejoin:round;stroke:rgb(0%,0%,0%);stroke-opacity:1;stroke-miterlimit:10;" d="M 1561.914062 38.085938 L 1561.914062 1561.914062 " transform="matrix(0.1,0,0,-0.1,0,160)"/>
<path style="fill:none;stroke-width:5;stroke-linecap:round;stroke-linejoin:round;stroke:rgb(0%,0%,0%);stroke-opacity:1;stroke-miterlimit:10;" d="M 38.085938 38.085938 L 1561.914062 38.085938 " transform="matrix(0.1,0,0,-0.1,0,160)"/>
<path style="fill:none;stroke-width:5;stroke-linecap:round;stroke-linejoin:round;stroke:rgb(0%,0%,0%);stroke-opacity:1;stroke-miterlimit:10;" d="M 38.085938 228.554688 L 1561.914062 228.554688 " transform="matrix(0.1,0,0,-0.1,0,160)"/>
<path style="fill:none;stroke-width:5;stroke-linecap:round;stroke-linejoin:round;stroke:rgb(0%,0%,0%);stroke-opacity:1;stroke-miterlimit:10;" d="M 38.085938 419.023438 L 1561.914062 419.023438 " transform="matrix(0.1,0,0,-0.1,0,160)"/>
<path style="fill:none;stroke-width:5;stroke-linecap:round;stroke-linejoin:round;stroke:rgb(0%,0%,0%);stroke-opacity:1;stroke-miterlimit:10;" d="M 38.085938 609.53125 L 1561.914062 609.53125 " transform="matrix(0.1,0,0,-0.1,0,160)"/>
<path style="fill:none;stroke-width:5;stroke-linecap:round;stroke-linejoin:round;stroke:rgb(0%,0%,0%);stroke-opacity:1;stroke-miterlimit:10;" d="M 38.085938 800 L 1561.914062 800 " transform="matrix(0.1,0,0,-0.1,0,160)"/>
<path style="fill:none;stroke-width:5;stroke-linecap:round;stroke-linejoin:round;stroke:rgb(0%,0%,0%);stroke-opacity:1;stroke-miterlimit:10;" d="M 38.085938 990.46875 L 1561.914062 990.46875 " transform="matrix(0.1,0,0,-0.1,0,160)"/>
<path style="fill:none;stroke-width:5;stroke-linecap:round;stroke-linejoin:round;stroke:rgb(0%,0%,0%);stroke-opacity:1;stroke-miterlimit:10;" d="M 38.085938 1180.976562 L 1561.914062 1180.976562 " transform="matrix(0.1,0,0,-0.1,0,160)"/>
<path style="fill:none;stroke-width:5;stroke-linecap:round;stroke-linejoin:round;stroke:rgb(0%,0%,0%);stroke-opacity:1;stroke-miterlimit:10;" d="M 38.085938 1371.445312 L 1561.914062 1371.445312 " transform="matrix(0.1,0,0,-0.1,0,160)"/>
<path style="fill:none;stroke-width:5;stroke-linecap:round;stroke-linejoin:round;stroke:rgb(0%,0%,0%);stroke-opacity:1;stroke-miterlimit:10;" d="M 38.085938 1561.914062 L 1561.914062 1561.914062 " transform="matrix(0.1,0,0,-0.1,0,160)"/>
</g>
</svg>
