<?xml version="1.0" encoding="UTF-8" standalone="no"?><svg xmlns="http://www.w3.org/2000/svg" xmlns:xlink="http://www.w3.org/1999/xlink" contentScriptType="application/ecmascript" contentStyleType="text/css" height="219px" preserveAspectRatio="none" style="width:620px;height:219px;" version="1.1" viewBox="0 0 620 219" width="620px" zoomAndPan="magnify"><defs/><g><!--cluster Client--><path d="M24,24 L64,24 A3,3 0 0 1 66,26 L73,44.4844 L606,44.4844 A2,2 0 0 1 608,46.4844 L608,205 A2,2 0 0 1 606,207 L24,207 A2,2 0 0 1 22,205 L22,26 A2,2 0 0 1 24,24 " fill="#FFFFFF" style="stroke: #000000; stroke-width: 1.5;"/><line style="stroke: #000000; stroke-width: 1.5;" x1="22" x2="73" y1="44.4844" y2="44.4844"/><text fill="#000000" font-family="Tahoma, sans-serif" font-size="12" font-weight="bold" lengthAdjust="spacingAndGlyphs" textLength="38" x="26" y="38.0059">Client</text><ellipse cx="531.9845" cy="71.3969" fill="#F8F8F8" rx="59.9845" ry="14.3969" style="stroke: #383838; stroke-width: 0.5;"/><text fill="#000000" font-family="Tahoma, sans-serif" font-size="12" lengthAdjust="spacingAndGlyphs" textLength="88" x="487.9845" y="75.1391">ClientController</text><ellipse cx="94.2187" cy="125.6437" fill="#F8F8F8" rx="56.2187" ry="13.6437" style="stroke: #383838; stroke-width: 0.5;"/><text fill="#000000" font-family="Tahoma, sans-serif" font-size="12" lengthAdjust="spacingAndGlyphs" textLength="78" x="55.2187" y="129.3859">ClientElement</text><ellipse cx="214.7904" cy="125.742" fill="#F8F8F8" rx="51.7904" ry="13.242" style="stroke: #383838; stroke-width: 0.5;"/><text fill="#000000" font-family="Tahoma, sans-serif" font-size="12" lengthAdjust="spacingAndGlyphs" textLength="69" x="180.2904" y="129.4842">ClientImage</text><ellipse cx="325.2193" cy="125.742" fill="#F8F8F8" rx="44.7193" ry="13.242" style="stroke: #383838; stroke-width: 0.5;"/><text fill="#000000" font-family="Tahoma, sans-serif" font-size="12" lengthAdjust="spacingAndGlyphs" textLength="59" x="295.7193" y="129.4842">ClientItem</text><ellipse cx="270.169" cy="71.742" fill="#F8F8F8" rx="49.669" ry="13.242" style="stroke: #383838; stroke-width: 0.5;"/><text fill="#000000" font-family="Tahoma, sans-serif" font-size="12" lengthAdjust="spacingAndGlyphs" textLength="66" x="237.169" y="75.4842">ClientModel</text><ellipse cx="150.0122" cy="71.742" fill="#F8F8F8" rx="44.0122" ry="13.242" style="stroke: #383838; stroke-width: 0.5;"/><text fill="#000000" font-family="Tahoma, sans-serif" font-size="12" lengthAdjust="spacingAndGlyphs" textLength="58" x="121.0122" y="75.4842">ClientView</text><ellipse cx="547.8051" cy="125.742" fill="#F8F8F8" rx="43.3051" ry="13.242" style="stroke: #383838; stroke-width: 0.5;"/><text fill="#000000" font-family="Tahoma, sans-serif" font-size="12" lengthAdjust="spacingAndGlyphs" textLength="57" x="519.3051" y="129.4842">Interactor</text><ellipse cx="436.9117" cy="125.742" fill="#F8F8F8" rx="53.9117" ry="13.242" style="stroke: #383838; stroke-width: 0.5;"/><text fill="#000000" font-family="Tahoma, sans-serif" font-size="12" lengthAdjust="spacingAndGlyphs" textLength="72" x="400.9117" y="129.4842">ShadowView</text><ellipse cx="547.2193" cy="178.242" fill="#F8F8F8" rx="44.7193" ry="13.242" style="stroke: #383838; stroke-width: 0.5;"/><text fill="#000000" font-family="Tahoma, sans-serif" font-size="12" lengthAdjust="spacingAndGlyphs" textLength="59" x="517.7193" y="181.9842">Transform</text><!--link ClientController to Interactor--><path d="M536.204,86.162 C538.211,92.685 540.632,100.555 542.758,107.464 " fill="none" id="ClientController-Interactor" style="stroke: #000000; stroke-width: 0.55; stroke-dasharray: 1.0,3.0;"/><polygon fill="#000000" points="544.314,112.521,545.491,102.7427,542.8439,107.742,537.8446,105.0949,544.314,112.521" style="stroke: #000000; stroke-width: 0.55;"/><!--link ClientModel to ClientElement--><path d="M238.94,81.677 C209.246,90.45 164.393,103.702 132.455,113.138 " fill="none" id="ClientModel-ClientElement" style="stroke: #000000; stroke-width: 0.55; stroke-dasharray: 1.0,3.0;"/><polygon fill="#000000" points="127.445,114.619,137.2097,115.9037,132.2399,113.2017,134.942,108.2319,127.445,114.619" style="stroke: #000000; stroke-width: 0.55;"/><!--link ClientModel to ClientImage--><path d="M257.52,84.3 C249.784,91.613 239.762,101.089 231.391,109.003 " fill="none" id="ClientModel-ClientImage" style="stroke: #000000; stroke-width: 0.55; stroke-dasharray: 1.0,3.0;"/><polygon fill="#000000" points="227.431,112.747,236.7197,109.4729,231.0651,109.3129,231.2251,103.6583,227.431,112.747" style="stroke: #000000; stroke-width: 0.55;"/><!--link ClientModel to ClientItem--><path d="M282.48,84.3 C290.216,91.613 300.238,101.089 308.609,109.003 " fill="none" id="ClientModel-ClientItem" style="stroke: #000000; stroke-width: 0.55; stroke-dasharray: 1.0,3.0;"/><polygon fill="#000000" points="312.569,112.747,308.7749,103.6583,308.9349,109.3129,303.2803,109.4729,312.569,112.747" style="stroke: #000000; stroke-width: 0.55;"/><!--link ClientModel to ShadowView--><path d="M300.242,81.917 C328.498,90.715 370.717,103.861 400.763,113.217 " fill="none" id="ClientModel-ShadowView" style="stroke: #000000; stroke-width: 0.55; stroke-dasharray: 1.0,3.0;"/><polygon fill="#000000" points="405.85,114.801,398.4468,108.3054,401.0762,113.314,396.0676,115.9434,405.85,114.801" style="stroke: #000000; stroke-width: 0.55;"/><!--link Interactor to Transform--><path d="M547.758,138.7246 C547.633,145.0517 547.478,152.8814 547.34,159.8075 " fill="none" id="Interactor-Transform" style="stroke: #000000; stroke-width: 0.55; stroke-dasharray: 1.0,3.0;"/><polygon fill="#000000" points="547.24,164.8879,551.4176,155.969,547.3391,159.8889,543.4192,155.8104,547.24,164.8879" style="stroke: #000000; stroke-width: 0.55;"/><script type="text/plantuml"><![CDATA[
@startuml

scale max 1920 width
top to bottom direction

skinparam nodesep 13
skinparam ranksep 26
skinparam monochrome true
skinparam shadowing false
skinparam defaultFontName Tahoma
skinparam defaultFontSize 12
skinparam roundCorner 4
skinparam dpi 150
skinparam arrowColor black
skinparam arrowThickness 0.55
skinparam packageTitleAlignment left

skinparam usecase {
  borderThickness 0.5
}

skinparam rectangle {
  borderThickness 0.5
}

skinparam component {
  borderThickness 1
}


package "Client" {
  (ClientController)
  (ClientElement)
  (ClientImage)
  (ClientItem)
  (ClientModel)
  (ClientView)
  (Interactor)
  (ShadowView)
  (Transform)
}

(ClientController) ~~> (Interactor)
(ClientModel) ~~> (ClientElement)
(ClientModel) ~~> (ClientImage)
(ClientModel) ~~> (ClientItem)
(ClientModel) ~~> (ShadowView)
(Interactor) ~~> (Transform)

@enduml


' View and edit on https://arkit.pro
]]></script></g></svg>