<?xml version="1.0" encoding="UTF-8" standalone="no"?><svg xmlns="http://www.w3.org/2000/svg" xmlns:xlink="http://www.w3.org/1999/xlink" contentScriptType="application/ecmascript" contentStyleType="text/css" height="239px" preserveAspectRatio="none" style="width:678px;height:239px;" version="1.1" viewBox="0 0 678 239" width="678px" zoomAndPan="magnify"><defs/><g><!--cluster Client--><path d="M82,42 L122,42 A3,3 0 0 1 124,44 L131,62.4844 L664,62.4844 A2,2 0 0 1 666,64.4844 L666,225 A2,2 0 0 1 664,227 L82,227 A2,2 0 0 1 80,225 L80,44 A2,2 0 0 1 82,42 " fill="#FFFFFF" style="stroke: #000000; stroke-width: 1.5;"/><line style="stroke: #000000; stroke-width: 1.5;" x1="80" x2="131" y1="62.4844" y2="62.4844"/><text fill="#000000" font-family="Tahoma, sans-serif" font-size="12" font-weight="bold" lengthAdjust="spacingAndGlyphs" textLength="38" x="84" y="56.0059">Client</text><ellipse cx="492.9845" cy="89.3969" fill="#F8F8F8" rx="59.9845" ry="14.3969" style="stroke: #383838; stroke-width: 0.5;"/><text fill="#000000" font-family="Tahoma, sans-serif" font-size="12" lengthAdjust="spacingAndGlyphs" textLength="88" x="448.9845" y="93.1391">ClientController</text><ellipse cx="152.2187" cy="144.6437" fill="#F8F8F8" rx="56.2187" ry="13.6437" style="stroke: #383838; stroke-width: 0.5;"/><text fill="#000000" font-family="Tahoma, sans-serif" font-size="12" lengthAdjust="spacingAndGlyphs" textLength="78" x="113.2187" y="148.3859">ClientElement</text><ellipse cx="272.7904" cy="144.742" fill="#F8F8F8" rx="51.7904" ry="13.242" style="stroke: #383838; stroke-width: 0.5;"/><text fill="#000000" font-family="Tahoma, sans-serif" font-size="12" lengthAdjust="spacingAndGlyphs" textLength="69" x="238.2904" y="148.4842">ClientImage</text><ellipse cx="383.2193" cy="144.742" fill="#F8F8F8" rx="44.7193" ry="13.242" style="stroke: #383838; stroke-width: 0.5;"/><text fill="#000000" font-family="Tahoma, sans-serif" font-size="12" lengthAdjust="spacingAndGlyphs" textLength="59" x="353.7193" y="148.4842">ClientItem</text><ellipse cx="273.169" cy="89.742" fill="#F8F8F8" rx="49.669" ry="13.242" style="stroke: #383838; stroke-width: 0.5;"/><text fill="#000000" font-family="Tahoma, sans-serif" font-size="12" lengthAdjust="spacingAndGlyphs" textLength="66" x="240.169" y="93.4842">ClientModel</text><ellipse cx="140.0122" cy="89.742" fill="#F8F8F8" rx="44.0122" ry="13.242" style="stroke: #383838; stroke-width: 0.5;"/><text fill="#000000" font-family="Tahoma, sans-serif" font-size="12" lengthAdjust="spacingAndGlyphs" textLength="58" x="111.0122" y="93.4842">ClientView</text><ellipse cx="605.8051" cy="144.742" fill="#F8F8F8" rx="43.3051" ry="13.242" style="stroke: #383838; stroke-width: 0.5;"/><text fill="#000000" font-family="Tahoma, sans-serif" font-size="12" lengthAdjust="spacingAndGlyphs" textLength="57" x="577.3051" y="148.4842">Interactor</text><ellipse cx="494.9117" cy="144.742" fill="#F8F8F8" rx="53.9117" ry="13.242" style="stroke: #383838; stroke-width: 0.5;"/><text fill="#000000" font-family="Tahoma, sans-serif" font-size="12" lengthAdjust="spacingAndGlyphs" textLength="72" x="458.9117" y="148.4842">ShadowView</text><ellipse cx="605.2193" cy="198.242" fill="#F8F8F8" rx="44.7193" ry="13.242" style="stroke: #383838; stroke-width: 0.5;"/><text fill="#000000" font-family="Tahoma, sans-serif" font-size="12" lengthAdjust="spacingAndGlyphs" textLength="59" x="575.7193" y="201.9842">Transform</text><ellipse cx="35.163" cy="89.742" fill="#F8F8F8" rx="29.163" ry="13.242" style="stroke: #383838; stroke-width: 0.5;"/><text fill="#000000" font-family="Tahoma, sans-serif" font-size="12" font-weight="bold" lengthAdjust="spacingAndGlyphs" textLength="37" x="16.663" y="93.4842">client</text><!--link <b>client</b> to ClientController--><path d="M41.0353,76.631 C49.6018,60.083 67.0129,32.098 91.5,20.5 C137.893,-1.473 272.113,10.691 322.5,20.5 C374.632,30.649 430.992,56.735 464.082,73.766 " fill="none" id="&lt;b&gt;client&lt;/b&gt;-ClientController" style="stroke: #000000; stroke-width: 1.0;"/><polygon fill="#000000" points="468.792,76.21,462.6454,68.5146,464.3538,73.9073,458.9611,75.6158,468.792,76.21" style="stroke: #000000; stroke-width: 1.0;"/><!--link <b>client</b> to ClientModel--><path d="M41.0353,76.631 C49.6018,60.083 67.0129,32.098 91.5,20.5 C128.454,2.997 144.796,7.313 183.5,20.5 C213.887,30.854 241.993,56.16 258.32,73.076 " fill="none" id="&lt;b&gt;client&lt;/b&gt;-ClientModel" style="stroke: #000000; stroke-width: 1.0;"/><polygon fill="#000000" points="261.818,76.759,258.5214,67.4783,258.3751,73.1332,252.7201,72.9869,261.818,76.759" style="stroke: #000000; stroke-width: 1.0;"/><!--link <b>client</b> to ClientView--><path d="M64.1211,89.5 C72.8758,89.5 81.6304,89.5 90.3851,89.5 " fill="none" id="&lt;b&gt;client&lt;/b&gt;-ClientView" style="stroke: #000000; stroke-width: 1.0;"/><polygon fill="#000000" points="95.8361,89.5,86.8361,85.5,90.8361,89.5,86.8361,93.5,95.8361,89.5" style="stroke: #000000; stroke-width: 1.0;"/><!--link ClientController to Interactor--><path d="M518.924,102.659 C536.911,111.096 560.815,122.307 579.026,130.848 " fill="none" id="ClientController-Interactor" style="stroke: #000000; stroke-width: 0.55; stroke-dasharray: 1.0,3.0;"/><polygon fill="#000000" points="584.002,133.182,577.5525,125.7386,579.4753,131.0587,574.1552,132.9814,584.002,133.182" style="stroke: #000000; stroke-width: 0.55;"/><!--link ClientModel to ClientElement--><path d="M249.094,100.971 C229.966,109.35 203.02,121.153 182.366,130.199 " fill="none" id="ClientModel-ClientElement" style="stroke: #000000; stroke-width: 0.55; stroke-dasharray: 1.0,3.0;"/><polygon fill="#000000" points="177.527,132.319,187.3757,132.3727,182.1071,130.3133,184.1665,125.0446,177.527,132.319" style="stroke: #000000; stroke-width: 0.55;"/><!--link ClientModel to ClientImage--><path d="M273,102.527 C273,109.475 273,118.338 273,126.042 " fill="none" id="ClientModel-ClientImage" style="stroke: #000000; stroke-width: 0.55; stroke-dasharray: 1.0,3.0;"/><polygon fill="#000000" points="273,131.153,277,122.153,273,126.153,269,122.153,273,131.153" style="stroke: #000000; stroke-width: 0.55;"/><!--link ClientModel to ClientItem--><path d="M295.26,101.225 C312.969,109.758 337.799,121.721 356.527,130.745 " fill="none" id="ClientModel-ClientItem" style="stroke: #000000; stroke-width: 0.55; stroke-dasharray: 1.0,3.0;"/><polygon fill="#000000" points="361.148,132.971,354.7779,125.4596,356.644,130.7997,351.3039,132.6659,361.148,132.971" style="stroke: #000000; stroke-width: 0.55;"/><!--link ClientModel to ShadowView--><path d="M307.688,98.781 C347.179,108.209 411.648,123.601 453.7,133.64 " fill="none" id="ClientModel-ShadowView" style="stroke: #000000; stroke-width: 0.55; stroke-dasharray: 1.0,3.0;"/><polygon fill="#000000" points="458.714,134.837,450.8894,128.8557,453.8508,133.6755,449.031,136.6368,458.714,134.837" style="stroke: #000000; stroke-width: 0.55;"/><!--link Interactor to Transform--><path d="M605.763,157.7048 C605.636,164.2467 605.477,172.4193 605.338,179.6144 " fill="none" id="Interactor-Transform" style="stroke: #000000; stroke-width: 0.55; stroke-dasharray: 1.0,3.0;"/><polygon fill="#000000" points="605.235,184.8828,609.4091,175.9622,605.3322,179.8837,601.4106,175.8068,605.235,184.8828" style="stroke: #000000; stroke-width: 0.55;"/><script type="text/plantuml"><![CDATA[
@startuml

scale max 1920 width
top to bottom direction

skinparam nodesep 13
skinparam ranksep 27
skinparam monochrome true
skinparam shadowing false
skinparam defaultFontName Tahoma
skinparam defaultFontSize 12
skinparam roundCorner 4
skinparam dpi 150
skinparam arrowColor black
skinparam arrowThickness 0.55
skinparam packageTitleAlignment left

skinparam usecase {
  borderThickness 0.5
}

skinparam rectangle {
  borderThickness 0.5
}

skinparam component {
  borderThickness 1
}


(<b>client</b>)

package "Client" {
  (ClientController)
  (ClientElement)
  (ClientImage)
  (ClientItem)
  (ClientModel)
  (ClientView)
  (Interactor)
  (ShadowView)
  (Transform)
}






(<b>client</b>) -[thickness=1]> (ClientController)
(<b>client</b>) -[thickness=1]> (ClientModel)
(<b>client</b>) -[thickness=1]> (ClientView)
(ClientController) ~~> (Interactor)
(ClientModel) ~~> (ClientElement)
(ClientModel) ~~> (ClientImage)
(ClientModel) ~~> (ClientItem)
(ClientModel) ~~> (ShadowView)
(Interactor) ~~> (Transform)

@enduml


' View and edit on https://arkit.herokuapp.com
]]></script></g></svg>