<?xml version="1.0" encoding="UTF-8" standalone="no"?><svg xmlns="http://www.w3.org/2000/svg" xmlns:xlink="http://www.w3.org/1999/xlink" contentScriptType="application/ecmascript" contentStyleType="text/css" height="1015px" preserveAspectRatio="none" style="width:1778px;height:1015px;" version="1.1" viewBox="0 0 1778 1015" width="1778px" zoomAndPan="magnify"><defs/><g><!--cluster Client--><path d="M59.1826,681 L99.1826,681 A3,3 0 0 1 101.1826,683 L108.1826,701.4844 L524.183,701.4844 A2,2 0 0 1 526.183,703.4844 L526.183,960 A2,2 0 0 1 524.183,962 L59.1826,962 A2,2 0 0 1 57.1826,960 L57.1826,683 A2,2 0 0 1 59.1826,681 " fill="#FFFFFF" style="stroke: #000000; stroke-width: 1.5;"/><line style="stroke: #000000; stroke-width: 1.5;" x1="57.1826" x2="108.1826" y1="701.4844" y2="701.4844"/><text fill="#000000" font-family="Tahoma, sans-serif" font-size="12" font-weight="bold" lengthAdjust="spacingAndGlyphs" textLength="38" x="61.1826" y="695.0059">Client</text><!--cluster Server--><path d="M91.6826,131 L135.6826,131 A3,3 0 0 1 137.6826,133 L144.6826,151.4844 L897.183,151.4844 A2,2 0 0 1 899.183,153.4844 L899.183,420 A2,2 0 0 1 897.183,422 L91.6826,422 A2,2 0 0 1 89.6826,420 L89.6826,133 A2,2 0 0 1 91.6826,131 " fill="#FFFFFF" style="stroke: #000000; stroke-width: 1.5;"/><line style="stroke: #000000; stroke-width: 1.5;" x1="89.6826" x2="144.6826" y1="151.4844" y2="151.4844"/><text fill="#000000" font-family="Tahoma, sans-serif" font-size="12" font-weight="bold" lengthAdjust="spacingAndGlyphs" textLength="42" x="93.6826" y="145.0059">Server</text><!--cluster Predefined--><path d="M73.6826,446 L145.6826,446 A3,3 0 0 1 147.6826,448 L154.6826,466.4844 L344.683,466.4844 A2,2 0 0 1 346.683,468.4844 L346.683,621 A2,2 0 0 1 344.683,623 L73.6826,623 A2,2 0 0 1 71.6826,621 L71.6826,448 A2,2 0 0 1 73.6826,446 " fill="#FFFFFF" style="stroke: #000000; stroke-width: 1.5;"/><line style="stroke: #000000; stroke-width: 1.5;" x1="71.6826" x2="154.6826" y1="466.4844" y2="466.4844"/><text fill="#000000" font-family="Tahoma, sans-serif" font-size="12" font-weight="bold" lengthAdjust="spacingAndGlyphs" textLength="70" x="75.6826" y="460.0059">Predefined</text><!--cluster Mixins--><path d="M934.683,24 L977.683,24 A3,3 0 0 1 979.683,26 L986.683,44.4844 L1507.18,44.4844 A2,2 0 0 1 1509.18,46.4844 L1509.18,307 A2,2 0 0 1 1507.18,309 L934.683,309 A2,2 0 0 1 932.683,307 L932.683,26 A2,2 0 0 1 934.683,24 " fill="#FFFFFF" style="stroke: #000000; stroke-width: 1.5;"/><line style="stroke: #000000; stroke-width: 1.5;" x1="932.683" x2="986.683" y1="44.4844" y2="44.4844"/><text fill="#000000" font-family="Tahoma, sans-serif" font-size="12" font-weight="bold" lengthAdjust="spacingAndGlyphs" textLength="41" x="936.683" y="38.0059">Mixins</text><!--cluster Gestures--><path d="M925.183,333 L987.183,333 A3,3 0 0 1 989.183,335 L996.183,353.4844 L1764.18,353.4844 A2,2 0 0 1 1766.18,355.4844 L1766.18,484 A2,2 0 0 1 1764.18,486 L925.183,486 A2,2 0 0 1 923.183,484 L923.183,335 A2,2 0 0 1 925.183,333 " fill="#FFFFFF" style="stroke: #000000; stroke-width: 1.5;"/><line style="stroke: #000000; stroke-width: 1.5;" x1="923.183" x2="996.183" y1="353.4844" y2="353.4844"/><text fill="#000000" font-family="Tahoma, sans-serif" font-size="12" font-weight="bold" lengthAdjust="spacingAndGlyphs" textLength="60" x="927.183" y="347.0059">Gestures</text><ellipse cx="133.1675" cy="777.8969" fill="#F8F8F8" rx="59.9845" ry="14.3969" style="stroke: #383838; stroke-width: 0.5;"/><text fill="#000000" font-family="Tahoma, sans-serif" font-size="12" lengthAdjust="spacingAndGlyphs" textLength="88" x="89.1675" y="781.6391">ClientController</text><ellipse cx="298.4017" cy="932.1437" fill="#F8F8F8" rx="56.2187" ry="13.6437" style="stroke: #383838; stroke-width: 0.5;"/><text fill="#000000" font-family="Tahoma, sans-serif" font-size="12" lengthAdjust="spacingAndGlyphs" textLength="78" x="259.4017" y="935.8859">ClientElement</text><ellipse cx="297.9734" cy="880.242" fill="#F8F8F8" rx="51.7904" ry="13.242" style="stroke: #383838; stroke-width: 0.5;"/><text fill="#000000" font-family="Tahoma, sans-serif" font-size="12" lengthAdjust="spacingAndGlyphs" textLength="69" x="263.4734" y="883.9842">ClientImage</text><ellipse cx="298.4023" cy="829.242" fill="#F8F8F8" rx="44.7193" ry="13.242" style="stroke: #383838; stroke-width: 0.5;"/><text fill="#000000" font-family="Tahoma, sans-serif" font-size="12" lengthAdjust="spacingAndGlyphs" textLength="59" x="268.9023" y="832.9842">ClientItem</text><ellipse cx="133.352" cy="880.242" fill="#F8F8F8" rx="49.669" ry="13.242" style="stroke: #383838; stroke-width: 0.5;"/><text fill="#000000" font-family="Tahoma, sans-serif" font-size="12" lengthAdjust="spacingAndGlyphs" textLength="66" x="100.352" y="883.9842">ClientModel</text><ellipse cx="133.1952" cy="933.242" fill="#F8F8F8" rx="44.0122" ry="13.242" style="stroke: #383838; stroke-width: 0.5;"/><text fill="#000000" font-family="Tahoma, sans-serif" font-size="12" lengthAdjust="spacingAndGlyphs" textLength="58" x="104.1952" y="936.9842">ClientView</text><ellipse cx="297.9881" cy="727.242" fill="#F8F8F8" rx="43.3051" ry="13.242" style="stroke: #383838; stroke-width: 0.5;"/><text fill="#000000" font-family="Tahoma, sans-serif" font-size="12" lengthAdjust="spacingAndGlyphs" textLength="57" x="269.4881" y="730.9842">Interactor</text><ellipse cx="298.0947" cy="778.242" fill="#F8F8F8" rx="53.9117" ry="13.242" style="stroke: #383838; stroke-width: 0.5;"/><text fill="#000000" font-family="Tahoma, sans-serif" font-size="12" lengthAdjust="spacingAndGlyphs" textLength="72" x="262.0947" y="781.9842">ShadowView</text><ellipse cx="465.9023" cy="727.242" fill="#F8F8F8" rx="44.7193" ry="13.242" style="stroke: #383838; stroke-width: 0.5;"/><text fill="#000000" font-family="Tahoma, sans-serif" font-size="12" lengthAdjust="spacingAndGlyphs" textLength="59" x="436.4023" y="730.9842">Transform</text><ellipse cx="298.2307" cy="319.242" fill="#F8F8F8" rx="47.5477" ry="13.242" style="stroke: #383838; stroke-width: 0.5;"/><text fill="#000000" font-family="Tahoma, sans-serif" font-size="12" lengthAdjust="spacingAndGlyphs" textLength="63" x="266.7307" y="322.9842">Application</text><ellipse cx="818.2602" cy="393.242" fill="#F8F8F8" rx="30.5772" ry="13.242" style="stroke: #383838; stroke-width: 0.5;"/><text fill="#000000" font-family="Tahoma, sans-serif" font-size="12" lengthAdjust="spacingAndGlyphs" textLength="39" x="798.7602" y="396.9842">Device</text><ellipse cx="818.3238" cy="338.9282" fill="#F8F8F8" rx="65.1408" ry="15.4282" style="stroke: #383838; stroke-width: 0.5;"/><text fill="#000000" font-family="Tahoma, sans-serif" font-size="12" lengthAdjust="spacingAndGlyphs" textLength="101" x="767.8238" y="342.6704">GestureController</text><ellipse cx="465.5145" cy="387.8663" fill="#F8F8F8" rx="62.3315" ry="14.8663" style="stroke: #383838; stroke-width: 0.5;"/><text fill="#000000" font-family="Tahoma, sans-serif" font-size="12" lengthAdjust="spacingAndGlyphs" textLength="94" x="418.5145" y="391.6085">MessageHandler</text><ellipse cx="465.846" cy="232.242" fill="#F8F8F8" rx="29.163" ry="13.242" style="stroke: #383838; stroke-width: 0.5;"/><text fill="#000000" font-family="Tahoma, sans-serif" font-size="12" lengthAdjust="spacingAndGlyphs" textLength="37" x="447.346" y="235.9842">Router</text><ellipse cx="133.4317" cy="319.242" fill="#F8F8F8" rx="27.7487" ry="13.242" style="stroke: #383838; stroke-width: 0.5;"/><text fill="#000000" font-family="Tahoma, sans-serif" font-size="12" lengthAdjust="spacingAndGlyphs" textLength="35" x="115.9317" y="322.9842">server</text><ellipse cx="640.7256" cy="391.2085" fill="#F8F8F8" rx="61.5426" ry="14.7085" style="stroke: #383838; stroke-width: 0.5;"/><text fill="#000000" font-family="Tahoma, sans-serif" font-size="12" lengthAdjust="spacingAndGlyphs" textLength="92" x="594.7256" y="394.9507">ServerController</text><ellipse cx="640.8843" cy="281.9403" fill="#F8F8F8" rx="57.7013" ry="13.9403" style="stroke: #383838; stroke-width: 0.5;"/><text fill="#000000" font-family="Tahoma, sans-serif" font-size="12" lengthAdjust="spacingAndGlyphs" textLength="82" x="599.8843" y="285.6824">ServerElement</text><ellipse cx="640.5978" cy="177.783" fill="#F8F8F8" rx="54.4148" ry="13.283" style="stroke: #383838; stroke-width: 0.5;"/><text fill="#000000" font-family="Tahoma, sans-serif" font-size="12" lengthAdjust="spacingAndGlyphs" textLength="73" x="604.0978" y="181.5251">ServerImage</text><ellipse cx="640.7307" cy="230.242" fill="#F8F8F8" rx="47.5477" ry="13.242" style="stroke: #383838; stroke-width: 0.5;"/><text fill="#000000" font-family="Tahoma, sans-serif" font-size="12" lengthAdjust="spacingAndGlyphs" textLength="63" x="609.2307" y="233.9842">ServerItem</text><ellipse cx="818.0236" cy="285.242" fill="#F8F8F8" rx="46.8406" ry="13.242" style="stroke: #383838; stroke-width: 0.5;"/><text fill="#000000" font-family="Tahoma, sans-serif" font-size="12" lengthAdjust="spacingAndGlyphs" textLength="62" x="787.0236" y="288.9842">ServerView</text><ellipse cx="640.7097" cy="336.1053" fill="#F8F8F8" rx="63.5267" ry="15.1053" style="stroke: #383838; stroke-width: 0.5;"/><text fill="#000000" font-family="Tahoma, sans-serif" font-size="12" lengthAdjust="spacingAndGlyphs" textLength="97" x="592.2097" y="339.8475">ServerViewGroup</text><ellipse cx="465.8876" cy="335.242" fill="#F8F8F8" rx="53.2046" ry="13.242" style="stroke: #383838; stroke-width: 0.5;"/><text fill="#000000" font-family="Tahoma, sans-serif" font-size="12" lengthAdjust="spacingAndGlyphs" textLength="71" x="430.3876" y="338.9842">Switchboard</text><ellipse cx="465.6449" cy="283.242" fill="#F8F8F8" rx="48.9619" ry="13.242" style="stroke: #383838; stroke-width: 0.5;"/><text fill="#000000" font-family="Tahoma, sans-serif" font-size="12" lengthAdjust="spacingAndGlyphs" textLength="65" x="433.1449" y="286.9842">WorkSpace</text><ellipse cx="298.3104" cy="543.242" fill="#F8F8F8" rx="25.6274" ry="13.242" style="stroke: #383838; stroke-width: 0.5;"/><text fill="#000000" font-family="Tahoma, sans-serif" font-size="12" lengthAdjust="spacingAndGlyphs" textLength="32" x="282.3104" y="546.9842">items</text><ellipse cx="298.3815" cy="492.242" fill="#F8F8F8" rx="32.6985" ry="13.242" style="stroke: #383838; stroke-width: 0.5;"/><text fill="#000000" font-family="Tahoma, sans-serif" font-size="12" lengthAdjust="spacingAndGlyphs" textLength="42" x="277.3815" y="495.9842">layouts</text><ellipse cx="133.1094" cy="569.242" fill="#F8F8F8" rx="45.4264" ry="13.242" style="stroke: #383838; stroke-width: 0.5;"/><text fill="#000000" font-family="Tahoma, sans-serif" font-size="12" lengthAdjust="spacingAndGlyphs" textLength="60" x="103.1094" y="572.9842">predefined</text><ellipse cx="298.1744" cy="594.242" fill="#F8F8F8" rx="31.9914" ry="13.242" style="stroke: #383838; stroke-width: 0.5;"/><text fill="#000000" font-family="Tahoma, sans-serif" font-size="12" lengthAdjust="spacingAndGlyphs" textLength="41" x="277.6744" y="597.9842">utilities</text><ellipse cx="1113.5856" cy="253.242" fill="#F8F8F8" rx="33.4056" ry="13.242" style="stroke: #383838; stroke-width: 0.5;"/><text fill="#000000" font-family="Tahoma, sans-serif" font-size="12" lengthAdjust="spacingAndGlyphs" textLength="43" x="1092.0856" y="256.9842">Hittable</text><ellipse cx="1113.4348" cy="70.242" fill="#F8F8F8" rx="48.2548" ry="13.242" style="stroke: #383838; stroke-width: 0.5;"/><text fill="#000000" font-family="Tahoma, sans-serif" font-size="12" lengthAdjust="spacingAndGlyphs" textLength="64" x="1081.4348" y="73.9842">Identifiable</text><ellipse cx="1262.9704" cy="217.242" fill="#F8F8F8" rx="51.7904" ry="13.242" style="stroke: #383838; stroke-width: 0.5;"/><text fill="#000000" font-family="Tahoma, sans-serif" font-size="12" lengthAdjust="spacingAndGlyphs" textLength="69" x="1228.4704" y="220.9842">Interactable</text><ellipse cx="1428.7424" cy="109.242" fill="#F8F8F8" rx="39.0624" ry="13.242" style="stroke: #383838; stroke-width: 0.5;"/><text fill="#000000" font-family="Tahoma, sans-serif" font-size="12" lengthAdjust="spacingAndGlyphs" textLength="51" x="1403.2424" y="112.9842">Lockable</text><ellipse cx="1113.5501" cy="202.242" fill="#F8F8F8" rx="29.8701" ry="13.242" style="stroke: #383838; stroke-width: 0.5;"/><text fill="#000000" font-family="Tahoma, sans-serif" font-size="12" lengthAdjust="spacingAndGlyphs" textLength="38" x="1094.5501" y="205.9842">Locker</text><ellipse cx="977.846" cy="183.242" fill="#F8F8F8" rx="29.163" ry="13.242" style="stroke: #383838; stroke-width: 0.5;"/><text fill="#000000" font-family="Tahoma, sans-serif" font-size="12" lengthAdjust="spacingAndGlyphs" textLength="37" x="959.346" y="186.9842">mixins</text><ellipse cx="1428.6419" cy="217.242" fill="#F8F8F8" rx="48.9619" ry="13.242" style="stroke: #383838; stroke-width: 0.5;"/><text fill="#000000" font-family="Tahoma, sans-serif" font-size="12" lengthAdjust="spacingAndGlyphs" textLength="65" x="1396.1419" y="220.9842">Publishable</text><ellipse cx="1428.5109" cy="162.7662" fill="#F8F8F8" rx="64.3309" ry="15.2662" style="stroke: #383838; stroke-width: 0.5;"/><text fill="#000000" font-family="Tahoma, sans-serif" font-size="12" lengthAdjust="spacingAndGlyphs" textLength="99" x="1379.0109" y="166.5084">Transformable2D</text><ellipse cx="1263.3785" cy="406.242" fill="#F8F8F8" rx="32.6985" ry="13.242" style="stroke: #383838; stroke-width: 0.5;"/><text fill="#000000" font-family="Tahoma, sans-serif" font-size="12" lengthAdjust="spacingAndGlyphs" textLength="42" x="1242.3785" y="409.9842">Binding</text><ellipse cx="977.5383" cy="386.242" fill="#F8F8F8" rx="38.3553" ry="13.242" style="stroke: #383838; stroke-width: 0.5;"/><text fill="#000000" font-family="Tahoma, sans-serif" font-size="12" lengthAdjust="spacingAndGlyphs" textLength="50" x="952.5383" y="389.9842">gestures</text><ellipse cx="1428.8932" cy="418.242" fill="#F8F8F8" rx="24.2132" ry="13.242" style="stroke: #383838; stroke-width: 0.5;"/><text fill="#000000" font-family="Tahoma, sans-serif" font-size="12" lengthAdjust="spacingAndGlyphs" textLength="30" x="1413.8932" y="421.9842">Input</text><ellipse cx="1721.343" cy="418.242" fill="#F8F8F8" rx="29.163" ry="13.242" style="stroke: #383838; stroke-width: 0.5;"/><text fill="#000000" font-family="Tahoma, sans-serif" font-size="12" lengthAdjust="spacingAndGlyphs" textLength="37" x="1702.843" y="421.9842">PHASE</text><ellipse cx="1592.5562" cy="418.242" fill="#F8F8F8" rx="50.3762" ry="13.242" style="stroke: #383838; stroke-width: 0.5;"/><text fill="#000000" font-family="Tahoma, sans-serif" font-size="12" lengthAdjust="spacingAndGlyphs" textLength="67" x="1559.0562" y="421.9842">PointerData</text><ellipse cx="1113.7572" cy="399.242" fill="#F8F8F8" rx="30.5772" ry="13.242" style="stroke: #383838; stroke-width: 0.5;"/><text fill="#000000" font-family="Tahoma, sans-serif" font-size="12" lengthAdjust="spacingAndGlyphs" textLength="39" x="1094.2572" y="402.9842">Region</text><ellipse cx="1263.3932" cy="457.242" fill="#F8F8F8" rx="24.2132" ry="13.242" style="stroke: #383838; stroke-width: 0.5;"/><text fill="#000000" font-family="Tahoma, sans-serif" font-size="12" lengthAdjust="spacingAndGlyphs" textLength="30" x="1248.3932" y="460.9842">State</text><ellipse cx="133.346" cy="991.242" fill="#F8F8F8" rx="29.163" ry="13.242" style="stroke: #383838; stroke-width: 0.5;"/><text fill="#000000" font-family="Tahoma, sans-serif" font-size="12" font-weight="bold" lengthAdjust="spacingAndGlyphs" textLength="37" x="114.846" y="994.9842">client</text><ellipse cx="133.4317" cy="652.242" fill="#F8F8F8" rx="27.7487" ry="13.242" style="stroke: #383838; stroke-width: 0.5;"/><text fill="#000000" font-family="Tahoma, sans-serif" font-size="12" font-weight="bold" lengthAdjust="spacingAndGlyphs" textLength="35" x="115.9317" y="655.9842">index</text><!--link Application to MessageHandler--><path d="M325.042,329.781 C352.915,341.402 397.48,359.982 428.75,373.019 " fill="none" id="Application-MessageHandler" style="stroke: #000000; stroke-width: 0.55; stroke-dasharray: 1.0,3.0;"/><polygon fill="#000000" points="433.65,375.062,426.883,367.9061,429.0352,373.1375,423.8038,375.2897,433.65,375.062" style="stroke: #000000; stroke-width: 0.55;"/><!--link Application to Router--><path d="M317.936,306.995 C338.449,294.104 372.502,273.401 403.183,258 C414.413,252.363 427.159,246.838 438.124,242.341 " fill="none" id="Application-Router" style="stroke: #000000; stroke-width: 0.55; stroke-dasharray: 1.0,3.0;"/><polygon fill="#000000" points="443.025,240.35,433.1813,240.0314,438.3926,242.2318,436.1922,247.4431,443.025,240.35" style="stroke: #000000; stroke-width: 0.55;"/><!--link Application to Switchboard--><path d="M343.099,323.246 C363.933,325.26 389.014,327.685 410.971,329.807 " fill="none" id="Application-Switchboard" style="stroke: #000000; stroke-width: 0.55; stroke-dasharray: 1.0,3.0;"/><polygon fill="#000000" points="416.188,330.312,407.6151,325.4638,411.2112,329.8305,406.8446,333.4267,416.188,330.312" style="stroke: #000000; stroke-width: 0.55;"/><!--link Application to WorkSpace--><path d="M335.912,311.01 C361.463,305.453 395.595,298.028 422.3,292.219 " fill="none" id="Application-WorkSpace" style="stroke: #000000; stroke-width: 0.55; stroke-dasharray: 1.0,3.0;"/><polygon fill="#000000" points="427.196,291.154,417.5514,289.1586,422.3103,292.2169,419.252,296.9757,427.196,291.154" style="stroke: #000000; stroke-width: 0.55;"/><!--link <b>client</b> to ClientController--><path d="M104.5195,988.7057 C78.3614,984.8763 41.3231,974.6714 24.6826,947.5 C6.113,917.1789 9.5209,899.661 24.6826,867.5 C40.53,833.884 75.8833,808.605 101.9482,793.632 " fill="none" id="&lt;b&gt;client&lt;/b&gt;-ClientController" style="stroke: #000000; stroke-width: 1.0;"/><polygon fill="#000000" points="106.373,791.137,96.5687,792.0727,102.0175,793.5926,100.4976,799.0414,106.373,791.137" style="stroke: #000000; stroke-width: 1.0;"/><!--link <b>client</b> to ClientModel--><path d="M104.5195,988.7057 C78.3614,984.8763 41.3231,974.6714 24.6826,947.5 C18.4154,937.2666 18.4154,930.7334 24.6826,920.5 C36.6905,900.893 59.6197,890.721 81.3175,885.468 " fill="none" id="&lt;b&gt;client&lt;/b&gt;-ClientModel" style="stroke: #000000; stroke-width: 1.0;"/><polygon fill="#000000" points="86.2141,884.359,76.5526,882.4472,81.3378,885.4641,78.3208,890.2493,86.2141,884.359" style="stroke: #000000; stroke-width: 1.0;"/><!--link <b>client</b> to ClientView--><path d="M133.183,977.8594 C133.183,969.1525 133.183,960.4457 133.183,951.7389 " fill="none" id="&lt;b&gt;client&lt;/b&gt;-ClientView" style="stroke: #000000; stroke-width: 1.0;"/><polygon fill="#000000" points="133.183,946.3176,129.183,955.3176,133.183,951.3176,137.183,955.3176,133.183,946.3176" style="stroke: #000000; stroke-width: 1.0;"/><!--link ClientController to Interactor--><path d="M170.763,766.555 C198.244,757.956 235.634,746.258 262.614,737.816 " fill="none" id="ClientController-Interactor" style="stroke: #000000; stroke-width: 0.55; stroke-dasharray: 1.0,3.0;"/><polygon fill="#000000" points="267.526,736.279,257.7422,735.1489,262.7541,737.772,260.131,742.7839,267.526,736.279" style="stroke: #000000; stroke-width: 0.55;"/><!--link ClientModel to ClientElement--><path d="M165.611,890.026 C192.196,898.507 230.388,910.6912 258.781,919.7493 " fill="none" id="ClientModel-ClientElement" style="stroke: #000000; stroke-width: 0.55; stroke-dasharray: 1.0,3.0;"/><polygon fill="#000000" points="263.607,921.2886,256.2489,914.7419,258.8436,919.7686,253.817,922.3633,263.607,921.2886" style="stroke: #000000; stroke-width: 0.55;"/><!--link ClientModel to ClientImage--><path d="M183.088,880 C201.26,880 222.02,880 240.806,880 " fill="none" id="ClientModel-ClientImage" style="stroke: #000000; stroke-width: 0.55; stroke-dasharray: 1.0,3.0;"/><polygon fill="#000000" points="246.049,880,237.049,876,241.049,880,237.049,884,246.049,880" style="stroke: #000000; stroke-width: 0.55;"/><!--link ClientModel to ClientItem--><path d="M165.611,870.167 C193.333,861.493 233.675,848.87 262.368,839.893 " fill="none" id="ClientModel-ClientItem" style="stroke: #000000; stroke-width: 0.55; stroke-dasharray: 1.0,3.0;"/><polygon fill="#000000" points="267.227,838.373,257.4432,837.2429,262.4551,839.866,259.832,844.8779,267.227,838.373" style="stroke: #000000; stroke-width: 0.55;"/><!--link ClientModel to ShadowView--><path d="M150.071,867.509 C170.636,851.652 207.908,823.962 242.183,804 C249.741,799.598 258.164,795.323 266.102,791.554 " fill="none" id="ClientModel-ShadowView" style="stroke: #000000; stroke-width: 0.55; stroke-dasharray: 1.0,3.0;"/><polygon fill="#000000" points="270.97,789.276,261.123,789.4666,266.4411,791.3947,264.513,796.7128,270.97,789.276" style="stroke: #000000; stroke-width: 0.55;"/><!--link Device to mixins--><path d="M848.598,390.936 C867.464,388.16 891.307,381.744 907.183,367 C913.612,361.029 954.534,245.992 970.404,200.908 " fill="none" id="Device-mixins" style="stroke: #000000; stroke-width: 0.55;"/><polygon fill="#000000" points="972.124,196.017,965.3632,203.1788,970.4642,200.7335,972.9096,205.8345,972.124,196.017" style="stroke: #000000; stroke-width: 0.55;"/><!--link GestureController to gestures--><path d="M859.743,351.104 C885.611,358.823 918.733,368.707 943.118,375.984 " fill="none" id="GestureController-gestures" style="stroke: #000000; stroke-width: 0.55;"/><polygon fill="#000000" points="948.183,377.495,940.7028,371.0882,943.3918,376.0651,938.415,378.7541,948.183,377.495" style="stroke: #000000; stroke-width: 0.55;"/><!--link gestures to Region--><path d="M1014.94,389.518 C1034.64,391.429 1058.86,393.779 1078.26,395.661 " fill="none" id="gestures-Region" style="stroke: #000000; stroke-width: 0.55; stroke-dasharray: 1.0,3.0;"/><polygon fill="#000000" points="1083.6,396.179,1075.0312,391.3235,1078.6237,395.6932,1074.254,399.2857,1083.6,396.179" style="stroke: #000000; stroke-width: 0.55;"/><!--link Hittable to Interactable--><path d="M1142.43,246.229 C1164.41,240.863 1195.48,233.281 1220.46,227.184 " fill="none" id="Hittable-Interactable" style="stroke: #000000; stroke-width: 0.55; stroke-dasharray: 1.0,3.0;"/><polygon fill="#000000" points="1225.37,225.985,1215.6781,224.2335,1220.5126,227.1708,1217.5754,232.0053,1225.37,225.985" style="stroke: #000000; stroke-width: 0.55;"/><!--link <b>index</b> to predefined--><path d="M133.183,638.707 C133.183,621.598 133.183,604.489 133.183,587.38 " fill="none" id="&lt;b&gt;index&lt;/b&gt;-predefined" style="stroke: #000000; stroke-width: 1.0;"/><polygon fill="#000000" points="133.183,582.07,129.183,591.07,133.183,587.07,137.183,591.07,133.183,582.07" style="stroke: #000000; stroke-width: 1.0;"/><!--link <b>index</b> to server--><path d="M106.007,649.918 C79.7843,646.26 41.6411,636.191 24.6826,608.5 C-5.7251,558.849 7.4691,533.119 24.6826,477.5 C43.1007,417.988 92.416,360.929 117.727,334.433 " fill="none" id="&lt;b&gt;index&lt;/b&gt;-server" style="stroke: #000000; stroke-width: 1.0;"/><polygon fill="#000000" points="121.281,330.749,112.1537,334.4492,117.8096,334.3475,117.9113,340.0035,121.281,330.749" style="stroke: #000000; stroke-width: 1.0;"/><!--link Input to PointerData--><path d="M1452.89,418 C1474.72,418 1508.23,418 1536.85,418 " fill="none" id="Input-PointerData" style="stroke: #000000; stroke-width: 0.55; stroke-dasharray: 1.0,3.0;"/><polygon fill="#000000" points="1542.13,418,1533.13,414,1537.13,418,1533.13,422,1542.13,418" style="stroke: #000000; stroke-width: 0.55;"/><!--link Interactable to Lockable--><path d="M1277.12,204.208 C1295.31,186.762 1330.05,155.354 1364.18,135 C1374.03,129.127 1385.45,123.995 1395.87,119.876 " fill="none" id="Interactable-Lockable" style="stroke: #000000; stroke-width: 0.55; stroke-dasharray: 1.0,3.0;"/><polygon fill="#000000" points="1400.58,118.056,1390.7434,117.5645,1395.9153,119.8562,1393.6237,125.028,1400.58,118.056" style="stroke: #000000; stroke-width: 0.55;"/><!--link Interactable to Publishable--><path d="M1315.47,217 C1334.21,217 1355.45,217 1374.37,217 " fill="none" id="Interactable-Publishable" style="stroke: #000000; stroke-width: 0.55; stroke-dasharray: 1.0,3.0;"/><polygon fill="#000000" points="1379.64,217,1370.6515,212.9743,1374.64,216.9857,1370.6286,220.9743,1379.64,217" style="stroke: #000000; stroke-width: 0.55;"/><!--link Interactable to Transformable2D--><path d="M1295.32,206.716 C1320.81,198.298 1357.12,186.306 1385.26,177.011 " fill="none" id="Interactable-Transformable2D" style="stroke: #000000; stroke-width: 0.55; stroke-dasharray: 1.0,3.0;"/><polygon fill="#000000" points="1390.06,175.426,1380.259,174.4561,1385.3132,176.9969,1382.7724,182.051,1390.06,175.426" style="stroke: #000000; stroke-width: 0.55;"/><!--link Interactor to Transform--><path d="M341.803,727 C364.419,727 392.312,727 415.804,727 " fill="none" id="Interactor-Transform" style="stroke: #000000; stroke-width: 0.55; stroke-dasharray: 1.0,3.0;"/><polygon fill="#000000" points="421.054,727,412.054,723,416.054,727,412.054,731,421.054,727" style="stroke: #000000; stroke-width: 0.55;"/><!--link mixins to Hittable--><path d="M997.315,192.733 C1021.01,205.111 1061.99,226.517 1088.19,240.204 " fill="none" id="mixins-Hittable" style="stroke: #000000; stroke-width: 0.55; stroke-dasharray: 1.0,3.0;"/><polygon fill="#000000" points="1092.9,242.667,1086.773,234.9559,1088.4677,240.353,1083.0706,242.0476,1092.9,242.667" style="stroke: #000000; stroke-width: 0.55;"/><!--link mixins to Identifiable--><path d="M990.174,171.102 C1006.25,154.726 1036.7,124.691 1065.18,102 C1072.66,96.04 1081.23,90.042 1089.01,84.875 " fill="none" id="mixins-Identifiable" style="stroke: #000000; stroke-width: 0.55; stroke-dasharray: 1.0,3.0;"/><polygon fill="#000000" points="1093.24,82.095,1083.5211,83.6898,1089.0601,84.8388,1087.9111,90.3777,1093.24,82.095" style="stroke: #000000; stroke-width: 0.55;"/><!--link mixins to Interactable--><path d="M985.396,195.743 C997.758,217.651 1026.44,261.761 1065.18,279 C1104.57,296.528 1120.72,290.81 1162.18,279 C1193.6,270.052 1224.78,248.092 1243.77,232.867 " fill="none" id="mixins-Interactable" style="stroke: #000000; stroke-width: 0.55; stroke-dasharray: 1.0,3.0;"/><polygon fill="#000000" points="1247.86,229.536,1238.3549,232.1154,1243.9823,232.6925,1243.4053,238.3198,1247.86,229.536" style="stroke: #000000; stroke-width: 0.55;"/><!--link mixins to Lockable--><path d="M996.272,172.996 C1013.32,163.809 1040.19,150.647 1065.18,144 C1177.59,114.109 1315.63,109.103 1384.42,108.654 " fill="none" id="mixins-Lockable" style="stroke: #000000; stroke-width: 0.55; stroke-dasharray: 1.0,3.0;"/><polygon fill="#000000" points="1389.66,108.627,1380.6486,104.6527,1384.66,108.6413,1380.6715,112.6527,1389.66,108.627" style="stroke: #000000; stroke-width: 0.55;"/><!--link mixins to Locker--><path d="M1005.477,186.799 C1026.92,189.84 1057.08,194.117 1079.96,197.36 " fill="none" id="mixins-Locker" style="stroke: #000000; stroke-width: 0.55; stroke-dasharray: 1.0,3.0;"/><polygon fill="#000000" points="1085.01,198.077,1076.6587,192.8562,1080.0593,197.3769,1075.5386,200.7774,1085.01,198.077" style="stroke: #000000; stroke-width: 0.55;"/><!--link mixins to Publishable--><path d="M1006.32,180.594 C1023.29,179.238 1045.47,177.683 1065.18,177 C1176.43,173.146 1205.26,174.464 1315.18,192 C1339.33,195.852 1366.06,201.723 1387.4,206.808 " fill="none" id="mixins-Publishable" style="stroke: #000000; stroke-width: 0.55; stroke-dasharray: 1.0,3.0;"/><polygon fill="#000000" points="1392.43,208.014,1384.6171,202.0175,1387.5691,206.843,1382.7435,209.795,1392.43,208.014" style="stroke: #000000; stroke-width: 0.55;"/><!--link mixins to Transformable2D--><path d="M999.94,174.379 C1017.19,167.87 1042.32,159.485 1065.18,156 C1169.86,140.043 1293.48,148.079 1365.96,155.466 " fill="none" id="mixins-Transformable2D" style="stroke: #000000; stroke-width: 0.55; stroke-dasharray: 1.0,3.0;"/><polygon fill="#000000" points="1371.09,155.996,1362.5491,151.0916,1366.1165,155.4818,1361.7264,159.0492,1371.09,155.996" style="stroke: #000000; stroke-width: 0.55;"/><!--link PointerData to PHASE--><path d="M1643.32,418 C1657.86,418 1673.41,418 1686.69,418 " fill="none" id="PointerData-PHASE" style="stroke: #000000; stroke-width: 0.55; stroke-dasharray: 1.0,3.0;"/><polygon fill="#000000" points="1691.86,418,1682.86,414,1686.86,418,1682.86,422,1691.86,418" style="stroke: #000000; stroke-width: 0.55;"/><!--link predefined to items--><path d="M173.225,562.772 C202.54,558.096 242.022,551.799 268.477,547.579 " fill="none" id="predefined-items" style="stroke: #000000; stroke-width: 0.55; stroke-dasharray: 1.0,3.0;"/><polygon fill="#000000" points="273.587,546.764,264.0696,544.2305,268.6493,547.551,265.3288,552.1307,273.587,546.764" style="stroke: #000000; stroke-width: 0.55;"/><!--link predefined to layouts--><path d="M157.537,557.968 C187.785,543.679 240.33,518.857 271.621,504.075 " fill="none" id="predefined-layouts" style="stroke: #000000; stroke-width: 0.55; stroke-dasharray: 1.0,3.0;"/><polygon fill="#000000" points="276.453,501.792,266.6068,502.0203,271.9322,503.9281,270.0245,509.2535,276.453,501.792" style="stroke: #000000; stroke-width: 0.55;"/><!--link predefined to utilities--><path d="M173.64,575.052 C200.934,579.238 236.892,584.753 262.972,588.753 " fill="none" id="predefined-utilities" style="stroke: #000000; stroke-width: 0.55; stroke-dasharray: 1.0,3.0;"/><polygon fill="#000000" points="268.05,589.532,259.7594,584.2154,263.1076,588.7749,258.5481,592.1232,268.05,589.532" style="stroke: #000000; stroke-width: 0.55;"/><!--link Region to Binding--><path d="M1144.18,400.4 C1167.57,401.51 1200.38,403.067 1225.47,404.258 " fill="none" id="Region-Binding" style="stroke: #000000; stroke-width: 0.55; stroke-dasharray: 1.0,3.0;"/><polygon fill="#000000" points="1230.7,404.506,1221.9049,400.0736,1225.7059,404.2632,1221.5163,408.0642,1230.7,404.506" style="stroke: #000000; stroke-width: 0.55;"/><!--link Region to PHASE--><path d="M1140.71,392.796 C1160.03,388.523 1187.09,383.228 1211.18,381 C1318.26,371.099 1566.62,379.444 1643.18,393 C1660.59,396.082 1679.48,402.171 1694.19,407.568 " fill="none" id="Region-PHASE" style="stroke: #000000; stroke-width: 0.55; stroke-dasharray: 1.0,3.0;"/><polygon fill="#000000" points="1699.02,409.366,1691.9798,402.4787,1694.3338,407.6224,1689.1901,409.9765,1699.02,409.366" style="stroke: #000000; stroke-width: 0.55;"/><!--link Region to State--><path d="M1136.76,407.683 C1164.11,418.438 1210.52,436.683 1238.56,447.711 " fill="none" id="Region-State" style="stroke: #000000; stroke-width: 0.55; stroke-dasharray: 1.0,3.0;"/><polygon fill="#000000" points="1243.23,449.549,1236.3167,442.5343,1238.5765,447.7202,1233.3906,449.9799,1243.23,449.549" style="stroke: #000000; stroke-width: 0.55;"/><!--link server to Application--><path d="M160.734,319 C183.579,319 217.206,319 245.36,319 " fill="none" id="server-Application" style="stroke: #000000; stroke-width: 0.55; stroke-dasharray: 1.0,3.0;"/><polygon fill="#000000" points="250.549,319,241.549,315,245.549,319,241.549,323,250.549,319" style="stroke: #000000; stroke-width: 0.55;"/><!--link server to Router--><path d="M157.686,312.813 C216.615,297.301 370.553,256.778 435.308,239.733 " fill="none" id="server-Router" style="stroke: #000000; stroke-width: 0.55; stroke-dasharray: 1.0,3.0;"/><polygon fill="#000000" points="440.184,238.449,430.4621,236.8724,435.3488,239.7221,432.4991,244.6087,440.184,238.449" style="stroke: #000000; stroke-width: 0.55;"/><!--link ServerController to Device--><path d="M702.571,391.694 C729.263,391.998 759.624,392.344 782.389,392.603 " fill="none" id="ServerController-Device" style="stroke: #000000; stroke-width: 0.55; stroke-dasharray: 1.0,3.0;"/><polygon fill="#000000" points="787.419,392.661,778.4641,388.561,782.4193,392.6053,778.375,396.5605,787.419,392.661" style="stroke: #000000; stroke-width: 0.55;"/><!--link ServerElement to mixins--><path d="M674.389,270.567 C684.268,266.545 694.94,261.61 704.183,256 C728.457,241.267 727.249,226.565 753.183,215 C816.264,186.869 898.395,182.303 943.465,182.19 " fill="none" id="ServerElement-mixins" style="stroke: #000000; stroke-width: 0.55;"/><polygon fill="#000000" points="948.508,182.195,939.5126,178.1847,943.508,182.1893,939.5034,186.1847,948.508,182.195" style="stroke: #000000; stroke-width: 0.55;"/><!--link ServerImage to mixins--><path d="M657.443,165.121 C677.997,149.241 715.761,123.111 753.183,113 C819.258,95.147 843.995,86.694 907.183,113 C932.98,123.74 954.127,149.227 966.071,166.299 " fill="none" id="ServerImage-mixins" style="stroke: #000000; stroke-width: 0.55;"/><polygon fill="#000000" points="968.907,170.444,967.1254,160.7576,966.0833,166.3177,960.5232,165.2756,968.907,170.444" style="stroke: #000000; stroke-width: 0.55;"/><!--link ServerItem to mixins--><path d="M670.842,219.902 C681.651,215.641 693.797,210.217 704.183,204 C728.303,189.56 726.701,173.436 753.183,164 C820.647,139.96 906.528,160.267 949.545,173.61 " fill="none" id="ServerItem-mixins" style="stroke: #000000; stroke-width: 0.55;"/><polygon fill="#000000" points="954.324,175.119,946.9467,168.5941,949.5562,173.6131,944.5372,176.2226,954.324,175.119" style="stroke: #000000; stroke-width: 0.55;"/><!--link ServerView to mixins--><path d="M853.812,276.269 C870.723,271.068 890.884,263.421 907.183,253 C929.998,238.412 951.146,215.137 963.98,199.473 " fill="none" id="ServerView-mixins" style="stroke: #000000; stroke-width: 0.55;"/><polygon fill="#000000" points="967.374,195.27,958.6075,199.7588,964.2326,199.1599,964.8315,204.785,967.374,195.27" style="stroke: #000000; stroke-width: 0.55;"/><!--link ServerViewGroup to GestureController--><path d="M704.051,337.066 C718.266,337.309 733.454,337.569 747.937,337.816 " fill="none" id="ServerViewGroup-GestureController" style="stroke: #000000; stroke-width: 0.55; stroke-dasharray: 1.0,3.0;"/><polygon fill="#000000" points="753.237,337.907,744.3069,333.7533,748.2377,337.8213,744.1697,341.7521,753.237,337.907" style="stroke: #000000; stroke-width: 0.55;"/><!--link ServerViewGroup to mixins--><path d="M676.962,323.509 C686.189,319.517 695.871,314.645 704.183,309 C729.661,291.697 726.591,275.539 753.183,260 C814.537,224.147 840.767,242.275 907.183,217 C923.283,210.873 940.695,202.352 954.063,195.373 " fill="none" id="ServerViewGroup-mixins" style="stroke: #000000; stroke-width: 0.55;"/><polygon fill="#000000" points="958.795,192.879,948.9682,193.5373,954.3719,195.2106,952.6987,200.6143,958.795,192.879" style="stroke: #000000; stroke-width: 0.55;"/><!--link ServerViewGroup to ServerView--><path d="M681.506,324.427 C711.143,315.815 751.301,304.145 780.227,295.739 " fill="none" id="ServerViewGroup-ServerView" style="stroke: #000000; stroke-width: 0.55; stroke-dasharray: 1.0,3.0;"/><polygon fill="#000000" points="785.13,294.314,775.3716,292.9825,780.3284,295.7083,777.6025,300.6651,785.13,294.314" style="stroke: #000000; stroke-width: 0.55;"/><!--link State to Input--><path d="M1285.56,451.901 C1315.3,444.807 1369.14,431.965 1401.33,424.286 " fill="none" id="State-Input" style="stroke: #000000; stroke-width: 0.55; stroke-dasharray: 1.0,3.0;"/><polygon fill="#000000" points="1406.3,423.1,1396.6135,421.319,1401.4391,424.271,1398.4871,429.0965,1406.3,423.1" style="stroke: #000000; stroke-width: 0.55;"/><!--link State to PHASE--><path d="M1287.07,458.509 C1346.45,461.931 1510.07,468.217 1643.18,444 C1660.89,440.778 1680.07,434.31 1694.86,428.632 " fill="none" id="State-PHASE" style="stroke: #000000; stroke-width: 0.55; stroke-dasharray: 1.0,3.0;"/><polygon fill="#000000" points="1699.7,426.742,1689.8619,426.2818,1695.0411,428.557,1692.7659,433.7361,1699.7,426.742" style="stroke: #000000; stroke-width: 0.55;"/><!--link Switchboard to ServerController--><path d="M498.413,345.271 C526.654,354.413 568.126,367.837 598.837,377.778 " fill="none" id="Switchboard-ServerController" style="stroke: #000000; stroke-width: 0.55; stroke-dasharray: 1.0,3.0;"/><polygon fill="#000000" points="603.669,379.343,596.3384,372.7655,598.912,377.8031,593.8745,380.3767,603.669,379.343" style="stroke: #000000; stroke-width: 0.55;"/><!--link Switchboard to ServerViewGroup--><path d="M519.058,335.303 C535.641,335.399 554.217,335.506 571.729,335.607 " fill="none" id="Switchboard-ServerViewGroup" style="stroke: #000000; stroke-width: 0.55; stroke-dasharray: 1.0,3.0;"/><polygon fill="#000000" points="577.126,335.638,568.149,331.5866,572.1261,335.6094,568.1033,339.5865,577.126,335.638" style="stroke: #000000; stroke-width: 0.55;"/><!--link WorkSpace to ServerElement--><path d="M514.873,282.721 C534.412,282.608 557.22,282.477 577.955,282.357 " fill="none" id="WorkSpace-ServerElement" style="stroke: #000000; stroke-width: 0.55; stroke-dasharray: 1.0,3.0;"/><polygon fill="#000000" points="583.178,282.327,574.1553,278.3785,578.1781,282.3556,574.201,286.3784,583.178,282.327" style="stroke: #000000; stroke-width: 0.55;"/><!--link WorkSpace to ServerImage--><path d="M501.746,273.98 C512.751,270.143 524.534,264.917 534.183,258 C558.836,240.327 553.007,223.321 577.183,205 C584.654,199.338 593.495,194.593 602.14,190.739 " fill="none" id="WorkSpace-ServerImage" style="stroke: #000000; stroke-width: 0.55; stroke-dasharray: 1.0,3.0;"/><polygon fill="#000000" points="606.913,188.691,597.065,188.5641,602.3182,190.6627,600.2196,195.9159,606.913,188.691" style="stroke: #000000; stroke-width: 0.55;"/><!--link WorkSpace to ServerItem--><path d="M498.413,273.279 C528.136,264.173 572.514,250.578 603.577,241.061 " fill="none" id="WorkSpace-ServerItem" style="stroke: #000000; stroke-width: 0.55; stroke-dasharray: 1.0,3.0;"/><polygon fill="#000000" points="608.444,239.57,598.6671,238.3815,603.6633,241.0345,601.0103,246.0307,608.444,239.57" style="stroke: #000000; stroke-width: 0.55;"/><script type="text/plantuml"><![CDATA[
@startuml

scale max 1920 width
left to right direction

skinparam nodesep 25
skinparam ranksep 49
skinparam monochrome true
skinparam shadowing false
skinparam defaultFontName Tahoma
skinparam defaultFontSize 12
skinparam roundCorner 4
skinparam dpi 150
skinparam arrowColor black
skinparam arrowThickness 0.55
skinparam packageTitleAlignment left

skinparam usecase {
  borderThickness 0.5
}

skinparam rectangle {
  borderThickness 0.5
}

skinparam component {
  borderThickness 1
}


(<b>client</b>)
(<b>index</b>)

package "Client" {
  (ClientController)
  (ClientElement)
  (ClientImage)
  (ClientItem)
  (ClientModel)
  (ClientView)
  (Interactor)
  (ShadowView)
  (Transform)
}

package "Server" {
  (Application)
  (Device)
  (GestureController)
  (MessageHandler)
  (Router)
  (server)
  (ServerController)
  (ServerElement)
  (ServerImage)
  (ServerItem)
  (ServerView)
  (ServerViewGroup)
  (Switchboard)
  (WorkSpace)
}

package "Predefined" {
  (items)
  (layouts)
  (predefined)
  (utilities)
}

package "Mixins" {
  (Hittable)
  (Identifiable)
  (Interactable)
  (Lockable)
  (Locker)
  (mixins)
  (Publishable)
  (Transformable2D)
}


package "Gestures" {
  (Binding)
  (gestures)
  (Input)
  (PHASE)
  (PointerData)
  (Region)
  (State)
}

(Application) ~~> (MessageHandler)
(Application) ~~> (Router)
(Application) ~~> (Switchboard)
(Application) ~~> (WorkSpace)
(<b>client</b>) -[thickness=1]> (ClientController)
(<b>client</b>) -[thickness=1]> (ClientModel)
(<b>client</b>) -[thickness=1]> (ClientView)
(ClientController) ~~> (Interactor)
(ClientModel) ~~> (ClientElement)
(ClientModel) ~~> (ClientImage)
(ClientModel) ~~> (ClientItem)
(ClientModel) ~~> (ShadowView)
(Device) --> (mixins)
(GestureController) --> (gestures)
(gestures) ~~> (Region)
(Hittable) ~~> (Interactable)
(<b>index</b>) -[thickness=1]> (predefined)
(<b>index</b>) -[thickness=1]> (server)
(Input) ~~> (PointerData)
(Interactable) ~~> (Lockable)
(Interactable) ~~> (Publishable)
(Interactable) ~~> (Transformable2D)
(Interactor) ~~> (Transform)
(mixins) ~~> (Hittable)
(mixins) ~~> (Identifiable)
(mixins) ~~> (Interactable)
(mixins) ~~> (Lockable)
(mixins) ~~> (Locker)
(mixins) ~~> (Publishable)
(mixins) ~~> (Transformable2D)
(PointerData) ~~> (PHASE)
(predefined) ~~> (items)
(predefined) ~~> (layouts)
(predefined) ~~> (utilities)
(Region) ~~> (Binding)
(Region) ~~> (PHASE)
(Region) ~~> (State)
(server) ~~> (Application)
(server) ~~> (Router)
(ServerController) ~~> (Device)
(ServerElement) --> (mixins)
(ServerImage) --> (mixins)
(ServerItem) --> (mixins)
(ServerView) --> (mixins)
(ServerViewGroup) ~~> (GestureController)
(ServerViewGroup) --> (mixins)
(ServerViewGroup) ~~> (ServerView)
(State) ~~> (Input)
(State) ~~> (PHASE)
(Switchboard) ~~> (ServerController)
(Switchboard) ~~> (ServerViewGroup)
(WorkSpace) ~~> (ServerElement)
(WorkSpace) ~~> (ServerImage)
(WorkSpace) ~~> (ServerItem)

@enduml


' View and edit on https://arkit.pro
]]></script></g></svg>