<?xml version="1.0" encoding="UTF-8" standalone="no"?><svg xmlns="http://www.w3.org/2000/svg" xmlns:xlink="http://www.w3.org/1999/xlink" contentScriptType="application/ecmascript" contentStyleType="text/css" height="1033px" preserveAspectRatio="none" style="width:1821px;height:1033px;" version="1.1" viewBox="0 0 1821 1033" width="1821px" zoomAndPan="magnify"><defs/><g><!--cluster Client--><path d="M57.6952,691 L97.6952,691 A3,3 0 0 1 99.6952,693 L106.6952,711.4844 L532.695,711.4844 A2,2 0 0 1 534.695,713.4844 L534.695,978 A2,2 0 0 1 532.695,980 L57.6952,980 A2,2 0 0 1 55.6952,978 L55.6952,693 A2,2 0 0 1 57.6952,691 " fill="#FFFFFF" style="stroke: #000000; stroke-width: 1.5;"/><line style="stroke: #000000; stroke-width: 1.5;" x1="55.6952" x2="106.6952" y1="711.4844" y2="711.4844"/><text fill="#000000" font-family="Tahoma, sans-serif" font-size="12" font-weight="bold" lengthAdjust="spacingAndGlyphs" textLength="38" x="59.6952" y="705.0059">Client</text><!--cluster Server--><path d="M90.1952,154 L134.1952,154 A3,3 0 0 1 136.1952,156 L143.1952,174.4844 L915.695,174.4844 A2,2 0 0 1 917.695,176.4844 L917.695,450 A2,2 0 0 1 915.695,452 L90.1952,452 A2,2 0 0 1 88.1952,450 L88.1952,156 A2,2 0 0 1 90.1952,154 " fill="#FFFFFF" style="stroke: #000000; stroke-width: 1.5;"/><line style="stroke: #000000; stroke-width: 1.5;" x1="88.1952" x2="143.1952" y1="174.4844" y2="174.4844"/><text fill="#000000" font-family="Tahoma, sans-serif" font-size="12" font-weight="bold" lengthAdjust="spacingAndGlyphs" textLength="42" x="92.1952" y="168.0059">Server</text><!--cluster Predefined--><path d="M72.1952,476 L144.1952,476 A3,3 0 0 1 146.1952,478 L153.1952,496.4844 L520.195,496.4844 A2,2 0 0 1 522.195,498.4844 L522.195,631 A2,2 0 0 1 520.195,633 L72.1952,633 A2,2 0 0 1 70.1952,631 L70.1952,478 A2,2 0 0 1 72.1952,476 " fill="#FFFFFF" style="stroke: #000000; stroke-width: 1.5;"/><line style="stroke: #000000; stroke-width: 1.5;" x1="70.1952" x2="153.1952" y1="496.4844" y2="496.4844"/><text fill="#000000" font-family="Tahoma, sans-serif" font-size="12" font-weight="bold" lengthAdjust="spacingAndGlyphs" textLength="70" x="74.1952" y="490.0059">Predefined</text><!--cluster Mixins--><path d="M953.195,24 L996.195,24 A3,3 0 0 1 998.195,26 L1005.195,44.4844 L1540.7,44.4844 A2,2 0 0 1 1542.7,46.4844 L1542.7,319 A2,2 0 0 1 1540.7,321 L953.195,321 A2,2 0 0 1 951.195,319 L951.195,26 A2,2 0 0 1 953.195,24 " fill="#FFFFFF" style="stroke: #000000; stroke-width: 1.5;"/><line style="stroke: #000000; stroke-width: 1.5;" x1="951.195" x2="1005.195" y1="44.4844" y2="44.4844"/><text fill="#000000" font-family="Tahoma, sans-serif" font-size="12" font-weight="bold" lengthAdjust="spacingAndGlyphs" textLength="41" x="955.195" y="38.0059">Mixins</text><!--cluster Gestures--><path d="M943.695,345 L1005.695,345 A3,3 0 0 1 1007.695,347 L1014.695,365.4844 L1807.7,365.4844 A2,2 0 0 1 1809.7,367.4844 L1809.7,736 A2,2 0 0 1 1807.7,738 L943.695,738 A2,2 0 0 1 941.695,736 L941.695,347 A2,2 0 0 1 943.695,345 " fill="#FFFFFF" style="stroke: #000000; stroke-width: 1.5;"/><line style="stroke: #000000; stroke-width: 1.5;" x1="941.695" x2="1014.695" y1="365.4844" y2="365.4844"/><text fill="#000000" font-family="Tahoma, sans-serif" font-size="12" font-weight="bold" lengthAdjust="spacingAndGlyphs" textLength="60" x="945.695" y="359.0059">Gestures</text><ellipse cx="131.6795" cy="789.8969" fill="#F8F8F8" rx="59.9845" ry="14.3969" style="stroke: #383838; stroke-width: 0.5;"/><text fill="#000000" font-family="Tahoma, sans-serif" font-size="12" lengthAdjust="spacingAndGlyphs" textLength="88" x="87.6795" y="793.6391">ClientController</text><ellipse cx="301.9137" cy="950.1437" fill="#F8F8F8" rx="56.2187" ry="13.6437" style="stroke: #383838; stroke-width: 0.5;"/><text fill="#000000" font-family="Tahoma, sans-serif" font-size="12" lengthAdjust="spacingAndGlyphs" textLength="78" x="262.9137" y="953.8859">ClientElement</text><ellipse cx="301.4854" cy="896.242" fill="#F8F8F8" rx="51.7904" ry="13.242" style="stroke: #383838; stroke-width: 0.5;"/><text fill="#000000" font-family="Tahoma, sans-serif" font-size="12" lengthAdjust="spacingAndGlyphs" textLength="69" x="266.9854" y="899.9842">ClientImage</text><ellipse cx="301.9143" cy="843.242" fill="#F8F8F8" rx="44.7193" ry="13.242" style="stroke: #383838; stroke-width: 0.5;"/><text fill="#000000" font-family="Tahoma, sans-serif" font-size="12" lengthAdjust="spacingAndGlyphs" textLength="59" x="272.4143" y="846.9842">ClientItem</text><ellipse cx="131.864" cy="896.242" fill="#F8F8F8" rx="49.669" ry="13.242" style="stroke: #383838; stroke-width: 0.5;"/><text fill="#000000" font-family="Tahoma, sans-serif" font-size="12" lengthAdjust="spacingAndGlyphs" textLength="66" x="98.864" y="899.9842">ClientModel</text><ellipse cx="131.7072" cy="951.242" fill="#F8F8F8" rx="44.0122" ry="13.242" style="stroke: #383838; stroke-width: 0.5;"/><text fill="#000000" font-family="Tahoma, sans-serif" font-size="12" lengthAdjust="spacingAndGlyphs" textLength="58" x="102.7072" y="954.9842">ClientView</text><ellipse cx="301.5001" cy="737.242" fill="#F8F8F8" rx="43.3051" ry="13.242" style="stroke: #383838; stroke-width: 0.5;"/><text fill="#000000" font-family="Tahoma, sans-serif" font-size="12" lengthAdjust="spacingAndGlyphs" textLength="57" x="273.0001" y="740.9842">Interactor</text><ellipse cx="301.6067" cy="790.242" fill="#F8F8F8" rx="53.9117" ry="13.242" style="stroke: #383838; stroke-width: 0.5;"/><text fill="#000000" font-family="Tahoma, sans-serif" font-size="12" lengthAdjust="spacingAndGlyphs" textLength="72" x="265.6067" y="793.9842">ShadowView</text><ellipse cx="474.4143" cy="737.242" fill="#F8F8F8" rx="44.7193" ry="13.242" style="stroke: #383838; stroke-width: 0.5;"/><text fill="#000000" font-family="Tahoma, sans-serif" font-size="12" lengthAdjust="spacingAndGlyphs" textLength="59" x="444.9143" y="740.9842">Transform</text><ellipse cx="301.7427" cy="292.242" fill="#F8F8F8" rx="47.5477" ry="13.242" style="stroke: #383838; stroke-width: 0.5;"/><text fill="#000000" font-family="Tahoma, sans-serif" font-size="12" lengthAdjust="spacingAndGlyphs" textLength="63" x="270.2427" y="295.9842">Application</text><ellipse cx="836.7722" cy="311.242" fill="#F8F8F8" rx="30.5772" ry="13.242" style="stroke: #383838; stroke-width: 0.5;"/><text fill="#000000" font-family="Tahoma, sans-serif" font-size="12" lengthAdjust="spacingAndGlyphs" textLength="39" x="817.2722" y="314.9842">Device</text><ellipse cx="836.8358" cy="419.9282" fill="#F8F8F8" rx="65.1408" ry="15.4282" style="stroke: #383838; stroke-width: 0.5;"/><text fill="#000000" font-family="Tahoma, sans-serif" font-size="12" lengthAdjust="spacingAndGlyphs" textLength="101" x="786.3358" y="423.6704">GestureController</text><ellipse cx="474.0265" cy="308.8663" fill="#F8F8F8" rx="62.3315" ry="14.8663" style="stroke: #383838; stroke-width: 0.5;"/><text fill="#000000" font-family="Tahoma, sans-serif" font-size="12" lengthAdjust="spacingAndGlyphs" textLength="94" x="427.0265" y="312.6085">MessageHandler</text><ellipse cx="474.358" cy="201.242" fill="#F8F8F8" rx="29.163" ry="13.242" style="stroke: #383838; stroke-width: 0.5;"/><text fill="#000000" font-family="Tahoma, sans-serif" font-size="12" lengthAdjust="spacingAndGlyphs" textLength="37" x="455.858" y="204.9842">Router</text><ellipse cx="131.9437" cy="292.242" fill="#F8F8F8" rx="27.7487" ry="13.242" style="stroke: #383838; stroke-width: 0.5;"/><text fill="#000000" font-family="Tahoma, sans-serif" font-size="12" lengthAdjust="spacingAndGlyphs" textLength="35" x="114.4437" y="295.9842">server</text><ellipse cx="654.2376" cy="202.2085" fill="#F8F8F8" rx="61.5426" ry="14.7085" style="stroke: #383838; stroke-width: 0.5;"/><text fill="#000000" font-family="Tahoma, sans-serif" font-size="12" lengthAdjust="spacingAndGlyphs" textLength="92" x="608.2376" y="205.9507">ServerController</text><ellipse cx="654.3963" cy="364.9403" fill="#F8F8F8" rx="57.7013" ry="13.9403" style="stroke: #383838; stroke-width: 0.5;"/><text fill="#000000" font-family="Tahoma, sans-serif" font-size="12" lengthAdjust="spacingAndGlyphs" textLength="82" x="613.3963" y="368.6824">ServerElement</text><ellipse cx="654.1098" cy="256.783" fill="#F8F8F8" rx="54.4148" ry="13.283" style="stroke: #383838; stroke-width: 0.5;"/><text fill="#000000" font-family="Tahoma, sans-serif" font-size="12" lengthAdjust="spacingAndGlyphs" textLength="73" x="617.6098" y="260.5251">ServerImage</text><ellipse cx="654.2427" cy="311.242" fill="#F8F8F8" rx="47.5477" ry="13.242" style="stroke: #383838; stroke-width: 0.5;"/><text fill="#000000" font-family="Tahoma, sans-serif" font-size="12" lengthAdjust="spacingAndGlyphs" textLength="63" x="622.7427" y="314.9842">ServerItem</text><ellipse cx="836.5356" cy="364.242" fill="#F8F8F8" rx="46.8406" ry="13.242" style="stroke: #383838; stroke-width: 0.5;"/><text fill="#000000" font-family="Tahoma, sans-serif" font-size="12" lengthAdjust="spacingAndGlyphs" textLength="62" x="805.5356" y="367.9842">ServerView</text><ellipse cx="654.2217" cy="421.1053" fill="#F8F8F8" rx="63.5267" ry="15.1053" style="stroke: #383838; stroke-width: 0.5;"/><text fill="#000000" font-family="Tahoma, sans-serif" font-size="12" lengthAdjust="spacingAndGlyphs" textLength="97" x="605.7217" y="424.8475">ServerViewGroup</text><ellipse cx="474.3996" cy="254.242" fill="#F8F8F8" rx="53.2046" ry="13.242" style="stroke: #383838; stroke-width: 0.5;"/><text fill="#000000" font-family="Tahoma, sans-serif" font-size="12" lengthAdjust="spacingAndGlyphs" textLength="71" x="438.8996" y="257.9842">Switchboard</text><ellipse cx="474.1569" cy="364.242" fill="#F8F8F8" rx="48.9619" ry="13.242" style="stroke: #383838; stroke-width: 0.5;"/><text fill="#000000" font-family="Tahoma, sans-serif" font-size="12" lengthAdjust="spacingAndGlyphs" textLength="65" x="441.6569" y="367.9842">WorkSpace</text><ellipse cx="301.8224" cy="575.242" fill="#F8F8F8" rx="25.6274" ry="13.242" style="stroke: #383838; stroke-width: 0.5;"/><text fill="#000000" font-family="Tahoma, sans-serif" font-size="12" lengthAdjust="spacingAndGlyphs" textLength="32" x="285.8224" y="578.9842">items</text><ellipse cx="301.8935" cy="522.242" fill="#F8F8F8" rx="32.6985" ry="13.242" style="stroke: #383838; stroke-width: 0.5;"/><text fill="#000000" font-family="Tahoma, sans-serif" font-size="12" lengthAdjust="spacingAndGlyphs" textLength="42" x="280.8935" y="525.9842">layouts</text><ellipse cx="131.6214" cy="590.242" fill="#F8F8F8" rx="45.4264" ry="13.242" style="stroke: #383838; stroke-width: 0.5;"/><text fill="#000000" font-family="Tahoma, sans-serif" font-size="12" lengthAdjust="spacingAndGlyphs" textLength="60" x="101.6214" y="593.9842">predefined</text><ellipse cx="474.1864" cy="590.242" fill="#F8F8F8" rx="31.9914" ry="13.242" style="stroke: #383838; stroke-width: 0.5;"/><text fill="#000000" font-family="Tahoma, sans-serif" font-size="12" lengthAdjust="spacingAndGlyphs" textLength="41" x="453.6864" y="593.9842">utilities</text><ellipse cx="1137.1056" cy="181.242" fill="#F8F8F8" rx="33.4056" ry="13.242" style="stroke: #383838; stroke-width: 0.5;"/><text fill="#000000" font-family="Tahoma, sans-serif" font-size="12" lengthAdjust="spacingAndGlyphs" textLength="43" x="1115.6056" y="184.9842">Hittable</text><ellipse cx="1136.9548" cy="263.242" fill="#F8F8F8" rx="48.2548" ry="13.242" style="stroke: #383838; stroke-width: 0.5;"/><text fill="#000000" font-family="Tahoma, sans-serif" font-size="12" lengthAdjust="spacingAndGlyphs" textLength="64" x="1104.9548" y="266.9842">Identifiable</text><ellipse cx="1291.4904" cy="181.242" fill="#F8F8F8" rx="51.7904" ry="13.242" style="stroke: #383838; stroke-width: 0.5;"/><text fill="#000000" font-family="Tahoma, sans-serif" font-size="12" lengthAdjust="spacingAndGlyphs" textLength="69" x="1256.9904" y="184.9842">Interactable</text><ellipse cx="1462.2624" cy="250.242" fill="#F8F8F8" rx="39.0624" ry="13.242" style="stroke: #383838; stroke-width: 0.5;"/><text fill="#000000" font-family="Tahoma, sans-serif" font-size="12" lengthAdjust="spacingAndGlyphs" textLength="51" x="1436.7624" y="253.9842">Lockable</text><ellipse cx="1137.0701" cy="128.242" fill="#F8F8F8" rx="29.8701" ry="13.242" style="stroke: #383838; stroke-width: 0.5;"/><text fill="#000000" font-family="Tahoma, sans-serif" font-size="12" lengthAdjust="spacingAndGlyphs" textLength="38" x="1118.0701" y="131.9842">Locker</text><ellipse cx="996.358" cy="202.242" fill="#F8F8F8" rx="29.163" ry="13.242" style="stroke: #383838; stroke-width: 0.5;"/><text fill="#000000" font-family="Tahoma, sans-serif" font-size="12" lengthAdjust="spacingAndGlyphs" textLength="37" x="977.858" y="205.9842">mixins</text><ellipse cx="1462.1619" cy="155.242" fill="#F8F8F8" rx="48.9619" ry="13.242" style="stroke: #383838; stroke-width: 0.5;"/><text fill="#000000" font-family="Tahoma, sans-serif" font-size="12" lengthAdjust="spacingAndGlyphs" textLength="65" x="1429.6619" y="158.9842">Publishable</text><ellipse cx="1462.0309" cy="85.7662" fill="#F8F8F8" rx="64.3309" ry="15.2662" style="stroke: #383838; stroke-width: 0.5;"/><text fill="#000000" font-family="Tahoma, sans-serif" font-size="12" lengthAdjust="spacingAndGlyphs" textLength="99" x="1412.5309" y="89.5084">Transformable2D</text><ellipse cx="1291.8985" cy="709.242" fill="#F8F8F8" rx="32.6985" ry="13.242" style="stroke: #383838; stroke-width: 0.5;"/><text fill="#000000" font-family="Tahoma, sans-serif" font-size="12" lengthAdjust="spacingAndGlyphs" textLength="42" x="1270.8985" y="712.9842">Binding</text><ellipse cx="1291.5198" cy="524.242" fill="#F8F8F8" rx="34.8198" ry="13.242" style="stroke: #383838; stroke-width: 0.5;"/><text fill="#000000" font-family="Tahoma, sans-serif" font-size="12" lengthAdjust="spacingAndGlyphs" textLength="45" x="1269.0198" y="527.9842">Gesture</text><ellipse cx="996.0503" cy="524.242" fill="#F8F8F8" rx="38.3553" ry="13.242" style="stroke: #383838; stroke-width: 0.5;"/><text fill="#000000" font-family="Tahoma, sans-serif" font-size="12" lengthAdjust="spacingAndGlyphs" textLength="50" x="971.0503" y="527.9842">gestures</text><ellipse cx="1462.4132" cy="627.242" fill="#F8F8F8" rx="24.2132" ry="13.242" style="stroke: #383838; stroke-width: 0.5;"/><text fill="#000000" font-family="Tahoma, sans-serif" font-size="12" lengthAdjust="spacingAndGlyphs" textLength="30" x="1447.4132" y="630.9842">Input</text><ellipse cx="1137.0492" cy="656.242" fill="#F8F8F8" rx="17.8492" ry="13.242" style="stroke: #383838; stroke-width: 0.5;"/><text fill="#000000" font-family="Tahoma, sans-serif" font-size="12" lengthAdjust="spacingAndGlyphs" textLength="21" x="1126.5492" y="659.9842">Pan</text><ellipse cx="1764.863" cy="627.242" fill="#F8F8F8" rx="29.163" ry="13.242" style="stroke: #383838; stroke-width: 0.5;"/><text fill="#000000" font-family="Tahoma, sans-serif" font-size="12" lengthAdjust="spacingAndGlyphs" textLength="37" x="1746.363" y="630.9842">PHASE</text><ellipse cx="1137.1203" cy="603.242" fill="#F8F8F8" rx="24.9203" ry="13.242" style="stroke: #383838; stroke-width: 0.5;"/><text fill="#000000" font-family="Tahoma, sans-serif" font-size="12" lengthAdjust="spacingAndGlyphs" textLength="31" x="1121.6203" y="606.9842">Pinch</text><ellipse cx="1631.0762" cy="627.242" fill="#F8F8F8" rx="50.3762" ry="13.242" style="stroke: #383838; stroke-width: 0.5;"/><text fill="#000000" font-family="Tahoma, sans-serif" font-size="12" lengthAdjust="spacingAndGlyphs" textLength="67" x="1597.5762" y="630.9842">PointerData</text><ellipse cx="1137.2772" cy="709.242" fill="#F8F8F8" rx="30.5772" ry="13.242" style="stroke: #383838; stroke-width: 0.5;"/><text fill="#000000" font-family="Tahoma, sans-serif" font-size="12" lengthAdjust="spacingAndGlyphs" textLength="39" x="1117.7772" y="712.9842">Region</text><ellipse cx="1137.363" cy="550.242" fill="#F8F8F8" rx="29.163" ry="13.242" style="stroke: #383838; stroke-width: 0.5;"/><text fill="#000000" font-family="Tahoma, sans-serif" font-size="12" lengthAdjust="spacingAndGlyphs" textLength="37" x="1118.863" y="553.9842">Rotate</text><ellipse cx="1291.9132" cy="627.242" fill="#F8F8F8" rx="24.2132" ry="13.242" style="stroke: #383838; stroke-width: 0.5;"/><text fill="#000000" font-family="Tahoma, sans-serif" font-size="12" lengthAdjust="spacingAndGlyphs" textLength="30" x="1276.9132" y="630.9842">State</text><ellipse cx="1137.2416" cy="497.242" fill="#F8F8F8" rx="27.0416" ry="13.242" style="stroke: #383838; stroke-width: 0.5;"/><text fill="#000000" font-family="Tahoma, sans-serif" font-size="12" lengthAdjust="spacingAndGlyphs" textLength="34" x="1120.2416" y="500.9842">Swipe</text><ellipse cx="1137.0492" cy="444.242" fill="#F8F8F8" rx="17.8492" ry="13.242" style="stroke: #383838; stroke-width: 0.5;"/><text fill="#000000" font-family="Tahoma, sans-serif" font-size="12" lengthAdjust="spacingAndGlyphs" textLength="21" x="1126.5492" y="447.9842">Tap</text><ellipse cx="1137.1203" cy="391.242" fill="#F8F8F8" rx="24.9203" ry="13.242" style="stroke: #383838; stroke-width: 0.5;"/><text fill="#000000" font-family="Tahoma, sans-serif" font-size="12" lengthAdjust="spacingAndGlyphs" textLength="31" x="1121.6203" y="394.9842">Track</text><ellipse cx="131.858" cy="1009.242" fill="#F8F8F8" rx="29.163" ry="13.242" style="stroke: #383838; stroke-width: 0.5;"/><text fill="#000000" font-family="Tahoma, sans-serif" font-size="12" font-weight="bold" lengthAdjust="spacingAndGlyphs" textLength="37" x="113.358" y="1012.9842">client</text><ellipse cx="131.9437" cy="662.242" fill="#F8F8F8" rx="27.7487" ry="13.242" style="stroke: #383838; stroke-width: 0.5;"/><text fill="#000000" font-family="Tahoma, sans-serif" font-size="12" font-weight="bold" lengthAdjust="spacingAndGlyphs" textLength="35" x="114.4437" y="665.9842">index</text><!--link Application to MessageHandler--><path d="M346.603,296.378 C366.242,298.336 389.744,300.679 411.137,302.812 " fill="none" id="Application-MessageHandler" style="stroke: #000000; stroke-width: 0.55; stroke-dasharray: 1.0,3.0;"/><polygon fill="#000000" points="416.238,303.321,407.6789,298.4485,411.2626,302.8253,406.8858,306.4091,416.238,303.321" style="stroke: #000000; stroke-width: 0.55;"/><!--link Application to Router--><path d="M321.61,279.976 C343.055,266.563 379.255,244.572 411.695,228 C423.235,222.105 436.344,216.24 447.486,211.49 " fill="none" id="Application-Router" style="stroke: #000000; stroke-width: 0.55; stroke-dasharray: 1.0,3.0;"/><polygon fill="#000000" points="452.131,209.526,442.2838,209.3474,447.5259,211.4735,445.3998,216.7156,452.131,209.526" style="stroke: #000000; stroke-width: 0.55;"/><!--link Application to Switchboard--><path d="M339.272,283.848 C365.617,277.976 401.288,270.026 429.192,263.807 " fill="none" id="Application-Switchboard" style="stroke: #000000; stroke-width: 0.55; stroke-dasharray: 1.0,3.0;"/><polygon fill="#000000" points="434.308,262.667,424.6536,260.7197,429.4276,263.7542,426.3931,268.5283,434.308,262.667" style="stroke: #000000; stroke-width: 0.55;"/><!--link Application to WorkSpace--><path d="M328.59,302.935 C359.223,315.871 410.155,337.379 442.676,351.112 " fill="none" id="Application-WorkSpace" style="stroke: #000000; stroke-width: 0.55; stroke-dasharray: 1.0,3.0;"/><polygon fill="#000000" points="447.336,353.08,440.6021,345.8929,442.7301,351.1342,437.4888,353.2623,447.336,353.08" style="stroke: #000000; stroke-width: 0.55;"/><!--link <b>client</b> to ClientController--><path d="M102.9316,1006.6968 C76.1813,1002.8153 37.9411,992.4044 20.6952,964.5 C1.7689,933.8766 5.512,916.142 20.6952,883.5 C37.0696,848.298 73.9458,821.598 100.7117,805.92 " fill="none" id="&lt;b&gt;client&lt;/b&gt;-ClientController" style="stroke: #000000; stroke-width: 1.0;"/><polygon fill="#000000" points="105.2496,803.31,95.4537,804.3297,100.9153,805.8028,99.4422,811.2645,105.2496,803.31" style="stroke: #000000; stroke-width: 1.0;"/><!--link <b>client</b> to ClientModel--><path d="M104.7306,1003.8138 C65.2524,994.9067 -1.3285,974.1351 20.6952,938.5 C33.3528,918.02 57.5297,907.38 80.0965,901.864 " fill="none" id="&lt;b&gt;client&lt;/b&gt;-ClientModel" style="stroke: #000000; stroke-width: 1.0;"/><polygon fill="#000000" points="85.1834,900.699,75.5173,898.8105,80.3097,901.8159,77.3043,906.6083,85.1834,900.699" style="stroke: #000000; stroke-width: 1.0;"/><!--link <b>client</b> to ClientView--><path d="M131.695,995.8594 C131.695,987.1525 131.695,978.4457 131.695,969.7389 " fill="none" id="&lt;b&gt;client&lt;/b&gt;-ClientView" style="stroke: #000000; stroke-width: 1.0;"/><polygon fill="#000000" points="131.695,964.3176,127.695,973.3176,131.695,969.3176,135.695,973.3176,131.695,964.3176" style="stroke: #000000; stroke-width: 1.0;"/><!--link ClientController to Interactor--><path d="M169.149,778.5 C197.976,769.405 237.944,756.797 266.24,747.87 " fill="none" id="ClientController-Interactor" style="stroke: #000000; stroke-width: 0.55; stroke-dasharray: 1.0,3.0;"/><polygon fill="#000000" points="271.029,746.359,261.2426,745.2519,266.2606,747.8632,263.6493,752.8813,271.029,746.359" style="stroke: #000000; stroke-width: 0.55;"/><!--link ClientModel to ClientElement--><path d="M163.901,906.03 C191.709,914.969 232.497,928.0792 262.298,937.658 " fill="none" id="ClientModel-ClientElement" style="stroke: #000000; stroke-width: 0.55; stroke-dasharray: 1.0,3.0;"/><polygon fill="#000000" points="267.355,939.2834,260.0107,932.7213,262.5948,937.7534,257.5627,940.3375,267.355,939.2834" style="stroke: #000000; stroke-width: 0.55;"/><!--link ClientModel to ClientImage--><path d="M181.288,896 C201.031,896 223.969,896 244.433,896 " fill="none" id="ClientModel-ClientImage" style="stroke: #000000; stroke-width: 0.55; stroke-dasharray: 1.0,3.0;"/><polygon fill="#000000" points="249.579,896,240.579,892,244.579,896,240.579,900,249.579,896" style="stroke: #000000; stroke-width: 0.55;"/><!--link ClientModel to ClientItem--><path d="M164.295,886.031 C193.137,876.932 235.703,863.504 265.594,854.074 " fill="none" id="ClientModel-ClientItem" style="stroke: #000000; stroke-width: 0.55; stroke-dasharray: 1.0,3.0;"/><polygon fill="#000000" points="270.65,852.479,260.8636,851.3719,265.8816,853.9832,263.2703,859.0013,270.65,852.479" style="stroke: #000000; stroke-width: 0.55;"/><!--link ClientModel to ShadowView--><path d="M148.64,883.673 C170.062,867.392 209.621,838.294 245.695,817 C253.656,812.301 262.55,807.681 270.827,803.627 " fill="none" id="ClientModel-ShadowView" style="stroke: #000000; stroke-width: 0.55; stroke-dasharray: 1.0,3.0;"/><polygon fill="#000000" points="275.352,801.437,265.5083,801.7572,270.8514,803.6152,268.9934,808.9582,275.352,801.437" style="stroke: #000000; stroke-width: 0.55;"/><!--link Device to mixins--><path d="M863.445,304.43 C881.829,298.962 906.584,289.965 925.695,277 C949.395,260.922 970.825,235.323 983.434,218.588 " fill="none" id="Device-mixins" style="stroke: #000000; stroke-width: 0.55;"/><polygon fill="#000000" points="986.446,214.536,977.8667,219.3728,983.4632,218.5488,984.2872,224.1453,986.446,214.536" style="stroke: #000000; stroke-width: 0.55;"/><!--link GestureController to gestures--><path d="M859.927,434.68 C889.992,454.533 943.286,489.724 973.219,509.489 " fill="none" id="GestureController-gestures" style="stroke: #000000; stroke-width: 0.55;"/><polygon fill="#000000" points="977.46,512.289,972.1522,503.9928,973.287,509.5346,967.7452,510.6695,977.46,512.289" style="stroke: #000000; stroke-width: 0.55;"/><!--link gestures to Pan--><path d="M1005.848,536.723 C1020.81,558.035 1053.34,601.423 1088.7,630 C1097.09,636.781 1107.5,642.707 1116.43,647.182 " fill="none" id="gestures-Pan" style="stroke: #000000; stroke-width: 0.55; stroke-dasharray: 1.0,3.0;"/><polygon fill="#000000" points="1121.22,649.515,1114.8749,641.9825,1116.7233,647.3288,1111.3769,649.1772,1121.22,649.515" style="stroke: #000000; stroke-width: 0.55;"/><!--link gestures to Pinch--><path d="M1016.4,535.303 C1034.86,546.127 1063.58,562.857 1088.7,577 C1096.97,581.661 1106.11,586.692 1114.15,591.076 " fill="none" id="gestures-Pinch" style="stroke: #000000; stroke-width: 0.55; stroke-dasharray: 1.0,3.0;"/><polygon fill="#000000" points="1118.99,593.713,1113.0108,585.8868,1114.6025,591.3151,1109.1742,592.9069,1118.99,593.713" style="stroke: #000000; stroke-width: 0.55;"/><!--link gestures to Region--><path d="M1001.88,537.1 C1012.93,566.46 1043.18,638.443 1088.7,683 C1094.7,688.882 1102.31,693.827 1109.67,697.772 " fill="none" id="gestures-Region" style="stroke: #000000; stroke-width: 0.55; stroke-dasharray: 1.0,3.0;"/><polygon fill="#000000" points="1114.2,700.099,1108.0229,692.428,1109.7527,697.8139,1104.3668,699.5437,1114.2,700.099" style="stroke: #000000; stroke-width: 0.55;"/><!--link gestures to Rotate--><path d="M1030.14,530.162 C1052.83,534.406 1082.78,540.009 1105.07,544.178 " fill="none" id="gestures-Rotate" style="stroke: #000000; stroke-width: 0.55; stroke-dasharray: 1.0,3.0;"/><polygon fill="#000000" points="1109.99,545.098,1101.8892,539.4965,1105.0769,544.1697,1100.4038,547.3574,1109.99,545.098" style="stroke: #000000; stroke-width: 0.55;"/><!--link gestures to Swipe--><path d="M1030.14,517.601 C1053.42,513.078 1084.36,507.068 1106.81,502.707 " fill="none" id="gestures-Swipe" style="stroke: #000000; stroke-width: 0.55; stroke-dasharray: 1.0,3.0;"/><polygon fill="#000000" points="1111.75,501.747,1102.1508,499.5434,1106.8424,502.7039,1103.6819,507.3956,1111.75,501.747" style="stroke: #000000; stroke-width: 0.55;"/><!--link gestures to Tap--><path d="M1016.45,512.788 C1034.95,502.029 1063.7,485.345 1088.7,471 C1098.27,465.503 1108.97,459.421 1117.78,454.423 " fill="none" id="gestures-Tap" style="stroke: #000000; stroke-width: 0.55; stroke-dasharray: 1.0,3.0;"/><polygon fill="#000000" points="1122.46,451.769,1112.6564,452.7126,1118.1065,454.2281,1116.591,459.6782,1122.46,451.769" style="stroke: #000000; stroke-width: 0.55;"/><!--link gestures to Track--><path d="M1005.898,511.339 C1020.94,490.117 1053.57,446.86 1088.7,418 C1096.24,411.801 1105.4,406.222 1113.65,401.767 " fill="none" id="gestures-Track" style="stroke: #000000; stroke-width: 0.55; stroke-dasharray: 1.0,3.0;"/><polygon fill="#000000" points="1118.13,399.41,1108.3028,400.062,1113.7054,401.7387,1112.0287,407.1414,1118.13,399.41" style="stroke: #000000; stroke-width: 0.55;"/><!--link Hittable to Interactable--><path d="M1170.91,181 C1189.38,181 1212.98,181 1234.34,181 " fill="none" id="Hittable-Interactable" style="stroke: #000000; stroke-width: 0.55; stroke-dasharray: 1.0,3.0;"/><polygon fill="#000000" points="1239.43,181,1230.43,177,1234.43,181,1230.43,185,1239.43,181" style="stroke: #000000; stroke-width: 0.55;"/><!--link <b>index</b> to predefined--><path d="M131.695,648.781 C131.695,635.403 131.695,622.024 131.695,608.645 " fill="none" id="&lt;b&gt;index&lt;/b&gt;-predefined" style="stroke: #000000; stroke-width: 1.0;"/><polygon fill="#000000" points="131.695,603.318,127.695,612.318,131.695,608.318,135.695,612.318,131.695,603.318" style="stroke: #000000; stroke-width: 1.0;"/><!--link <b>index</b> to server--><path d="M104.4427,659.911 C77.641,656.204 38.2685,645.934 20.6952,617.5 C-4.7735,576.291 9.3268,555.592 20.6952,508.5 C40.1421,427.945 94.9752,343.704 119.535,308.739 " fill="none" id="&lt;b&gt;index&lt;/b&gt;-server" style="stroke: #000000; stroke-width: 1.0;"/><polygon fill="#000000" points="122.654,304.332,114.1898,309.3675,119.7655,308.4133,120.7198,313.9891,122.654,304.332" style="stroke: #000000; stroke-width: 1.0;"/><!--link Input to PointerData--><path d="M1486.42,627 C1509.29,627 1545.09,627 1575.24,627 " fill="none" id="Input-PointerData" style="stroke: #000000; stroke-width: 0.55; stroke-dasharray: 1.0,3.0;"/><polygon fill="#000000" points="1580.41,627,1571.41,623,1575.41,627,1571.41,631,1580.41,627" style="stroke: #000000; stroke-width: 0.55;"/><!--link Interactable to Lockable--><path d="M1319.77,192.086 C1350.5,204.67 1400.44,225.123 1432.02,238.053 " fill="none" id="Interactable-Lockable" style="stroke: #000000; stroke-width: 0.55; stroke-dasharray: 1.0,3.0;"/><polygon fill="#000000" points="1436.92,240.061,1430.1139,232.9422,1432.2947,238.1618,1427.0752,240.3426,1436.92,240.061" style="stroke: #000000; stroke-width: 0.55;"/><!--link Interactable to Publishable--><path d="M1336.53,174.237 C1360.38,170.556 1389.89,166.002 1414.22,162.249 " fill="none" id="Interactable-Publishable" style="stroke: #000000; stroke-width: 0.55; stroke-dasharray: 1.0,3.0;"/><polygon fill="#000000" points="1419.33,161.461,1409.828,158.8702,1414.3877,162.2183,1411.0396,166.778,1419.33,161.461" style="stroke: #000000; stroke-width: 0.55;"/><!--link Interactable to Transformable2D--><path d="M1313.7,169.16 C1343.33,152.452 1397.57,121.871 1431.37,102.813 " fill="none" id="Interactable-Transformable2D" style="stroke: #000000; stroke-width: 0.55; stroke-dasharray: 1.0,3.0;"/><polygon fill="#000000" points="1435.8,100.318,1425.9959,101.2561,1431.4451,102.7747,1429.9266,108.2239,1435.8,100.318" style="stroke: #000000; stroke-width: 0.55;"/><!--link Interactor to Transform--><path d="M345.28,737 C369.314,737 399.444,737 424.424,737 " fill="none" id="Interactor-Transform" style="stroke: #000000; stroke-width: 0.55; stroke-dasharray: 1.0,3.0;"/><polygon fill="#000000" points="429.672,737,420.672,733,424.672,737,420.672,741,429.672,737" style="stroke: #000000; stroke-width: 0.55;"/><!--link items to utilities--><path d="M327.124,577.149 C356.054,579.694 404.485,583.955 437.588,586.867 " fill="none" id="items-utilities" style="stroke: #000000; stroke-width: 0.55; stroke-dasharray: 1.0,3.0;"/><polygon fill="#000000" points="442.764,587.323,434.1495,582.5491,437.7833,586.8845,433.4479,590.5183,442.764,587.323" style="stroke: #000000; stroke-width: 0.55;"/><!--link mixins to Hittable--><path d="M1024,197.951 C1045.8,194.657 1076.75,189.981 1100.62,186.374 " fill="none" id="mixins-Hittable" style="stroke: #000000; stroke-width: 0.55; stroke-dasharray: 1.0,3.0;"/><polygon fill="#000000" points="1105.61,185.622,1096.1156,183.0036,1100.6655,186.3649,1097.3042,190.9148,1105.61,185.622" style="stroke: #000000; stroke-width: 0.55;"/><!--link mixins to Identifiable--><path d="M1017.41,210.87 C1040.66,221.073 1079.07,237.93 1105.9,249.704 " fill="none" id="mixins-Identifiable" style="stroke: #000000; stroke-width: 0.55; stroke-dasharray: 1.0,3.0;"/><polygon fill="#000000" points="1110.77,251.84,1104.1427,244.5544,1106.1933,249.8265,1100.9212,251.8771,1110.77,251.84" style="stroke: #000000; stroke-width: 0.55;"/><!--link mixins to Interactable--><path d="M1024.8,204.283 C1042.94,205.666 1067.22,207.296 1088.7,208 C1131.78,209.411 1142.93,213.411 1185.7,208 C1208.93,205.06 1234.39,198.597 1254.42,192.732 " fill="none" id="mixins-Interactable" style="stroke: #000000; stroke-width: 0.55; stroke-dasharray: 1.0,3.0;"/><polygon fill="#000000" points="1259.39,191.256,1249.6224,189.9935,1254.5983,192.6842,1251.9076,197.6601,1259.39,191.256" style="stroke: #000000; stroke-width: 0.55;"/><!--link mixins to Lockable--><path d="M1005.222,214.376 C1019.26,234.743 1050.47,274.6 1088.7,290 C1209.23,338.557 1368.51,286.958 1432.64,261.959 " fill="none" id="mixins-Lockable" style="stroke: #000000; stroke-width: 0.55; stroke-dasharray: 1.0,3.0;"/><polygon fill="#000000" points="1437.46,260.062,1427.6205,259.6321,1432.8067,261.8913,1430.5474,267.0775,1437.46,260.062" style="stroke: #000000; stroke-width: 0.55;"/><!--link mixins to Locker--><path d="M1015.65,192.173 C1040.79,178.794 1085.76,154.849 1113.1,140.295 " fill="none" id="mixins-Locker" style="stroke: #000000; stroke-width: 0.55; stroke-dasharray: 1.0,3.0;"/><polygon fill="#000000" points="1117.66,137.867,1107.8368,138.5778,1113.2494,140.2222,1111.6051,145.6348,1117.66,137.867" style="stroke: #000000; stroke-width: 0.55;"/><!--link mixins to Publishable--><path d="M1003.906,189.315 C1016.78,166.524 1047.38,119.318 1088.7,101 C1208.92,47.692 1370.34,111.576 1433.87,141.335 " fill="none" id="mixins-Publishable" style="stroke: #000000; stroke-width: 0.55; stroke-dasharray: 1.0,3.0;"/><polygon fill="#000000" points="1438.64,143.589,1432.2019,136.1358,1434.1165,141.4588,1428.7935,143.3734,1438.64,143.589" style="stroke: #000000; stroke-width: 0.55;"/><!--link mixins to Transformable2D--><path d="M1002.399,189.277 C1013.67,163.649 1043.07,106.357 1088.7,84 C1195.32,31.757 1340.59,55.476 1414.24,73.073 " fill="none" id="mixins-Transformable2D" style="stroke: #000000; stroke-width: 0.55; stroke-dasharray: 1.0,3.0;"/><polygon fill="#000000" points="1419.42,74.328,1411.6083,68.3299,1414.5593,73.1561,1409.7332,76.1071,1419.42,74.328" style="stroke: #000000; stroke-width: 0.55;"/><!--link Pan to Gesture--><path d="M1152.99,649.287 C1162.71,644.549 1175.48,637.692 1185.7,630 C1222.12,602.568 1258.1,562.738 1277.03,540.534 " fill="none" id="Pan-Gesture" style="stroke: #000000; stroke-width: 0.55; stroke-dasharray: 1.0,3.0;"/><polygon fill="#000000" points="1280.36,536.6,1271.4904,540.8814,1277.128,540.415,1277.5944,546.0526,1280.36,536.6" style="stroke: #000000; stroke-width: 0.55;"/><!--link Pinch to Gesture--><path d="M1155.69,593.938 C1182.72,579.934 1234.75,552.981 1265.73,536.933 " fill="none" id="Pinch-Gesture" style="stroke: #000000; stroke-width: 0.55; stroke-dasharray: 1.0,3.0;"/><polygon fill="#000000" points="1270.51,534.455,1260.6787,535.043,1266.0703,536.7548,1264.3584,542.1464,1270.51,534.455" style="stroke: #000000; stroke-width: 0.55;"/><!--link PointerData to PHASE--><path d="M1681.91,627 C1698.1,627 1715.68,627 1730.37,627 " fill="none" id="PointerData-PHASE" style="stroke: #000000; stroke-width: 0.55; stroke-dasharray: 1.0,3.0;"/><polygon fill="#000000" points="1735.65,627,1726.65,623,1730.65,627,1726.65,631,1735.65,627" style="stroke: #000000; stroke-width: 0.55;"/><!--link predefined to items--><path d="M175.523,586.176 C205.417,583.507 244.553,580.013 271.047,577.647 " fill="none" id="predefined-items" style="stroke: #000000; stroke-width: 0.55; stroke-dasharray: 1.0,3.0;"/><polygon fill="#000000" points="276.171,577.19,266.8503,574.0082,271.1909,577.6357,267.5634,581.9764,276.171,577.19" style="stroke: #000000; stroke-width: 0.55;"/><!--link predefined to layouts--><path d="M158.945,579.375 C190.043,566.788 241.607,545.917 273.228,533.118 " fill="none" id="predefined-layouts" style="stroke: #000000; stroke-width: 0.55; stroke-dasharray: 1.0,3.0;"/><polygon fill="#000000" points="278.125,531.135,268.2817,530.8028,273.49,533.0104,271.2824,538.2187,278.125,531.135" style="stroke: #000000; stroke-width: 0.55;"/><!--link predefined to utilities--><path d="M173.409,595.376 C194.87,597.942 221.66,600.727 245.695,602 C295.403,604.632 307.984,604.575 357.695,602 C384.835,600.594 415.419,597.341 438.294,594.577 " fill="none" id="predefined-utilities" style="stroke: #000000; stroke-width: 0.55; stroke-dasharray: 1.0,3.0;"/><polygon fill="#000000" points="443.348,593.959,433.9289,591.0815,438.385,594.5662,434.9003,599.0223,443.348,593.959" style="stroke: #000000; stroke-width: 0.55;"/><!--link Region to Binding--><path d="M1167.96,709 C1192.58,709 1227.66,709 1254.02,709 " fill="none" id="Region-Binding" style="stroke: #000000; stroke-width: 0.55; stroke-dasharray: 1.0,3.0;"/><polygon fill="#000000" points="1259.17,709,1250.17,705,1254.17,709,1250.17,713,1259.17,709" style="stroke: #000000; stroke-width: 0.55;"/><!--link Region to PHASE--><path d="M1162.54,701.408 C1182.94,695.376 1212.93,687.268 1239.7,683 C1434.11,651.997 1488.44,691.528 1681.7,654 C1700.9,650.271 1721.83,643.328 1737.74,637.416 " fill="none" id="Region-PHASE" style="stroke: #000000; stroke-width: 0.55; stroke-dasharray: 1.0,3.0;"/><polygon fill="#000000" points="1742.51,635.619,1732.6767,635.065,1737.834,637.3895,1735.5095,642.5467,1742.51,635.619" style="stroke: #000000; stroke-width: 0.55;"/><!--link Region to State--><path d="M1156.89,698.945 C1185.28,683.682 1239.11,654.738 1269.12,638.604 " fill="none" id="Region-State" style="stroke: #000000; stroke-width: 0.55; stroke-dasharray: 1.0,3.0;"/><polygon fill="#000000" points="1273.72,636.128,1263.8976,636.8494,1269.312,638.4879,1267.6735,643.9023,1273.72,636.128" style="stroke: #000000; stroke-width: 0.55;"/><!--link Rotate to Gesture--><path d="M1164.76,545.471 C1189.66,541.225 1227.09,534.844 1254.68,530.141 " fill="none" id="Rotate-Gesture" style="stroke: #000000; stroke-width: 0.55; stroke-dasharray: 1.0,3.0;"/><polygon fill="#000000" points="1259.71,529.283,1250.1715,526.83,1254.7792,530.1117,1251.4974,534.7194,1259.71,529.283" style="stroke: #000000; stroke-width: 0.55;"/><!--link server to Application--><path d="M159.315,292 C183.28,292 219.18,292 248.807,292 " fill="none" id="server-Application" style="stroke: #000000; stroke-width: 0.55; stroke-dasharray: 1.0,3.0;"/><polygon fill="#000000" points="253.882,292,244.882,288,248.882,292,244.882,296,253.882,292" style="stroke: #000000; stroke-width: 0.55;"/><!--link server to Router--><path d="M156.099,285.745 C216.431,269.621 377.164,226.665 443.71,208.88 " fill="none" id="server-Router" style="stroke: #000000; stroke-width: 0.55; stroke-dasharray: 1.0,3.0;"/><polygon fill="#000000" points="448.716,207.542,438.9886,205.9998,443.8853,208.8322,441.0529,213.7289,448.716,207.542" style="stroke: #000000; stroke-width: 0.55;"/><!--link ServerController to Device--><path d="M685.936,214.455 C696.229,218.969 707.638,224.356 717.695,230 C754.415,250.606 794.224,279.422 816.945,296.552 " fill="none" id="ServerController-Device" style="stroke: #000000; stroke-width: 0.55; stroke-dasharray: 1.0,3.0;"/><polygon fill="#000000" points="820.984,299.609,816.2209,290.9885,816.9969,296.5919,811.3935,297.3679,820.984,299.609" style="stroke: #000000; stroke-width: 0.55;"/><!--link ServerElement to mixins--><path d="M691.378,354.199 C700.707,350.188 710.215,344.883 717.695,338 C755.154,303.535 730.196,266.475 771.695,237 C829.197,196.159 916.005,195.394 962.708,198.576 " fill="none" id="ServerElement-mixins" style="stroke: #000000; stroke-width: 0.55;"/><polygon fill="#000000" points="967.925,198.96,959.2431,194.3098,962.9385,198.5928,958.6555,202.2882,967.925,198.96" style="stroke: #000000; stroke-width: 0.55;"/><!--link ServerImage to mixins--><path d="M690.114,246.791 C699.856,242.719 709.896,237.234 717.695,230 C755.59,194.849 727.468,153.75 771.695,127 C830.261,91.578 862.97,99.609 925.695,127 C952.691,138.788 973.89,166.806 985.466,185.061 " fill="none" id="ServerImage-mixins" style="stroke: #000000; stroke-width: 0.55;"/><polygon fill="#000000" points="988.199,189.475,986.8635,179.7171,985.5675,185.2235,980.0611,183.9275,988.199,189.475" style="stroke: #000000; stroke-width: 0.55;"/><!--link ServerItem to mixins--><path d="M687.83,301.695 C698.261,297.541 709.274,291.78 717.695,284 C755.372,249.192 727.751,208.458 771.695,182 C834.843,143.98 926.736,173.086 970.388,190.862 " fill="none" id="ServerItem-mixins" style="stroke: #000000; stroke-width: 0.55;"/><polygon fill="#000000" points="975.215,192.862,968.4316,185.7216,970.5958,190.9481,965.3693,193.1122,975.215,192.862" style="stroke: #000000; stroke-width: 0.55;"/><!--link ServerView to mixins--><path d="M879.993,358.685 C895.708,354.978 912.825,348.684 925.695,338 C963.533,306.591 983.023,249.315 990.891,220.134 " fill="none" id="ServerView-mixins" style="stroke: #000000; stroke-width: 0.55;"/><polygon fill="#000000" points="992.227,215.025,986.0811,222.721,990.9626,219.8625,993.8211,224.744,992.227,215.025" style="stroke: #000000; stroke-width: 0.55;"/><!--link ServerViewGroup to GestureController--><path d="M717.819,420.653 C733.462,420.566 750.331,420.473 766.281,420.385 " fill="none" id="ServerViewGroup-GestureController" style="stroke: #000000; stroke-width: 0.55; stroke-dasharray: 1.0,3.0;"/><polygon fill="#000000" points="771.652,420.355,762.6293,416.4065,766.6521,420.3836,762.675,424.4064,771.652,420.355" style="stroke: #000000; stroke-width: 0.55;"/><!--link ServerViewGroup to mixins--><path d="M693.136,408.978 C701.932,404.914 710.742,399.664 717.695,393 C756.44,355.867 730.605,319.519 771.695,285 C826.389,239.053 859.619,266.141 925.695,239 C942.395,232.141 960.361,222.511 973.843,214.795 " fill="none" id="ServerViewGroup-mixins" style="stroke: #000000; stroke-width: 0.55;"/><polygon fill="#000000" points="978.235,212.259,968.4408,213.295,973.9049,214.7591,972.4409,220.2232,978.235,212.259" style="stroke: #000000; stroke-width: 0.55;"/><!--link ServerViewGroup to ServerView--><path d="M693.034,409.051 C724.631,399.073 769.343,384.953 800.252,375.193 " fill="none" id="ServerViewGroup-ServerView" style="stroke: #000000; stroke-width: 0.55; stroke-dasharray: 1.0,3.0;"/><polygon fill="#000000" points="805.09,373.665,795.3032,372.5614,800.3222,375.1709,797.7127,380.1899,805.09,373.665" style="stroke: #000000; stroke-width: 0.55;"/><!--link State to Input--><path d="M1315.77,627 C1346.31,627 1400.13,627 1433.03,627 " fill="none" id="State-Input" style="stroke: #000000; stroke-width: 0.55; stroke-dasharray: 1.0,3.0;"/><polygon fill="#000000" points="1438.13,627,1429.13,623,1433.13,627,1429.13,631,1438.13,627" style="stroke: #000000; stroke-width: 0.55;"/><!--link State to PHASE--><path d="M1312.55,620.548 C1333.47,614.117 1367.5,604.683 1397.7,601 C1522.99,585.718 1556.96,581.698 1681.7,601 C1700.96,603.98 1721.89,610.679 1737.78,616.53 " fill="none" id="State-PHASE" style="stroke: #000000; stroke-width: 0.55; stroke-dasharray: 1.0,3.0;"/><polygon fill="#000000" points="1742.55,618.313,1735.5289,611.4062,1737.8687,616.5564,1732.7184,618.8962,1742.55,618.313" style="stroke: #000000; stroke-width: 0.55;"/><!--link Swipe to Gesture--><path d="M1162.7,501.338 C1187.51,505.73 1226.15,512.573 1254.49,517.591 " fill="none" id="Swipe-Gesture" style="stroke: #000000; stroke-width: 0.55; stroke-dasharray: 1.0,3.0;"/><polygon fill="#000000" points="1259.66,518.505,1251.4947,512.9979,1254.7365,517.6337,1250.1007,520.8755,1259.66,518.505" style="stroke: #000000; stroke-width: 0.55;"/><!--link Switchboard to ServerController--><path d="M509.095,244.097 C537.723,235.733 578.892,223.707 609.901,214.648 " fill="none" id="Switchboard-ServerController" style="stroke: #000000; stroke-width: 0.55; stroke-dasharray: 1.0,3.0;"/><polygon fill="#000000" points="614.787,213.22,605.0265,211.9035,609.9875,214.6217,607.2693,219.5827,614.787,213.22" style="stroke: #000000; stroke-width: 0.55;"/><!--link Switchboard to ServerViewGroup--><path d="M512.576,263.06 C523.33,267.122 534.385,272.89 542.695,281 C581.454,318.825 552.714,354.395 590.695,393 C596.115,398.509 602.812,403.026 609.788,406.699 " fill="none" id="Switchboard-ServerViewGroup" style="stroke: #000000; stroke-width: 0.55; stroke-dasharray: 1.0,3.0;"/><polygon fill="#000000" points="614.65,409.109,608.3618,401.5288,610.1699,406.8889,604.8098,408.697,614.65,409.109" style="stroke: #000000; stroke-width: 0.55;"/><!--link Tap to Gesture--><path d="M1152.27,451.383 C1178.2,464.987 1233.82,494.166 1266.11,511.104 " fill="none" id="Tap-Gesture" style="stroke: #000000; stroke-width: 0.55; stroke-dasharray: 1.0,3.0;"/><polygon fill="#000000" points="1270.7,513.511,1264.5771,505.7967,1266.2689,511.1947,1260.871,512.8864,1270.7,513.511" style="stroke: #000000; stroke-width: 0.55;"/><!--link Track to Gesture--><path d="M1156.06,399.665 C1165.29,404.502 1176.51,410.964 1185.7,418 C1221.9,445.724 1257.96,485.444 1276.96,507.551 " fill="none" id="Track-Gesture" style="stroke: #000000; stroke-width: 0.55; stroke-dasharray: 1.0,3.0;"/><polygon fill="#000000" points="1280.3,511.468,1277.4942,502.0273,1277.0518,507.6668,1271.4123,507.2244,1280.3,511.468" style="stroke: #000000; stroke-width: 0.55;"/><!--link WorkSpace to ServerElement--><path d="M523.365,364.271 C544.327,364.388 569.149,364.528 591.445,364.653 " fill="none" id="WorkSpace-ServerElement" style="stroke: #000000; stroke-width: 0.55; stroke-dasharray: 1.0,3.0;"/><polygon fill="#000000" points="596.457,364.681,587.48,360.6296,591.4571,364.6524,587.4343,368.6295,596.457,364.681" style="stroke: #000000; stroke-width: 0.55;"/><!--link WorkSpace to ServerImage--><path d="M508.651,354.593 C520.026,350.515 532.443,345.033 542.695,338 C568.902,320.022 564.979,303.672 590.695,285 C598.651,279.224 607.987,274.258 616.983,270.181 " fill="none" id="WorkSpace-ServerImage" style="stroke: #000000; stroke-width: 0.55; stroke-dasharray: 1.0,3.0;"/><polygon fill="#000000" points="621.935,268.008,612.0863,267.9606,617.3562,270.0167,615.3001,275.2866,621.935,268.008" style="stroke: #000000; stroke-width: 0.55;"/><!--link WorkSpace to ServerItem--><path d="M507.43,354.402 C538.146,345.256 584.345,331.5 616.469,321.935 " fill="none" id="WorkSpace-ServerItem" style="stroke: #000000; stroke-width: 0.55; stroke-dasharray: 1.0,3.0;"/><polygon fill="#000000" points="621.5,320.437,611.7327,319.1718,616.7079,321.8639,614.0158,326.8391,621.5,320.437" style="stroke: #000000; stroke-width: 0.55;"/><script type="text/plantuml"><![CDATA[
@startuml

scale max 1920 width
left to right direction

skinparam nodesep 27
skinparam ranksep 54
skinparam monochrome true
skinparam shadowing false
skinparam defaultFontName Tahoma
skinparam defaultFontSize 12
skinparam roundCorner 4
skinparam dpi 150
skinparam arrowColor black
skinparam arrowThickness 0.55
skinparam packageTitleAlignment left

skinparam usecase {
  borderThickness 0.5
}

skinparam rectangle {
  borderThickness 0.5
}

skinparam component {
  borderThickness 1
}


(<b>client</b>)
(<b>index</b>)

package "Client" {
  (ClientController)
  (ClientElement)
  (ClientImage)
  (ClientItem)
  (ClientModel)
  (ClientView)
  (Interactor)
  (ShadowView)
  (Transform)
}

package "Server" {
  (Application)
  (Device)
  (GestureController)
  (MessageHandler)
  (Router)
  (server)
  (ServerController)
  (ServerElement)
  (ServerImage)
  (ServerItem)
  (ServerView)
  (ServerViewGroup)
  (Switchboard)
  (WorkSpace)
}

package "Predefined" {
  (items)
  (layouts)
  (predefined)
  (utilities)
}

package "Mixins" {
  (Hittable)
  (Identifiable)
  (Interactable)
  (Lockable)
  (Locker)
  (mixins)
  (Publishable)
  (Transformable2D)
}


package "Gestures" {
  (Binding)
  (Gesture)
  (gestures)
  (Input)
  (Pan)
  (PHASE)
  (Pinch)
  (PointerData)
  (Region)
  (Rotate)
  (State)
  (Swipe)
  (Tap)
  (Track)
}

(Application) ~~> (MessageHandler)
(Application) ~~> (Router)
(Application) ~~> (Switchboard)
(Application) ~~> (WorkSpace)
(<b>client</b>) -[thickness=1]> (ClientController)
(<b>client</b>) -[thickness=1]> (ClientModel)
(<b>client</b>) -[thickness=1]> (ClientView)
(ClientController) ~~> (Interactor)
(ClientModel) ~~> (ClientElement)
(ClientModel) ~~> (ClientImage)
(ClientModel) ~~> (ClientItem)
(ClientModel) ~~> (ShadowView)
(Device) --> (mixins)
(GestureController) --> (gestures)
(gestures) ~~> (Pan)
(gestures) ~~> (Pinch)
(gestures) ~~> (Region)
(gestures) ~~> (Rotate)
(gestures) ~~> (Swipe)
(gestures) ~~> (Tap)
(gestures) ~~> (Track)
(Hittable) ~~> (Interactable)
(<b>index</b>) -[thickness=1]> (predefined)
(<b>index</b>) -[thickness=1]> (server)
(Input) ~~> (PointerData)
(Interactable) ~~> (Lockable)
(Interactable) ~~> (Publishable)
(Interactable) ~~> (Transformable2D)
(Interactor) ~~> (Transform)
(items) ~~> (utilities)
(mixins) ~~> (Hittable)
(mixins) ~~> (Identifiable)
(mixins) ~~> (Interactable)
(mixins) ~~> (Lockable)
(mixins) ~~> (Locker)
(mixins) ~~> (Publishable)
(mixins) ~~> (Transformable2D)
(Pan) ~~> (Gesture)
(Pinch) ~~> (Gesture)
(PointerData) ~~> (PHASE)
(predefined) ~~> (items)
(predefined) ~~> (layouts)
(predefined) ~~> (utilities)
(Region) ~~> (Binding)
(Region) ~~> (PHASE)
(Region) ~~> (State)
(Rotate) ~~> (Gesture)
(server) ~~> (Application)
(server) ~~> (Router)
(ServerController) ~~> (Device)
(ServerElement) --> (mixins)
(ServerImage) --> (mixins)
(ServerItem) --> (mixins)
(ServerView) --> (mixins)
(ServerViewGroup) ~~> (GestureController)
(ServerViewGroup) --> (mixins)
(ServerViewGroup) ~~> (ServerView)
(State) ~~> (Input)
(State) ~~> (PHASE)
(Swipe) ~~> (Gesture)
(Switchboard) ~~> (ServerController)
(Switchboard) ~~> (ServerViewGroup)
(Tap) ~~> (Gesture)
(Track) ~~> (Gesture)
(WorkSpace) ~~> (ServerElement)
(WorkSpace) ~~> (ServerImage)
(WorkSpace) ~~> (ServerItem)

@enduml


' View and edit on https://arkit.herokuapp.com
]]></script></g></svg>