<?xml version="1.0" encoding="UTF-8" standalone="no"?><svg xmlns="http://www.w3.org/2000/svg" xmlns:xlink="http://www.w3.org/1999/xlink" contentScriptType="application/ecmascript" contentStyleType="text/css" height="988px" preserveAspectRatio="none" style="width:1773px;height:988px;" version="1.1" viewBox="0 0 1773 988" width="1773px" zoomAndPan="magnify"><defs/><g><!--cluster Client--><path d="M54.8692,654 L94.8692,654 A3,3 0 0 1 96.8692,656 L103.8692,674.4844 L519.869,674.4844 A2,2 0 0 1 521.869,676.4844 L521.869,933 A2,2 0 0 1 519.869,935 L54.8692,935 A2,2 0 0 1 52.8692,933 L52.8692,656 A2,2 0 0 1 54.8692,654 " fill="#FFFFFF" style="stroke: #000000; stroke-width: 1.5;"/><line style="stroke: #000000; stroke-width: 1.5;" x1="52.8692" x2="103.8692" y1="674.4844" y2="674.4844"/><text fill="#000000" font-family="Tahoma, sans-serif" font-size="12" font-weight="bold" lengthAdjust="spacingAndGlyphs" textLength="38" x="56.8692" y="668.0059">Client</text><!--cluster Server--><path d="M87.3692,128 L131.3692,128 A3,3 0 0 1 133.3692,130 L140.3692,148.4844 L892.869,148.4844 A2,2 0 0 1 894.869,150.4844 L894.869,417 A2,2 0 0 1 892.869,419 L87.3692,419 A2,2 0 0 1 85.3692,417 L85.3692,130 A2,2 0 0 1 87.3692,128 " fill="#FFFFFF" style="stroke: #000000; stroke-width: 1.5;"/><line style="stroke: #000000; stroke-width: 1.5;" x1="85.3692" x2="140.3692" y1="148.4844" y2="148.4844"/><text fill="#000000" font-family="Tahoma, sans-serif" font-size="12" font-weight="bold" lengthAdjust="spacingAndGlyphs" textLength="42" x="89.3692" y="142.0059">Server</text><!--cluster Predefined--><path d="M69.3692,443 L141.3692,443 A3,3 0 0 1 143.3692,445 L150.3692,463.4844 L507.369,463.4844 A2,2 0 0 1 509.369,465.4844 L509.369,594 A2,2 0 0 1 507.369,596 L69.3692,596 A2,2 0 0 1 67.3692,594 L67.3692,445 A2,2 0 0 1 69.3692,443 " fill="#FFFFFF" style="stroke: #000000; stroke-width: 1.5;"/><line style="stroke: #000000; stroke-width: 1.5;" x1="67.3692" x2="150.3692" y1="463.4844" y2="463.4844"/><text fill="#000000" font-family="Tahoma, sans-serif" font-size="12" font-weight="bold" lengthAdjust="spacingAndGlyphs" textLength="70" x="71.3692" y="457.0059">Predefined</text><!--cluster Mixins--><path d="M930.369,24 L973.369,24 A3,3 0 0 1 975.369,26 L982.369,44.4844 L1502.87,44.4844 A2,2 0 0 1 1504.87,46.4844 L1504.87,307 A2,2 0 0 1 1502.87,309 L930.369,309 A2,2 0 0 1 928.369,307 L928.369,26 A2,2 0 0 1 930.369,24 " fill="#FFFFFF" style="stroke: #000000; stroke-width: 1.5;"/><line style="stroke: #000000; stroke-width: 1.5;" x1="928.369" x2="982.369" y1="44.4844" y2="44.4844"/><text fill="#000000" font-family="Tahoma, sans-serif" font-size="12" font-weight="bold" lengthAdjust="spacingAndGlyphs" textLength="41" x="932.369" y="38.0059">Mixins</text><!--cluster Gestures--><path d="M920.869,333 L982.869,333 A3,3 0 0 1 984.869,335 L991.869,353.4844 L1759.87,353.4844 A2,2 0 0 1 1761.87,355.4844 L1761.87,484 A2,2 0 0 1 1759.87,486 L920.869,486 A2,2 0 0 1 918.869,484 L918.869,335 A2,2 0 0 1 920.869,333 " fill="#FFFFFF" style="stroke: #000000; stroke-width: 1.5;"/><line style="stroke: #000000; stroke-width: 1.5;" x1="918.869" x2="991.869" y1="353.4844" y2="353.4844"/><text fill="#000000" font-family="Tahoma, sans-serif" font-size="12" font-weight="bold" lengthAdjust="spacingAndGlyphs" textLength="60" x="922.869" y="347.0059">Gestures</text><ellipse cx="128.8535" cy="750.8969" fill="#F8F8F8" rx="59.9845" ry="14.3969" style="stroke: #383838; stroke-width: 0.5;"/><text fill="#000000" font-family="Tahoma, sans-serif" font-size="12" lengthAdjust="spacingAndGlyphs" textLength="88" x="84.8535" y="754.6391">ClientController</text><ellipse cx="294.0877" cy="905.1437" fill="#F8F8F8" rx="56.2187" ry="13.6437" style="stroke: #383838; stroke-width: 0.5;"/><text fill="#000000" font-family="Tahoma, sans-serif" font-size="12" lengthAdjust="spacingAndGlyphs" textLength="78" x="255.0877" y="908.8859">ClientElement</text><ellipse cx="293.6594" cy="853.242" fill="#F8F8F8" rx="51.7904" ry="13.242" style="stroke: #383838; stroke-width: 0.5;"/><text fill="#000000" font-family="Tahoma, sans-serif" font-size="12" lengthAdjust="spacingAndGlyphs" textLength="69" x="259.1594" y="856.9842">ClientImage</text><ellipse cx="294.0883" cy="802.242" fill="#F8F8F8" rx="44.7193" ry="13.242" style="stroke: #383838; stroke-width: 0.5;"/><text fill="#000000" font-family="Tahoma, sans-serif" font-size="12" lengthAdjust="spacingAndGlyphs" textLength="59" x="264.5883" y="805.9842">ClientItem</text><ellipse cx="129.038" cy="853.242" fill="#F8F8F8" rx="49.669" ry="13.242" style="stroke: #383838; stroke-width: 0.5;"/><text fill="#000000" font-family="Tahoma, sans-serif" font-size="12" lengthAdjust="spacingAndGlyphs" textLength="66" x="96.038" y="856.9842">ClientModel</text><ellipse cx="128.8812" cy="906.242" fill="#F8F8F8" rx="44.0122" ry="13.242" style="stroke: #383838; stroke-width: 0.5;"/><text fill="#000000" font-family="Tahoma, sans-serif" font-size="12" lengthAdjust="spacingAndGlyphs" textLength="58" x="99.8812" y="909.9842">ClientView</text><ellipse cx="293.6741" cy="700.242" fill="#F8F8F8" rx="43.3051" ry="13.242" style="stroke: #383838; stroke-width: 0.5;"/><text fill="#000000" font-family="Tahoma, sans-serif" font-size="12" lengthAdjust="spacingAndGlyphs" textLength="57" x="265.1741" y="703.9842">Interactor</text><ellipse cx="293.7807" cy="751.242" fill="#F8F8F8" rx="53.9117" ry="13.242" style="stroke: #383838; stroke-width: 0.5;"/><text fill="#000000" font-family="Tahoma, sans-serif" font-size="12" lengthAdjust="spacingAndGlyphs" textLength="72" x="257.7807" y="754.9842">ShadowView</text><ellipse cx="461.5883" cy="700.242" fill="#F8F8F8" rx="44.7193" ry="13.242" style="stroke: #383838; stroke-width: 0.5;"/><text fill="#000000" font-family="Tahoma, sans-serif" font-size="12" lengthAdjust="spacingAndGlyphs" textLength="59" x="432.0883" y="703.9842">Transform</text><ellipse cx="293.9167" cy="264.242" fill="#F8F8F8" rx="47.5477" ry="13.242" style="stroke: #383838; stroke-width: 0.5;"/><text fill="#000000" font-family="Tahoma, sans-serif" font-size="12" lengthAdjust="spacingAndGlyphs" textLength="63" x="262.4167" y="267.9842">Application</text><ellipse cx="813.9462" cy="282.242" fill="#F8F8F8" rx="30.5772" ry="13.242" style="stroke: #383838; stroke-width: 0.5;"/><text fill="#000000" font-family="Tahoma, sans-serif" font-size="12" lengthAdjust="spacingAndGlyphs" textLength="39" x="794.4462" y="285.9842">Device</text><ellipse cx="814.0098" cy="386.9282" fill="#F8F8F8" rx="65.1408" ry="15.4282" style="stroke: #383838; stroke-width: 0.5;"/><text fill="#000000" font-family="Tahoma, sans-serif" font-size="12" lengthAdjust="spacingAndGlyphs" textLength="101" x="763.5098" y="390.6704">GestureController</text><ellipse cx="461.2005" cy="279.8663" fill="#F8F8F8" rx="62.3315" ry="14.8663" style="stroke: #383838; stroke-width: 0.5;"/><text fill="#000000" font-family="Tahoma, sans-serif" font-size="12" lengthAdjust="spacingAndGlyphs" textLength="94" x="414.2005" y="283.6085">MessageHandler</text><ellipse cx="461.532" cy="176.242" fill="#F8F8F8" rx="29.163" ry="13.242" style="stroke: #383838; stroke-width: 0.5;"/><text fill="#000000" font-family="Tahoma, sans-serif" font-size="12" lengthAdjust="spacingAndGlyphs" textLength="37" x="443.032" y="179.9842">Router</text><ellipse cx="129.1177" cy="264.242" fill="#F8F8F8" rx="27.7487" ry="13.242" style="stroke: #383838; stroke-width: 0.5;"/><text fill="#000000" font-family="Tahoma, sans-serif" font-size="12" lengthAdjust="spacingAndGlyphs" textLength="35" x="111.6177" y="267.9842">server</text><ellipse cx="636.4116" cy="176.2085" fill="#F8F8F8" rx="61.5426" ry="14.7085" style="stroke: #383838; stroke-width: 0.5;"/><text fill="#000000" font-family="Tahoma, sans-serif" font-size="12" lengthAdjust="spacingAndGlyphs" textLength="92" x="590.4116" y="179.9507">ServerController</text><ellipse cx="636.5703" cy="229.9403" fill="#F8F8F8" rx="57.7013" ry="13.9403" style="stroke: #383838; stroke-width: 0.5;"/><text fill="#000000" font-family="Tahoma, sans-serif" font-size="12" lengthAdjust="spacingAndGlyphs" textLength="82" x="595.5703" y="233.6824">ServerElement</text><ellipse cx="636.2838" cy="282.783" fill="#F8F8F8" rx="54.4148" ry="13.283" style="stroke: #383838; stroke-width: 0.5;"/><text fill="#000000" font-family="Tahoma, sans-serif" font-size="12" lengthAdjust="spacingAndGlyphs" textLength="73" x="599.7838" y="286.5251">ServerImage</text><ellipse cx="636.4167" cy="335.242" fill="#F8F8F8" rx="47.5477" ry="13.242" style="stroke: #383838; stroke-width: 0.5;"/><text fill="#000000" font-family="Tahoma, sans-serif" font-size="12" lengthAdjust="spacingAndGlyphs" textLength="63" x="604.9167" y="338.9842">ServerItem</text><ellipse cx="813.7096" cy="333.242" fill="#F8F8F8" rx="46.8406" ry="13.242" style="stroke: #383838; stroke-width: 0.5;"/><text fill="#000000" font-family="Tahoma, sans-serif" font-size="12" lengthAdjust="spacingAndGlyphs" textLength="62" x="782.7096" y="336.9842">ServerView</text><ellipse cx="636.3957" cy="388.1053" fill="#F8F8F8" rx="63.5267" ry="15.1053" style="stroke: #383838; stroke-width: 0.5;"/><text fill="#000000" font-family="Tahoma, sans-serif" font-size="12" lengthAdjust="spacingAndGlyphs" textLength="97" x="587.8957" y="391.8475">ServerViewGroup</text><ellipse cx="461.5736" cy="227.242" fill="#F8F8F8" rx="53.2046" ry="13.242" style="stroke: #383838; stroke-width: 0.5;"/><text fill="#000000" font-family="Tahoma, sans-serif" font-size="12" lengthAdjust="spacingAndGlyphs" textLength="71" x="426.0736" y="230.9842">Switchboard</text><ellipse cx="461.3309" cy="333.242" fill="#F8F8F8" rx="48.9619" ry="13.242" style="stroke: #383838; stroke-width: 0.5;"/><text fill="#000000" font-family="Tahoma, sans-serif" font-size="12" lengthAdjust="spacingAndGlyphs" textLength="65" x="428.8309" y="336.9842">WorkSpace</text><ellipse cx="293.9964" cy="567.242" fill="#F8F8F8" rx="25.6274" ry="13.242" style="stroke: #383838; stroke-width: 0.5;"/><text fill="#000000" font-family="Tahoma, sans-serif" font-size="12" lengthAdjust="spacingAndGlyphs" textLength="32" x="277.9964" y="570.9842">items</text><ellipse cx="294.0675" cy="516.242" fill="#F8F8F8" rx="32.6985" ry="13.242" style="stroke: #383838; stroke-width: 0.5;"/><text fill="#000000" font-family="Tahoma, sans-serif" font-size="12" lengthAdjust="spacingAndGlyphs" textLength="42" x="273.0675" y="519.9842">layouts</text><ellipse cx="128.7954" cy="542.242" fill="#F8F8F8" rx="45.4264" ry="13.242" style="stroke: #383838; stroke-width: 0.5;"/><text fill="#000000" font-family="Tahoma, sans-serif" font-size="12" lengthAdjust="spacingAndGlyphs" textLength="60" x="98.7954" y="545.9842">predefined</text><ellipse cx="461.3604" cy="528.242" fill="#F8F8F8" rx="31.9914" ry="13.242" style="stroke: #383838; stroke-width: 0.5;"/><text fill="#000000" font-family="Tahoma, sans-serif" font-size="12" lengthAdjust="spacingAndGlyphs" textLength="41" x="440.8604" y="531.9842">utilities</text><ellipse cx="1109.2756" cy="175.242" fill="#F8F8F8" rx="33.4056" ry="13.242" style="stroke: #383838; stroke-width: 0.5;"/><text fill="#000000" font-family="Tahoma, sans-serif" font-size="12" lengthAdjust="spacingAndGlyphs" textLength="43" x="1087.7756" y="178.9842">Hittable</text><ellipse cx="1109.1248" cy="253.242" fill="#F8F8F8" rx="48.2548" ry="13.242" style="stroke: #383838; stroke-width: 0.5;"/><text fill="#000000" font-family="Tahoma, sans-serif" font-size="12" lengthAdjust="spacingAndGlyphs" textLength="64" x="1077.1248" y="256.9842">Identifiable</text><ellipse cx="1258.6604" cy="175.242" fill="#F8F8F8" rx="51.7904" ry="13.242" style="stroke: #383838; stroke-width: 0.5;"/><text fill="#000000" font-family="Tahoma, sans-serif" font-size="12" lengthAdjust="spacingAndGlyphs" textLength="69" x="1224.1604" y="178.9842">Interactable</text><ellipse cx="1424.4324" cy="241.242" fill="#F8F8F8" rx="39.0624" ry="13.242" style="stroke: #383838; stroke-width: 0.5;"/><text fill="#000000" font-family="Tahoma, sans-serif" font-size="12" lengthAdjust="spacingAndGlyphs" textLength="51" x="1398.9324" y="244.9842">Lockable</text><ellipse cx="1109.2401" cy="124.242" fill="#F8F8F8" rx="29.8701" ry="13.242" style="stroke: #383838; stroke-width: 0.5;"/><text fill="#000000" font-family="Tahoma, sans-serif" font-size="12" lengthAdjust="spacingAndGlyphs" textLength="38" x="1090.2401" y="127.9842">Locker</text><ellipse cx="973.532" cy="180.242" fill="#F8F8F8" rx="29.163" ry="13.242" style="stroke: #383838; stroke-width: 0.5;"/><text fill="#000000" font-family="Tahoma, sans-serif" font-size="12" lengthAdjust="spacingAndGlyphs" textLength="37" x="955.032" y="183.9842">mixins</text><ellipse cx="1424.3319" cy="151.242" fill="#F8F8F8" rx="48.9619" ry="13.242" style="stroke: #383838; stroke-width: 0.5;"/><text fill="#000000" font-family="Tahoma, sans-serif" font-size="12" lengthAdjust="spacingAndGlyphs" textLength="65" x="1391.8319" y="154.9842">Publishable</text><ellipse cx="1424.2009" cy="84.7662" fill="#F8F8F8" rx="64.3309" ry="15.2662" style="stroke: #383838; stroke-width: 0.5;"/><text fill="#000000" font-family="Tahoma, sans-serif" font-size="12" lengthAdjust="spacingAndGlyphs" textLength="99" x="1374.7009" y="88.5084">Transformable2D</text><ellipse cx="1259.0685" cy="457.242" fill="#F8F8F8" rx="32.6985" ry="13.242" style="stroke: #383838; stroke-width: 0.5;"/><text fill="#000000" font-family="Tahoma, sans-serif" font-size="12" lengthAdjust="spacingAndGlyphs" textLength="42" x="1238.0685" y="460.9842">Binding</text><ellipse cx="973.2243" cy="396.242" fill="#F8F8F8" rx="38.3553" ry="13.242" style="stroke: #383838; stroke-width: 0.5;"/><text fill="#000000" font-family="Tahoma, sans-serif" font-size="12" lengthAdjust="spacingAndGlyphs" textLength="50" x="948.2243" y="399.9842">gestures</text><ellipse cx="1424.5832" cy="406.242" fill="#F8F8F8" rx="24.2132" ry="13.242" style="stroke: #383838; stroke-width: 0.5;"/><text fill="#000000" font-family="Tahoma, sans-serif" font-size="12" lengthAdjust="spacingAndGlyphs" textLength="30" x="1409.5832" y="409.9842">Input</text><ellipse cx="1717.033" cy="406.242" fill="#F8F8F8" rx="29.163" ry="13.242" style="stroke: #383838; stroke-width: 0.5;"/><text fill="#000000" font-family="Tahoma, sans-serif" font-size="12" lengthAdjust="spacingAndGlyphs" textLength="37" x="1698.533" y="409.9842">PHASE</text><ellipse cx="1588.2462" cy="406.242" fill="#F8F8F8" rx="50.3762" ry="13.242" style="stroke: #383838; stroke-width: 0.5;"/><text fill="#000000" font-family="Tahoma, sans-serif" font-size="12" lengthAdjust="spacingAndGlyphs" textLength="67" x="1554.7462" y="409.9842">PointerData</text><ellipse cx="1109.4472" cy="414.242" fill="#F8F8F8" rx="30.5772" ry="13.242" style="stroke: #383838; stroke-width: 0.5;"/><text fill="#000000" font-family="Tahoma, sans-serif" font-size="12" lengthAdjust="spacingAndGlyphs" textLength="39" x="1089.9472" y="417.9842">Region</text><ellipse cx="1259.0832" cy="379.242" fill="#F8F8F8" rx="24.2132" ry="13.242" style="stroke: #383838; stroke-width: 0.5;"/><text fill="#000000" font-family="Tahoma, sans-serif" font-size="12" lengthAdjust="spacingAndGlyphs" textLength="30" x="1244.0832" y="382.9842">State</text><ellipse cx="129.032" cy="964.242" fill="#F8F8F8" rx="29.163" ry="13.242" style="stroke: #383838; stroke-width: 0.5;"/><text fill="#000000" font-family="Tahoma, sans-serif" font-size="12" font-weight="bold" lengthAdjust="spacingAndGlyphs" textLength="37" x="110.532" y="967.9842">client</text><ellipse cx="129.1177" cy="625.242" fill="#F8F8F8" rx="27.7487" ry="13.242" style="stroke: #383838; stroke-width: 0.5;"/><text fill="#000000" font-family="Tahoma, sans-serif" font-size="12" font-weight="bold" lengthAdjust="spacingAndGlyphs" textLength="35" x="111.6177" y="628.9842">index</text><!--link Application to MessageHandler--><path d="M338.786,268.246 C356.971,270.004 378.393,272.075 398.149,273.985 " fill="none" id="Application-MessageHandler" style="stroke: #000000; stroke-width: 0.55; stroke-dasharray: 1.0,3.0;"/><polygon fill="#000000" points="403.133,274.467,394.5585,269.6215,398.1561,273.987,393.7906,277.5846,403.133,274.467" style="stroke: #000000; stroke-width: 0.55;"/><!--link Application to Router--><path d="M313.221,252.007 C333.667,238.897 367.927,217.67 398.869,202 C410.079,196.323 422.822,190.792 433.791,186.301 " fill="none" id="Application-Router" style="stroke: #000000; stroke-width: 0.55; stroke-dasharray: 1.0,3.0;"/><polygon fill="#000000" points="438.693,184.314,428.8495,183.988,434.0592,186.1924,431.8549,191.4021,438.693,184.314" style="stroke: #000000; stroke-width: 0.55;"/><!--link Application to Switchboard--><path d="M331.189,255.88 C356.36,250.253 390.005,242.731 416.648,236.774 " fill="none" id="Application-Switchboard" style="stroke: #000000; stroke-width: 0.55; stroke-dasharray: 1.0,3.0;"/><polygon fill="#000000" points="421.538,235.681,411.8825,233.7391,416.6582,236.7709,413.6264,241.5467,421.538,235.681" style="stroke: #000000; stroke-width: 0.55;"/><!--link Application to WorkSpace--><path d="M320.471,274.95 C341.496,283.915 372.068,296.884 398.869,308 C408.659,312.06 419.35,316.429 429.033,320.361 " fill="none" id="Application-WorkSpace" style="stroke: #000000; stroke-width: 0.55; stroke-dasharray: 1.0,3.0;"/><polygon fill="#000000" points="433.697,322.253,426.8616,315.1624,429.0639,320.3729,423.8534,322.5753,433.697,322.253" style="stroke: #000000; stroke-width: 0.55;"/><!--link <b>client</b> to ClientController--><path d="M100.2061,961.7057 C74.048,957.8763 37.0098,947.6714 20.3692,920.5 C1.7996,890.1789 5.2075,872.661 20.3692,840.5 C36.2166,806.884 71.5699,781.605 97.6348,766.632 " fill="none" id="&lt;b&gt;client&lt;/b&gt;-ClientController" style="stroke: #000000; stroke-width: 1.0;"/><polygon fill="#000000" points="102.0597,764.137,92.2554,765.0727,97.7042,766.5926,96.1843,772.0414,102.0597,764.137" style="stroke: #000000; stroke-width: 1.0;"/><!--link <b>client</b> to ClientModel--><path d="M100.2061,961.7057 C74.048,957.8763 37.0098,947.6714 20.3692,920.5 C14.102,910.2666 14.102,903.7334 20.3692,893.5 C32.3771,873.893 55.3063,863.721 77.0041,858.468 " fill="none" id="&lt;b&gt;client&lt;/b&gt;-ClientModel" style="stroke: #000000; stroke-width: 1.0;"/><polygon fill="#000000" points="81.9008,857.359,72.2393,855.4472,77.0245,858.4641,74.0075,863.2493,81.9008,857.359" style="stroke: #000000; stroke-width: 1.0;"/><!--link <b>client</b> to ClientView--><path d="M128.869,950.8594 C128.869,942.1525 128.869,933.4457 128.869,924.7389 " fill="none" id="&lt;b&gt;client&lt;/b&gt;-ClientView" style="stroke: #000000; stroke-width: 1.0;"/><polygon fill="#000000" points="128.869,919.3176,124.869,928.3176,128.869,924.3176,132.869,928.3176,128.869,919.3176" style="stroke: #000000; stroke-width: 1.0;"/><!--link ClientController to Interactor--><path d="M166.45,739.555 C193.931,730.956 231.321,719.258 258.301,710.816 " fill="none" id="ClientController-Interactor" style="stroke: #000000; stroke-width: 0.55; stroke-dasharray: 1.0,3.0;"/><polygon fill="#000000" points="263.213,709.279,253.4292,708.1489,258.4411,710.772,255.818,715.7839,263.213,709.279" style="stroke: #000000; stroke-width: 0.55;"/><!--link ClientModel to ClientElement--><path d="M161.297,863.026 C187.883,871.507 226.074,883.6912 254.468,892.7493 " fill="none" id="ClientModel-ClientElement" style="stroke: #000000; stroke-width: 0.55; stroke-dasharray: 1.0,3.0;"/><polygon fill="#000000" points="259.293,894.2886,251.9349,887.7419,254.5296,892.7686,249.503,895.3633,259.293,894.2886" style="stroke: #000000; stroke-width: 0.55;"/><!--link ClientModel to ClientImage--><path d="M178.775,853 C196.946,853 217.706,853 236.493,853 " fill="none" id="ClientModel-ClientImage" style="stroke: #000000; stroke-width: 0.55; stroke-dasharray: 1.0,3.0;"/><polygon fill="#000000" points="241.735,853,232.735,849,236.735,853,232.735,857,241.735,853" style="stroke: #000000; stroke-width: 0.55;"/><!--link ClientModel to ClientItem--><path d="M161.297,843.167 C189.02,834.493 229.362,821.87 258.055,812.893 " fill="none" id="ClientModel-ClientItem" style="stroke: #000000; stroke-width: 0.55; stroke-dasharray: 1.0,3.0;"/><polygon fill="#000000" points="262.913,811.373,253.1292,810.2429,258.1411,812.866,255.518,817.8779,262.913,811.373" style="stroke: #000000; stroke-width: 0.55;"/><!--link ClientModel to ShadowView--><path d="M145.757,840.509 C166.323,824.652 203.595,796.962 237.869,777 C245.427,772.598 253.851,768.323 261.789,764.554 " fill="none" id="ClientModel-ShadowView" style="stroke: #000000; stroke-width: 0.55; stroke-dasharray: 1.0,3.0;"/><polygon fill="#000000" points="266.657,762.276,256.81,762.4691,262.1286,764.3959,260.2019,769.7145,266.657,762.276" style="stroke: #000000; stroke-width: 0.55;"/><!--link Device to mixins--><path d="M840.889,275.795 C859.174,270.681 883.694,262.26 902.869,250 C925.685,235.412 946.832,212.137 959.667,196.473 " fill="none" id="Device-mixins" style="stroke: #000000; stroke-width: 0.55;"/><polygon fill="#000000" points="963.061,192.27,954.2945,196.7588,959.9196,196.1599,960.5185,201.785,963.061,192.27" style="stroke: #000000; stroke-width: 0.55;"/><!--link GestureController to gestures--><path d="M877.57,390.583 C895.142,391.587 913.828,392.655 929.924,393.575 " fill="none" id="GestureController-gestures" style="stroke: #000000; stroke-width: 0.55;"/><polygon fill="#000000" points="935.278,393.88,926.5213,389.3722,930.2862,393.5943,926.0641,397.3591,935.278,393.88" style="stroke: #000000; stroke-width: 0.55;"/><!--link gestures to Region--><path d="M1009.58,400.729 C1029.79,403.445 1055.03,406.836 1074.94,409.51 " fill="none" id="gestures-Region" style="stroke: #000000; stroke-width: 0.55; stroke-dasharray: 1.0,3.0;"/><polygon fill="#000000" points="1080.15,410.209,1071.7541,405.0603,1075.1934,409.5516,1070.7022,412.9909,1080.15,410.209" style="stroke: #000000; stroke-width: 0.55;"/><!--link Hittable to Interactable--><path d="M1143.1,175 C1160.24,175 1181.72,175 1201.44,175 " fill="none" id="Hittable-Interactable" style="stroke: #000000; stroke-width: 0.55; stroke-dasharray: 1.0,3.0;"/><polygon fill="#000000" points="1206.68,175,1197.68,171,1201.68,175,1197.68,179,1206.68,175" style="stroke: #000000; stroke-width: 0.55;"/><!--link <b>index</b> to predefined--><path d="M128.869,611.707 C128.869,594.598 128.869,577.489 128.869,560.38 " fill="none" id="&lt;b&gt;index&lt;/b&gt;-predefined" style="stroke: #000000; stroke-width: 1.0;"/><polygon fill="#000000" points="128.869,555.07,124.869,564.07,128.869,560.07,132.869,564.07,128.869,555.07" style="stroke: #000000; stroke-width: 1.0;"/><!--link <b>index</b> to server--><path d="M101.6935,622.918 C75.4709,619.26 37.3277,609.191 20.3692,581.5 C-4.4676,540.946 9.1593,520.715 20.3692,474.5 C39.2903,396.493 92.4564,315.039 116.63,280.765 " fill="none" id="&lt;b&gt;index&lt;/b&gt;-server" style="stroke: #000000; stroke-width: 1.0;"/><polygon fill="#000000" points="119.705,276.438,111.2316,281.4581,116.8091,280.514,117.7532,286.0915,119.705,276.438" style="stroke: #000000; stroke-width: 1.0;"/><!--link Input to PointerData--><path d="M1448.58,406 C1470.41,406 1503.91,406 1532.54,406 " fill="none" id="Input-PointerData" style="stroke: #000000; stroke-width: 0.55; stroke-dasharray: 1.0,3.0;"/><polygon fill="#000000" points="1537.82,406,1528.82,402,1532.82,406,1528.82,410,1537.82,406" style="stroke: #000000; stroke-width: 0.55;"/><!--link Interactable to Lockable--><path d="M1287.24,186.047 C1316.83,197.995 1363.84,216.969 1394.14,229.202 " fill="none" id="Interactable-Lockable" style="stroke: #000000; stroke-width: 0.55; stroke-dasharray: 1.0,3.0;"/><polygon fill="#000000" points="1398.86,231.105,1392.011,224.0275,1394.2234,229.2338,1389.0171,231.4461,1398.86,231.105" style="stroke: #000000; stroke-width: 0.55;"/><!--link Interactable to Publishable--><path d="M1304.11,168.505 C1326.36,165.24 1353.33,161.28 1376,157.954 " fill="none" id="Interactable-Publishable" style="stroke: #000000; stroke-width: 0.55; stroke-dasharray: 1.0,3.0;"/><polygon fill="#000000" points="1381.06,157.21,1371.5732,154.564,1376.1134,157.9385,1372.7388,162.4786,1381.06,157.21" style="stroke: #000000; stroke-width: 0.55;"/><!--link Interactable to Transformable2D--><path d="M1281.24,163.234 C1309.79,147.521 1360.53,119.593 1393.02,101.704 " fill="none" id="Interactable-Transformable2D" style="stroke: #000000; stroke-width: 0.55; stroke-dasharray: 1.0,3.0;"/><polygon fill="#000000" points="1397.68,99.14,1387.8672,99.9815,1393.3012,101.5536,1391.729,106.9876,1397.68,99.14" style="stroke: #000000; stroke-width: 0.55;"/><!--link Interactor to Transform--><path d="M337.49,700 C360.106,700 387.999,700 411.49,700 " fill="none" id="Interactor-Transform" style="stroke: #000000; stroke-width: 0.55; stroke-dasharray: 1.0,3.0;"/><polygon fill="#000000" points="416.741,700,407.741,696,411.741,700,407.741,704,416.741,700" style="stroke: #000000; stroke-width: 0.55;"/><!--link items to utilities--><path d="M317.189,561.74 C345.748,555.01 395.422,543.305 428.1,535.604 " fill="none" id="items-utilities" style="stroke: #000000; stroke-width: 0.55; stroke-dasharray: 1.0,3.0;"/><polygon fill="#000000" points="433.192,534.404,423.5143,532.576,428.3254,535.5513,425.35,540.3625,433.192,534.404" style="stroke: #000000; stroke-width: 0.55;"/><!--link mixins to Hittable--><path d="M1002.46,178.952 C1022.21,178.215 1048.87,177.22 1070.49,176.413 " fill="none" id="mixins-Hittable" style="stroke: #000000; stroke-width: 0.55; stroke-dasharray: 1.0,3.0;"/><polygon fill="#000000" points="1075.59,176.223,1066.4476,172.5601,1070.5935,176.4087,1066.7448,180.5546,1075.59,176.223" style="stroke: #000000; stroke-width: 0.55;"/><!--link mixins to Identifiable--><path d="M992.441,189.845 C1015.67,202.501 1056.16,224.557 1082.61,238.967 " fill="none" id="mixins-Identifiable" style="stroke: #000000; stroke-width: 0.55; stroke-dasharray: 1.0,3.0;"/><polygon fill="#000000" points="1087.05,241.388,1081.0522,233.576,1082.6568,239.0006,1077.2323,240.6051,1087.05,241.388" style="stroke: #000000; stroke-width: 0.55;"/><!--link mixins to Interactable--><path d="M997.589,187.233 C1014.85,192.217 1039.08,198.393 1060.87,201 C1103.67,206.122 1115.11,206.468 1157.87,201 C1179.34,198.255 1202.78,192.322 1221.57,186.816 " fill="none" id="mixins-Interactable" style="stroke: #000000; stroke-width: 0.55; stroke-dasharray: 1.0,3.0;"/><polygon fill="#000000" points="1226.74,185.277,1216.9723,184.0153,1221.9484,186.7056,1219.2581,191.6818,1226.74,185.277" style="stroke: #000000; stroke-width: 0.55;"/><!--link mixins to Lockable--><path d="M980.78,192.772 C992.863,215.22 1021.39,261.067 1060.87,279 C1175.98,331.283 1332.21,278.812 1395.27,253.251 " fill="none" id="mixins-Lockable" style="stroke: #000000; stroke-width: 0.55; stroke-dasharray: 1.0,3.0;"/><polygon fill="#000000" points="1400,251.311,1390.1552,251.0294,1395.3747,253.2102,1393.1939,258.4298,1400,251.311" style="stroke: #000000; stroke-width: 0.55;"/><!--link mixins to Locker--><path d="M995.307,171.25 C1018.77,161.445 1056.84,145.535 1082.23,134.922 " fill="none" id="mixins-Locker" style="stroke: #000000; stroke-width: 0.55; stroke-dasharray: 1.0,3.0;"/><polygon fill="#000000" points="1087.14,132.873,1077.2936,132.6541,1082.5269,134.8017,1080.3794,140.035,1087.14,132.873" style="stroke: #000000; stroke-width: 0.55;"/><!--link mixins to Publishable--><path d="M982.654,167.535 C996.289,148.292 1025.5,112.1 1060.87,98 C1178.62,51.057 1332.75,109.333 1395.23,137.447 " fill="none" id="mixins-Publishable" style="stroke: #000000; stroke-width: 0.55; stroke-dasharray: 1.0,3.0;"/><polygon fill="#000000" points="1399.93,139.58,1393.3954,132.2112,1395.3791,137.5088,1390.0815,139.4926,1399.93,139.58" style="stroke: #000000; stroke-width: 0.55;"/><!--link mixins to Transformable2D--><path d="M981.046,167.129 C993.351,144.999 1021.95,100.439 1060.87,83 C1164.77,36.442 1302.85,56.685 1374.92,72.567 " fill="none" id="mixins-Transformable2D" style="stroke: #000000; stroke-width: 0.55; stroke-dasharray: 1.0,3.0;"/><polygon fill="#000000" points="1379.99,73.702,1372.0735,67.8429,1375.1093,72.6161,1370.3361,75.652,1379.99,73.702" style="stroke: #000000; stroke-width: 0.55;"/><!--link PointerData to PHASE--><path d="M1639,406 C1653.55,406 1669.1,406 1682.38,406 " fill="none" id="PointerData-PHASE" style="stroke: #000000; stroke-width: 0.55; stroke-dasharray: 1.0,3.0;"/><polygon fill="#000000" points="1687.54,406,1678.54,402,1682.54,406,1678.54,410,1687.54,406" style="stroke: #000000; stroke-width: 0.55;"/><!--link predefined to items--><path d="M169.327,548.052 C198.476,552.523 237.506,558.509 263.833,562.547 " fill="none" id="predefined-items" style="stroke: #000000; stroke-width: 0.55; stroke-dasharray: 1.0,3.0;"/><polygon fill="#000000" points="268.922,563.327,260.6329,558.0081,263.9799,562.5685,259.4194,565.9155,268.922,563.327" style="stroke: #000000; stroke-width: 0.55;"/><!--link predefined to layouts--><path d="M168.912,535.772 C196.107,531.434 232.054,525.701 258.231,521.525 " fill="none" id="predefined-layouts" style="stroke: #000000; stroke-width: 0.55; stroke-dasharray: 1.0,3.0;"/><polygon fill="#000000" points="263.33,520.712,253.8119,518.1811,258.3925,521.5004,255.0733,526.0811,263.33,520.712" style="stroke: #000000; stroke-width: 0.55;"/><!--link predefined to utilities--><path d="M148.452,530.086 C169.27,517.509 204.485,498.486 237.869,491 C286.441,480.108 300.74,482.993 349.869,491 C379.571,495.841 412.063,507.548 434.076,516.508 " fill="none" id="predefined-utilities" style="stroke: #000000; stroke-width: 0.55; stroke-dasharray: 1.0,3.0;"/><polygon fill="#000000" points="438.884,518.49,432.0859,511.3636,434.2609,516.5856,429.0389,518.7606,438.884,518.49" style="stroke: #000000; stroke-width: 0.55;"/><!--link Region to Binding--><path d="M1135.06,421.197 C1160.38,428.58 1199.83,440.08 1227.15,448.046 " fill="none" id="Region-Binding" style="stroke: #000000; stroke-width: 0.55; stroke-dasharray: 1.0,3.0;"/><polygon fill="#000000" points="1232.11,449.49,1224.5895,443.1306,1227.3099,448.0904,1222.3501,450.8108,1232.11,449.49" style="stroke: #000000; stroke-width: 0.55;"/><!--link Region to PHASE--><path d="M1139.52,416.788 C1186.06,421.083 1280.01,429.123 1359.87,432 C1483.79,436.464 1516.51,452.101 1638.87,432 C1656.63,429.082 1675.81,422.615 1690.59,416.861 " fill="none" id="Region-PHASE" style="stroke: #000000; stroke-width: 0.55; stroke-dasharray: 1.0,3.0;"/><polygon fill="#000000" points="1695.42,414.944,1685.5793,414.5434,1690.7721,416.7871,1688.5283,421.98,1695.42,414.944" style="stroke: #000000; stroke-width: 0.55;"/><!--link Region to State--><path d="M1136.4,407.823 C1163.07,401.494 1204.34,391.703 1231.23,385.322 " fill="none" id="Region-State" style="stroke: #000000; stroke-width: 0.55; stroke-dasharray: 1.0,3.0;"/><polygon fill="#000000" points="1236.41,384.093,1226.7286,382.2844,1231.5457,385.2501,1228.58,390.0673,1236.41,384.093" style="stroke: #000000; stroke-width: 0.55;"/><!--link server to Application--><path d="M156.421,264 C179.266,264 212.892,264 241.046,264 " fill="none" id="server-Application" style="stroke: #000000; stroke-width: 0.55; stroke-dasharray: 1.0,3.0;"/><polygon fill="#000000" points="246.236,264,237.236,260,241.236,264,237.236,268,246.236,264" style="stroke: #000000; stroke-width: 0.55;"/><!--link server to Router--><path d="M153.109,257.812 C211.822,242.179 366.042,201.116 430.931,183.838 " fill="none" id="server-Router" style="stroke: #000000; stroke-width: 0.55; stroke-dasharray: 1.0,3.0;"/><polygon fill="#000000" points="435.817,182.537,426.0906,180.9887,430.9855,183.8242,428.1501,188.7191,435.817,182.537" style="stroke: #000000; stroke-width: 0.55;"/><!--link ServerController to Device--><path d="M668.119,188.44 C678.412,192.953 689.819,198.343 699.869,204 C734.729,223.622 772.443,251.036 794.29,267.594 " fill="none" id="ServerController-Device" style="stroke: #000000; stroke-width: 0.55; stroke-dasharray: 1.0,3.0;"/><polygon fill="#000000" points="798.442,270.756,793.7035,262.1219,794.4635,267.7275,788.858,268.4875,798.442,270.756" style="stroke: #000000; stroke-width: 0.55;"/><!--link ServerElement to mixins--><path d="M673.579,219.229 C682.908,215.218 692.41,209.905 699.869,203 C734.154,171.263 708.868,134.138 748.869,110 C807.471,74.638 839.682,83.694 902.869,110 C928.667,120.74 949.814,146.227 961.758,163.299 " fill="none" id="ServerElement-mixins" style="stroke: #000000; stroke-width: 0.55;"/><polygon fill="#000000" points="964.593,167.444,962.8098,157.7579,961.7686,163.3181,956.2084,162.2769,964.593,167.444" style="stroke: #000000; stroke-width: 0.55;"/><!--link ServerImage to mixins--><path d="M673.308,273.045 C682.742,269.17 692.364,263.943 699.869,257 C735.032,224.469 708.016,186.015 748.869,161 C811.707,122.524 903.748,151.302 947.498,168.937 " fill="none" id="ServerImage-mixins" style="stroke: #000000; stroke-width: 0.55;"/><polygon fill="#000000" points="952.337,170.922,945.5272,163.8068,947.7107,169.0252,942.4923,171.2088,952.337,170.922" style="stroke: #000000; stroke-width: 0.55;"/><!--link ServerItem to mixins--><path d="M671.055,325.975 C681.199,322.022 691.776,316.519 699.869,309 C735.255,276.126 709.633,240.167 748.869,212 C806.205,170.84 893.454,171.75 940.172,175.911 " fill="none" id="ServerItem-mixins" style="stroke: #000000; stroke-width: 0.55;"/><polygon fill="#000000" points="945.389,176.405,936.8049,171.5766,940.4111,175.9349,936.0528,179.5412,945.389,176.405" style="stroke: #000000; stroke-width: 0.55;"/><!--link ServerView to mixins--><path d="M857.462,327.943 C873.033,324.384 889.975,318.323 902.869,308 C939.107,278.989 959.111,225.766 967.53,197.972 " fill="none" id="ServerView-mixins" style="stroke: #000000; stroke-width: 0.55;"/><polygon fill="#000000" points="968.968,193.09,962.5883,200.5933,967.5554,197.8863,970.2623,202.8534,968.968,193.09" style="stroke: #000000; stroke-width: 0.55;"/><!--link ServerViewGroup to GestureController--><path d="M700.233,387.642 C714.249,387.562 729.188,387.477 743.45,387.396 " fill="none" id="ServerViewGroup-GestureController" style="stroke: #000000; stroke-width: 0.55; stroke-dasharray: 1.0,3.0;"/><polygon fill="#000000" points="748.671,387.366,739.6483,383.4175,743.6711,387.3946,739.694,391.4174,748.671,387.366" style="stroke: #000000; stroke-width: 0.55;"/><!--link ServerViewGroup to mixins--><path d="M676.391,376.292 C684.855,372.424 693.245,367.412 699.869,361 C736.582,325.462 709.835,289.971 748.869,257 C803.157,211.145 836.453,239.275 902.869,214 C918.97,207.873 936.381,199.352 949.749,192.373 " fill="none" id="ServerViewGroup-mixins" style="stroke: #000000; stroke-width: 0.55;"/><polygon fill="#000000" points="954.482,189.879,944.6552,190.5373,950.0589,192.2106,948.3857,197.6143,954.482,189.879" style="stroke: #000000; stroke-width: 0.55;"/><!--link ServerViewGroup to ServerView--><path d="M675.45,376.066 C705.66,366.598 747.581,353.461 777.156,344.192 " fill="none" id="ServerViewGroup-ServerView" style="stroke: #000000; stroke-width: 0.55; stroke-dasharray: 1.0,3.0;"/><polygon fill="#000000" points="782.16,342.624,772.3756,341.4992,777.3889,344.1196,774.7685,349.1329,782.16,342.624" style="stroke: #000000; stroke-width: 0.55;"/><!--link State to Input--><path d="M1281.92,382.641 C1311.54,387.533 1364.15,396.221 1396.19,401.511 " fill="none" id="State-Input" style="stroke: #000000; stroke-width: 0.55; stroke-dasharray: 1.0,3.0;"/><polygon fill="#000000" points="1401.15,402.33,1392.9217,396.9176,1396.2168,401.5157,1391.6187,404.8108,1401.15,402.33" style="stroke: #000000; stroke-width: 0.55;"/><!--link State to PHASE--><path d="M1282.71,376.694 C1341.98,371.233 1505.37,359.51 1638.87,381 C1656.45,383.83 1675.48,389.981 1690.23,395.473 " fill="none" id="State-PHASE" style="stroke: #000000; stroke-width: 0.55; stroke-dasharray: 1.0,3.0;"/><polygon fill="#000000" points="1695.06,397.305,1688.0616,390.3752,1690.3845,395.5331,1685.2266,397.856,1695.06,397.305" style="stroke: #000000; stroke-width: 0.55;"/><!--link Switchboard to ServerController--><path d="M496.136,217.046 C523.558,208.962 562.413,197.507 592.112,188.752 " fill="none" id="Switchboard-ServerController" style="stroke: #000000; stroke-width: 0.55; stroke-dasharray: 1.0,3.0;"/><polygon fill="#000000" points="597.17,187.261,587.4061,185.9701,592.3742,188.6753,589.669,193.6434,597.17,187.261" style="stroke: #000000; stroke-width: 0.55;"/><!--link Switchboard to ServerViewGroup--><path d="M500.921,235.725 C511.342,239.605 521.922,245.141 529.869,253 C566.606,289.327 536.868,323.944 572.869,361 C578.022,366.304 584.389,370.628 591.069,374.134 " fill="none" id="Switchboard-ServerViewGroup" style="stroke: #000000; stroke-width: 0.55; stroke-dasharray: 1.0,3.0;"/><polygon fill="#000000" points="595.733,376.433,589.4303,368.8649,591.2486,374.2215,585.892,376.0399,595.733,376.433" style="stroke: #000000; stroke-width: 0.55;"/><!--link WorkSpace to ServerElement--><path d="M497.009,323.993 C508.107,320.137 520.053,314.897 529.869,308 C554.128,290.955 549.072,274.683 572.869,257 C580.154,251.587 588.691,246.992 597.074,243.212 " fill="none" id="WorkSpace-ServerElement" style="stroke: #000000; stroke-width: 0.55; stroke-dasharray: 1.0,3.0;"/><polygon fill="#000000" points="601.706,241.195,591.8574,241.1199,597.1216,243.1908,595.0507,248.4549,601.706,241.195" style="stroke: #000000; stroke-width: 0.55;"/><!--link WorkSpace to ServerImage--><path d="M495.316,323.478 C523.675,315.282 564.694,303.426 595.016,294.663 " fill="none" id="WorkSpace-ServerImage" style="stroke: #000000; stroke-width: 0.55; stroke-dasharray: 1.0,3.0;"/><polygon fill="#000000" points="600.166,293.174,590.4092,291.8302,595.3626,294.5623,592.6305,299.5157,600.166,293.174" style="stroke: #000000; stroke-width: 0.55;"/><!--link WorkSpace to ServerItem--><path d="M510.559,333.557 C533.239,333.819 560.322,334.132 583.454,334.4 " fill="none" id="WorkSpace-ServerItem" style="stroke: #000000; stroke-width: 0.55; stroke-dasharray: 1.0,3.0;"/><polygon fill="#000000" points="588.631,334.46,579.6785,330.3549,583.6313,334.4014,579.5848,338.3543,588.631,334.46" style="stroke: #000000; stroke-width: 0.55;"/><script type="text/plantuml"><![CDATA[
@startuml

scale max 1920 width
left to right direction

skinparam nodesep 25
skinparam ranksep 49
skinparam monochrome true
skinparam shadowing false
skinparam defaultFontName Tahoma
skinparam defaultFontSize 12
skinparam roundCorner 4
skinparam dpi 150
skinparam arrowColor black
skinparam arrowThickness 0.55
skinparam packageTitleAlignment left

skinparam usecase {
  borderThickness 0.5
}

skinparam rectangle {
  borderThickness 0.5
}

skinparam component {
  borderThickness 1
}


(<b>client</b>)
(<b>index</b>)

package "Client" {
  (ClientController)
  (ClientElement)
  (ClientImage)
  (ClientItem)
  (ClientModel)
  (ClientView)
  (Interactor)
  (ShadowView)
  (Transform)
}

package "Server" {
  (Application)
  (Device)
  (GestureController)
  (MessageHandler)
  (Router)
  (server)
  (ServerController)
  (ServerElement)
  (ServerImage)
  (ServerItem)
  (ServerView)
  (ServerViewGroup)
  (Switchboard)
  (WorkSpace)
}

package "Predefined" {
  (items)
  (layouts)
  (predefined)
  (utilities)
}

package "Mixins" {
  (Hittable)
  (Identifiable)
  (Interactable)
  (Lockable)
  (Locker)
  (mixins)
  (Publishable)
  (Transformable2D)
}


package "Gestures" {
  (Binding)
  (gestures)
  (Input)
  (PHASE)
  (PointerData)
  (Region)
  (State)
}

(Application) ~~> (MessageHandler)
(Application) ~~> (Router)
(Application) ~~> (Switchboard)
(Application) ~~> (WorkSpace)
(<b>client</b>) -[thickness=1]> (ClientController)
(<b>client</b>) -[thickness=1]> (ClientModel)
(<b>client</b>) -[thickness=1]> (ClientView)
(ClientController) ~~> (Interactor)
(ClientModel) ~~> (ClientElement)
(ClientModel) ~~> (ClientImage)
(ClientModel) ~~> (ClientItem)
(ClientModel) ~~> (ShadowView)
(Device) --> (mixins)
(GestureController) --> (gestures)
(gestures) ~~> (Region)
(Hittable) ~~> (Interactable)
(<b>index</b>) -[thickness=1]> (predefined)
(<b>index</b>) -[thickness=1]> (server)
(Input) ~~> (PointerData)
(Interactable) ~~> (Lockable)
(Interactable) ~~> (Publishable)
(Interactable) ~~> (Transformable2D)
(Interactor) ~~> (Transform)
(items) ~~> (utilities)
(mixins) ~~> (Hittable)
(mixins) ~~> (Identifiable)
(mixins) ~~> (Interactable)
(mixins) ~~> (Lockable)
(mixins) ~~> (Locker)
(mixins) ~~> (Publishable)
(mixins) ~~> (Transformable2D)
(PointerData) ~~> (PHASE)
(predefined) ~~> (items)
(predefined) ~~> (layouts)
(predefined) ~~> (utilities)
(Region) ~~> (Binding)
(Region) ~~> (PHASE)
(Region) ~~> (State)
(server) ~~> (Application)
(server) ~~> (Router)
(ServerController) ~~> (Device)
(ServerElement) --> (mixins)
(ServerImage) --> (mixins)
(ServerItem) --> (mixins)
(ServerView) --> (mixins)
(ServerViewGroup) ~~> (GestureController)
(ServerViewGroup) --> (mixins)
(ServerViewGroup) ~~> (ServerView)
(State) ~~> (Input)
(State) ~~> (PHASE)
(Switchboard) ~~> (ServerController)
(Switchboard) ~~> (ServerViewGroup)
(WorkSpace) ~~> (ServerElement)
(WorkSpace) ~~> (ServerImage)
(WorkSpace) ~~> (ServerItem)

@enduml


' View and edit on https://arkit.herokuapp.com
]]></script></g></svg>