<?xml version="1.0" encoding="UTF-8" standalone="no"?><svg xmlns="http://www.w3.org/2000/svg" xmlns:xlink="http://www.w3.org/1999/xlink" contentScriptType="application/ecmascript" contentStyleType="text/css" height="1019px" preserveAspectRatio="none" style="width:1786px;height:1019px;" version="1.1" viewBox="0 0 1786 1019" width="1786px" zoomAndPan="magnify"><defs/><g><!--cluster Client--><path d="M58.7142,685 L98.7142,685 A3,3 0 0 1 100.7142,687 L107.7142,705.4844 L525.714,705.4844 A2,2 0 0 1 527.714,707.4844 L527.714,964 A2,2 0 0 1 525.714,966 L58.7142,966 A2,2 0 0 1 56.7142,964 L56.7142,687 A2,2 0 0 1 58.7142,685 " fill="#FFFFFF" style="stroke: #000000; stroke-width: 1.5;"/><line style="stroke: #000000; stroke-width: 1.5;" x1="56.7142" x2="107.7142" y1="705.4844" y2="705.4844"/><text fill="#000000" font-family="Tahoma, sans-serif" font-size="12" font-weight="bold" lengthAdjust="spacingAndGlyphs" textLength="38" x="60.7142" y="699.0059">Client</text><!--cluster Server--><path d="M91.2142,84 L135.2142,84 A3,3 0 0 1 137.2142,86 L144.2142,104.4844 L900.714,104.4844 A2,2 0 0 1 902.714,106.4844 L902.714,424 A2,2 0 0 1 900.714,426 L91.2142,426 A2,2 0 0 1 89.2142,424 L89.2142,86 A2,2 0 0 1 91.2142,84 " fill="#FFFFFF" style="stroke: #000000; stroke-width: 1.5;"/><line style="stroke: #000000; stroke-width: 1.5;" x1="89.2142" x2="144.2142" y1="104.4844" y2="104.4844"/><text fill="#000000" font-family="Tahoma, sans-serif" font-size="12" font-weight="bold" lengthAdjust="spacingAndGlyphs" textLength="42" x="93.2142" y="98.0059">Server</text><!--cluster Predefined--><path d="M73.2142,450 L145.2142,450 A3,3 0 0 1 147.2142,452 L154.2142,470.4844 L345.214,470.4844 A2,2 0 0 1 347.214,472.4844 L347.214,625 A2,2 0 0 1 345.214,627 L73.2142,627 A2,2 0 0 1 71.2142,625 L71.2142,452 A2,2 0 0 1 73.2142,450 " fill="#FFFFFF" style="stroke: #000000; stroke-width: 1.5;"/><line style="stroke: #000000; stroke-width: 1.5;" x1="71.2142" x2="154.2142" y1="470.4844" y2="470.4844"/><text fill="#000000" font-family="Tahoma, sans-serif" font-size="12" font-weight="bold" lengthAdjust="spacingAndGlyphs" textLength="70" x="75.2142" y="464.0059">Predefined</text><!--cluster Mixins--><path d="M938.214,24 L981.214,24 A3,3 0 0 1 983.214,26 L990.214,44.4844 L1513.71,44.4844 A2,2 0 0 1 1515.71,46.4844 L1515.71,307 A2,2 0 0 1 1513.71,309 L938.214,309 A2,2 0 0 1 936.214,307 L936.214,26 A2,2 0 0 1 938.214,24 " fill="#FFFFFF" style="stroke: #000000; stroke-width: 1.5;"/><line style="stroke: #000000; stroke-width: 1.5;" x1="936.214" x2="990.214" y1="44.4844" y2="44.4844"/><text fill="#000000" font-family="Tahoma, sans-serif" font-size="12" font-weight="bold" lengthAdjust="spacingAndGlyphs" textLength="41" x="940.214" y="38.0059">Mixins</text><!--cluster Gestures--><path d="M928.714,333 L990.714,333 A3,3 0 0 1 992.714,335 L999.714,353.4844 L1772.71,353.4844 A2,2 0 0 1 1774.71,355.4844 L1774.71,484 A2,2 0 0 1 1772.71,486 L928.714,486 A2,2 0 0 1 926.714,484 L926.714,335 A2,2 0 0 1 928.714,333 " fill="#FFFFFF" style="stroke: #000000; stroke-width: 1.5;"/><line style="stroke: #000000; stroke-width: 1.5;" x1="926.714" x2="999.714" y1="353.4844" y2="353.4844"/><text fill="#000000" font-family="Tahoma, sans-serif" font-size="12" font-weight="bold" lengthAdjust="spacingAndGlyphs" textLength="60" x="930.714" y="347.0059">Gestures</text><ellipse cx="132.6985" cy="781.8969" fill="#F8F8F8" rx="59.9845" ry="14.3969" style="stroke: #383838; stroke-width: 0.5;"/><text fill="#000000" font-family="Tahoma, sans-serif" font-size="12" lengthAdjust="spacingAndGlyphs" textLength="88" x="88.6985" y="785.6391">ClientController</text><ellipse cx="298.9327" cy="936.1437" fill="#F8F8F8" rx="56.2187" ry="13.6437" style="stroke: #383838; stroke-width: 0.5;"/><text fill="#000000" font-family="Tahoma, sans-serif" font-size="12" lengthAdjust="spacingAndGlyphs" textLength="78" x="259.9327" y="939.8859">ClientElement</text><ellipse cx="298.5044" cy="884.242" fill="#F8F8F8" rx="51.7904" ry="13.242" style="stroke: #383838; stroke-width: 0.5;"/><text fill="#000000" font-family="Tahoma, sans-serif" font-size="12" lengthAdjust="spacingAndGlyphs" textLength="69" x="264.0044" y="887.9842">ClientImage</text><ellipse cx="298.9333" cy="833.242" fill="#F8F8F8" rx="44.7193" ry="13.242" style="stroke: #383838; stroke-width: 0.5;"/><text fill="#000000" font-family="Tahoma, sans-serif" font-size="12" lengthAdjust="spacingAndGlyphs" textLength="59" x="269.4333" y="836.9842">ClientItem</text><ellipse cx="132.883" cy="884.242" fill="#F8F8F8" rx="49.669" ry="13.242" style="stroke: #383838; stroke-width: 0.5;"/><text fill="#000000" font-family="Tahoma, sans-serif" font-size="12" lengthAdjust="spacingAndGlyphs" textLength="66" x="99.883" y="887.9842">ClientModel</text><ellipse cx="132.7262" cy="937.242" fill="#F8F8F8" rx="44.0122" ry="13.242" style="stroke: #383838; stroke-width: 0.5;"/><text fill="#000000" font-family="Tahoma, sans-serif" font-size="12" lengthAdjust="spacingAndGlyphs" textLength="58" x="103.7262" y="940.9842">ClientView</text><ellipse cx="298.5191" cy="731.242" fill="#F8F8F8" rx="43.3051" ry="13.242" style="stroke: #383838; stroke-width: 0.5;"/><text fill="#000000" font-family="Tahoma, sans-serif" font-size="12" lengthAdjust="spacingAndGlyphs" textLength="57" x="270.0191" y="734.9842">Interactor</text><ellipse cx="298.6257" cy="782.242" fill="#F8F8F8" rx="53.9117" ry="13.242" style="stroke: #383838; stroke-width: 0.5;"/><text fill="#000000" font-family="Tahoma, sans-serif" font-size="12" lengthAdjust="spacingAndGlyphs" textLength="72" x="262.6257" y="785.9842">ShadowView</text><ellipse cx="467.4333" cy="731.242" fill="#F8F8F8" rx="44.7193" ry="13.242" style="stroke: #383838; stroke-width: 0.5;"/><text fill="#000000" font-family="Tahoma, sans-serif" font-size="12" lengthAdjust="spacingAndGlyphs" textLength="59" x="437.9333" y="734.9842">Transform</text><ellipse cx="298.7617" cy="272.242" fill="#F8F8F8" rx="47.5477" ry="13.242" style="stroke: #383838; stroke-width: 0.5;"/><text fill="#000000" font-family="Tahoma, sans-serif" font-size="12" lengthAdjust="spacingAndGlyphs" textLength="63" x="267.2617" y="275.9842">Application</text><ellipse cx="821.7912" cy="289.242" fill="#F8F8F8" rx="30.5772" ry="13.242" style="stroke: #383838; stroke-width: 0.5;"/><text fill="#000000" font-family="Tahoma, sans-serif" font-size="12" lengthAdjust="spacingAndGlyphs" textLength="39" x="802.2912" y="292.9842">Device</text><ellipse cx="821.8548" cy="393.9282" fill="#F8F8F8" rx="65.1408" ry="15.4282" style="stroke: #383838; stroke-width: 0.5;"/><text fill="#000000" font-family="Tahoma, sans-serif" font-size="12" lengthAdjust="spacingAndGlyphs" textLength="101" x="771.3548" y="397.6704">GestureController</text><ellipse cx="467.0455" cy="287.8663" fill="#F8F8F8" rx="62.3315" ry="14.8663" style="stroke: #383838; stroke-width: 0.5;"/><text fill="#000000" font-family="Tahoma, sans-serif" font-size="12" lengthAdjust="spacingAndGlyphs" textLength="94" x="420.0455" y="291.6085">MessageHandler</text><ellipse cx="467.377" cy="184.242" fill="#F8F8F8" rx="29.163" ry="13.242" style="stroke: #383838; stroke-width: 0.5;"/><text fill="#000000" font-family="Tahoma, sans-serif" font-size="12" lengthAdjust="spacingAndGlyphs" textLength="37" x="448.877" y="187.9842">Router</text><ellipse cx="132.9627" cy="272.242" fill="#F8F8F8" rx="27.7487" ry="13.242" style="stroke: #383838; stroke-width: 0.5;"/><text fill="#000000" font-family="Tahoma, sans-serif" font-size="12" lengthAdjust="spacingAndGlyphs" textLength="35" x="115.4627" y="275.9842">server</text><ellipse cx="643.2566" cy="340.2085" fill="#F8F8F8" rx="61.5426" ry="14.7085" style="stroke: #383838; stroke-width: 0.5;"/><text fill="#000000" font-family="Tahoma, sans-serif" font-size="12" lengthAdjust="spacingAndGlyphs" textLength="92" x="597.2566" y="343.9507">ServerController</text><ellipse cx="643.4153" cy="130.9403" fill="#F8F8F8" rx="57.7013" ry="13.9403" style="stroke: #383838; stroke-width: 0.5;"/><text fill="#000000" font-family="Tahoma, sans-serif" font-size="12" lengthAdjust="spacingAndGlyphs" textLength="82" x="602.4153" y="134.6824">ServerElement</text><ellipse cx="643.4186" cy="183.242" fill="#F8F8F8" rx="53.2046" ry="13.242" style="stroke: #383838; stroke-width: 0.5;"/><text fill="#000000" font-family="Tahoma, sans-serif" font-size="12" lengthAdjust="spacingAndGlyphs" textLength="71" x="607.9186" y="186.9842">ServerGroup</text><ellipse cx="643.1288" cy="234.783" fill="#F8F8F8" rx="54.4148" ry="13.283" style="stroke: #383838; stroke-width: 0.5;"/><text fill="#000000" font-family="Tahoma, sans-serif" font-size="12" lengthAdjust="spacingAndGlyphs" textLength="73" x="606.6288" y="238.5251">ServerImage</text><ellipse cx="643.2617" cy="287.242" fill="#F8F8F8" rx="47.5477" ry="13.242" style="stroke: #383838; stroke-width: 0.5;"/><text fill="#000000" font-family="Tahoma, sans-serif" font-size="12" lengthAdjust="spacingAndGlyphs" textLength="63" x="611.7617" y="290.9842">ServerItem</text><ellipse cx="821.5546" cy="340.242" fill="#F8F8F8" rx="46.8406" ry="13.242" style="stroke: #383838; stroke-width: 0.5;"/><text fill="#000000" font-family="Tahoma, sans-serif" font-size="12" lengthAdjust="spacingAndGlyphs" textLength="62" x="790.5546" y="343.9842">ServerView</text><ellipse cx="643.2407" cy="395.1053" fill="#F8F8F8" rx="63.5267" ry="15.1053" style="stroke: #383838; stroke-width: 0.5;"/><text fill="#000000" font-family="Tahoma, sans-serif" font-size="12" lengthAdjust="spacingAndGlyphs" textLength="97" x="594.7407" y="398.8475">ServerViewGroup</text><ellipse cx="467.4186" cy="341.242" fill="#F8F8F8" rx="53.2046" ry="13.242" style="stroke: #383838; stroke-width: 0.5;"/><text fill="#000000" font-family="Tahoma, sans-serif" font-size="12" lengthAdjust="spacingAndGlyphs" textLength="71" x="431.9186" y="344.9842">Switchboard</text><ellipse cx="467.1759" cy="235.242" fill="#F8F8F8" rx="48.9619" ry="13.242" style="stroke: #383838; stroke-width: 0.5;"/><text fill="#000000" font-family="Tahoma, sans-serif" font-size="12" lengthAdjust="spacingAndGlyphs" textLength="65" x="434.6759" y="238.9842">WorkSpace</text><ellipse cx="298.8414" cy="598.242" fill="#F8F8F8" rx="25.6274" ry="13.242" style="stroke: #383838; stroke-width: 0.5;"/><text fill="#000000" font-family="Tahoma, sans-serif" font-size="12" lengthAdjust="spacingAndGlyphs" textLength="32" x="282.8414" y="601.9842">items</text><ellipse cx="298.9125" cy="547.242" fill="#F8F8F8" rx="32.6985" ry="13.242" style="stroke: #383838; stroke-width: 0.5;"/><text fill="#000000" font-family="Tahoma, sans-serif" font-size="12" lengthAdjust="spacingAndGlyphs" textLength="42" x="277.9125" y="550.9842">layouts</text><ellipse cx="132.6404" cy="573.242" fill="#F8F8F8" rx="45.4264" ry="13.242" style="stroke: #383838; stroke-width: 0.5;"/><text fill="#000000" font-family="Tahoma, sans-serif" font-size="12" lengthAdjust="spacingAndGlyphs" textLength="60" x="102.6404" y="576.9842">predefined</text><ellipse cx="298.7054" cy="496.242" fill="#F8F8F8" rx="31.9914" ry="13.242" style="stroke: #383838; stroke-width: 0.5;"/><text fill="#000000" font-family="Tahoma, sans-serif" font-size="12" lengthAdjust="spacingAndGlyphs" textLength="41" x="278.2054" y="499.9842">utilities</text><ellipse cx="1118.1156" cy="175.242" fill="#F8F8F8" rx="33.4056" ry="13.242" style="stroke: #383838; stroke-width: 0.5;"/><text fill="#000000" font-family="Tahoma, sans-serif" font-size="12" lengthAdjust="spacingAndGlyphs" textLength="43" x="1096.6156" y="178.9842">Hittable</text><ellipse cx="1117.9648" cy="253.242" fill="#F8F8F8" rx="48.2548" ry="13.242" style="stroke: #383838; stroke-width: 0.5;"/><text fill="#000000" font-family="Tahoma, sans-serif" font-size="12" lengthAdjust="spacingAndGlyphs" textLength="64" x="1085.9648" y="256.9842">Identifiable</text><ellipse cx="1268.5004" cy="175.242" fill="#F8F8F8" rx="51.7904" ry="13.242" style="stroke: #383838; stroke-width: 0.5;"/><text fill="#000000" font-family="Tahoma, sans-serif" font-size="12" lengthAdjust="spacingAndGlyphs" textLength="69" x="1234.0004" y="178.9842">Interactable</text><ellipse cx="1435.2724" cy="241.242" fill="#F8F8F8" rx="39.0624" ry="13.242" style="stroke: #383838; stroke-width: 0.5;"/><text fill="#000000" font-family="Tahoma, sans-serif" font-size="12" lengthAdjust="spacingAndGlyphs" textLength="51" x="1409.7724" y="244.9842">Lockable</text><ellipse cx="1118.0801" cy="124.242" fill="#F8F8F8" rx="29.8701" ry="13.242" style="stroke: #383838; stroke-width: 0.5;"/><text fill="#000000" font-family="Tahoma, sans-serif" font-size="12" lengthAdjust="spacingAndGlyphs" textLength="38" x="1099.0801" y="127.9842">Locker</text><ellipse cx="981.377" cy="178.242" fill="#F8F8F8" rx="29.163" ry="13.242" style="stroke: #383838; stroke-width: 0.5;"/><text fill="#000000" font-family="Tahoma, sans-serif" font-size="12" lengthAdjust="spacingAndGlyphs" textLength="37" x="962.877" y="181.9842">mixins</text><ellipse cx="1435.1719" cy="151.242" fill="#F8F8F8" rx="48.9619" ry="13.242" style="stroke: #383838; stroke-width: 0.5;"/><text fill="#000000" font-family="Tahoma, sans-serif" font-size="12" lengthAdjust="spacingAndGlyphs" textLength="65" x="1402.6719" y="154.9842">Publishable</text><ellipse cx="1435.0409" cy="84.7662" fill="#F8F8F8" rx="64.3309" ry="15.2662" style="stroke: #383838; stroke-width: 0.5;"/><text fill="#000000" font-family="Tahoma, sans-serif" font-size="12" lengthAdjust="spacingAndGlyphs" textLength="99" x="1385.5409" y="88.5084">Transformable2D</text><ellipse cx="1268.9085" cy="457.242" fill="#F8F8F8" rx="32.6985" ry="13.242" style="stroke: #383838; stroke-width: 0.5;"/><text fill="#000000" font-family="Tahoma, sans-serif" font-size="12" lengthAdjust="spacingAndGlyphs" textLength="42" x="1247.9085" y="460.9842">Binding</text><ellipse cx="981.0693" cy="398.242" fill="#F8F8F8" rx="38.3553" ry="13.242" style="stroke: #383838; stroke-width: 0.5;"/><text fill="#000000" font-family="Tahoma, sans-serif" font-size="12" lengthAdjust="spacingAndGlyphs" textLength="50" x="956.0693" y="401.9842">gestures</text><ellipse cx="1435.4232" cy="406.242" fill="#F8F8F8" rx="24.2132" ry="13.242" style="stroke: #383838; stroke-width: 0.5;"/><text fill="#000000" font-family="Tahoma, sans-serif" font-size="12" lengthAdjust="spacingAndGlyphs" textLength="30" x="1420.4232" y="409.9842">Input</text><ellipse cx="1729.873" cy="406.242" fill="#F8F8F8" rx="29.163" ry="13.242" style="stroke: #383838; stroke-width: 0.5;"/><text fill="#000000" font-family="Tahoma, sans-serif" font-size="12" lengthAdjust="spacingAndGlyphs" textLength="37" x="1711.373" y="409.9842">PHASE</text><ellipse cx="1600.0862" cy="406.242" fill="#F8F8F8" rx="50.3762" ry="13.242" style="stroke: #383838; stroke-width: 0.5;"/><text fill="#000000" font-family="Tahoma, sans-serif" font-size="12" lengthAdjust="spacingAndGlyphs" textLength="67" x="1566.5862" y="409.9842">PointerData</text><ellipse cx="1118.2872" cy="416.242" fill="#F8F8F8" rx="30.5772" ry="13.242" style="stroke: #383838; stroke-width: 0.5;"/><text fill="#000000" font-family="Tahoma, sans-serif" font-size="12" lengthAdjust="spacingAndGlyphs" textLength="39" x="1098.7872" y="419.9842">Region</text><ellipse cx="1268.9232" cy="379.242" fill="#F8F8F8" rx="24.2132" ry="13.242" style="stroke: #383838; stroke-width: 0.5;"/><text fill="#000000" font-family="Tahoma, sans-serif" font-size="12" lengthAdjust="spacingAndGlyphs" textLength="30" x="1253.9232" y="382.9842">State</text><ellipse cx="132.877" cy="995.242" fill="#F8F8F8" rx="29.163" ry="13.242" style="stroke: #383838; stroke-width: 0.5;"/><text fill="#000000" font-family="Tahoma, sans-serif" font-size="12" font-weight="bold" lengthAdjust="spacingAndGlyphs" textLength="37" x="114.377" y="998.9842">client</text><ellipse cx="132.9627" cy="656.242" fill="#F8F8F8" rx="27.7487" ry="13.242" style="stroke: #383838; stroke-width: 0.5;"/><text fill="#000000" font-family="Tahoma, sans-serif" font-size="12" font-weight="bold" lengthAdjust="spacingAndGlyphs" textLength="35" x="115.4627" y="659.9842">index</text><!--link Application to MessageHandler--><path d="M343.896,276.246 C362.28,278.012 383.952,280.095 403.907,282.013 " fill="none" id="Application-MessageHandler" style="stroke: #000000; stroke-width: 0.55; stroke-dasharray: 1.0,3.0;"/><polygon fill="#000000" points="408.941,282.496,400.3652,277.653,403.964,282.0174,399.5995,285.6162,408.941,282.496" style="stroke: #000000; stroke-width: 0.55;"/><!--link Application to Router--><path d="M318.259,260.025 C338.917,246.929 373.519,225.716 404.714,210 C415.936,204.346 428.681,198.819 439.647,194.325 " fill="none" id="Application-Router" style="stroke: #000000; stroke-width: 0.55; stroke-dasharray: 1.0,3.0;"/><polygon fill="#000000" points="444.549,192.335,434.7054,192.0127,439.9159,194.2151,437.7136,199.4256,444.549,192.335" style="stroke: #000000; stroke-width: 0.55;"/><!--link Application to Switchboard--><path d="M325.572,282.927 C346.806,291.877 377.675,304.839 404.714,316 C414.24,319.932 424.614,324.167 434.082,328.014 " fill="none" id="Application-Switchboard" style="stroke: #000000; stroke-width: 0.55; stroke-dasharray: 1.0,3.0;"/><polygon fill="#000000" points="438.941,329.986,432.1056,322.8954,434.3079,328.1059,429.0974,330.3083,438.941,329.986" style="stroke: #000000; stroke-width: 0.55;"/><!--link Application to WorkSpace--><path d="M336.253,263.88 C362.207,258.113 397.117,250.355 424.219,244.332 " fill="none" id="Application-WorkSpace" style="stroke: #000000; stroke-width: 0.55; stroke-dasharray: 1.0,3.0;"/><polygon fill="#000000" points="429.185,243.229,419.5312,241.2784,424.3043,244.3146,421.2681,249.0876,429.185,243.229" style="stroke: #000000; stroke-width: 0.55;"/><!--link <b>client</b> to ClientController--><path d="M103.9639,992.7235 C77.7178,988.9071 40.5316,978.7111 23.7142,951.5 C5.0215,921.2546 8.5163,903.644 23.7142,871.5 C39.6431,837.81 75.1577,812.545 101.3401,797.595 " fill="none" id="&lt;b&gt;client&lt;/b&gt;-ClientController" style="stroke: #000000; stroke-width: 1.0;"/><polygon fill="#000000" points="105.7848,795.104,95.9782,796.0149,101.4231,797.5486,99.8895,802.9935,105.7848,795.104" style="stroke: #000000; stroke-width: 1.0;"/><!--link <b>client</b> to ClientModel--><path d="M103.9639,992.7235 C77.7178,988.9071 40.5316,978.7111 23.7142,951.5 C17.4054,941.2922 17.4054,934.7078 23.7142,924.5 C35.8999,904.783 59.0808,894.605 80.9429,889.377 " fill="none" id="&lt;b&gt;client&lt;/b&gt;-ClientModel" style="stroke: #000000; stroke-width: 1.0;"/><polygon fill="#000000" points="85.8752,888.273,76.219,886.3343,80.9958,889.3646,77.9656,894.1414,85.8752,888.273" style="stroke: #000000; stroke-width: 1.0;"/><!--link <b>client</b> to ClientView--><path d="M132.714,981.8594 C132.714,973.1525 132.714,964.4457 132.714,955.7389 " fill="none" id="&lt;b&gt;client&lt;/b&gt;-ClientView" style="stroke: #000000; stroke-width: 1.0;"/><polygon fill="#000000" points="132.714,950.3176,128.714,959.3176,132.714,955.3176,136.714,959.3176,132.714,950.3176" style="stroke: #000000; stroke-width: 1.0;"/><!--link ClientController to Interactor--><path d="M170.519,770.555 C198.168,761.956 235.788,750.258 262.934,741.816 " fill="none" id="ClientController-Interactor" style="stroke: #000000; stroke-width: 0.55; stroke-dasharray: 1.0,3.0;"/><polygon fill="#000000" points="267.876,740.279,258.0943,739.1312,263.1014,741.7634,260.4693,746.7705,267.876,740.279" style="stroke: #000000; stroke-width: 0.55;"/><!--link ClientModel to ClientElement--><path d="M164.947,893.903 C191.743,902.399 230.461,914.676 259.178,923.7812 " fill="none" id="ClientModel-ClientElement" style="stroke: #000000; stroke-width: 0.55; stroke-dasharray: 1.0,3.0;"/><polygon fill="#000000" points="264.057,925.3282,256.6872,918.7948,259.2909,923.8168,254.2689,926.4205,264.057,925.3282" style="stroke: #000000; stroke-width: 0.55;"/><!--link ClientModel to ClientImage--><path d="M182.476,884 C200.945,884 222.122,884 241.243,884 " fill="none" id="ClientModel-ClientImage" style="stroke: #000000; stroke-width: 0.55; stroke-dasharray: 1.0,3.0;"/><polygon fill="#000000" points="246.577,884,237.577,880,241.577,884,237.577,888,246.577,884" style="stroke: #000000; stroke-width: 0.55;"/><!--link ClientModel to ClientItem--><path d="M165.335,874.167 C193.227,865.493 233.817,852.87 262.686,843.893 " fill="none" id="ClientModel-ClientItem" style="stroke: #000000; stroke-width: 0.55; stroke-dasharray: 1.0,3.0;"/><polygon fill="#000000" points="267.574,842.373,257.792,841.2271,262.7997,843.8583,260.1685,848.8659,267.574,842.373" style="stroke: #000000; stroke-width: 0.55;"/><!--link ClientModel to ShadowView--><path d="M149.769,871.524 C170.545,855.684 208.184,828.012 242.714,808 C250.282,803.614 258.709,799.345 266.647,795.577 " fill="none" id="ClientModel-ShadowView" style="stroke: #000000; stroke-width: 0.55; stroke-dasharray: 1.0,3.0;"/><polygon fill="#000000" points="271.515,793.298,261.668,793.4911,266.9866,795.4179,265.0599,800.7365,271.515,793.298" style="stroke: #000000; stroke-width: 0.55;"/><!--link Device to mixins--><path d="M848.967,283.148 C867.362,278.2 891.918,269.833 910.714,257 C935.471,240.099 957.045,212.406 969.345,194.7 " fill="none" id="Device-mixins" style="stroke: #000000; stroke-width: 0.55;"/><polygon fill="#000000" points="972.269,190.427,963.8852,195.5954,969.4453,194.5533,970.4874,200.1134,972.269,190.427" style="stroke: #000000; stroke-width: 0.55;"/><!--link GestureController to gestures--><path d="M886.775,395.627 C903.762,396.058 921.694,396.514 937.257,396.909 " fill="none" id="GestureController-gestures" style="stroke: #000000; stroke-width: 0.55;"/><polygon fill="#000000" points="942.439,397.041,933.5436,392.8134,937.4406,396.9139,933.3402,400.8109,942.439,397.041" style="stroke: #000000; stroke-width: 0.55;"/><!--link gestures to Region--><path d="M1017.33,402.682 C1037.79,405.41 1063.44,408.83 1083.63,411.521 " fill="none" id="gestures-Region" style="stroke: #000000; stroke-width: 0.55; stroke-dasharray: 1.0,3.0;"/><polygon fill="#000000" points="1088.63,412.189,1080.2339,407.0406,1083.6734,411.5317,1079.1823,414.9712,1088.63,412.189" style="stroke: #000000; stroke-width: 0.55;"/><!--link Hittable to Interactable--><path d="M1151.8,175 C1169.28,175 1191.3,175 1211.45,175 " fill="none" id="Hittable-Interactable" style="stroke: #000000; stroke-width: 0.55; stroke-dasharray: 1.0,3.0;"/><polygon fill="#000000" points="1216.52,175,1207.52,171,1211.52,175,1207.52,179,1216.52,175" style="stroke: #000000; stroke-width: 0.55;"/><!--link <b>index</b> to predefined--><path d="M132.714,642.707 C132.714,625.598 132.714,608.489 132.714,591.38 " fill="none" id="&lt;b&gt;index&lt;/b&gt;-predefined" style="stroke: #000000; stroke-width: 1.0;"/><polygon fill="#000000" points="132.714,586.07,128.714,595.07,132.714,591.07,136.714,595.07,132.714,586.07" style="stroke: #000000; stroke-width: 1.0;"/><!--link <b>index</b> to server--><path d="M105.4563,653.935 C79.1463,650.291 40.8529,640.231 23.7142,612.5 C-6.8951,562.973 9.8818,538.055 23.7142,481.5 C42.7313,403.746 96.1378,322.74 120.42,288.665 " fill="none" id="&lt;b&gt;index&lt;/b&gt;-server" style="stroke: #000000; stroke-width: 1.0;"/><polygon fill="#000000" points="123.509,284.364,115.0098,289.3404,120.5921,288.425,121.5075,294.0073,123.509,284.364" style="stroke: #000000; stroke-width: 1.0;"/><!--link Input to PointerData--><path d="M1459.22,406 C1481.2,406 1515.16,406 1544.14,406 " fill="none" id="Input-PointerData" style="stroke: #000000; stroke-width: 0.55; stroke-dasharray: 1.0,3.0;"/><polygon fill="#000000" points="1549.48,406,1540.48,402,1544.48,406,1540.48,410,1549.48,406" style="stroke: #000000; stroke-width: 0.55;"/><!--link Interactable to Lockable--><path d="M1297.25,186.047 C1327.03,197.995 1374.32,216.969 1404.81,229.202 " fill="none" id="Interactable-Lockable" style="stroke: #000000; stroke-width: 0.55; stroke-dasharray: 1.0,3.0;"/><polygon fill="#000000" points="1409.55,231.105,1402.6808,224.0471,1404.908,229.2471,1399.7081,231.4743,1409.55,231.105" style="stroke: #000000; stroke-width: 0.55;"/><!--link Interactable to Publishable--><path d="M1314.23,168.505 C1336.7,165.227 1363.96,161.249 1386.82,157.914 " fill="none" id="Interactable-Publishable" style="stroke: #000000; stroke-width: 0.55; stroke-dasharray: 1.0,3.0;"/><polygon fill="#000000" points="1391.93,157.169,1382.4509,154.4958,1386.9813,157.8833,1383.5938,162.4137,1391.93,157.169" style="stroke: #000000; stroke-width: 0.55;"/><!--link Interactable to Transformable2D--><path d="M1291.22,163.234 C1319.94,147.521 1370.99,119.593 1403.68,101.704 " fill="none" id="Interactable-Transformable2D" style="stroke: #000000; stroke-width: 0.55; stroke-dasharray: 1.0,3.0;"/><polygon fill="#000000" points="1408.37,99.14,1398.5545,99.9502,1403.9835,101.5397,1402.394,106.9686,1408.37,99.14" style="stroke: #000000; stroke-width: 0.55;"/><!--link Interactor to Transform--><path d="M342.592,731 C365.434,731 393.628,731 417.319,731 " fill="none" id="Interactor-Transform" style="stroke: #000000; stroke-width: 0.55; stroke-dasharray: 1.0,3.0;"/><polygon fill="#000000" points="422.613,731,413.613,727,417.613,731,413.613,735,422.613,731" style="stroke: #000000; stroke-width: 0.55;"/><!--link mixins to Hittable--><path d="M1010.19,177.378 C1030.21,176.934 1057.39,176.329 1079.35,175.841 " fill="none" id="mixins-Hittable" style="stroke: #000000; stroke-width: 0.55; stroke-dasharray: 1.0,3.0;"/><polygon fill="#000000" points="1084.52,175.726,1075.4418,171.9068,1079.521,175.826,1075.6018,179.9052,1084.52,175.726" style="stroke: #000000; stroke-width: 0.55;"/><!--link mixins to Identifiable--><path d="M1000.141,187.959 C1023.6,200.992 1064.86,223.917 1091.61,238.776 " fill="none" id="mixins-Identifiable" style="stroke: #000000; stroke-width: 0.55; stroke-dasharray: 1.0,3.0;"/><polygon fill="#000000" points="1096.1,241.27,1090.1752,233.4026,1091.7292,238.8418,1086.29,240.3958,1096.1,241.27" style="stroke: #000000; stroke-width: 0.55;"/><!--link mixins to Interactable--><path d="M1004.923,185.69 C1022.4,191.186 1047.28,198.101 1069.71,201 C1112.47,206.525 1123.94,206.417 1166.71,201 C1188.39,198.255 1212.07,192.322 1231.05,186.816 " fill="none" id="mixins-Interactable" style="stroke: #000000; stroke-width: 0.55; stroke-dasharray: 1.0,3.0;"/><polygon fill="#000000" points="1236.27,185.277,1226.5061,183.9861,1231.4742,186.6913,1228.769,191.6594,1236.27,185.277" style="stroke: #000000; stroke-width: 0.55;"/><!--link mixins to Lockable--><path d="M988.477,190.667 C1000.539,213.429 1029.41,260.59 1069.71,279 C1185.34,331.812 1342.5,279.044 1405.94,253.328 " fill="none" id="mixins-Lockable" style="stroke: #000000; stroke-width: 0.55; stroke-dasharray: 1.0,3.0;"/><polygon fill="#000000" points="1410.7,251.375,1400.8552,251.0934,1406.0747,253.2742,1403.8939,258.4938,1410.7,251.375" style="stroke: #000000; stroke-width: 0.55;"/><!--link mixins to Locker--><path d="M1003.308,169.562 C1026.81,160.163 1064.85,144.946 1090.43,134.713 " fill="none" id="mixins-Locker" style="stroke: #000000; stroke-width: 0.55; stroke-dasharray: 1.0,3.0;"/><polygon fill="#000000" points="1095.37,132.736,1085.5281,132.3646,1090.7276,134.593,1088.4993,139.7924,1095.37,132.736" style="stroke: #000000; stroke-width: 0.55;"/><!--link mixins to Publishable--><path d="M990.974,165.672 C1005.065,147.037 1034.76,112.446 1069.71,99 C1188.33,53.375 1342.56,109.983 1405.54,137.548 " fill="none" id="mixins-Publishable" style="stroke: #000000; stroke-width: 0.55; stroke-dasharray: 1.0,3.0;"/><polygon fill="#000000" points="1410.27,139.641,1403.6652,132.3351,1405.6995,137.6135,1400.4211,139.6479,1410.27,139.641" style="stroke: #000000; stroke-width: 0.55;"/><!--link mixins to Transformable2D--><path d="M989.082,165.382 C1001.706,143.689 1030.9,100.018 1069.71,83 C1174.42,37.089 1312.87,56.974 1385.3,72.654 " fill="none" id="mixins-Transformable2D" style="stroke: #000000; stroke-width: 0.55; stroke-dasharray: 1.0,3.0;"/><polygon fill="#000000" points="1390.4,73.775,1382.4661,67.9395,1385.5161,72.7037,1380.752,75.7537,1390.4,73.775" style="stroke: #000000; stroke-width: 0.55;"/><!--link PointerData to PHASE--><path d="M1650.87,406 C1665.69,406 1681.57,406 1695.1,406 " fill="none" id="PointerData-PHASE" style="stroke: #000000; stroke-width: 0.55; stroke-dasharray: 1.0,3.0;"/><polygon fill="#000000" points="1700.36,406,1691.36,402,1695.36,406,1691.36,410,1700.36,406" style="stroke: #000000; stroke-width: 0.55;"/><!--link predefined to items--><path d="M173.414,579.052 C202.92,583.55 242.487,589.581 268.98,593.62 " fill="none" id="predefined-items" style="stroke: #000000; stroke-width: 0.55; stroke-dasharray: 1.0,3.0;"/><polygon fill="#000000" points="274.097,594.4,265.8034,589.0881,269.1542,593.6457,264.5966,596.9965,274.097,594.4" style="stroke: #000000; stroke-width: 0.55;"/><!--link predefined to layouts--><path d="M172.996,566.772 C200.447,562.42 236.76,556.663 263.119,552.485 " fill="none" id="predefined-layouts" style="stroke: #000000; stroke-width: 0.55; stroke-dasharray: 1.0,3.0;"/><polygon fill="#000000" points="268.253,551.671,258.7377,549.1294,263.3147,552.4538,259.9902,557.0307,268.253,551.671" style="stroke: #000000; stroke-width: 0.55;"/><!--link predefined to utilities--><path d="M157.211,561.968 C187.729,547.639 240.806,522.719 272.256,507.953 " fill="none" id="predefined-utilities" style="stroke: #000000; stroke-width: 0.55; stroke-dasharray: 1.0,3.0;"/><polygon fill="#000000" points="277.111,505.674,267.2643,505.8785,272.5851,507.7991,270.6645,513.12,277.111,505.674" style="stroke: #000000; stroke-width: 0.55;"/><!--link Region to Binding--><path d="M1144.41,422.955 C1169.8,429.967 1209.06,440.805 1236.43,448.363 " fill="none" id="Region-Binding" style="stroke: #000000; stroke-width: 0.55; stroke-dasharray: 1.0,3.0;"/><polygon fill="#000000" points="1241.4,449.734,1233.787,443.4857,1236.5799,448.405,1231.6605,451.1979,1241.4,449.734" style="stroke: #000000; stroke-width: 0.55;"/><!--link Region to PHASE--><path d="M1148.54,418.349 C1245.17,425.858 1552.87,447.878 1650.71,432 C1668.82,429.062 1688.39,422.525 1703.41,416.741 " fill="none" id="Region-PHASE" style="stroke: #000000; stroke-width: 0.55; stroke-dasharray: 1.0,3.0;"/><polygon fill="#000000" points="1708.32,414.814,1698.4806,414.3821,1703.6663,416.6424,1701.406,421.828,1708.32,414.814" style="stroke: #000000; stroke-width: 0.55;"/><!--link Region to State--><path d="M1145.08,409.555 C1172.15,402.811 1214.41,392.281 1241.58,385.512 " fill="none" id="Region-State" style="stroke: #000000; stroke-width: 0.55; stroke-dasharray: 1.0,3.0;"/><polygon fill="#000000" points="1246.47,384.294,1236.7681,382.5989,1241.6196,385.508,1238.7105,390.3595,1246.47,384.294" style="stroke: #000000; stroke-width: 0.55;"/><!--link server to Application--><path d="M160.429,272 C183.499,272 217.498,272 245.889,272 " fill="none" id="server-Application" style="stroke: #000000; stroke-width: 0.55; stroke-dasharray: 1.0,3.0;"/><polygon fill="#000000" points="251.121,272,242.121,268,246.121,272,242.121,276,251.121,272" style="stroke: #000000; stroke-width: 0.55;"/><!--link server to Router--><path d="M157.095,265.812 C216.307,250.141 372.074,208.915 437.074,191.712 " fill="none" id="server-Router" style="stroke: #000000; stroke-width: 0.55; stroke-dasharray: 1.0,3.0;"/><polygon fill="#000000" points="441.966,190.418,432.242,188.8548,437.1326,191.6978,434.2896,196.5884,441.966,190.418" style="stroke: #000000; stroke-width: 0.55;"/><!--link ServerController to Device--><path d="M682.948,328.808 C715.467,319.411 761.249,306.183 790.952,297.6 " fill="none" id="ServerController-Device" style="stroke: #000000; stroke-width: 0.55; stroke-dasharray: 1.0,3.0;"/><polygon fill="#000000" points="795.939,296.159,786.1821,294.816,791.1357,297.5477,788.404,302.5013,795.939,296.159" style="stroke: #000000; stroke-width: 0.55;"/><!--link ServerElement to mixins--><path d="M668.043,118.344 C716.395,94.516 828.417,48.849 910.714,89 C941.182,103.865 962.2,139.256 972.633,160.661 " fill="none" id="ServerElement-mixins" style="stroke: #000000; stroke-width: 0.55;"/><polygon fill="#000000" points="974.818,165.262,974.572,155.4162,972.6738,160.7451,967.345,158.8469,974.818,165.262" style="stroke: #000000; stroke-width: 0.55;"/><!--link ServerGroup to mixins--><path d="M675.62,172.598 C685.851,168.649 697.055,163.707 706.714,158 C731.456,143.381 729.654,126.676 756.714,117 C821.162,93.955 846.662,92.877 910.714,117 C934.335,125.896 955.156,146.872 967.707,161.736 " fill="none" id="ServerGroup-mixins" style="stroke: #000000; stroke-width: 0.55;"/><polygon fill="#000000" points="971.023,165.751,968.3745,156.2649,967.8384,161.8963,962.207,161.3603,971.023,165.751" style="stroke: #000000; stroke-width: 0.55;"/><!--link ServerImage to mixins--><path d="M675.602,224.03 C685.833,219.913 697.04,214.806 706.714,209 C731.355,194.212 729.654,177.676 756.714,168 C823.096,144.263 907.698,159.212 951.315,169.922 " fill="none" id="ServerImage-mixins" style="stroke: #000000; stroke-width: 0.55;"/><polygon fill="#000000" points="956.172,171.139,948.4146,165.0708,951.322,169.9233,946.4695,172.8307,956.172,171.139" style="stroke: #000000; stroke-width: 0.55;"/><!--link ServerItem to mixins--><path d="M673.736,276.856 C684.47,272.622 696.473,267.229 706.714,261 C731.51,245.919 730.457,231.363 756.714,219 C819.605,189.389 901.808,181.116 946.941,178.836 " fill="none" id="ServerItem-mixins" style="stroke: #000000; stroke-width: 0.55;"/><polygon fill="#000000" points="951.991,178.598,942.8124,175.0267,946.9966,178.8337,943.1896,183.0179,951.991,178.598" style="stroke: #000000; stroke-width: 0.55;"/><!--link ServerView to mixins--><path d="M865.461,335.133 C881.051,331.597 897.965,325.502 910.714,315 C948.891,283.552 968.229,225.768 975.987,196.311 " fill="none" id="ServerView-mixins" style="stroke: #000000; stroke-width: 0.55;"/><polygon fill="#000000" points="977.303,191.153,971.201,198.8838,976.0661,195.9976,978.9523,200.8628,977.303,191.153" style="stroke: #000000; stroke-width: 0.55;"/><!--link ServerViewGroup to GestureController--><path d="M706.938,394.645 C721.323,394.563 736.697,394.476 751.343,394.393 " fill="none" id="ServerViewGroup-GestureController" style="stroke: #000000; stroke-width: 0.55; stroke-dasharray: 1.0,3.0;"/><polygon fill="#000000" points="756.703,394.363,747.6803,390.4145,751.7031,394.3916,747.726,398.4144,756.703,394.363" style="stroke: #000000; stroke-width: 0.55;"/><!--link ServerViewGroup to mixins--><path d="M682.21,383.035 C691.005,378.969 699.8,373.705 706.714,367 C743.245,331.575 717.649,296.609 756.714,264 C811.268,218.461 845.631,249.533 910.714,221 C928.577,213.169 947.295,201.35 960.8,192.083 " fill="none" id="ServerViewGroup-mixins" style="stroke: #000000; stroke-width: 0.55;"/><polygon fill="#000000" points="965.171,189.048,955.4972,190.8965,961.0643,191.9001,960.0606,197.4672,965.171,189.048" style="stroke: #000000; stroke-width: 0.55;"/><!--link ServerViewGroup to ServerView--><path d="M682.512,383.066 C712.894,373.598 755.054,360.461 784.797,351.192 " fill="none" id="ServerViewGroup-ServerView" style="stroke: #000000; stroke-width: 0.55; stroke-dasharray: 1.0,3.0;"/><polygon fill="#000000" points="789.83,349.624,780.0475,348.4824,785.0564,351.1114,782.4274,356.1202,789.83,349.624" style="stroke: #000000; stroke-width: 0.55;"/><!--link State to Input--><path d="M1291.9,382.641 C1321.78,387.546 1374.93,396.27 1407.14,401.556 " fill="none" id="State-Input" style="stroke: #000000; stroke-width: 0.55; stroke-dasharray: 1.0,3.0;"/><polygon fill="#000000" points="1412.12,402.373,1403.8917,396.9606,1407.1868,401.5587,1402.5887,404.8538,1412.12,402.373" style="stroke: #000000; stroke-width: 0.55;"/><!--link State to PHASE--><path d="M1292.67,376.71 C1352.24,371.288 1516.47,359.651 1650.71,381 C1668.5,383.829 1687.79,389.98 1702.73,395.473 " fill="none" id="State-PHASE" style="stroke: #000000; stroke-width: 0.55; stroke-dasharray: 1.0,3.0;"/><polygon fill="#000000" points="1707.62,397.304,1700.5805,390.416,1702.934,395.56,1697.79,397.9135,1707.62,397.304" style="stroke: #000000; stroke-width: 0.55;"/><!--link Switchboard to ServerController--><path d="M520.42,340.7 C537.988,340.599 557.822,340.485 576.305,340.379 " fill="none" id="Switchboard-ServerController" style="stroke: #000000; stroke-width: 0.55; stroke-dasharray: 1.0,3.0;"/><polygon fill="#000000" points="581.48,340.349,572.4573,336.4005,576.4801,340.3776,572.503,344.4004,581.48,340.349" style="stroke: #000000; stroke-width: 0.55;"/><!--link Switchboard to ServerViewGroup--><path d="M500.942,351.157 C528.695,359.77 568.717,372.191 599.082,381.614 " fill="none" id="Switchboard-ServerViewGroup" style="stroke: #000000; stroke-width: 0.55; stroke-dasharray: 1.0,3.0;"/><polygon fill="#000000" points="603.869,383.1,596.4599,376.6111,599.0939,381.6173,594.0877,384.2513,603.869,383.1" style="stroke: #000000; stroke-width: 0.55;"/><!--link WorkSpace to ServerElement--><path d="M502.847,225.983 C513.944,222.126 525.892,216.889 535.714,210 C560.5,192.617 555.398,176.035 579.714,158 C587.003,152.594 595.543,148.001 603.926,144.221 " fill="none" id="WorkSpace-ServerElement" style="stroke: #000000; stroke-width: 0.55; stroke-dasharray: 1.0,3.0;"/><polygon fill="#000000" points="608.558,142.205,598.7094,142.1299,603.9736,144.2008,601.9027,149.4649,608.558,142.205" style="stroke: #000000; stroke-width: 0.55;"/><!--link WorkSpace to ServerGroup--><path d="M500.534,225.341 C529.827,216.587 573.028,203.676 604.018,194.415 " fill="none" id="WorkSpace-ServerGroup" style="stroke: #000000; stroke-width: 0.55; stroke-dasharray: 1.0,3.0;"/><polygon fill="#000000" points="608.882,192.961,599.1136,191.7046,604.0912,194.3922,601.4036,199.3698,608.882,192.961" style="stroke: #000000; stroke-width: 0.55;"/><!--link WorkSpace to ServerImage--><path d="M516.221,235 C536.988,235 561.493,235 583.344,235 " fill="none" id="WorkSpace-ServerImage" style="stroke: #000000; stroke-width: 0.55; stroke-dasharray: 1.0,3.0;"/><polygon fill="#000000" points="588.545,235,579.545,231,583.545,235,579.545,239,588.545,235" style="stroke: #000000; stroke-width: 0.55;"/><!--link WorkSpace to ServerItem--><path d="M500.534,244.659 C530.294,253.553 574.408,266.736 605.489,276.025 " fill="none" id="WorkSpace-ServerItem" style="stroke: #000000; stroke-width: 0.55; stroke-dasharray: 1.0,3.0;"/><polygon fill="#000000" points="610.361,277.481,602.8826,271.0722,605.5702,276.0498,600.5926,278.7374,610.361,277.481" style="stroke: #000000; stroke-width: 0.55;"/><script type="text/plantuml"><![CDATA[
@startuml

scale max 1920 width
left to right direction

skinparam nodesep 25
skinparam ranksep 50
skinparam monochrome true
skinparam shadowing false
skinparam defaultFontName Tahoma
skinparam defaultFontSize 12
skinparam roundCorner 4
skinparam dpi 150
skinparam arrowColor black
skinparam arrowThickness 0.55
skinparam packageTitleAlignment left

skinparam usecase {
  borderThickness 0.5
}

skinparam rectangle {
  borderThickness 0.5
}

skinparam component {
  borderThickness 1
}


(<b>client</b>)
(<b>index</b>)

package "Client" {
  (ClientController)
  (ClientElement)
  (ClientImage)
  (ClientItem)
  (ClientModel)
  (ClientView)
  (Interactor)
  (ShadowView)
  (Transform)
}

package "Server" {
  (Application)
  (Device)
  (GestureController)
  (MessageHandler)
  (Router)
  (server)
  (ServerController)
  (ServerElement)
  (ServerGroup)
  (ServerImage)
  (ServerItem)
  (ServerView)
  (ServerViewGroup)
  (Switchboard)
  (WorkSpace)
}

package "Predefined" {
  (items)
  (layouts)
  (predefined)
  (utilities)
}

package "Mixins" {
  (Hittable)
  (Identifiable)
  (Interactable)
  (Lockable)
  (Locker)
  (mixins)
  (Publishable)
  (Transformable2D)
}


package "Gestures" {
  (Binding)
  (gestures)
  (Input)
  (PHASE)
  (PointerData)
  (Region)
  (State)
}

(Application) ~~> (MessageHandler)
(Application) ~~> (Router)
(Application) ~~> (Switchboard)
(Application) ~~> (WorkSpace)
(<b>client</b>) -[thickness=1]> (ClientController)
(<b>client</b>) -[thickness=1]> (ClientModel)
(<b>client</b>) -[thickness=1]> (ClientView)
(ClientController) ~~> (Interactor)
(ClientModel) ~~> (ClientElement)
(ClientModel) ~~> (ClientImage)
(ClientModel) ~~> (ClientItem)
(ClientModel) ~~> (ShadowView)
(Device) --> (mixins)
(GestureController) --> (gestures)
(gestures) ~~> (Region)
(Hittable) ~~> (Interactable)
(<b>index</b>) -[thickness=1]> (predefined)
(<b>index</b>) -[thickness=1]> (server)
(Input) ~~> (PointerData)
(Interactable) ~~> (Lockable)
(Interactable) ~~> (Publishable)
(Interactable) ~~> (Transformable2D)
(Interactor) ~~> (Transform)
(mixins) ~~> (Hittable)
(mixins) ~~> (Identifiable)
(mixins) ~~> (Interactable)
(mixins) ~~> (Lockable)
(mixins) ~~> (Locker)
(mixins) ~~> (Publishable)
(mixins) ~~> (Transformable2D)
(PointerData) ~~> (PHASE)
(predefined) ~~> (items)
(predefined) ~~> (layouts)
(predefined) ~~> (utilities)
(Region) ~~> (Binding)
(Region) ~~> (PHASE)
(Region) ~~> (State)
(server) ~~> (Application)
(server) ~~> (Router)
(ServerController) ~~> (Device)
(ServerElement) --> (mixins)
(ServerGroup) --> (mixins)
(ServerImage) --> (mixins)
(ServerItem) --> (mixins)
(ServerView) --> (mixins)
(ServerViewGroup) ~~> (GestureController)
(ServerViewGroup) --> (mixins)
(ServerViewGroup) ~~> (ServerView)
(State) ~~> (Input)
(State) ~~> (PHASE)
(Switchboard) ~~> (ServerController)
(Switchboard) ~~> (ServerViewGroup)
(WorkSpace) ~~> (ServerElement)
(WorkSpace) ~~> (ServerGroup)
(WorkSpace) ~~> (ServerImage)
(WorkSpace) ~~> (ServerItem)

@enduml


' View and edit on https://arkit.pro
]]></script></g></svg>