<?xml version="1.0" encoding="UTF-8" standalone="no"?><svg xmlns="http://www.w3.org/2000/svg" xmlns:xlink="http://www.w3.org/1999/xlink" contentScriptType="application/ecmascript" contentStyleType="text/css" height="311px" preserveAspectRatio="none" style="width:206px;height:311px;" version="1.1" viewBox="0 0 206 311" width="206px" zoomAndPan="magnify"><defs/><g><!--cluster Gestures--><path d="M24,24 L86,24 A3,3 0 0 1 88,26 L95,44.4844 L192,44.4844 A2,2 0 0 1 194,46.4844 L194,297 A2,2 0 0 1 192,299 L24,299 A2,2 0 0 1 22,297 L22,26 A2,2 0 0 1 24,24 " fill="#FFFFFF" style="stroke: #000000; stroke-width: 1.5;"/><line style="stroke: #000000; stroke-width: 1.5;" x1="22" x2="95" y1="44.4844" y2="44.4844"/><text fill="#000000" font-family="Tahoma, sans-serif" font-size="12" font-weight="bold" lengthAdjust="spacingAndGlyphs" textLength="60" x="26" y="38.0059">Gestures</text><ellipse cx="71.1985" cy="120.242" fill="#F8F8F8" rx="32.6985" ry="13.242" style="stroke: #383838; stroke-width: 0.5;"/><text fill="#000000" font-family="Tahoma, sans-serif" font-size="12" lengthAdjust="spacingAndGlyphs" textLength="42" x="50.1985" y="123.9842">Binding</text><ellipse cx="126.2132" cy="170.242" fill="#F8F8F8" rx="24.2132" ry="13.242" style="stroke: #383838; stroke-width: 0.5;"/><text fill="#000000" font-family="Tahoma, sans-serif" font-size="12" lengthAdjust="spacingAndGlyphs" textLength="30" x="111.2132" y="173.9842">Input</text><ellipse cx="113.163" cy="270.242" fill="#F8F8F8" rx="29.163" ry="13.242" style="stroke: #383838; stroke-width: 0.5;"/><text fill="#000000" font-family="Tahoma, sans-serif" font-size="12" lengthAdjust="spacingAndGlyphs" textLength="37" x="94.663" y="273.9842">PHASE</text><ellipse cx="112.8762" cy="220.242" fill="#F8F8F8" rx="50.3762" ry="13.242" style="stroke: #383838; stroke-width: 0.5;"/><text fill="#000000" font-family="Tahoma, sans-serif" font-size="12" lengthAdjust="spacingAndGlyphs" textLength="67" x="79.3762" y="223.9842">PointerData</text><ellipse cx="117.0772" cy="70.242" fill="#F8F8F8" rx="30.5772" ry="13.242" style="stroke: #383838; stroke-width: 0.5;"/><text fill="#000000" font-family="Tahoma, sans-serif" font-size="12" lengthAdjust="spacingAndGlyphs" textLength="39" x="97.5772" y="73.9842">Region</text><ellipse cx="154.2132" cy="120.242" fill="#F8F8F8" rx="24.2132" ry="13.242" style="stroke: #383838; stroke-width: 0.5;"/><text fill="#000000" font-family="Tahoma, sans-serif" font-size="12" lengthAdjust="spacingAndGlyphs" textLength="30" x="139.2132" y="123.9842">State</text><!--link Input to PointerData--><path d="M122.72,183.112 C121.192,188.754 119.346,195.567 117.676,201.735 " fill="none" id="Input-PointerData" style="stroke: #000000; stroke-width: 0.55; stroke-dasharray: 1.0,3.0;"/><polygon fill="#000000" points="116.325,206.724,122.5389,199.0828,117.6322,201.8979,114.8172,196.9912,116.325,206.724" style="stroke: #000000; stroke-width: 0.55;"/><!--link PointerData to PHASE--><path d="M113,233.1124 C113,238.6409 113,245.2953 113,251.3644 " fill="none" id="PointerData-PHASE" style="stroke: #000000; stroke-width: 0.55; stroke-dasharray: 1.0,3.0;"/><polygon fill="#000000" points="113,256.7245,117,247.7245,113,251.7245,109,247.7245,113,256.7245" style="stroke: #000000; stroke-width: 0.55;"/><!--link Region to Binding--><path d="M105.8647,82.619 C99.7624,88.987 92.1257,96.956 85.5562,103.811 " fill="none" id="Region-Binding" style="stroke: #000000; stroke-width: 0.55; stroke-dasharray: 1.0,3.0;"/><polygon fill="#000000" points="82.0328,107.488,91.1474,103.7564,85.4918,103.8776,85.3706,98.222,82.0328,107.488" style="stroke: #000000; stroke-width: 0.55;"/><!--link Region to PHASE--><path d="M117.161,83.321 C116.932,96.157 115.439,116.639 109,133 C94.1856,170.644 68.3703,168.484 56,207 C52.4665,218.002 50.4221,222.8798 56,233 C62.5837,244.9449 74.9844,253.4746 86.5421,259.2233 " fill="none" id="Region-PHASE" style="stroke: #000000; stroke-width: 0.55; stroke-dasharray: 1.0,3.0;"/><polygon fill="#000000" points="91.0846,261.367,84.6527,253.9084,86.5629,259.233,81.2383,261.1432,91.0846,261.367" style="stroke: #000000; stroke-width: 0.55;"/><!--link Region to State--><path d="M125.957,82.619 C130.845,88.961 136.957,96.891 142.227,103.727 " fill="none" id="Region-State" style="stroke: #000000; stroke-width: 0.55; stroke-dasharray: 1.0,3.0;"/><polygon fill="#000000" points="145.381,107.818,143.0561,98.2475,142.3291,103.8574,136.7192,103.1305,145.381,107.818" style="stroke: #000000; stroke-width: 0.55;"/><!--link State to Input--><path d="M147.222,132.619 C143.645,138.751 139.202,146.368 135.307,153.045 " fill="none" id="State-Input" style="stroke: #000000; stroke-width: 0.55; stroke-dasharray: 1.0,3.0;"/><polygon fill="#000000" points="132.716,157.488,140.7045,151.7275,135.2343,153.1685,133.7933,147.6982,132.716,157.488" style="stroke: #000000; stroke-width: 0.55;"/><!--link State to PHASE--><path d="M160.073,132.64 C170.29,153.97 188.109,200.144 170,233 C163.416,244.9449 151.016,253.4746 139.458,259.2233 " fill="none" id="State-PHASE" style="stroke: #000000; stroke-width: 0.55; stroke-dasharray: 1.0,3.0;"/><polygon fill="#000000" points="134.915,261.367,144.7613,261.1427,139.4366,259.2328,141.3465,253.9081,134.915,261.367" style="stroke: #000000; stroke-width: 0.55;"/><script type="text/plantuml"><![CDATA[
@startuml

scale max 1920 width
top to bottom direction

skinparam nodesep 12
skinparam ranksep 24
skinparam monochrome true
skinparam shadowing false
skinparam defaultFontName Tahoma
skinparam defaultFontSize 12
skinparam roundCorner 4
skinparam dpi 150
skinparam arrowColor black
skinparam arrowThickness 0.55
skinparam packageTitleAlignment left

skinparam usecase {
  borderThickness 0.5
}

skinparam rectangle {
  borderThickness 0.5
}

skinparam component {
  borderThickness 1
}


package "Gestures" {
  (Binding)
  (Input)
  (PHASE)
  (PointerData)
  (Region)
  (State)
}

(Input) ~~> (PointerData)
(PointerData) ~~> (PHASE)
(Region) ~~> (Binding)
(Region) ~~> (PHASE)
(Region) ~~> (State)
(State) ~~> (Input)
(State) ~~> (PHASE)

@enduml


' View and edit on https://arkit.pro
]]></script></g></svg>