<?xml version="1.0" encoding="UTF-8" standalone="no"?><svg xmlns="http://www.w3.org/2000/svg" xmlns:xlink="http://www.w3.org/1999/xlink" contentScriptType="application/ecmascript" contentStyleType="text/css" height="315px" preserveAspectRatio="none" style="width:228px;height:315px;" version="1.1" viewBox="0 0 228 315" width="228px" zoomAndPan="magnify"><defs/><g><!--cluster Gestures--><path d="M24,24 L86,24 A3,3 0 0 1 88,26 L95,44.4844 L214,44.4844 A2,2 0 0 1 216,46.4844 L216,301 A2,2 0 0 1 214,303 L24,303 A2,2 0 0 1 22,301 L22,26 A2,2 0 0 1 24,24 " fill="#FFFFFF" style="stroke: #000000; stroke-width: 1.5;"/><line style="stroke: #000000; stroke-width: 1.5;" x1="22" x2="95" y1="44.4844" y2="44.4844"/><text fill="#000000" font-family="Tahoma, sans-serif" font-size="12" font-weight="bold" lengthAdjust="spacingAndGlyphs" textLength="60" x="26" y="38.0059">Gestures</text><ellipse cx="71.1985" cy="121.242" fill="#F8F8F8" rx="32.6985" ry="13.242" style="stroke: #383838; stroke-width: 0.5;"/><text fill="#000000" font-family="Tahoma, sans-serif" font-size="12" lengthAdjust="spacingAndGlyphs" textLength="42" x="50.1985" y="124.9842">Binding</text><ellipse cx="82.0122" cy="70.242" fill="#F8F8F8" rx="44.0122" ry="13.242" style="stroke: #383838; stroke-width: 0.5;"/><text fill="#000000" font-family="Tahoma, sans-serif" font-size="12" font-weight="bold" lengthAdjust="spacingAndGlyphs" textLength="58" x="53.0122" y="73.9842">gestures</text><ellipse cx="148.2132" cy="172.242" fill="#F8F8F8" rx="24.2132" ry="13.242" style="stroke: #383838; stroke-width: 0.5;"/><text fill="#000000" font-family="Tahoma, sans-serif" font-size="12" lengthAdjust="spacingAndGlyphs" textLength="30" x="133.2132" y="175.9842">Input</text><ellipse cx="135.163" cy="274.242" fill="#F8F8F8" rx="29.163" ry="13.242" style="stroke: #383838; stroke-width: 0.5;"/><text fill="#000000" font-family="Tahoma, sans-serif" font-size="12" lengthAdjust="spacingAndGlyphs" textLength="37" x="116.663" y="277.9842">PHASE</text><ellipse cx="134.8762" cy="223.242" fill="#F8F8F8" rx="50.3762" ry="13.242" style="stroke: #383838; stroke-width: 0.5;"/><text fill="#000000" font-family="Tahoma, sans-serif" font-size="12" lengthAdjust="spacingAndGlyphs" textLength="67" x="101.3762" y="226.9842">PointerData</text><ellipse cx="169.0772" cy="70.242" fill="#F8F8F8" rx="30.5772" ry="13.242" style="stroke: #383838; stroke-width: 0.5;"/><text fill="#000000" font-family="Tahoma, sans-serif" font-size="12" lengthAdjust="spacingAndGlyphs" textLength="39" x="149.5772" y="73.9842">Region</text><ellipse cx="169.2132" cy="121.242" fill="#F8F8F8" rx="24.2132" ry="13.242" style="stroke: #383838; stroke-width: 0.5;"/><text fill="#000000" font-family="Tahoma, sans-serif" font-size="12" lengthAdjust="spacingAndGlyphs" textLength="30" x="154.2132" y="124.9842">State</text><!--link <b>gestures</b> to Region--><path d="M126.18,70 C128.438,70 130.696,70 132.954,70 " fill="none" id="&lt;b&gt;gestures&lt;/b&gt;-Region" style="stroke: #000000; stroke-width: 1.0; stroke-dasharray: 1.0,3.0;"/><polygon fill="#000000" points="138.223,70,129.223,66,133.223,70,129.223,74,138.223,70" style="stroke: #000000; stroke-width: 1.0;"/><!--link Input to PointerData--><path d="M144.787,185.112 C143.236,190.958 141.346,198.079 139.643,204.501 " fill="none" id="Input-PointerData" style="stroke: #000000; stroke-width: 0.55; stroke-dasharray: 1.0,3.0;"/><polygon fill="#000000" points="138.267,209.687,144.4422,202.0145,139.5498,204.8544,136.7099,199.962,138.267,209.687" style="stroke: #000000; stroke-width: 0.55;"/><!--link PointerData to PHASE--><path d="M135,236.1124 C135,241.9576 135,249.0794 135,255.5008 " fill="none" id="PointerData-PHASE" style="stroke: #000000; stroke-width: 0.55; stroke-dasharray: 1.0,3.0;"/><polygon fill="#000000" points="135,260.6866,139,251.6866,135,255.6866,131,251.6866,135,260.6866" style="stroke: #000000; stroke-width: 0.55;"/><!--link Region to Binding--><path d="M150.105,80.448 C134.344,88.328 111.799,99.6 94.807,108.097 " fill="none" id="Region-Binding" style="stroke: #000000; stroke-width: 0.55; stroke-dasharray: 1.0,3.0;"/><polygon fill="#000000" points="90.1718,110.414,100.0105,109.9663,94.6438,108.1777,96.4324,102.811,90.1718,110.414" style="stroke: #000000; stroke-width: 0.55;"/><!--link Region to PHASE--><path d="M157.872,82.362 C137.017,104.586 92.8209,156.341 78,210 C74.9235,221.1385 72.4851,225.8453 78,236 C84.611,248.1731 97.1482,256.9631 108.785,262.9126 " fill="none" id="Region-PHASE" style="stroke: #000000; stroke-width: 0.55; stroke-dasharray: 1.0,3.0;"/><polygon fill="#000000" points="113.355,265.133,107.0088,257.6013,108.858,262.9474,103.5119,264.7966,113.355,265.133" style="stroke: #000000; stroke-width: 0.55;"/><!--link Region to State--><path d="M169,83.112 C169,88.958 169,96.079 169,102.501 " fill="none" id="Region-State" style="stroke: #000000; stroke-width: 0.55; stroke-dasharray: 1.0,3.0;"/><polygon fill="#000000" points="169,107.687,173,98.687,169,102.687,165,98.687,169,107.687" style="stroke: #000000; stroke-width: 0.55;"/><!--link State to Input--><path d="M163.916,133.862 C161.285,140.001 158.03,147.598 155.149,154.318 " fill="none" id="State-Input" style="stroke: #000000; stroke-width: 0.55; stroke-dasharray: 1.0,3.0;"/><polygon fill="#000000" points="153.037,159.248,160.2576,152.55,155.0057,154.6519,152.9038,149.4,153.037,159.248" style="stroke: #000000; stroke-width: 0.55;"/><!--link State to PHASE--><path d="M176.063,133.425 C188.313,154.842 210.501,201.934 192,236 C185.389,248.1731 172.852,256.9631 161.215,262.9126 " fill="none" id="State-PHASE" style="stroke: #000000; stroke-width: 0.55; stroke-dasharray: 1.0,3.0;"/><polygon fill="#000000" points="156.645,265.133,166.4881,264.7966,161.142,262.9474,162.9912,257.6013,156.645,265.133" style="stroke: #000000; stroke-width: 0.55;"/><script type="text/plantuml"><![CDATA[
@startuml

scale max 1920 width
top to bottom direction

skinparam nodesep 12
skinparam ranksep 25
skinparam monochrome true
skinparam shadowing false
skinparam defaultFontName Tahoma
skinparam defaultFontSize 12
skinparam roundCorner 4
skinparam dpi 150
skinparam arrowColor black
skinparam arrowThickness 0.55
skinparam packageTitleAlignment left

skinparam usecase {
  borderThickness 0.5
}

skinparam rectangle {
  borderThickness 0.5
}

skinparam component {
  borderThickness 1
}








package "Gestures" {
  (Binding)
  (<b>gestures</b>)
  (Input)
  (PHASE)
  (PointerData)
  (Region)
  (State)
}

(<b>gestures</b>) ~[thickness=1]> (Region)
(Input) ~~> (PointerData)
(PointerData) ~~> (PHASE)
(Region) ~~> (Binding)
(Region) ~~> (PHASE)
(Region) ~~> (State)
(State) ~~> (Input)
(State) ~~> (PHASE)

@enduml


' View and edit on https://arkit.herokuapp.com
]]></script></g></svg>