<?xml version="1.0" encoding="UTF-8" standalone="no"?><svg xmlns="http://www.w3.org/2000/svg" xmlns:xlink="http://www.w3.org/1999/xlink" contentScriptType="application/ecmascript" contentStyleType="text/css" height="357px" preserveAspectRatio="none" style="width:502px;height:357px;" version="1.1" viewBox="0 0 502 357" width="502px" zoomAndPan="magnify"><defs/><g><!--cluster Gestures--><path d="M24,50 L86,50 A3,3 0 0 1 88,52 L95,70.4844 L488,70.4844 A2,2 0 0 1 490,72.4844 L490,343 A2,2 0 0 1 488,345 L24,345 A2,2 0 0 1 22,343 L22,52 A2,2 0 0 1 24,50 " fill="#FFFFFF" style="stroke: #000000; stroke-width: 1.5;"/><line style="stroke: #000000; stroke-width: 1.5;" x1="22" x2="95" y1="70.4844" y2="70.4844"/><text fill="#000000" font-family="Tahoma, sans-serif" font-size="12" font-weight="bold" lengthAdjust="spacingAndGlyphs" textLength="60" x="26" y="64.0059">Gestures</text><ellipse cx="441.1985" cy="151.242" fill="#F8F8F8" rx="32.6985" ry="13.242" style="stroke: #383838; stroke-width: 0.5;"/><text fill="#000000" font-family="Tahoma, sans-serif" font-size="12" lengthAdjust="spacingAndGlyphs" textLength="42" x="420.1985" y="154.9842">Binding</text><ellipse cx="215.8198" cy="151.242" fill="#F8F8F8" rx="34.8198" ry="13.242" style="stroke: #383838; stroke-width: 0.5;"/><text fill="#000000" font-family="Tahoma, sans-serif" font-size="12" lengthAdjust="spacingAndGlyphs" textLength="45" x="193.3198" y="154.9842">Gesture</text><ellipse cx="399.2132" cy="206.242" fill="#F8F8F8" rx="24.2132" ry="13.242" style="stroke: #383838; stroke-width: 0.5;"/><text fill="#000000" font-family="Tahoma, sans-serif" font-size="12" lengthAdjust="spacingAndGlyphs" textLength="30" x="384.2132" y="209.9842">Input</text><ellipse cx="378.8492" cy="96.242" fill="#F8F8F8" rx="17.8492" ry="13.242" style="stroke: #383838; stroke-width: 0.5;"/><text fill="#000000" font-family="Tahoma, sans-serif" font-size="12" lengthAdjust="spacingAndGlyphs" textLength="21" x="368.3492" y="99.9842">Pan</text><ellipse cx="346.163" cy="316.242" fill="#F8F8F8" rx="29.163" ry="13.242" style="stroke: #383838; stroke-width: 0.5;"/><text fill="#000000" font-family="Tahoma, sans-serif" font-size="12" lengthAdjust="spacingAndGlyphs" textLength="37" x="327.663" y="319.9842">PHASE</text><ellipse cx="320.9203" cy="96.242" fill="#F8F8F8" rx="24.9203" ry="13.242" style="stroke: #383838; stroke-width: 0.5;"/><text fill="#000000" font-family="Tahoma, sans-serif" font-size="12" lengthAdjust="spacingAndGlyphs" textLength="31" x="305.4203" y="99.9842">Pinch</text><ellipse cx="412.8762" cy="261.242" fill="#F8F8F8" rx="50.3762" ry="13.242" style="stroke: #383838; stroke-width: 0.5;"/><text fill="#000000" font-family="Tahoma, sans-serif" font-size="12" lengthAdjust="spacingAndGlyphs" textLength="67" x="379.3762" y="264.9842">PointerData</text><ellipse cx="443.0772" cy="96.242" fill="#F8F8F8" rx="30.5772" ry="13.242" style="stroke: #383838; stroke-width: 0.5;"/><text fill="#000000" font-family="Tahoma, sans-serif" font-size="12" lengthAdjust="spacingAndGlyphs" textLength="39" x="423.5772" y="99.9842">Region</text><ellipse cx="252.163" cy="96.242" fill="#F8F8F8" rx="29.163" ry="13.242" style="stroke: #383838; stroke-width: 0.5;"/><text fill="#000000" font-family="Tahoma, sans-serif" font-size="12" lengthAdjust="spacingAndGlyphs" textLength="37" x="233.663" y="99.9842">Rotate</text><ellipse cx="369.2132" cy="151.242" fill="#F8F8F8" rx="24.2132" ry="13.242" style="stroke: #383838; stroke-width: 0.5;"/><text fill="#000000" font-family="Tahoma, sans-serif" font-size="12" lengthAdjust="spacingAndGlyphs" textLength="30" x="354.2132" y="154.9842">State</text><ellipse cx="181.0416" cy="96.242" fill="#F8F8F8" rx="27.0416" ry="13.242" style="stroke: #383838; stroke-width: 0.5;"/><text fill="#000000" font-family="Tahoma, sans-serif" font-size="12" lengthAdjust="spacingAndGlyphs" textLength="34" x="164.0416" y="99.9842">Swipe</text><ellipse cx="120.8492" cy="96.242" fill="#F8F8F8" rx="17.8492" ry="13.242" style="stroke: #383838; stroke-width: 0.5;"/><text fill="#000000" font-family="Tahoma, sans-serif" font-size="12" lengthAdjust="spacingAndGlyphs" textLength="21" x="110.3492" y="99.9842">Tap</text><ellipse cx="62.9203" cy="96.242" fill="#F8F8F8" rx="24.9203" ry="13.242" style="stroke: #383838; stroke-width: 0.5;"/><text fill="#000000" font-family="Tahoma, sans-serif" font-size="12" lengthAdjust="spacingAndGlyphs" textLength="31" x="47.4203" y="99.9842">Track</text><ellipse cx="252.0122" cy="21.242" fill="#F8F8F8" rx="44.0122" ry="13.242" style="stroke: #383838; stroke-width: 0.5;"/><text fill="#000000" font-family="Tahoma, sans-serif" font-size="12" font-weight="bold" lengthAdjust="spacingAndGlyphs" textLength="58" x="223.0122" y="24.9842">gestures</text><!--link <b>gestures</b> to Pan--><path d="M292.381,26.163 C316.551,29.362 344.391,34.514 354,42 C365.376,50.863 371.819,66.16 375.304,78.049 " fill="none" id="&lt;b&gt;gestures&lt;/b&gt;-Pan" style="stroke: #000000; stroke-width: 1.0;"/><polygon fill="#000000" points="376.622,82.907,378.1245,73.1734,375.3121,78.0816,370.4039,75.2693,376.622,82.907" style="stroke: #000000; stroke-width: 1.0;"/><!--link <b>gestures</b> to Pinch--><path d="M275.196,32.079 C280.091,34.852 284.984,38.17 289,42 C299.891,52.384 308.44,67.261 313.952,78.612 " fill="none" id="&lt;b&gt;gestures&lt;/b&gt;-Pinch" style="stroke: #000000; stroke-width: 1.0;"/><polygon fill="#000000" points="316.126,83.237,315.9177,73.3903,313.9991,78.7119,308.6776,76.7933,316.126,83.237" style="stroke: #000000; stroke-width: 1.0;"/><!--link <b>gestures</b> to Region--><path d="M295.221,23.836 C333.839,26.157 387.014,31.234 405,42 C419.065,50.419 429.375,66.267 435.679,78.449 " fill="none" id="&lt;b&gt;gestures&lt;/b&gt;-Region" style="stroke: #000000; stroke-width: 1.0;"/><polygon fill="#000000" points="437.977,83.08,437.5587,73.24,435.7541,78.6013,430.3928,76.7967,437.977,83.08" style="stroke: #000000; stroke-width: 1.0;"/><!--link <b>gestures</b> to Rotate--><path d="M252,34.054 C252,45.924 252,64.176 252,77.613 " fill="none" id="&lt;b&gt;gestures&lt;/b&gt;-Rotate" style="stroke: #000000; stroke-width: 1.0;"/><polygon fill="#000000" points="252,82.684,256,73.684,252,77.684,248,73.684,252,82.684" style="stroke: #000000; stroke-width: 1.0;"/><!--link <b>gestures</b> to Swipe--><path d="M228.88,32.16 C223.982,34.929 219.068,38.225 215,42 C203.781,52.41 194.664,67.285 188.706,78.628 " fill="none" id="&lt;b&gt;gestures&lt;/b&gt;-Swipe" style="stroke: #000000; stroke-width: 1.0;"/><polygon fill="#000000" points="186.348,83.249,194,77.0484,188.6194,78.7947,186.8731,73.4142,186.348,83.249" style="stroke: #000000; stroke-width: 1.0;"/><!--link <b>gestures</b> to Tap--><path d="M211.159,25.86 C185.792,28.976 156.148,34.152 146,42 C134.592,50.822 128.153,66.124 124.677,78.025 " fill="none" id="&lt;b&gt;gestures&lt;/b&gt;-Tap" style="stroke: #000000; stroke-width: 1.0;"/><polygon fill="#000000" points="123.363,82.888,129.5721,75.2429,124.6672,78.0611,121.8491,73.1562,123.363,82.888" style="stroke: #000000; stroke-width: 1.0;"/><!--link <b>gestures</b> to Track--><path d="M208.59,23.342 C168.732,25.313 113.191,30.156 95,42 C82.0744,50.416 73.5848,66.05 68.6194,78.166 " fill="none" id="&lt;b&gt;gestures&lt;/b&gt;-Track" style="stroke: #000000; stroke-width: 1.0;"/><polygon fill="#000000" points="66.7045,83.112,73.6847,76.1639,68.5102,78.4494,66.2246,73.2748,66.7045,83.112" style="stroke: #000000; stroke-width: 1.0;"/><!--link Input to PointerData--><path d="M402.177,219.027 C404.038,226.074 406.42,235.091 408.476,242.872 " fill="none" id="Input-PointerData" style="stroke: #000000; stroke-width: 0.55; stroke-dasharray: 1.0,3.0;"/><polygon fill="#000000" points="409.836,248.021,411.4045,238.2978,408.5589,243.1869,403.6699,240.3412,409.836,248.021" style="stroke: #000000; stroke-width: 0.55;"/><!--link Pan to Gesture--><path d="M364.894,104.251 C361.382,105.922 357.593,107.614 354,109 C318.876,122.549 277.311,134.348 249.043,141.765 " fill="none" id="Pan-Gesture" style="stroke: #000000; stroke-width: 0.55; stroke-dasharray: 1.0,3.0;"/><polygon fill="#000000" points="243.924,143.099,253.642,144.6992,248.7623,141.8376,251.6238,136.9579,243.924,143.099" style="stroke: #000000; stroke-width: 0.55;"/><!--link Pinch to Gesture--><path d="M303.661,105.752 C286.371,114.479 259.663,127.96 240.27,137.749 " fill="none" id="Pinch-Gesture" style="stroke: #000000; stroke-width: 0.55; stroke-dasharray: 1.0,3.0;"/><polygon fill="#000000" points="235.507,140.153,245.3439,139.6668,239.9702,137.8992,241.7378,132.5256,235.507,140.153" style="stroke: #000000; stroke-width: 0.55;"/><!--link PointerData to PHASE--><path d="M398.462,273.5002 C388.269,281.5633 374.584,292.3889 363.747,300.9616 " fill="none" id="PointerData-PHASE" style="stroke: #000000; stroke-width: 0.55; stroke-dasharray: 1.0,3.0;"/><polygon fill="#000000" points="359.596,304.2447,369.1364,301.7991,363.5177,301.1431,364.1738,295.5244,359.596,304.2447" style="stroke: #000000; stroke-width: 0.55;"/><!--link Region to Binding--><path d="M442.546,109.027 C442.284,115.975 441.95,124.838 441.659,132.542 " fill="none" id="Region-Binding" style="stroke: #000000; stroke-width: 0.55; stroke-dasharray: 1.0,3.0;"/><polygon fill="#000000" points="441.466,137.653,445.8026,128.8103,441.6546,132.6566,437.8083,128.5085,441.466,137.653" style="stroke: #000000; stroke-width: 0.55;"/><!--link Region to PHASE--><path d="M419.819,104.509 C390.393,114.272 342.843,130.91 338,138 C304.239,187.427 326.425,263.98 339.012,297.8633 " fill="none" id="Region-PHASE" style="stroke: #000000; stroke-width: 0.55; stroke-dasharray: 1.0,3.0;"/><polygon fill="#000000" points="340.939,302.9244,341.4738,293.0901,339.1594,298.2518,333.9976,295.9374,340.939,302.9244" style="stroke: #000000; stroke-width: 0.55;"/><!--link Region to State--><path d="M428.38,107.471 C416.422,116.036 399.467,128.179 386.735,137.298 " fill="none" id="Region-State" style="stroke: #000000; stroke-width: 0.55; stroke-dasharray: 1.0,3.0;"/><polygon fill="#000000" points="382.592,140.265,392.2382,138.2773,386.6572,137.3539,387.5805,131.773,382.592,140.265" style="stroke: #000000; stroke-width: 0.55;"/><!--link Rotate to Gesture--><path d="M244.01,108.762 C238.977,116.173 232.412,125.838 226.903,133.949 " fill="none" id="Rotate-Gesture" style="stroke: #000000; stroke-width: 0.55; stroke-dasharray: 1.0,3.0;"/><polygon fill="#000000" points="223.967,138.27,232.3335,133.0737,226.777,134.1343,225.7164,128.5778,223.967,138.27" style="stroke: #000000; stroke-width: 0.55;"/><!--link State to Input--><path d="M375.658,163.762 C379.775,171.036 385.121,180.481 389.658,188.497 " fill="none" id="State-Input" style="stroke: #000000; stroke-width: 0.55; stroke-dasharray: 1.0,3.0;"/><polygon fill="#000000" points="392.361,193.27,391.409,183.4673,389.8982,188.9186,384.4468,187.4078,392.361,193.27" style="stroke: #000000; stroke-width: 0.55;"/><!--link State to PHASE--><path d="M367.188,164.117 C364.476,182.32 359.229,217.809 355,248 C352.643,264.8278 350.073,284.0515 348.285,297.5787 " fill="none" id="State-PHASE" style="stroke: #000000; stroke-width: 0.55; stroke-dasharray: 1.0,3.0;"/><polygon fill="#000000" points="347.617,302.6456,352.7596,294.246,348.2708,297.6885,344.8283,293.1998,347.617,302.6456" style="stroke: #000000; stroke-width: 0.55;"/><!--link Swipe to Gesture--><path d="M188.594,108.5 C193.48,115.898 199.901,125.622 205.3,133.797 " fill="none" id="Swipe-Gesture" style="stroke: #000000; stroke-width: 0.55; stroke-dasharray: 1.0,3.0;"/><polygon fill="#000000" points="208.178,138.155,206.5585,128.4402,205.4236,133.982,199.8818,132.8472,208.178,138.155" style="stroke: #000000; stroke-width: 0.55;"/><!--link Tap to Gesture--><path d="M134.611,104.594 C149.935,113.143 175.079,127.17 193.37,137.375 " fill="none" id="Tap-Gesture" style="stroke: #000000; stroke-width: 0.55; stroke-dasharray: 1.0,3.0;"/><polygon fill="#000000" points="197.862,139.881,191.9514,132.0029,193.4956,137.4449,188.0536,138.9891,197.862,139.881" style="stroke: #000000; stroke-width: 0.55;"/><!--link Track to Gesture--><path d="M82.254,104.334 C86.4463,105.899 90.8647,107.524 95,109 C125.943,120.041 161.588,132.032 186.134,140.177 " fill="none" id="Track-Gesture" style="stroke: #000000; stroke-width: 0.55; stroke-dasharray: 1.0,3.0;"/><polygon fill="#000000" points="190.891,141.753,183.6064,135.1247,186.1449,140.18,181.0896,142.7185,190.891,141.753" style="stroke: #000000; stroke-width: 0.55;"/><script type="text/plantuml"><![CDATA[
@startuml

scale max 1920 width
top to bottom direction

skinparam nodesep 15
skinparam ranksep 29
skinparam monochrome true
skinparam shadowing false
skinparam defaultFontName Tahoma
skinparam defaultFontSize 12
skinparam roundCorner 4
skinparam dpi 150
skinparam arrowColor black
skinparam arrowThickness 0.55
skinparam packageTitleAlignment left

skinparam usecase {
  borderThickness 0.5
}

skinparam rectangle {
  borderThickness 0.5
}

skinparam component {
  borderThickness 1
}


(<b>gestures</b>)






package "Gestures" {
  (Binding)
  (Gesture)
  (Input)
  (Pan)
  (PHASE)
  (Pinch)
  (PointerData)
  (Region)
  (Rotate)
  (State)
  (Swipe)
  (Tap)
  (Track)
}

(<b>gestures</b>) --[thickness=1]> (Pan)
(<b>gestures</b>) --[thickness=1]> (Pinch)
(<b>gestures</b>) --[thickness=1]> (Region)
(<b>gestures</b>) --[thickness=1]> (Rotate)
(<b>gestures</b>) --[thickness=1]> (Swipe)
(<b>gestures</b>) --[thickness=1]> (Tap)
(<b>gestures</b>) --[thickness=1]> (Track)
(Input) ~~> (PointerData)
(Pan) ~~> (Gesture)
(Pinch) ~~> (Gesture)
(PointerData) ~~> (PHASE)
(Region) ~~> (Binding)
(Region) ~~> (PHASE)
(Region) ~~> (State)
(Rotate) ~~> (Gesture)
(State) ~~> (Input)
(State) ~~> (PHASE)
(Swipe) ~~> (Gesture)
(Tap) ~~> (Gesture)
(Track) ~~> (Gesture)

@enduml


' View and edit on https://arkit.herokuapp.com
]]></script></g></svg>