<?xml version="1.0" encoding="UTF-8" standalone="no"?><svg xmlns="http://www.w3.org/2000/svg" xmlns:xlink="http://www.w3.org/1999/xlink" contentScriptType="application/ecmascript" contentStyleType="text/css" height="218px" preserveAspectRatio="none" style="width:396px;height:218px;" version="1.1" viewBox="0 0 396 218" width="396px" zoomAndPan="magnify"><defs/><g><!--cluster Mixins--><path d="M24,24 L67,24 A3,3 0 0 1 69,26 L76,44.4844 L382,44.4844 A2,2 0 0 1 384,46.4844 L384,204 A2,2 0 0 1 382,206 L24,206 A2,2 0 0 1 22,204 L22,26 A2,2 0 0 1 24,24 " fill="#FFFFFF" style="stroke: #000000; stroke-width: 1.5;"/><line style="stroke: #000000; stroke-width: 1.5;" x1="22" x2="76" y1="44.4844" y2="44.4844"/><text fill="#000000" font-family="Tahoma, sans-serif" font-size="12" font-weight="bold" lengthAdjust="spacingAndGlyphs" textLength="41" x="26" y="38.0059">Mixins</text><ellipse cx="252.9056" cy="70.242" fill="#F8F8F8" rx="33.4056" ry="13.242" style="stroke: #383838; stroke-width: 0.5;"/><text fill="#000000" font-family="Tahoma, sans-serif" font-size="12" lengthAdjust="spacingAndGlyphs" textLength="43" x="231.4056" y="73.9842">Hittable</text><ellipse cx="158.7548" cy="70.242" fill="#F8F8F8" rx="48.2548" ry="13.242" style="stroke: #383838; stroke-width: 0.5;"/><text fill="#000000" font-family="Tahoma, sans-serif" font-size="12" lengthAdjust="spacingAndGlyphs" textLength="64" x="126.7548" y="73.9842">Identifiable</text><ellipse cx="214.7904" cy="121.242" fill="#F8F8F8" rx="51.7904" ry="13.242" style="stroke: #383838; stroke-width: 0.5;"/><text fill="#000000" font-family="Tahoma, sans-serif" font-size="12" lengthAdjust="spacingAndGlyphs" textLength="69" x="180.2904" y="124.9842">Interactable</text><ellipse cx="77.0624" cy="174.742" fill="#F8F8F8" rx="39.0624" ry="13.242" style="stroke: #383838; stroke-width: 0.5;"/><text fill="#000000" font-family="Tahoma, sans-serif" font-size="12" lengthAdjust="spacingAndGlyphs" textLength="51" x="51.5624" y="178.4842">Lockable</text><ellipse cx="67.8701" cy="70.242" fill="#F8F8F8" rx="29.8701" ry="13.242" style="stroke: #383838; stroke-width: 0.5;"/><text fill="#000000" font-family="Tahoma, sans-serif" font-size="12" lengthAdjust="spacingAndGlyphs" textLength="38" x="48.8701" y="73.9842">Locker</text><ellipse cx="176.9619" cy="174.742" fill="#F8F8F8" rx="48.9619" ry="13.242" style="stroke: #383838; stroke-width: 0.5;"/><text fill="#000000" font-family="Tahoma, sans-serif" font-size="12" lengthAdjust="spacingAndGlyphs" textLength="65" x="144.4619" y="178.4842">Publishable</text><ellipse cx="302.8309" cy="174.2662" fill="#F8F8F8" rx="64.3309" ry="15.2662" style="stroke: #383838; stroke-width: 0.5;"/><text fill="#000000" font-family="Tahoma, sans-serif" font-size="12" lengthAdjust="spacingAndGlyphs" textLength="99" x="253.3309" y="178.0084">Transformable2D</text><!--link Hittable to Interactable--><path d="M243.995,82.612 C239.051,88.987 232.845,96.989 227.445,103.953 " fill="none" id="Hittable-Interactable" style="stroke: #000000; stroke-width: 0.55; stroke-dasharray: 1.0,3.0;"/><polygon fill="#000000" points="224.205,108.131,232.8812,103.4702,227.2691,104.1799,226.5594,98.5677,224.205,108.131" style="stroke: #000000; stroke-width: 0.55;"/><!--link Interactable to Lockable--><path d="M187.736,132.1747 C164.416,140.8775 130.908,153.3823 106.868,162.3538 " fill="none" id="Interactable-Lockable" style="stroke: #000000; stroke-width: 0.55; stroke-dasharray: 1.0,3.0;"/><polygon fill="#000000" points="101.8884,164.2119,111.719,164.8117,106.5727,162.4633,108.9211,157.3169,101.8884,164.2119" style="stroke: #000000; stroke-width: 0.55;"/><!--link Interactable to Publishable--><path d="M206.187,133.9446 C201.007,140.9645 194.393,149.928 188.771,157.5468 " fill="none" id="Interactable-Publishable" style="stroke: #000000; stroke-width: 0.55; stroke-dasharray: 1.0,3.0;"/><polygon fill="#000000" points="185.766,161.6202,194.3277,156.7522,188.7342,157.5966,187.8899,152.0031,185.766,161.6202" style="stroke: #000000; stroke-width: 0.55;"/><!--link Interactable to Transformable2D--><path d="M234.095,133.1747 C246.175,140.2446 261.991,149.5003 275.422,157.3608 " fill="none" id="Interactable-Transformable2D" style="stroke: #000000; stroke-width: 0.55; stroke-dasharray: 1.0,3.0;"/><polygon fill="#000000" points="279.877,159.9679,274.1302,151.9695,275.5618,157.4422,270.0891,158.8739,279.877,159.9679" style="stroke: #000000; stroke-width: 0.55;"/><script type="text/plantuml"><![CDATA[
@startuml

scale max 1920 width
top to bottom direction

skinparam nodesep 12
skinparam ranksep 25
skinparam monochrome true
skinparam shadowing false
skinparam defaultFontName Tahoma
skinparam defaultFontSize 12
skinparam roundCorner 4
skinparam dpi 150
skinparam arrowColor black
skinparam arrowThickness 0.55
skinparam packageTitleAlignment left

skinparam usecase {
  borderThickness 0.5
}

skinparam rectangle {
  borderThickness 0.5
}

skinparam component {
  borderThickness 1
}


package "Mixins" {
  (Hittable)
  (Identifiable)
  (Interactable)
  (Lockable)
  (Locker)
  (Publishable)
  (Transformable2D)
}

(Hittable) ~~> (Interactable)
(Interactable) ~~> (Lockable)
(Interactable) ~~> (Publishable)
(Interactable) ~~> (Transformable2D)

@enduml


' View and edit on https://arkit.pro
]]></script></g></svg>