<?xml version="1.0" encoding="UTF-8" standalone="no"?><svg xmlns="http://www.w3.org/2000/svg" xmlns:xlink="http://www.w3.org/1999/xlink" contentScriptType="application/ecmascript" contentStyleType="text/css" height="230px" preserveAspectRatio="none" style="width:480px;height:230px;" version="1.1" viewBox="0 0 480 230" width="480px" zoomAndPan="magnify"><defs/><g><!--cluster Mixins--><path d="M24,36 L67,36 A3,3 0 0 1 69,38 L76,56.4844 L384,56.4844 A2,2 0 0 1 386,58.4844 L386,216 A2,2 0 0 1 384,218 L24,218 A2,2 0 0 1 22,216 L22,38 A2,2 0 0 1 24,36 " fill="#FFFFFF" style="stroke: #000000; stroke-width: 1.5;"/><line style="stroke: #000000; stroke-width: 1.5;" x1="22" x2="76" y1="56.4844" y2="56.4844"/><text fill="#000000" font-family="Tahoma, sans-serif" font-size="12" font-weight="bold" lengthAdjust="spacingAndGlyphs" textLength="41" x="26" y="50.0059">Mixins</text><ellipse cx="151.9056" cy="82.242" fill="#F8F8F8" rx="33.4056" ry="13.242" style="stroke: #383838; stroke-width: 0.5;"/><text fill="#000000" font-family="Tahoma, sans-serif" font-size="12" lengthAdjust="spacingAndGlyphs" textLength="43" x="130.4056" y="85.9842">Hittable</text><ellipse cx="320.7548" cy="82.242" fill="#F8F8F8" rx="48.2548" ry="13.242" style="stroke: #383838; stroke-width: 0.5;"/><text fill="#000000" font-family="Tahoma, sans-serif" font-size="12" lengthAdjust="spacingAndGlyphs" textLength="64" x="288.7548" y="85.9842">Identifiable</text><ellipse cx="219.7904" cy="133.242" fill="#F8F8F8" rx="51.7904" ry="13.242" style="stroke: #383838; stroke-width: 0.5;"/><text fill="#000000" font-family="Tahoma, sans-serif" font-size="12" lengthAdjust="spacingAndGlyphs" textLength="69" x="185.2904" y="136.9842">Interactable</text><ellipse cx="220.0624" cy="186.742" fill="#F8F8F8" rx="39.0624" ry="13.242" style="stroke: #383838; stroke-width: 0.5;"/><text fill="#000000" font-family="Tahoma, sans-serif" font-size="12" lengthAdjust="spacingAndGlyphs" textLength="51" x="194.5624" y="190.4842">Lockable</text><ellipse cx="228.8701" cy="82.242" fill="#F8F8F8" rx="29.8701" ry="13.242" style="stroke: #383838; stroke-width: 0.5;"/><text fill="#000000" font-family="Tahoma, sans-serif" font-size="12" lengthAdjust="spacingAndGlyphs" textLength="38" x="209.8701" y="85.9842">Locker</text><ellipse cx="320.9619" cy="186.742" fill="#F8F8F8" rx="48.9619" ry="13.242" style="stroke: #383838; stroke-width: 0.5;"/><text fill="#000000" font-family="Tahoma, sans-serif" font-size="12" lengthAdjust="spacingAndGlyphs" textLength="65" x="288.4619" y="190.4842">Publishable</text><ellipse cx="102.8309" cy="186.2662" fill="#F8F8F8" rx="64.3309" ry="15.2662" style="stroke: #383838; stroke-width: 0.5;"/><text fill="#000000" font-family="Tahoma, sans-serif" font-size="12" lengthAdjust="spacingAndGlyphs" textLength="99" x="53.3309" y="190.0084">Transformable2D</text><ellipse cx="435.9056" cy="82.242" fill="#F8F8F8" rx="33.4056" ry="13.242" style="stroke: #383838; stroke-width: 0.5;"/><text fill="#000000" font-family="Tahoma, sans-serif" font-size="12" font-weight="bold" lengthAdjust="spacingAndGlyphs" textLength="43" x="414.4056" y="85.9842">mixins</text><!--link Hittable to Interactable--><path d="M167.091,93.875 C176.763,100.844 189.428,109.97 199.942,117.547 " fill="none" id="Hittable-Interactable" style="stroke: #000000; stroke-width: 0.55; stroke-dasharray: 1.0,3.0;"/><polygon fill="#000000" points="204.003,120.473,199.0388,111.9667,199.9461,117.5503,194.3625,118.4577,204.003,120.473" style="stroke: #000000; stroke-width: 0.55;"/><!--link Interactable to Lockable--><path d="M220,146.2048 C220,152.7467 220,160.9193 220,168.1144 " fill="none" id="Interactable-Lockable" style="stroke: #000000; stroke-width: 0.55; stroke-dasharray: 1.0,3.0;"/><polygon fill="#000000" points="220,173.3828,224,164.3828,220,168.3828,216,164.3828,220,173.3828" style="stroke: #000000; stroke-width: 0.55;"/><!--link Interactable to Publishable--><path d="M241.42,144.9218 C257.087,152.9105 278.418,163.7876 295.053,172.2695 " fill="none" id="Interactable-Publishable" style="stroke: #000000; stroke-width: 0.55; stroke-dasharray: 1.0,3.0;"/><polygon fill="#000000" points="299.611,174.5939,293.4104,166.9419,295.1567,172.3225,289.7762,174.0688,299.611,174.5939" style="stroke: #000000; stroke-width: 0.55;"/><!--link Interactable to Transformable2D--><path d="M196.041,144.5461 C179.03,152.0336 155.949,162.1932 137.032,170.52 " fill="none" id="Interactable-Transformable2D" style="stroke: #000000; stroke-width: 0.55; stroke-dasharray: 1.0,3.0;"/><polygon fill="#000000" points="132.319,172.5947,142.1678,172.63,136.8953,170.5804,138.9449,165.3079,132.319,172.5947" style="stroke: #000000; stroke-width: 0.55;"/><!--link <b>mixins</b> to Hittable--><path d="M428.829,69.276 C418.972,53.244 399.57,26.463 374.5,15.5 C356.583,7.665 215.843,6.465 198.5,15.5 C178.912,25.705 165.876,48.352 158.713,64.374 " fill="none" id="&lt;b&gt;mixins&lt;/b&gt;-Hittable" style="stroke: #000000; stroke-width: 1.0;"/><polygon fill="#000000" points="156.678,69.113,163.9046,62.4215,158.6509,64.5187,156.5537,59.2649,156.678,69.113" style="stroke: #000000; stroke-width: 1.0;"/><!--link <b>mixins</b> to Identifiable--><path d="M402.498,82 C393.222,82 383.945,82 374.669,82 " fill="none" id="&lt;b&gt;mixins&lt;/b&gt;-Identifiable" style="stroke: #000000; stroke-width: 1.0;"/><polygon fill="#000000" points="369.516,82,378.516,86,374.516,82,378.516,78,369.516,82" style="stroke: #000000; stroke-width: 1.0;"/><!--link <b>mixins</b> to Interactable--><path d="M408.204,89.306 C371.011,97.743 304.745,112.775 261.594,122.564 " fill="none" id="&lt;b&gt;mixins&lt;/b&gt;-Interactable" style="stroke: #000000; stroke-width: 1.0;"/><polygon fill="#000000" points="256.711,123.672,266.3733,125.5798,261.5869,122.5648,264.6018,117.7784,256.711,123.672" style="stroke: #000000; stroke-width: 1.0;"/><!--link <b>mixins</b> to Lockable--><path d="M422.976,94.25 C406.345,108.119 376.21,131.612 347,146 C313.202,162.6475 301.967,159.7811 266,171 C261.324,172.4587 256.383,174.0078 251.542,175.53 " fill="none" id="&lt;b&gt;mixins&lt;/b&gt;-Lockable" style="stroke: #000000; stroke-width: 1.0;"/><polygon fill="#000000" points="246.748,177.0388,256.5338,178.1516,251.5173,175.5374,254.1315,170.5208,246.748,177.0388" style="stroke: #000000; stroke-width: 1.0;"/><!--link <b>mixins</b> to Locker--><path d="M428.829,69.276 C418.972,53.244 399.57,26.463 374.5,15.5 C353.732,6.419 292.438,4.717 272.5,15.5 C253.585,25.73 241.577,48.156 235.077,64.134 " fill="none" id="&lt;b&gt;mixins&lt;/b&gt;-Locker" style="stroke: #000000; stroke-width: 1.0;"/><polygon fill="#000000" points="233.235,68.865,240.2277,61.9294,235.049,64.2057,232.7728,59.027,233.235,68.865" style="stroke: #000000; stroke-width: 1.0;"/><!--link <b>mixins</b> to Publishable--><path d="M430.742,94.984 C424.227,108.724 412.001,131.245 396,146 C383.461,157.5625 366.904,166.7517 352.536,173.3466 " fill="none" id="&lt;b&gt;mixins&lt;/b&gt;-Publishable" style="stroke: #000000; stroke-width: 1.0;"/><polygon fill="#000000" points="347.757,175.4834,357.6058,175.4631,352.3219,173.4433,354.3416,168.1593,347.757,175.4834" style="stroke: #000000; stroke-width: 1.0;"/><!--link <b>mixins</b> to Transformable2D--><path d="M414.524,92.117 C378.062,107.512 305.435,137.7883 279,146 C256.251,153.0667 198.382,165.6845 155.17,174.7598 " fill="none" id="&lt;b&gt;mixins&lt;/b&gt;-Transformable2D" style="stroke: #000000; stroke-width: 1.0;"/><polygon fill="#000000" points="150.242,175.7927,159.8712,177.8614,155.1357,174.767,158.23,170.0315,150.242,175.7927" style="stroke: #000000; stroke-width: 1.0;"/><script type="text/plantuml"><![CDATA[
@startuml

scale max 1920 width
top to bottom direction

skinparam nodesep 13
skinparam ranksep 25
skinparam monochrome true
skinparam shadowing false
skinparam defaultFontName Tahoma
skinparam defaultFontSize 12
skinparam roundCorner 4
skinparam dpi 150
skinparam arrowColor black
skinparam arrowThickness 0.55
skinparam packageTitleAlignment left

skinparam usecase {
  borderThickness 0.5
}

skinparam rectangle {
  borderThickness 0.5
}

skinparam component {
  borderThickness 1
}


(<b>mixins</b>)




package "Mixins" {
  (Hittable)
  (Identifiable)
  (Interactable)
  (Lockable)
  (Locker)
  (Publishable)
  (Transformable2D)
}



(Hittable) ~~> (Interactable)
(Interactable) ~~> (Lockable)
(Interactable) ~~> (Publishable)
(Interactable) ~~> (Transformable2D)
(<b>mixins</b>) -[thickness=1]> (Hittable)
(<b>mixins</b>) -[thickness=1]> (Identifiable)
(<b>mixins</b>) -[thickness=1]> (Interactable)
(<b>mixins</b>) -[thickness=1]> (Lockable)
(<b>mixins</b>) -[thickness=1]> (Locker)
(<b>mixins</b>) -[thickness=1]> (Publishable)
(<b>mixins</b>) -[thickness=1]> (Transformable2D)

@enduml


' View and edit on https://arkit.herokuapp.com
]]></script></g></svg>