<?xml version="1.0" encoding="UTF-8" standalone="no"?><svg xmlns="http://www.w3.org/2000/svg" xmlns:xlink="http://www.w3.org/1999/xlink" contentScriptType="application/ecmascript" contentStyleType="text/css" height="159px" preserveAspectRatio="none" style="width:194px;height:159px;" version="1.1" viewBox="0 0 194 159" width="194px" zoomAndPan="magnify"><defs/><g><!--cluster Predefined--><path d="M24,24 L96,24 A3,3 0 0 1 98,26 L105,44.4844 L180,44.4844 A2,2 0 0 1 182,46.4844 L182,145 A2,2 0 0 1 180,147 L24,147 A2,2 0 0 1 22,145 L22,26 A2,2 0 0 1 24,24 " fill="#FFFFFF" style="stroke: #000000; stroke-width: 1.5;"/><line style="stroke: #000000; stroke-width: 1.5;" x1="22" x2="105" y1="44.4844" y2="44.4844"/><text fill="#000000" font-family="Tahoma, sans-serif" font-size="12" font-weight="bold" lengthAdjust="spacingAndGlyphs" textLength="70" x="26" y="38.0059">Predefined</text><ellipse cx="64.1274" cy="70.242" fill="#F8F8F8" rx="25.6274" ry="13.242" style="stroke: #383838; stroke-width: 0.5;"/><text fill="#000000" font-family="Tahoma, sans-serif" font-size="12" lengthAdjust="spacingAndGlyphs" textLength="32" x="48.1274" y="73.9842">items</text><ellipse cx="133.1985" cy="70.242" fill="#F8F8F8" rx="32.6985" ry="13.242" style="stroke: #383838; stroke-width: 0.5;"/><text fill="#000000" font-family="Tahoma, sans-serif" font-size="12" lengthAdjust="spacingAndGlyphs" textLength="42" x="112.1985" y="73.9842">layouts</text><ellipse cx="69.9914" cy="118.242" fill="#F8F8F8" rx="31.9914" ry="13.242" style="stroke: #383838; stroke-width: 0.5;"/><text fill="#000000" font-family="Tahoma, sans-serif" font-size="12" lengthAdjust="spacingAndGlyphs" textLength="41" x="49.4914" y="121.9842">utilities</text><!--link items to layouts--><!--link items to utilities--><script type="text/plantuml"><![CDATA[
@startuml

scale max 1920 width
top to bottom direction

skinparam nodesep 11
skinparam ranksep 22
skinparam monochrome true
skinparam shadowing false
skinparam defaultFontName Tahoma
skinparam defaultFontSize 12
skinparam roundCorner 4
skinparam dpi 150
skinparam arrowColor black
skinparam arrowThickness 0.55
skinparam packageTitleAlignment left

skinparam usecase {
  borderThickness 0.5
}

skinparam rectangle {
  borderThickness 0.5
}

skinparam component {
  borderThickness 1
}


package "Predefined" {
  (items)
  (layouts)
  (utilities)
}


@enduml


' View and edit on https://arkit.pro
]]></script></g></svg>