<?xml version="1.0" encoding="UTF-8" standalone="no"?><svg xmlns="http://www.w3.org/2000/svg" xmlns:xlink="http://www.w3.org/1999/xlink" contentScriptType="application/ecmascript" contentStyleType="text/css" height="174px" preserveAspectRatio="none" style="width:299px;height:174px;" version="1.1" viewBox="0 0 299 174" width="299px" zoomAndPan="magnify"><defs/><g><!--cluster Predefined--><path d="M129.5,38 L201.5,38 A3,3 0 0 1 203.5,40 L210.5,58.4844 L285.5,58.4844 A2,2 0 0 1 287.5,60.4844 L287.5,160 A2,2 0 0 1 285.5,162 L129.5,162 A2,2 0 0 1 127.5,160 L127.5,40 A2,2 0 0 1 129.5,38 " fill="#FFFFFF" style="stroke: #000000; stroke-width: 1.5;"/><line style="stroke: #000000; stroke-width: 1.5;" x1="127.5" x2="210.5" y1="58.4844" y2="58.4844"/><text fill="#000000" font-family="Tahoma, sans-serif" font-size="12" font-weight="bold" lengthAdjust="spacingAndGlyphs" textLength="70" x="131.5" y="52.0059">Predefined</text><ellipse cx="245.6274" cy="84.242" fill="#F8F8F8" rx="25.6274" ry="13.242" style="stroke: #383838; stroke-width: 0.5;"/><text fill="#000000" font-family="Tahoma, sans-serif" font-size="12" lengthAdjust="spacingAndGlyphs" textLength="32" x="229.6274" y="87.9842">items</text><ellipse cx="176.6985" cy="84.242" fill="#F8F8F8" rx="32.6985" ry="13.242" style="stroke: #383838; stroke-width: 0.5;"/><text fill="#000000" font-family="Tahoma, sans-serif" font-size="12" lengthAdjust="spacingAndGlyphs" textLength="42" x="155.6985" y="87.9842">layouts</text><ellipse cx="207.4914" cy="133.242" fill="#F8F8F8" rx="31.9914" ry="13.242" style="stroke: #383838; stroke-width: 0.5;"/><text fill="#000000" font-family="Tahoma, sans-serif" font-size="12" lengthAdjust="spacingAndGlyphs" textLength="41" x="186.9914" y="136.9842">utilities</text><ellipse cx="58.4975" cy="84.242" fill="#F8F8F8" rx="52.4975" ry="13.242" style="stroke: #383838; stroke-width: 0.5;"/><text fill="#000000" font-family="Tahoma, sans-serif" font-size="12" font-weight="bold" lengthAdjust="spacingAndGlyphs" textLength="70" x="23.4975" y="87.9842">predefined</text><!--link items to utilities--><path d="M236.301,96.3774 C231.426,102.4069 225.366,109.9026 220.064,116.4604 " fill="none" id="items-utilities" style="stroke: #000000; stroke-width: 0.55; stroke-dasharray: 1.0,3.0;"/><polygon fill="#000000" points="216.878,120.4009,225.6469,115.9168,220.0215,116.5126,219.4256,110.8872,216.878,120.4009" style="stroke: #000000; stroke-width: 0.55;"/><!--link <b>predefined</b> to items--><path d="M69.1369,71.101 C83.1925,55.182 109.63,28.939 139,18.5 C168.314,8.081 182.176,2.74 209,18.5 C226.244,28.631 235.936,50.193 240.93,65.816 " fill="none" id="&lt;b&gt;predefined&lt;/b&gt;-items" style="stroke: #000000; stroke-width: 1.0;"/><polygon fill="#000000" points="242.448,70.862,243.6841,61.091,241.0068,66.0742,236.0236,63.3969,242.448,70.862" style="stroke: #000000; stroke-width: 1.0;"/><!--link <b>predefined</b> to layouts--><path d="M111.047,84 C120.251,84 129.456,84 138.66,84 " fill="none" id="&lt;b&gt;predefined&lt;/b&gt;-layouts" style="stroke: #000000; stroke-width: 1.0;"/><polygon fill="#000000" points="143.773,84,134.773,80,138.773,84,134.773,88,143.773,84" style="stroke: #000000; stroke-width: 1.0;"/><!--link <b>predefined</b> to utilities--><path d="M89.0119,94.6246 C115.193,102.8829 152.665,114.703 178.422,122.8278 " fill="none" id="&lt;b&gt;predefined&lt;/b&gt;-utilities" style="stroke: #000000; stroke-width: 1.0;"/><polygon fill="#000000" points="183.411,124.4013,176.0314,117.8789,178.6426,122.897,173.6246,125.5083,183.411,124.4013" style="stroke: #000000; stroke-width: 1.0;"/><script type="text/plantuml"><![CDATA[
@startuml

scale max 1920 width
top to bottom direction

skinparam nodesep 11
skinparam ranksep 23
skinparam monochrome true
skinparam shadowing false
skinparam defaultFontName Tahoma
skinparam defaultFontSize 12
skinparam roundCorner 4
skinparam dpi 150
skinparam arrowColor black
skinparam arrowThickness 0.55
skinparam packageTitleAlignment left

skinparam usecase {
  borderThickness 0.5
}

skinparam rectangle {
  borderThickness 0.5
}

skinparam component {
  borderThickness 1
}


(<b>predefined</b>)



package "Predefined" {
  (items)
  (layouts)
  (utilities)
}




(items) ~~> (utilities)
(<b>predefined</b>) -[thickness=1]> (items)
(<b>predefined</b>) -[thickness=1]> (layouts)
(<b>predefined</b>) -[thickness=1]> (utilities)

@enduml


' View and edit on https://arkit.herokuapp.com
]]></script></g></svg>