<?xml version="1.0" encoding="UTF-8" standalone="no"?><svg xmlns="http://www.w3.org/2000/svg" xmlns:xlink="http://www.w3.org/1999/xlink" contentScriptType="application/ecmascript" contentStyleType="text/css" height="289px" preserveAspectRatio="none" style="width:692px;height:289px;" version="1.1" viewBox="0 0 692 289" width="692px" zoomAndPan="magnify"><defs/><g><!--cluster Server--><path d="M24,24 L68,24 A3,3 0 0 1 70,26 L77,44.4844 L678,44.4844 A2,2 0 0 1 680,46.4844 L680,275 A2,2 0 0 1 678,277 L24,277 A2,2 0 0 1 22,275 L22,26 A2,2 0 0 1 24,24 " fill="#FFFFFF" style="stroke: #000000; stroke-width: 1.5;"/><line style="stroke: #000000; stroke-width: 1.5;" x1="22" x2="77" y1="44.4844" y2="44.4844"/><text fill="#000000" font-family="Tahoma, sans-serif" font-size="12" font-weight="bold" lengthAdjust="spacingAndGlyphs" textLength="42" x="26" y="38.0059">Server</text><ellipse cx="255.0477" cy="70.242" fill="#F8F8F8" rx="47.5477" ry="13.242" style="stroke: #383838; stroke-width: 0.5;"/><text fill="#000000" font-family="Tahoma, sans-serif" font-size="12" lengthAdjust="spacingAndGlyphs" textLength="63" x="223.5477" y="73.9842">Application</text><ellipse cx="100.0772" cy="245.742" fill="#F8F8F8" rx="30.5772" ry="13.242" style="stroke: #383838; stroke-width: 0.5;"/><text fill="#000000" font-family="Tahoma, sans-serif" font-size="12" lengthAdjust="spacingAndGlyphs" textLength="39" x="80.5772" y="249.4842">Device</text><ellipse cx="224.1408" cy="245.4282" fill="#F8F8F8" rx="65.1408" ry="15.4282" style="stroke: #383838; stroke-width: 0.5;"/><text fill="#000000" font-family="Tahoma, sans-serif" font-size="12" lengthAdjust="spacingAndGlyphs" textLength="101" x="173.6408" y="249.1704">GestureController</text><ellipse cx="100.8315" cy="126.8663" fill="#F8F8F8" rx="62.3315" ry="14.8663" style="stroke: #383838; stroke-width: 0.5;"/><text fill="#000000" font-family="Tahoma, sans-serif" font-size="12" lengthAdjust="spacingAndGlyphs" textLength="94" x="53.8315" y="130.6085">MessageHandler</text><ellipse cx="207.163" cy="127.242" fill="#F8F8F8" rx="29.163" ry="13.242" style="stroke: #383838; stroke-width: 0.5;"/><text fill="#000000" font-family="Tahoma, sans-serif" font-size="12" lengthAdjust="spacingAndGlyphs" textLength="37" x="188.663" y="130.9842">Router</text><ellipse cx="100.0426" cy="186.2085" fill="#F8F8F8" rx="61.5426" ry="14.7085" style="stroke: #383838; stroke-width: 0.5;"/><text fill="#000000" font-family="Tahoma, sans-serif" font-size="12" lengthAdjust="spacingAndGlyphs" textLength="92" x="54.0426" y="189.9507">ServerController</text><ellipse cx="374.2013" cy="185.9403" fill="#F8F8F8" rx="57.7013" ry="13.9403" style="stroke: #383838; stroke-width: 0.5;"/><text fill="#000000" font-family="Tahoma, sans-serif" font-size="12" lengthAdjust="spacingAndGlyphs" textLength="82" x="333.2013" y="189.6824">ServerElement</text><ellipse cx="499.9148" cy="185.783" fill="#F8F8F8" rx="54.4148" ry="13.283" style="stroke: #383838; stroke-width: 0.5;"/><text fill="#000000" font-family="Tahoma, sans-serif" font-size="12" lengthAdjust="spacingAndGlyphs" textLength="73" x="463.4148" y="189.5251">ServerImage</text><ellipse cx="616.0477" cy="186.242" fill="#F8F8F8" rx="47.5477" ry="13.242" style="stroke: #383838; stroke-width: 0.5;"/><text fill="#000000" font-family="Tahoma, sans-serif" font-size="12" lengthAdjust="spacingAndGlyphs" textLength="63" x="584.5477" y="189.9842">ServerItem</text><ellipse cx="349.8406" cy="245.742" fill="#F8F8F8" rx="46.8406" ry="13.242" style="stroke: #383838; stroke-width: 0.5;"/><text fill="#000000" font-family="Tahoma, sans-serif" font-size="12" lengthAdjust="spacingAndGlyphs" textLength="62" x="318.8406" y="249.4842">ServerView</text><ellipse cx="239.0267" cy="186.1053" fill="#F8F8F8" rx="63.5267" ry="15.1053" style="stroke: #383838; stroke-width: 0.5;"/><text fill="#000000" font-family="Tahoma, sans-serif" font-size="12" lengthAdjust="spacingAndGlyphs" textLength="97" x="190.5267" y="189.8475">ServerViewGroup</text><ellipse cx="303.2046" cy="127.242" fill="#F8F8F8" rx="53.2046" ry="13.242" style="stroke: #383838; stroke-width: 0.5;"/><text fill="#000000" font-family="Tahoma, sans-serif" font-size="12" lengthAdjust="spacingAndGlyphs" textLength="71" x="267.7046" y="130.9842">Switchboard</text><ellipse cx="458.9619" cy="127.242" fill="#F8F8F8" rx="48.9619" ry="13.242" style="stroke: #383838; stroke-width: 0.5;"/><text fill="#000000" font-family="Tahoma, sans-serif" font-size="12" lengthAdjust="spacingAndGlyphs" textLength="65" x="426.4619" y="130.9842">WorkSpace</text><!--link Application to MessageHandler--><path d="M227.822,80.706 C203.192,89.503 166.642,102.556 139.099,112.393 " fill="none" id="Application-MessageHandler" style="stroke: #000000; stroke-width: 0.55; stroke-dasharray: 1.0,3.0;"/><polygon fill="#000000" points="134.066,114.191,143.887,114.9313,138.7748,112.5095,141.1966,107.3973,134.066,114.191" style="stroke: #000000; stroke-width: 0.55;"/><!--link Application to Router--><path d="M244.585,82.934 C237.571,90.971 228.249,101.652 220.644,110.366 " fill="none" id="Application-Router" style="stroke: #000000; stroke-width: 0.55; stroke-dasharray: 1.0,3.0;"/><polygon fill="#000000" points="217.066,114.466,225.9981,110.3165,220.3542,110.6993,219.9714,105.0554,217.066,114.466" style="stroke: #000000; stroke-width: 0.55;"/><!--link Application to Switchboard--><path d="M265.415,82.934 C272.334,90.862 281.499,101.364 289.047,110.012 " fill="none" id="Application-Switchboard" style="stroke: #000000; stroke-width: 0.55; stroke-dasharray: 1.0,3.0;"/><polygon fill="#000000" points="292.605,114.089,289.6996,104.6784,289.3168,110.3223,283.6729,109.9395,292.605,114.089" style="stroke: #000000; stroke-width: 0.55;"/><!--link Application to WorkSpace--><path d="M287.324,79.715 C323.774,89.542 382.962,105.5 421.437,115.873 " fill="none" id="Application-WorkSpace" style="stroke: #000000; stroke-width: 0.55; stroke-dasharray: 1.0,3.0;"/><polygon fill="#000000" points="426.49,117.235,418.8415,111.0301,421.6624,115.9334,416.759,118.7543,426.49,117.235" style="stroke: #000000; stroke-width: 0.55;"/><!--link ServerController to Device--><path d="M100,200.6267 C100,208.5473 100,218.6087 100,227.0979 " fill="none" id="ServerController-Device" style="stroke: #000000; stroke-width: 0.55; stroke-dasharray: 1.0,3.0;"/><polygon fill="#000000" points="100,232.1472,104,223.1472,100,227.1472,96,223.1472,100,232.1472" style="stroke: #000000; stroke-width: 0.55;"/><!--link ServerViewGroup to GestureController--><path d="M235.292,201.2135 C233.459,208.239 231.217,216.836 229.214,224.5118 " fill="none" id="ServerViewGroup-GestureController" style="stroke: #000000; stroke-width: 0.55; stroke-dasharray: 1.0,3.0;"/><polygon fill="#000000" points="227.874,229.6479,234.0161,221.9489,229.136,224.8098,226.2752,219.9297,227.874,229.6479" style="stroke: #000000; stroke-width: 0.55;"/><!--link ServerViewGroup to ServerView--><path d="M263.911,199.9041 C282.06,209.3056 306.555,221.9948 324.776,231.4338 " fill="none" id="ServerViewGroup-ServerView" style="stroke: #000000; stroke-width: 0.55; stroke-dasharray: 1.0,3.0;"/><polygon fill="#000000" points="329.266,233.7595,323.1127,226.0695,324.8258,231.4607,319.4346,233.1738,329.266,233.7595" style="stroke: #000000; stroke-width: 0.55;"/><!--link Switchboard to ServerController--><path d="M269.933,137.285 C235.203,147.036 180.467,162.406 142.541,173.055 " fill="none" id="Switchboard-ServerController" style="stroke: #000000; stroke-width: 0.55; stroke-dasharray: 1.0,3.0;"/><polygon fill="#000000" points="137.537,174.46,147.2831,175.8788,142.3509,173.1087,145.121,168.1765,137.537,174.46" style="stroke: #000000; stroke-width: 0.55;"/><!--link Switchboard to ServerViewGroup--><path d="M289.739,139.81 C280.689,147.871 268.551,158.681 258.416,167.708 " fill="none" id="Switchboard-ServerViewGroup" style="stroke: #000000; stroke-width: 0.55; stroke-dasharray: 1.0,3.0;"/><polygon fill="#000000" points="254.498,171.197,263.8799,168.2005,258.2326,167.8724,258.5606,162.2251,254.498,171.197" style="stroke: #000000; stroke-width: 0.55;"/><!--link WorkSpace to ServerElement--><path d="M442.207,139.261 C429.228,147.965 411.127,160.103 396.833,169.689 " fill="none" id="WorkSpace-ServerElement" style="stroke: #000000; stroke-width: 0.55; stroke-dasharray: 1.0,3.0;"/><polygon fill="#000000" points="392.529,172.575,402.2319,170.8855,396.682,169.7906,397.7769,164.2407,392.529,172.575" style="stroke: #000000; stroke-width: 0.55;"/><!--link WorkSpace to ServerImage--><path d="M467.495,139.81 C473.381,147.993 481.305,159.01 487.856,168.117 " fill="none" id="WorkSpace-ServerImage" style="stroke: #000000; stroke-width: 0.55; stroke-dasharray: 1.0,3.0;"/><polygon fill="#000000" points="490.947,172.414,488.9378,162.7723,488.0269,168.3553,482.4439,167.4444,490.947,172.414" style="stroke: #000000; stroke-width: 0.55;"/><!--link WorkSpace to ServerItem--><path d="M486.347,137.929 C513.588,147.818 555.384,162.993 584.116,173.424 " fill="none" id="WorkSpace-ServerItem" style="stroke: #000000; stroke-width: 0.55; stroke-dasharray: 1.0,3.0;"/><polygon fill="#000000" points="588.966,175.185,581.8705,168.3546,584.2659,173.4793,579.1413,175.8747,588.966,175.185" style="stroke: #000000; stroke-width: 0.55;"/><script type="text/plantuml"><![CDATA[
@startuml

scale max 1920 width
top to bottom direction

skinparam nodesep 14
skinparam ranksep 29
skinparam monochrome true
skinparam shadowing false
skinparam defaultFontName Tahoma
skinparam defaultFontSize 12
skinparam roundCorner 4
skinparam dpi 150
skinparam arrowColor black
skinparam arrowThickness 0.55
skinparam packageTitleAlignment left

skinparam usecase {
  borderThickness 0.5
}

skinparam rectangle {
  borderThickness 0.5
}

skinparam component {
  borderThickness 1
}


package "Server" {
  (Application)
  (Device)
  (GestureController)
  (MessageHandler)
  (Router)
  (ServerController)
  (ServerElement)
  (ServerImage)
  (ServerItem)
  (ServerView)
  (ServerViewGroup)
  (Switchboard)
  (WorkSpace)
}

(Application) ~~> (MessageHandler)
(Application) ~~> (Router)
(Application) ~~> (Switchboard)
(Application) ~~> (WorkSpace)
(ServerController) ~~> (Device)
(ServerViewGroup) ~~> (GestureController)
(ServerViewGroup) ~~> (ServerView)
(Switchboard) ~~> (ServerController)
(Switchboard) ~~> (ServerViewGroup)
(WorkSpace) ~~> (ServerElement)
(WorkSpace) ~~> (ServerImage)
(WorkSpace) ~~> (ServerItem)

@enduml


' View and edit on https://arkit.pro
]]></script></g></svg>