<?xml version="1.0" encoding="UTF-8" standalone="no"?><svg xmlns="http://www.w3.org/2000/svg" xmlns:xlink="http://www.w3.org/1999/xlink" contentScriptType="application/ecmascript" contentStyleType="text/css" height="289px" preserveAspectRatio="none" style="width:818px;height:289px;" version="1.1" viewBox="0 0 818 289" width="818px" zoomAndPan="magnify"><defs/><g><!--cluster Server--><path d="M24,24 L68,24 A3,3 0 0 1 70,26 L77,44.4844 L804,44.4844 A2,2 0 0 1 806,46.4844 L806,275 A2,2 0 0 1 804,277 L24,277 A2,2 0 0 1 22,275 L22,26 A2,2 0 0 1 24,24 " fill="#FFFFFF" style="stroke: #000000; stroke-width: 1.5;"/><line style="stroke: #000000; stroke-width: 1.5;" x1="22" x2="77" y1="44.4844" y2="44.4844"/><text fill="#000000" font-family="Tahoma, sans-serif" font-size="12" font-weight="bold" lengthAdjust="spacingAndGlyphs" textLength="42" x="26" y="38.0059">Server</text><ellipse cx="256.0477" cy="70.242" fill="#F8F8F8" rx="47.5477" ry="13.242" style="stroke: #383838; stroke-width: 0.5;"/><text fill="#000000" font-family="Tahoma, sans-serif" font-size="12" lengthAdjust="spacingAndGlyphs" textLength="63" x="224.5477" y="73.9842">Application</text><ellipse cx="100.0772" cy="245.742" fill="#F8F8F8" rx="30.5772" ry="13.242" style="stroke: #383838; stroke-width: 0.5;"/><text fill="#000000" font-family="Tahoma, sans-serif" font-size="12" lengthAdjust="spacingAndGlyphs" textLength="39" x="80.5772" y="249.4842">Device</text><ellipse cx="225.1408" cy="245.4282" fill="#F8F8F8" rx="65.1408" ry="15.4282" style="stroke: #383838; stroke-width: 0.5;"/><text fill="#000000" font-family="Tahoma, sans-serif" font-size="12" lengthAdjust="spacingAndGlyphs" textLength="101" x="174.6408" y="249.1704">GestureController</text><ellipse cx="100.8315" cy="126.8663" fill="#F8F8F8" rx="62.3315" ry="14.8663" style="stroke: #383838; stroke-width: 0.5;"/><text fill="#000000" font-family="Tahoma, sans-serif" font-size="12" lengthAdjust="spacingAndGlyphs" textLength="94" x="53.8315" y="130.6085">MessageHandler</text><ellipse cx="208.163" cy="127.242" fill="#F8F8F8" rx="29.163" ry="13.242" style="stroke: #383838; stroke-width: 0.5;"/><text fill="#000000" font-family="Tahoma, sans-serif" font-size="12" lengthAdjust="spacingAndGlyphs" textLength="37" x="189.663" y="130.9842">Router</text><ellipse cx="100.0426" cy="186.2085" fill="#F8F8F8" rx="61.5426" ry="14.7085" style="stroke: #383838; stroke-width: 0.5;"/><text fill="#000000" font-family="Tahoma, sans-serif" font-size="12" lengthAdjust="spacingAndGlyphs" textLength="92" x="54.0426" y="189.9507">ServerController</text><ellipse cx="376.2013" cy="185.9403" fill="#F8F8F8" rx="57.7013" ry="13.9403" style="stroke: #383838; stroke-width: 0.5;"/><text fill="#000000" font-family="Tahoma, sans-serif" font-size="12" lengthAdjust="spacingAndGlyphs" textLength="82" x="335.2013" y="189.6824">ServerElement</text><ellipse cx="502.2046" cy="186.242" fill="#F8F8F8" rx="53.2046" ry="13.242" style="stroke: #383838; stroke-width: 0.5;"/><text fill="#000000" font-family="Tahoma, sans-serif" font-size="12" lengthAdjust="spacingAndGlyphs" textLength="71" x="466.7046" y="189.9842">ServerGroup</text><ellipse cx="624.9148" cy="185.783" fill="#F8F8F8" rx="54.4148" ry="13.283" style="stroke: #383838; stroke-width: 0.5;"/><text fill="#000000" font-family="Tahoma, sans-serif" font-size="12" lengthAdjust="spacingAndGlyphs" textLength="73" x="588.4148" y="189.5251">ServerImage</text><ellipse cx="742.0477" cy="186.242" fill="#F8F8F8" rx="47.5477" ry="13.242" style="stroke: #383838; stroke-width: 0.5;"/><text fill="#000000" font-family="Tahoma, sans-serif" font-size="12" lengthAdjust="spacingAndGlyphs" textLength="63" x="710.5477" y="189.9842">ServerItem</text><ellipse cx="351.8406" cy="245.742" fill="#F8F8F8" rx="46.8406" ry="13.242" style="stroke: #383838; stroke-width: 0.5;"/><text fill="#000000" font-family="Tahoma, sans-serif" font-size="12" lengthAdjust="spacingAndGlyphs" textLength="62" x="320.8406" y="249.4842">ServerView</text><ellipse cx="240.0267" cy="186.1053" fill="#F8F8F8" rx="63.5267" ry="15.1053" style="stroke: #383838; stroke-width: 0.5;"/><text fill="#000000" font-family="Tahoma, sans-serif" font-size="12" lengthAdjust="spacingAndGlyphs" textLength="97" x="191.5267" y="189.8475">ServerViewGroup</text><ellipse cx="305.2046" cy="127.242" fill="#F8F8F8" rx="53.2046" ry="13.242" style="stroke: #383838; stroke-width: 0.5;"/><text fill="#000000" font-family="Tahoma, sans-serif" font-size="12" lengthAdjust="spacingAndGlyphs" textLength="71" x="269.7046" y="130.9842">Switchboard</text><ellipse cx="501.9619" cy="127.242" fill="#F8F8F8" rx="48.9619" ry="13.242" style="stroke: #383838; stroke-width: 0.5;"/><text fill="#000000" font-family="Tahoma, sans-serif" font-size="12" lengthAdjust="spacingAndGlyphs" textLength="65" x="469.4619" y="130.9842">WorkSpace</text><!--link Application to MessageHandler--><path d="M228.646,80.706 C203.753,89.539 166.763,102.665 139.002,112.516 " fill="none" id="Application-MessageHandler" style="stroke: #000000; stroke-width: 0.55; stroke-dasharray: 1.0,3.0;"/><polygon fill="#000000" points="134.28,114.191,144.0996,114.95,138.992,112.5185,141.4235,107.4109,134.28,114.191" style="stroke: #000000; stroke-width: 0.55;"/><!--link Application to Router--><path d="M245.585,82.934 C238.571,90.971 229.249,101.652 221.644,110.366 " fill="none" id="Application-Router" style="stroke: #000000; stroke-width: 0.55; stroke-dasharray: 1.0,3.0;"/><polygon fill="#000000" points="218.066,114.466,226.9981,110.3165,221.3542,110.6993,220.9714,105.0554,218.066,114.466" style="stroke: #000000; stroke-width: 0.55;"/><!--link Application to Switchboard--><path d="M266.632,82.934 C273.695,90.862 283.051,101.364 290.756,110.012 " fill="none" id="Application-Switchboard" style="stroke: #000000; stroke-width: 0.55; stroke-dasharray: 1.0,3.0;"/><polygon fill="#000000" points="294.388,114.089,291.3877,104.7083,291.0619,110.3557,285.4145,110.03,294.388,114.089" style="stroke: #000000; stroke-width: 0.55;"/><!--link Application to WorkSpace--><path d="M290.985,78.822 C335.907,88.865 413.724,106.263 461.265,116.893 " fill="none" id="Application-WorkSpace" style="stroke: #000000; stroke-width: 0.55; stroke-dasharray: 1.0,3.0;"/><polygon fill="#000000" points="466.338,118.027,458.428,112.1591,461.4585,116.9357,456.6819,119.9662,466.338,118.027" style="stroke: #000000; stroke-width: 0.55;"/><!--link ServerController to Device--><path d="M100,200.6267 C100,208.5473 100,218.6087 100,227.0979 " fill="none" id="ServerController-Device" style="stroke: #000000; stroke-width: 0.55; stroke-dasharray: 1.0,3.0;"/><polygon fill="#000000" points="100,232.1472,104,223.1472,100,227.1472,96,223.1472,100,232.1472" style="stroke: #000000; stroke-width: 0.55;"/><!--link ServerViewGroup to GestureController--><path d="M236.292,201.2135 C234.459,208.239 232.217,216.836 230.214,224.5118 " fill="none" id="ServerViewGroup-GestureController" style="stroke: #000000; stroke-width: 0.55; stroke-dasharray: 1.0,3.0;"/><polygon fill="#000000" points="228.874,229.6479,235.0161,221.9489,230.136,224.8098,227.2752,219.9297,228.874,229.6479" style="stroke: #000000; stroke-width: 0.55;"/><!--link ServerViewGroup to ServerView--><path d="M265.135,199.9041 C283.447,209.3056 308.164,221.9948 326.549,231.4338 " fill="none" id="ServerViewGroup-ServerView" style="stroke: #000000; stroke-width: 0.55; stroke-dasharray: 1.0,3.0;"/><polygon fill="#000000" points="331.079,233.7595,324.9003,226.0899,326.6312,231.4754,321.2457,233.2063,331.079,233.7595" style="stroke: #000000; stroke-width: 0.55;"/><!--link Switchboard to ServerController--><path d="M271.607,137.285 C236.535,147.036 181.259,162.406 142.96,173.055 " fill="none" id="Switchboard-ServerController" style="stroke: #000000; stroke-width: 0.55; stroke-dasharray: 1.0,3.0;"/><polygon fill="#000000" points="137.907,174.46,147.6494,175.9044,142.7245,173.1213,145.5075,168.1964,137.907,174.46" style="stroke: #000000; stroke-width: 0.55;"/><!--link Switchboard to ServerViewGroup--><path d="M291.532,139.81 C282.34,147.871 270.012,158.681 259.719,167.708 " fill="none" id="Switchboard-ServerViewGroup" style="stroke: #000000; stroke-width: 0.55; stroke-dasharray: 1.0,3.0;"/><polygon fill="#000000" points="255.74,171.197,265.1435,168.2689,259.4987,167.8997,259.8679,162.2549,255.74,171.197" style="stroke: #000000; stroke-width: 0.55;"/><!--link WorkSpace to ServerElement--><path d="M478.596,138.588 C458.264,147.785 428.68,161.168 406.499,171.203 " fill="none" id="WorkSpace-ServerElement" style="stroke: #000000; stroke-width: 0.55; stroke-dasharray: 1.0,3.0;"/><polygon fill="#000000" points="401.884,173.29,411.7326,173.224,406.4393,171.2287,408.4346,165.9354,401.884,173.29" style="stroke: #000000; stroke-width: 0.55;"/><!--link WorkSpace to ServerGroup--><path d="M502,140.088 C502,148.174 502,158.934 502,167.895 " fill="none" id="WorkSpace-ServerGroup" style="stroke: #000000; stroke-width: 0.55; stroke-dasharray: 1.0,3.0;"/><polygon fill="#000000" points="502,172.929,506,163.929,502,167.929,498,163.929,502,172.929" style="stroke: #000000; stroke-width: 0.55;"/><!--link WorkSpace to ServerImage--><path d="M524.847,138.588 C544.87,147.866 574.085,161.405 595.799,171.468 " fill="none" id="WorkSpace-ServerImage" style="stroke: #000000; stroke-width: 0.55; stroke-dasharray: 1.0,3.0;"/><polygon fill="#000000" points="600.59,173.688,594.1045,166.276,596.053,171.5866,590.7423,173.5351,600.59,173.688" style="stroke: #000000; stroke-width: 0.55;"/><!--link WorkSpace to ServerItem--><path d="M537.518,136.024 C574.801,144.501 635.098,158.364 687,171 C692.497,172.338 698.296,173.781 703.983,175.213 " fill="none" id="WorkSpace-ServerItem" style="stroke: #000000; stroke-width: 0.55; stroke-dasharray: 1.0,3.0;"/><polygon fill="#000000" points="709.164,176.522,701.4188,170.4382,704.3165,175.2966,699.4581,178.1942,709.164,176.522" style="stroke: #000000; stroke-width: 0.55;"/><script type="text/plantuml"><![CDATA[
@startuml

scale max 1920 width
top to bottom direction

skinparam nodesep 15
skinparam ranksep 29
skinparam monochrome true
skinparam shadowing false
skinparam defaultFontName Tahoma
skinparam defaultFontSize 12
skinparam roundCorner 4
skinparam dpi 150
skinparam arrowColor black
skinparam arrowThickness 0.55
skinparam packageTitleAlignment left

skinparam usecase {
  borderThickness 0.5
}

skinparam rectangle {
  borderThickness 0.5
}

skinparam component {
  borderThickness 1
}


package "Server" {
  (Application)
  (Device)
  (GestureController)
  (MessageHandler)
  (Router)
  (ServerController)
  (ServerElement)
  (ServerGroup)
  (ServerImage)
  (ServerItem)
  (ServerView)
  (ServerViewGroup)
  (Switchboard)
  (WorkSpace)
}

(Application) ~~> (MessageHandler)
(Application) ~~> (Router)
(Application) ~~> (Switchboard)
(Application) ~~> (WorkSpace)
(ServerController) ~~> (Device)
(ServerViewGroup) ~~> (GestureController)
(ServerViewGroup) ~~> (ServerView)
(Switchboard) ~~> (ServerController)
(Switchboard) ~~> (ServerViewGroup)
(WorkSpace) ~~> (ServerElement)
(WorkSpace) ~~> (ServerGroup)
(WorkSpace) ~~> (ServerImage)
(WorkSpace) ~~> (ServerItem)

@enduml


' View and edit on https://arkit.pro
]]></script></g></svg>