<?xml version="1.0" encoding="UTF-8" standalone="no"?><svg xmlns="http://www.w3.org/2000/svg" xmlns:xlink="http://www.w3.org/1999/xlink" contentScriptType="application/ecmascript" contentStyleType="text/css" height="267px" preserveAspectRatio="none" style="width:356px;height:267px;" version="1.1" viewBox="0 0 356 267" width="356px" zoomAndPan="magnify"><defs/><g><!--cluster Shared--><path d="M24,24 L72,24 A3,3 0 0 1 74,26 L81,44.4844 L342,44.4844 A2,2 0 0 1 344,46.4844 L344,253 A2,2 0 0 1 342,255 L24,255 A2,2 0 0 1 22,253 L22,26 A2,2 0 0 1 24,24 " fill="#FFFFFF" style="stroke: #000000; stroke-width: 1.5;"/><line style="stroke: #000000; stroke-width: 1.5;" x1="22" x2="81" y1="44.4844" y2="44.4844"/><text fill="#000000" font-family="Tahoma, sans-serif" font-size="12" font-weight="bold" lengthAdjust="spacingAndGlyphs" textLength="46" x="26" y="38.0059">Shared</text><ellipse cx="98.9264" cy="175.242" fill="#F8F8F8" rx="45.4264" ry="13.242" style="stroke: #383838; stroke-width: 0.5;"/><text fill="#000000" font-family="Tahoma, sans-serif" font-size="12" lengthAdjust="spacingAndGlyphs" textLength="60" x="68.9264" y="178.9842">IdStamper</text><ellipse cx="197.0624" cy="175.242" fill="#F8F8F8" rx="39.0624" ry="13.242" style="stroke: #383838; stroke-width: 0.5;"/><text fill="#000000" font-family="Tahoma, sans-serif" font-size="12" lengthAdjust="spacingAndGlyphs" textLength="51" x="171.5624" y="178.9842">Message</text><ellipse cx="280.8198" cy="122.742" fill="#F8F8F8" rx="34.8198" ry="13.242" style="stroke: #383838; stroke-width: 0.5;"/><text fill="#000000" font-family="Tahoma, sans-serif" font-size="12" lengthAdjust="spacingAndGlyphs" textLength="45" x="258.3198" y="126.4842">Point2D</text><ellipse cx="280.8406" cy="70.242" fill="#F8F8F8" rx="46.8406" ry="13.242" style="stroke: #383838; stroke-width: 0.5;"/><text fill="#000000" font-family="Tahoma, sans-serif" font-size="12" lengthAdjust="spacingAndGlyphs" textLength="62" x="249.8406" y="73.9842">Polygon2D</text><ellipse cx="178.098" cy="70.242" fill="#F8F8F8" rx="42.598" ry="13.242" style="stroke: #383838; stroke-width: 0.5;"/><text fill="#000000" font-family="Tahoma, sans-serif" font-size="12" lengthAdjust="spacingAndGlyphs" textLength="56" x="150.098" y="73.9842">Rectangle</text><ellipse cx="98.7601" cy="122.552" fill="#F8F8F8" rx="60.7601" ry="14.552" style="stroke: #383838; stroke-width: 0.5;"/><text fill="#000000" font-family="Tahoma, sans-serif" font-size="12" lengthAdjust="spacingAndGlyphs" textLength="90" x="53.7601" y="126.2942">ReporterFactory</text><ellipse cx="79.8909" cy="70.242" fill="#F8F8F8" rx="41.8909" ry="13.242" style="stroke: #383838; stroke-width: 0.5;"/><text fill="#000000" font-family="Tahoma, sans-serif" font-size="12" lengthAdjust="spacingAndGlyphs" textLength="55" x="52.3909" y="73.9842">Reporters</text><ellipse cx="147.9914" cy="226.242" fill="#F8F8F8" rx="31.9914" ry="13.242" style="stroke: #383838; stroke-width: 0.5;"/><text fill="#000000" font-family="Tahoma, sans-serif" font-size="12" lengthAdjust="spacingAndGlyphs" textLength="41" x="127.4914" y="229.9842">utilities</text><!--link IdStamper to utilities--><path d="M110.612,187.6123 C117.298,194.2984 125.775,202.7745 132.965,209.9653 " fill="none" id="IdStamper-utilities" style="stroke: #000000; stroke-width: 0.55; stroke-dasharray: 1.0,3.0;"/><polygon fill="#000000" points="136.808,213.8083,133.2727,204.6158,133.2725,210.2727,127.6157,210.2726,136.808,213.8083" style="stroke: #000000; stroke-width: 0.55;"/><!--link Message to utilities--><path d="M185.388,187.6123 C178.702,194.2984 170.225,202.7745 163.035,209.9653 " fill="none" id="Message-utilities" style="stroke: #000000; stroke-width: 0.55; stroke-dasharray: 1.0,3.0;"/><polygon fill="#000000" points="159.192,213.8083,168.3843,210.2726,162.7275,210.2727,162.7273,204.6158,159.192,213.8083" style="stroke: #000000; stroke-width: 0.55;"/><!--link Polygon2D to Point2D--><path d="M281,83.225 C281,89.552 281,97.381 281,104.307 " fill="none" id="Polygon2D-Point2D" style="stroke: #000000; stroke-width: 0.55; stroke-dasharray: 1.0,3.0;"/><polygon fill="#000000" points="281,109.388,285,100.388,281,104.388,277,100.388,281,109.388" style="stroke: #000000; stroke-width: 0.55;"/><!--link ReporterFactory to IdStamper--><path d="M99,137.033 C99,143.059 99,150.229 99,156.643 " fill="none" id="ReporterFactory-IdStamper" style="stroke: #000000; stroke-width: 0.55; stroke-dasharray: 1.0,3.0;"/><polygon fill="#000000" points="99,161.812,103,152.812,99,156.812,95,152.812,99,161.812" style="stroke: #000000; stroke-width: 0.55;"/><!--link Reporters to ReporterFactory--><path d="M84.5027,82.968 C86.7414,88.918 89.4976,96.244 92.0035,102.904 " fill="none" id="Reporters-ReporterFactory" style="stroke: #000000; stroke-width: 0.55; stroke-dasharray: 1.0,3.0;"/><polygon fill="#000000" points="93.8583,107.834,94.4341,98.002,92.0982,103.154,86.9462,100.8181,93.8583,107.834" style="stroke: #000000; stroke-width: 0.55;"/><script type="text/plantuml"><![CDATA[
@startuml

scale max 1920 width
top to bottom direction

skinparam nodesep 13
skinparam ranksep 25
skinparam monochrome true
skinparam shadowing false
skinparam defaultFontName Tahoma
skinparam defaultFontSize 12
skinparam roundCorner 4
skinparam dpi 150
skinparam arrowColor black
skinparam arrowThickness 0.55
skinparam packageTitleAlignment left

skinparam usecase {
  borderThickness 0.5
}

skinparam rectangle {
  borderThickness 0.5
}

skinparam component {
  borderThickness 1
}


package "Shared" {
  (IdStamper)
  (Message)
  (Point2D)
  (Polygon2D)
  (Rectangle)
  (ReporterFactory)
  (Reporters)
  (utilities)
}

(IdStamper) ~~> (utilities)
(Message) ~~> (utilities)
(Polygon2D) ~~> (Point2D)
(ReporterFactory) ~~> (IdStamper)
(Reporters) ~~> (ReporterFactory)

@enduml


' View and edit on https://arkit.pro
]]></script></g></svg>