<?xml version="1.0" encoding="UTF-8" standalone="no"?><svg xmlns="http://www.w3.org/2000/svg" xmlns:xlink="http://www.w3.org/1999/xlink" contentScriptType="application/ecmascript" contentStyleType="text/css" height="267px" preserveAspectRatio="none" style="width:270px;height:267px;" version="1.1" viewBox="0 0 270 267" width="270px" zoomAndPan="magnify"><defs/><g><!--cluster Shared--><path d="M24,24 L72,24 A3,3 0 0 1 74,26 L81,44.4844 L256,44.4844 A2,2 0 0 1 258,46.4844 L258,253 A2,2 0 0 1 256,255 L24,255 A2,2 0 0 1 22,253 L22,26 A2,2 0 0 1 24,24 " fill="#FFFFFF" style="stroke: #000000; stroke-width: 1.5;"/><line style="stroke: #000000; stroke-width: 1.5;" x1="22" x2="81" y1="44.4844" y2="44.4844"/><text fill="#000000" font-family="Tahoma, sans-serif" font-size="12" font-weight="bold" lengthAdjust="spacingAndGlyphs" textLength="46" x="26" y="38.0059">Shared</text><ellipse cx="98.9264" cy="175.242" fill="#F8F8F8" rx="45.4264" ry="13.242" style="stroke: #383838; stroke-width: 0.5;"/><text fill="#000000" font-family="Tahoma, sans-serif" font-size="12" lengthAdjust="spacingAndGlyphs" textLength="60" x="68.9264" y="178.9842">IdStamper</text><ellipse cx="196.0624" cy="175.242" fill="#F8F8F8" rx="39.0624" ry="13.242" style="stroke: #383838; stroke-width: 0.5;"/><text fill="#000000" font-family="Tahoma, sans-serif" font-size="12" lengthAdjust="spacingAndGlyphs" textLength="51" x="170.5624" y="178.9842">Message</text><ellipse cx="206.8198" cy="122.742" fill="#F8F8F8" rx="34.8198" ry="13.242" style="stroke: #383838; stroke-width: 0.5;"/><text fill="#000000" font-family="Tahoma, sans-serif" font-size="12" lengthAdjust="spacingAndGlyphs" textLength="45" x="184.3198" y="126.4842">Point2D</text><ellipse cx="194.8406" cy="70.242" fill="#F8F8F8" rx="46.8406" ry="13.242" style="stroke: #383838; stroke-width: 0.5;"/><text fill="#000000" font-family="Tahoma, sans-serif" font-size="12" lengthAdjust="spacingAndGlyphs" textLength="62" x="163.8406" y="73.9842">Polygon2D</text><ellipse cx="98.7601" cy="122.552" fill="#F8F8F8" rx="60.7601" ry="14.552" style="stroke: #383838; stroke-width: 0.5;"/><text fill="#000000" font-family="Tahoma, sans-serif" font-size="12" lengthAdjust="spacingAndGlyphs" textLength="90" x="53.7601" y="126.2942">ReporterFactory</text><ellipse cx="93.8909" cy="70.242" fill="#F8F8F8" rx="41.8909" ry="13.242" style="stroke: #383838; stroke-width: 0.5;"/><text fill="#000000" font-family="Tahoma, sans-serif" font-size="12" lengthAdjust="spacingAndGlyphs" textLength="55" x="66.3909" y="73.9842">Reporters</text><ellipse cx="146.9914" cy="226.242" fill="#F8F8F8" rx="31.9914" ry="13.242" style="stroke: #383838; stroke-width: 0.5;"/><text fill="#000000" font-family="Tahoma, sans-serif" font-size="12" lengthAdjust="spacingAndGlyphs" textLength="41" x="126.4914" y="229.9842">utilities</text><!--link IdStamper to utilities--><path d="M110.375,187.6123 C116.831,194.2028 124.991,202.5327 131.969,209.6563 " fill="none" id="IdStamper-utilities" style="stroke: #000000; stroke-width: 0.55; stroke-dasharray: 1.0,3.0;"/><polygon fill="#000000" points="135.706,213.471,132.2668,204.2421,132.2077,209.8987,126.5511,209.8395,135.706,213.471" style="stroke: #000000; stroke-width: 0.55;"/><!--link Message to utilities--><path d="M184.388,187.6123 C177.702,194.2984 169.225,202.7745 162.035,209.9653 " fill="none" id="Message-utilities" style="stroke: #000000; stroke-width: 0.55; stroke-dasharray: 1.0,3.0;"/><polygon fill="#000000" points="158.192,213.8083,167.3843,210.2726,161.7275,210.2727,161.7273,204.6158,158.192,213.8083" style="stroke: #000000; stroke-width: 0.55;"/><!--link Polygon2D to Point2D--><path d="M197.905,83.225 C199.408,89.552 201.269,97.381 202.915,104.307 " fill="none" id="Polygon2D-Point2D" style="stroke: #000000; stroke-width: 0.55; stroke-dasharray: 1.0,3.0;"/><polygon fill="#000000" points="204.122,109.388,205.9333,99.7071,202.9662,104.5234,198.1499,101.5564,204.122,109.388" style="stroke: #000000; stroke-width: 0.55;"/><!--link ReporterFactory to IdStamper--><path d="M99,137.033 C99,143.059 99,150.229 99,156.643 " fill="none" id="ReporterFactory-IdStamper" style="stroke: #000000; stroke-width: 0.55; stroke-dasharray: 1.0,3.0;"/><polygon fill="#000000" points="99,161.812,103,152.812,99,156.812,95,152.812,99,161.812" style="stroke: #000000; stroke-width: 0.55;"/><!--link Reporters to ReporterFactory--><path d="M95.2104,83.225 C95.7884,89.063 96.4931,96.18 97.1373,102.687 " fill="none" id="Reporters-ReporterFactory" style="stroke: #000000; stroke-width: 0.55; stroke-dasharray: 1.0,3.0;"/><polygon fill="#000000" points="97.6601,107.967,100.7535,98.6165,97.1672,102.9913,92.7924,99.4051,97.6601,107.967" style="stroke: #000000; stroke-width: 0.55;"/><script type="text/plantuml"><![CDATA[
@startuml

scale max 1920 width
top to bottom direction

skinparam nodesep 12
skinparam ranksep 25
skinparam monochrome true
skinparam shadowing false
skinparam defaultFontName Tahoma
skinparam defaultFontSize 12
skinparam roundCorner 4
skinparam dpi 150
skinparam arrowColor black
skinparam arrowThickness 0.55
skinparam packageTitleAlignment left

skinparam usecase {
  borderThickness 0.5
}

skinparam rectangle {
  borderThickness 0.5
}

skinparam component {
  borderThickness 1
}


package "Shared" {
  (IdStamper)
  (Message)
  (Point2D)
  (Polygon2D)
  (ReporterFactory)
  (Reporters)
  (utilities)
}

(IdStamper) ~~> (utilities)
(Message) ~~> (utilities)
(Polygon2D) ~~> (Point2D)
(ReporterFactory) ~~> (IdStamper)
(Reporters) ~~> (ReporterFactory)

@enduml


' View and edit on https://arkit.herokuapp.com
]]></script></g></svg>